G04 #@! TF.GenerationSoftware,KiCad,Pcbnew,5.0.2-bee76a0~70~ubuntu18.04.1*
G04 #@! TF.CreationDate,2019-03-24T18:51:09+10:00*
G04 #@! TF.ProjectId,esp32_rs232_adapter,65737033-325f-4727-9332-33325f616461,rev?*
G04 #@! TF.SameCoordinates,Original*
G04 #@! TF.FileFunction,Legend,Top*
G04 #@! TF.FilePolarity,Positive*
%FSLAX46Y46*%
G04 Gerber Fmt 4.6, Leading zero omitted, Abs format (unit mm)*
G04 Created by KiCad (PCBNEW 5.0.2-bee76a0~70~ubuntu18.04.1) date Sun 24 Mar 2019 18:51:09 AEST*
%MOMM*%
%LPD*%
G01*
G04 APERTURE LIST*
%ADD10C,0.200000*%
%ADD11C,0.120000*%
%ADD12C,0.150000*%
G04 APERTURE END LIST*
D10*
X151409904Y-111867904D02*
X151143238Y-111486952D01*
X150952761Y-111867904D02*
X150952761Y-111067904D01*
X151257523Y-111067904D01*
X151333714Y-111106000D01*
X151371809Y-111144095D01*
X151409904Y-111220285D01*
X151409904Y-111334571D01*
X151371809Y-111410761D01*
X151333714Y-111448857D01*
X151257523Y-111486952D01*
X150952761Y-111486952D01*
X151676571Y-111867904D02*
X152095619Y-111334571D01*
X151676571Y-111334571D02*
X152095619Y-111867904D01*
X152895619Y-111067904D02*
X153352761Y-111067904D01*
X153124190Y-111867904D02*
X153124190Y-111067904D01*
X153543238Y-111867904D02*
X153962285Y-111334571D01*
X153543238Y-111334571D02*
X153962285Y-111867904D01*
X154800380Y-111067904D02*
X155295619Y-111067904D01*
X155028952Y-111372666D01*
X155143238Y-111372666D01*
X155219428Y-111410761D01*
X155257523Y-111448857D01*
X155295619Y-111525047D01*
X155295619Y-111715523D01*
X155257523Y-111791714D01*
X155219428Y-111829809D01*
X155143238Y-111867904D01*
X154914666Y-111867904D01*
X154838476Y-111829809D01*
X154800380Y-111791714D01*
X155638476Y-111791714D02*
X155676571Y-111829809D01*
X155638476Y-111867904D01*
X155600380Y-111829809D01*
X155638476Y-111791714D01*
X155638476Y-111867904D01*
X155943238Y-111067904D02*
X156438476Y-111067904D01*
X156171809Y-111372666D01*
X156286095Y-111372666D01*
X156362285Y-111410761D01*
X156400380Y-111448857D01*
X156438476Y-111525047D01*
X156438476Y-111715523D01*
X156400380Y-111791714D01*
X156362285Y-111829809D01*
X156286095Y-111867904D01*
X156057523Y-111867904D01*
X155981333Y-111829809D01*
X155943238Y-111791714D01*
X156667047Y-111067904D02*
X156933714Y-111867904D01*
X157200380Y-111067904D01*
X158495619Y-111106000D02*
X158419428Y-111067904D01*
X158305142Y-111067904D01*
X158190857Y-111106000D01*
X158114666Y-111182190D01*
X158076571Y-111258380D01*
X158038476Y-111410761D01*
X158038476Y-111525047D01*
X158076571Y-111677428D01*
X158114666Y-111753619D01*
X158190857Y-111829809D01*
X158305142Y-111867904D01*
X158381333Y-111867904D01*
X158495619Y-111829809D01*
X158533714Y-111791714D01*
X158533714Y-111525047D01*
X158381333Y-111525047D01*
X158876571Y-111334571D02*
X158876571Y-111867904D01*
X158876571Y-111410761D02*
X158914666Y-111372666D01*
X158990857Y-111334571D01*
X159105142Y-111334571D01*
X159181333Y-111372666D01*
X159219428Y-111448857D01*
X159219428Y-111867904D01*
X159943238Y-111867904D02*
X159943238Y-111067904D01*
X159943238Y-111829809D02*
X159867047Y-111867904D01*
X159714666Y-111867904D01*
X159638476Y-111829809D01*
X159600380Y-111791714D01*
X159562285Y-111715523D01*
X159562285Y-111486952D01*
X159600380Y-111410761D01*
X159638476Y-111372666D01*
X159714666Y-111334571D01*
X159867047Y-111334571D01*
X159943238Y-111372666D01*
D11*
G04 #@! TO.C,F1*
X170971936Y-111993000D02*
X172176064Y-111993000D01*
X170971936Y-113813000D02*
X172176064Y-113813000D01*
G04 #@! TO.C,C7*
X168327000Y-123898922D02*
X168327000Y-124416078D01*
X169747000Y-123898922D02*
X169747000Y-124416078D01*
G04 #@! TO.C,C8*
X167588000Y-115516922D02*
X167588000Y-116034078D01*
X166168000Y-115516922D02*
X166168000Y-116034078D01*
G04 #@! TO.C,D3*
X140143500Y-97592000D02*
X137458500Y-97592000D01*
X137458500Y-97592000D02*
X137458500Y-99512000D01*
X137458500Y-99512000D02*
X140143500Y-99512000D01*
G04 #@! TO.C,D4*
X167965000Y-93173500D02*
X167965000Y-90488500D01*
X166045000Y-93173500D02*
X167965000Y-93173500D01*
X166045000Y-90488500D02*
X166045000Y-93173500D01*
G04 #@! TO.C,J1*
X160080000Y-110423000D02*
X160080000Y-107763000D01*
X152400000Y-110423000D02*
X160080000Y-110423000D01*
X152400000Y-107763000D02*
X160080000Y-107763000D01*
X152400000Y-110423000D02*
X152400000Y-107763000D01*
X151130000Y-110423000D02*
X149800000Y-110423000D01*
X149800000Y-110423000D02*
X149800000Y-109093000D01*
G04 #@! TO.C,J4*
X173878500Y-104992000D02*
X173878500Y-104542000D01*
X175728500Y-104992000D02*
X173878500Y-104992000D01*
X178278500Y-97192000D02*
X178028500Y-97192000D01*
X178278500Y-104992000D02*
X178028500Y-104992000D01*
X175728500Y-97192000D02*
X173878500Y-97192000D01*
X173878500Y-97192000D02*
X173878500Y-97642000D01*
X173328500Y-102792000D02*
X173328500Y-102342000D01*
X173328500Y-102792000D02*
X173778500Y-102792000D01*
G04 #@! TO.C,R6*
X170486000Y-123898922D02*
X170486000Y-124416078D01*
X171906000Y-123898922D02*
X171906000Y-124416078D01*
G04 #@! TO.C,R7*
X175716000Y-120449078D02*
X175716000Y-119931922D01*
X174296000Y-120449078D02*
X174296000Y-119931922D01*
G04 #@! TO.C,R8*
X176455000Y-120449078D02*
X176455000Y-119931922D01*
X177875000Y-120449078D02*
X177875000Y-119931922D01*
G04 #@! TO.C,R9*
X167588000Y-120820922D02*
X167588000Y-121338078D01*
X166168000Y-120820922D02*
X166168000Y-121338078D01*
G04 #@! TO.C,R10*
X167588000Y-112478078D02*
X167588000Y-111960922D01*
X166168000Y-112478078D02*
X166168000Y-111960922D01*
G04 #@! TO.C,R11*
X166168000Y-108922078D02*
X166168000Y-108404922D01*
X167588000Y-108922078D02*
X167588000Y-108404922D01*
G04 #@! TO.C,R12*
X143055078Y-97842000D02*
X142537922Y-97842000D01*
X143055078Y-99262000D02*
X142537922Y-99262000D01*
G04 #@! TO.C,R13*
X166570922Y-89102000D02*
X167088078Y-89102000D01*
X166570922Y-87682000D02*
X167088078Y-87682000D01*
G04 #@! TO.C,Flash*
X142596000Y-110388000D02*
X142596000Y-110638000D01*
X142596000Y-110638000D02*
X136296000Y-110638000D01*
X136296000Y-110638000D02*
X136296000Y-110388000D01*
X142596000Y-105888000D02*
X142596000Y-108488000D01*
X136296000Y-103988000D02*
X136296000Y-103738000D01*
X136296000Y-103738000D02*
X142596000Y-103738000D01*
X142596000Y-103738000D02*
X142596000Y-103988000D01*
X136296000Y-108488000D02*
X136296000Y-105888000D01*
G04 #@! TO.C,U1*
X145820000Y-104350000D02*
X145820000Y-105130000D01*
X145820000Y-105130000D02*
X146820000Y-105130000D01*
X164060000Y-104350000D02*
X164060000Y-105130000D01*
X164060000Y-105130000D02*
X163060000Y-105130000D01*
X145820000Y-79385000D02*
X164060000Y-79385000D01*
X164060000Y-79385000D02*
X164060000Y-85805000D01*
X145820000Y-79385000D02*
X145820000Y-85805000D01*
X145820000Y-85805000D02*
X145440000Y-85805000D01*
G04 #@! TO.C,U3*
X173450000Y-118491000D02*
X173450000Y-116541000D01*
X173450000Y-118491000D02*
X173450000Y-120441000D01*
X168180000Y-118491000D02*
X168180000Y-116541000D01*
X168180000Y-118491000D02*
X168180000Y-121941000D01*
G04 #@! TO.C,SW2*
X163781000Y-114700000D02*
X163781000Y-121520000D01*
X141780000Y-114700000D02*
X141780000Y-121520000D01*
X163781000Y-114700000D02*
X162471000Y-114700000D01*
X160871000Y-114700000D02*
X159931000Y-114700000D01*
X158331000Y-114700000D02*
X157391000Y-114700000D01*
X155791000Y-114700000D02*
X154851000Y-114700000D01*
X153251000Y-114700000D02*
X152311000Y-114700000D01*
X150711000Y-114700000D02*
X149771000Y-114700000D01*
X148171000Y-114700000D02*
X147231000Y-114700000D01*
X145631000Y-114700000D02*
X144691000Y-114700000D01*
X143091000Y-114700000D02*
X141780000Y-114700000D01*
X143091000Y-121520000D02*
X141780000Y-121520000D01*
X145630000Y-121520000D02*
X144691000Y-121520000D01*
X148170000Y-121520000D02*
X147230000Y-121520000D01*
X150710000Y-121520000D02*
X149770000Y-121520000D01*
X153250000Y-121520000D02*
X152310000Y-121520000D01*
X155790000Y-121520000D02*
X154850000Y-121520000D01*
X158330000Y-121520000D02*
X157390000Y-121520000D01*
X163781000Y-121520000D02*
X162471000Y-121520000D01*
X160870000Y-121520000D02*
X159930000Y-121520000D01*
X164021000Y-114460000D02*
X164021000Y-115843000D01*
X164021000Y-114460000D02*
X162638000Y-114460000D01*
X162306000Y-116300000D02*
X161036000Y-116300000D01*
X161036000Y-116300000D02*
X161036000Y-119920000D01*
X161036000Y-119920000D02*
X162306000Y-119920000D01*
X162306000Y-119920000D02*
X162306000Y-116300000D01*
X162186000Y-116300000D02*
X162186000Y-117506667D01*
X162066000Y-116300000D02*
X162066000Y-117506667D01*
X161946000Y-116300000D02*
X161946000Y-117506667D01*
X161826000Y-116300000D02*
X161826000Y-117506667D01*
X161706000Y-116300000D02*
X161706000Y-117506667D01*
X161586000Y-116300000D02*
X161586000Y-117506667D01*
X161466000Y-116300000D02*
X161466000Y-117506667D01*
X161346000Y-116300000D02*
X161346000Y-117506667D01*
X161226000Y-116300000D02*
X161226000Y-117506667D01*
X161106000Y-116300000D02*
X161106000Y-117506667D01*
X162306000Y-117506667D02*
X161036000Y-117506667D01*
X159766000Y-116300000D02*
X158496000Y-116300000D01*
X158496000Y-116300000D02*
X158496000Y-119920000D01*
X158496000Y-119920000D02*
X159766000Y-119920000D01*
X159766000Y-119920000D02*
X159766000Y-116300000D01*
X159646000Y-116300000D02*
X159646000Y-117506667D01*
X159526000Y-116300000D02*
X159526000Y-117506667D01*
X159406000Y-116300000D02*
X159406000Y-117506667D01*
X159286000Y-116300000D02*
X159286000Y-117506667D01*
X159166000Y-116300000D02*
X159166000Y-117506667D01*
X159046000Y-116300000D02*
X159046000Y-117506667D01*
X158926000Y-116300000D02*
X158926000Y-117506667D01*
X158806000Y-116300000D02*
X158806000Y-117506667D01*
X158686000Y-116300000D02*
X158686000Y-117506667D01*
X158566000Y-116300000D02*
X158566000Y-117506667D01*
X159766000Y-117506667D02*
X158496000Y-117506667D01*
X157226000Y-116300000D02*
X155956000Y-116300000D01*
X155956000Y-116300000D02*
X155956000Y-119920000D01*
X155956000Y-119920000D02*
X157226000Y-119920000D01*
X157226000Y-119920000D02*
X157226000Y-116300000D01*
X157106000Y-116300000D02*
X157106000Y-117506667D01*
X156986000Y-116300000D02*
X156986000Y-117506667D01*
X156866000Y-116300000D02*
X156866000Y-117506667D01*
X156746000Y-116300000D02*
X156746000Y-117506667D01*
X156626000Y-116300000D02*
X156626000Y-117506667D01*
X156506000Y-116300000D02*
X156506000Y-117506667D01*
X156386000Y-116300000D02*
X156386000Y-117506667D01*
X156266000Y-116300000D02*
X156266000Y-117506667D01*
X156146000Y-116300000D02*
X156146000Y-117506667D01*
X156026000Y-116300000D02*
X156026000Y-117506667D01*
X157226000Y-117506667D02*
X155956000Y-117506667D01*
X154686000Y-116300000D02*
X153416000Y-116300000D01*
X153416000Y-116300000D02*
X153416000Y-119920000D01*
X153416000Y-119920000D02*
X154686000Y-119920000D01*
X154686000Y-119920000D02*
X154686000Y-116300000D01*
X154566000Y-116300000D02*
X154566000Y-117506667D01*
X154446000Y-116300000D02*
X154446000Y-117506667D01*
X154326000Y-116300000D02*
X154326000Y-117506667D01*
X154206000Y-116300000D02*
X154206000Y-117506667D01*
X154086000Y-116300000D02*
X154086000Y-117506667D01*
X153966000Y-116300000D02*
X153966000Y-117506667D01*
X153846000Y-116300000D02*
X153846000Y-117506667D01*
X153726000Y-116300000D02*
X153726000Y-117506667D01*
X153606000Y-116300000D02*
X153606000Y-117506667D01*
X153486000Y-116300000D02*
X153486000Y-117506667D01*
X154686000Y-117506667D02*
X153416000Y-117506667D01*
X152146000Y-116300000D02*
X150876000Y-116300000D01*
X150876000Y-116300000D02*
X150876000Y-119920000D01*
X150876000Y-119920000D02*
X152146000Y-119920000D01*
X152146000Y-119920000D02*
X152146000Y-116300000D01*
X152026000Y-116300000D02*
X152026000Y-117506667D01*
X151906000Y-116300000D02*
X151906000Y-117506667D01*
X151786000Y-116300000D02*
X151786000Y-117506667D01*
X151666000Y-116300000D02*
X151666000Y-117506667D01*
X151546000Y-116300000D02*
X151546000Y-117506667D01*
X151426000Y-116300000D02*
X151426000Y-117506667D01*
X151306000Y-116300000D02*
X151306000Y-117506667D01*
X151186000Y-116300000D02*
X151186000Y-117506667D01*
X151066000Y-116300000D02*
X151066000Y-117506667D01*
X150946000Y-116300000D02*
X150946000Y-117506667D01*
X152146000Y-117506667D02*
X150876000Y-117506667D01*
X149606000Y-116300000D02*
X148336000Y-116300000D01*
X148336000Y-116300000D02*
X148336000Y-119920000D01*
X148336000Y-119920000D02*
X149606000Y-119920000D01*
X149606000Y-119920000D02*
X149606000Y-116300000D01*
X149486000Y-116300000D02*
X149486000Y-117506667D01*
X149366000Y-116300000D02*
X149366000Y-117506667D01*
X149246000Y-116300000D02*
X149246000Y-117506667D01*
X149126000Y-116300000D02*
X149126000Y-117506667D01*
X149006000Y-116300000D02*
X149006000Y-117506667D01*
X148886000Y-116300000D02*
X148886000Y-117506667D01*
X148766000Y-116300000D02*
X148766000Y-117506667D01*
X148646000Y-116300000D02*
X148646000Y-117506667D01*
X148526000Y-116300000D02*
X148526000Y-117506667D01*
X148406000Y-116300000D02*
X148406000Y-117506667D01*
X149606000Y-117506667D02*
X148336000Y-117506667D01*
X147066000Y-116300000D02*
X145796000Y-116300000D01*
X145796000Y-116300000D02*
X145796000Y-119920000D01*
X145796000Y-119920000D02*
X147066000Y-119920000D01*
X147066000Y-119920000D02*
X147066000Y-116300000D01*
X146946000Y-116300000D02*
X146946000Y-117506667D01*
X146826000Y-116300000D02*
X146826000Y-117506667D01*
X146706000Y-116300000D02*
X146706000Y-117506667D01*
X146586000Y-116300000D02*
X146586000Y-117506667D01*
X146466000Y-116300000D02*
X146466000Y-117506667D01*
X146346000Y-116300000D02*
X146346000Y-117506667D01*
X146226000Y-116300000D02*
X146226000Y-117506667D01*
X146106000Y-116300000D02*
X146106000Y-117506667D01*
X145986000Y-116300000D02*
X145986000Y-117506667D01*
X145866000Y-116300000D02*
X145866000Y-117506667D01*
X147066000Y-117506667D02*
X145796000Y-117506667D01*
X144526000Y-116300000D02*
X143256000Y-116300000D01*
X143256000Y-116300000D02*
X143256000Y-119920000D01*
X143256000Y-119920000D02*
X144526000Y-119920000D01*
X144526000Y-119920000D02*
X144526000Y-116300000D01*
X144406000Y-116300000D02*
X144406000Y-117506667D01*
X144286000Y-116300000D02*
X144286000Y-117506667D01*
X144166000Y-116300000D02*
X144166000Y-117506667D01*
X144046000Y-116300000D02*
X144046000Y-117506667D01*
X143926000Y-116300000D02*
X143926000Y-117506667D01*
X143806000Y-116300000D02*
X143806000Y-117506667D01*
X143686000Y-116300000D02*
X143686000Y-117506667D01*
X143566000Y-116300000D02*
X143566000Y-117506667D01*
X143446000Y-116300000D02*
X143446000Y-117506667D01*
X143326000Y-116300000D02*
X143326000Y-117506667D01*
X144526000Y-117506667D02*
X143256000Y-117506667D01*
G04 #@! TO.C,D1*
X175966000Y-117713000D02*
X175966000Y-115028000D01*
X175966000Y-115028000D02*
X174046000Y-115028000D01*
X174046000Y-115028000D02*
X174046000Y-117713000D01*
G04 #@! TO.C,D2*
X176205000Y-114979500D02*
X176205000Y-117664500D01*
X178125000Y-114979500D02*
X176205000Y-114979500D01*
X178125000Y-117664500D02*
X178125000Y-114979500D01*
G04 #@! TO.C,J2*
X139534000Y-137514000D02*
X139534000Y-127034000D01*
X139534000Y-127034000D02*
X170504000Y-127034000D01*
X170504000Y-127034000D02*
X170504000Y-137514000D01*
X149229000Y-126139662D02*
X149729000Y-126139662D01*
X149729000Y-126139662D02*
X149479000Y-126572675D01*
X149479000Y-126572675D02*
X149229000Y-126139662D01*
G04 #@! TO.C,SW3*
X166382000Y-105651000D02*
X167582000Y-105651000D01*
X166382000Y-104451000D02*
X166382000Y-105651000D01*
X170882000Y-96151000D02*
X170882000Y-97351000D01*
X166682000Y-96151000D02*
X170882000Y-96151000D01*
X166682000Y-97351000D02*
X166682000Y-96151000D01*
X170882000Y-105351000D02*
X170882000Y-104151000D01*
X166682000Y-105351000D02*
X170882000Y-105351000D01*
X166682000Y-104151000D02*
X166682000Y-105351000D01*
G04 #@! TO.C,F1*
D12*
X171240666Y-111011571D02*
X170907333Y-111011571D01*
X170907333Y-111535380D02*
X170907333Y-110535380D01*
X171383523Y-110535380D01*
X172288285Y-111535380D02*
X171716857Y-111535380D01*
X172002571Y-111535380D02*
X172002571Y-110535380D01*
X171907333Y-110678238D01*
X171812095Y-110773476D01*
X171716857Y-110821095D01*
G04 #@! TO.C,C7*
X167743142Y-124372666D02*
X167790761Y-124420285D01*
X167838380Y-124563142D01*
X167838380Y-124658380D01*
X167790761Y-124801238D01*
X167695523Y-124896476D01*
X167600285Y-124944095D01*
X167409809Y-124991714D01*
X167266952Y-124991714D01*
X167076476Y-124944095D01*
X166981238Y-124896476D01*
X166886000Y-124801238D01*
X166838380Y-124658380D01*
X166838380Y-124563142D01*
X166886000Y-124420285D01*
X166933619Y-124372666D01*
X166838380Y-124039333D02*
X166838380Y-123372666D01*
X167838380Y-123801238D01*
G04 #@! TO.C,C8*
X165584142Y-115942166D02*
X165631761Y-115989785D01*
X165679380Y-116132642D01*
X165679380Y-116227880D01*
X165631761Y-116370738D01*
X165536523Y-116465976D01*
X165441285Y-116513595D01*
X165250809Y-116561214D01*
X165107952Y-116561214D01*
X164917476Y-116513595D01*
X164822238Y-116465976D01*
X164727000Y-116370738D01*
X164679380Y-116227880D01*
X164679380Y-116132642D01*
X164727000Y-115989785D01*
X164774619Y-115942166D01*
X165107952Y-115370738D02*
X165060333Y-115465976D01*
X165012714Y-115513595D01*
X164917476Y-115561214D01*
X164869857Y-115561214D01*
X164774619Y-115513595D01*
X164727000Y-115465976D01*
X164679380Y-115370738D01*
X164679380Y-115180261D01*
X164727000Y-115085023D01*
X164774619Y-115037404D01*
X164869857Y-114989785D01*
X164917476Y-114989785D01*
X165012714Y-115037404D01*
X165060333Y-115085023D01*
X165107952Y-115180261D01*
X165107952Y-115370738D01*
X165155571Y-115465976D01*
X165203190Y-115513595D01*
X165298428Y-115561214D01*
X165488904Y-115561214D01*
X165584142Y-115513595D01*
X165631761Y-115465976D01*
X165679380Y-115370738D01*
X165679380Y-115180261D01*
X165631761Y-115085023D01*
X165584142Y-115037404D01*
X165488904Y-114989785D01*
X165298428Y-114989785D01*
X165203190Y-115037404D01*
X165155571Y-115085023D01*
X165107952Y-115180261D01*
G04 #@! TO.C,D3*
X138453904Y-97353380D02*
X138453904Y-96353380D01*
X138692000Y-96353380D01*
X138834857Y-96401000D01*
X138930095Y-96496238D01*
X138977714Y-96591476D01*
X139025333Y-96781952D01*
X139025333Y-96924809D01*
X138977714Y-97115285D01*
X138930095Y-97210523D01*
X138834857Y-97305761D01*
X138692000Y-97353380D01*
X138453904Y-97353380D01*
X139358666Y-96353380D02*
X139977714Y-96353380D01*
X139644380Y-96734333D01*
X139787238Y-96734333D01*
X139882476Y-96781952D01*
X139930095Y-96829571D01*
X139977714Y-96924809D01*
X139977714Y-97162904D01*
X139930095Y-97258142D01*
X139882476Y-97305761D01*
X139787238Y-97353380D01*
X139501523Y-97353380D01*
X139406285Y-97305761D01*
X139358666Y-97258142D01*
G04 #@! TO.C,D4*
X169108380Y-92178095D02*
X168108380Y-92178095D01*
X168108380Y-91940000D01*
X168156000Y-91797142D01*
X168251238Y-91701904D01*
X168346476Y-91654285D01*
X168536952Y-91606666D01*
X168679809Y-91606666D01*
X168870285Y-91654285D01*
X168965523Y-91701904D01*
X169060761Y-91797142D01*
X169108380Y-91940000D01*
X169108380Y-92178095D01*
X168441714Y-90749523D02*
X169108380Y-90749523D01*
X168060761Y-90987619D02*
X168775047Y-91225714D01*
X168775047Y-90606666D01*
G04 #@! TO.C,J1*
X148252380Y-109426333D02*
X148966666Y-109426333D01*
X149109523Y-109473952D01*
X149204761Y-109569190D01*
X149252380Y-109712047D01*
X149252380Y-109807285D01*
X149252380Y-108426333D02*
X149252380Y-108997761D01*
X149252380Y-108712047D02*
X148252380Y-108712047D01*
X148395238Y-108807285D01*
X148490476Y-108902523D01*
X148538095Y-108997761D01*
G04 #@! TO.C,J4*
X175815666Y-95337380D02*
X175815666Y-96051666D01*
X175768047Y-96194523D01*
X175672809Y-96289761D01*
X175529952Y-96337380D01*
X175434714Y-96337380D01*
X176720428Y-95670714D02*
X176720428Y-96337380D01*
X176482333Y-95289761D02*
X176244238Y-96004047D01*
X176863285Y-96004047D01*
G04 #@! TO.C,R6*
X173299380Y-124245666D02*
X172823190Y-124579000D01*
X173299380Y-124817095D02*
X172299380Y-124817095D01*
X172299380Y-124436142D01*
X172347000Y-124340904D01*
X172394619Y-124293285D01*
X172489857Y-124245666D01*
X172632714Y-124245666D01*
X172727952Y-124293285D01*
X172775571Y-124340904D01*
X172823190Y-124436142D01*
X172823190Y-124817095D01*
X172299380Y-123388523D02*
X172299380Y-123579000D01*
X172347000Y-123674238D01*
X172394619Y-123721857D01*
X172537476Y-123817095D01*
X172727952Y-123864714D01*
X173108904Y-123864714D01*
X173204142Y-123817095D01*
X173251761Y-123769476D01*
X173299380Y-123674238D01*
X173299380Y-123483761D01*
X173251761Y-123388523D01*
X173204142Y-123340904D01*
X173108904Y-123293285D01*
X172870809Y-123293285D01*
X172775571Y-123340904D01*
X172727952Y-123388523D01*
X172680333Y-123483761D01*
X172680333Y-123674238D01*
X172727952Y-123769476D01*
X172775571Y-123817095D01*
X172870809Y-123864714D01*
G04 #@! TO.C,R7*
X175458380Y-123102666D02*
X174982190Y-123436000D01*
X175458380Y-123674095D02*
X174458380Y-123674095D01*
X174458380Y-123293142D01*
X174506000Y-123197904D01*
X174553619Y-123150285D01*
X174648857Y-123102666D01*
X174791714Y-123102666D01*
X174886952Y-123150285D01*
X174934571Y-123197904D01*
X174982190Y-123293142D01*
X174982190Y-123674095D01*
X174458380Y-122769333D02*
X174458380Y-122102666D01*
X175458380Y-122531238D01*
G04 #@! TO.C,R8*
X177617380Y-123102666D02*
X177141190Y-123436000D01*
X177617380Y-123674095D02*
X176617380Y-123674095D01*
X176617380Y-123293142D01*
X176665000Y-123197904D01*
X176712619Y-123150285D01*
X176807857Y-123102666D01*
X176950714Y-123102666D01*
X177045952Y-123150285D01*
X177093571Y-123197904D01*
X177141190Y-123293142D01*
X177141190Y-123674095D01*
X177045952Y-122531238D02*
X176998333Y-122626476D01*
X176950714Y-122674095D01*
X176855476Y-122721714D01*
X176807857Y-122721714D01*
X176712619Y-122674095D01*
X176665000Y-122626476D01*
X176617380Y-122531238D01*
X176617380Y-122340761D01*
X176665000Y-122245523D01*
X176712619Y-122197904D01*
X176807857Y-122150285D01*
X176855476Y-122150285D01*
X176950714Y-122197904D01*
X176998333Y-122245523D01*
X177045952Y-122340761D01*
X177045952Y-122531238D01*
X177093571Y-122626476D01*
X177141190Y-122674095D01*
X177236428Y-122721714D01*
X177426904Y-122721714D01*
X177522142Y-122674095D01*
X177569761Y-122626476D01*
X177617380Y-122531238D01*
X177617380Y-122340761D01*
X177569761Y-122245523D01*
X177522142Y-122197904D01*
X177426904Y-122150285D01*
X177236428Y-122150285D01*
X177141190Y-122197904D01*
X177093571Y-122245523D01*
X177045952Y-122340761D01*
G04 #@! TO.C,R9*
X165679380Y-121167666D02*
X165203190Y-121501000D01*
X165679380Y-121739095D02*
X164679380Y-121739095D01*
X164679380Y-121358142D01*
X164727000Y-121262904D01*
X164774619Y-121215285D01*
X164869857Y-121167666D01*
X165012714Y-121167666D01*
X165107952Y-121215285D01*
X165155571Y-121262904D01*
X165203190Y-121358142D01*
X165203190Y-121739095D01*
X165679380Y-120691476D02*
X165679380Y-120501000D01*
X165631761Y-120405761D01*
X165584142Y-120358142D01*
X165441285Y-120262904D01*
X165250809Y-120215285D01*
X164869857Y-120215285D01*
X164774619Y-120262904D01*
X164727000Y-120310523D01*
X164679380Y-120405761D01*
X164679380Y-120596238D01*
X164727000Y-120691476D01*
X164774619Y-120739095D01*
X164869857Y-120786714D01*
X165107952Y-120786714D01*
X165203190Y-120739095D01*
X165250809Y-120691476D01*
X165298428Y-120596238D01*
X165298428Y-120405761D01*
X165250809Y-120310523D01*
X165203190Y-120262904D01*
X165107952Y-120215285D01*
G04 #@! TO.C,R10*
X165680380Y-112862357D02*
X165204190Y-113195690D01*
X165680380Y-113433785D02*
X164680380Y-113433785D01*
X164680380Y-113052833D01*
X164728000Y-112957595D01*
X164775619Y-112909976D01*
X164870857Y-112862357D01*
X165013714Y-112862357D01*
X165108952Y-112909976D01*
X165156571Y-112957595D01*
X165204190Y-113052833D01*
X165204190Y-113433785D01*
X165680380Y-111909976D02*
X165680380Y-112481404D01*
X165680380Y-112195690D02*
X164680380Y-112195690D01*
X164823238Y-112290928D01*
X164918476Y-112386166D01*
X164966095Y-112481404D01*
X164680380Y-111290928D02*
X164680380Y-111195690D01*
X164728000Y-111100452D01*
X164775619Y-111052833D01*
X164870857Y-111005214D01*
X165061333Y-110957595D01*
X165299428Y-110957595D01*
X165489904Y-111005214D01*
X165585142Y-111052833D01*
X165632761Y-111100452D01*
X165680380Y-111195690D01*
X165680380Y-111290928D01*
X165632761Y-111386166D01*
X165585142Y-111433785D01*
X165489904Y-111481404D01*
X165299428Y-111529023D01*
X165061333Y-111529023D01*
X164870857Y-111481404D01*
X164775619Y-111433785D01*
X164728000Y-111386166D01*
X164680380Y-111290928D01*
G04 #@! TO.C,R11*
X165680380Y-109306357D02*
X165204190Y-109639690D01*
X165680380Y-109877785D02*
X164680380Y-109877785D01*
X164680380Y-109496833D01*
X164728000Y-109401595D01*
X164775619Y-109353976D01*
X164870857Y-109306357D01*
X165013714Y-109306357D01*
X165108952Y-109353976D01*
X165156571Y-109401595D01*
X165204190Y-109496833D01*
X165204190Y-109877785D01*
X165680380Y-108353976D02*
X165680380Y-108925404D01*
X165680380Y-108639690D02*
X164680380Y-108639690D01*
X164823238Y-108734928D01*
X164918476Y-108830166D01*
X164966095Y-108925404D01*
X165680380Y-107401595D02*
X165680380Y-107973023D01*
X165680380Y-107687309D02*
X164680380Y-107687309D01*
X164823238Y-107782547D01*
X164918476Y-107877785D01*
X164966095Y-107973023D01*
G04 #@! TO.C,R12*
X142105142Y-97353380D02*
X141771809Y-96877190D01*
X141533714Y-97353380D02*
X141533714Y-96353380D01*
X141914666Y-96353380D01*
X142009904Y-96401000D01*
X142057523Y-96448619D01*
X142105142Y-96543857D01*
X142105142Y-96686714D01*
X142057523Y-96781952D01*
X142009904Y-96829571D01*
X141914666Y-96877190D01*
X141533714Y-96877190D01*
X143057523Y-97353380D02*
X142486095Y-97353380D01*
X142771809Y-97353380D02*
X142771809Y-96353380D01*
X142676571Y-96496238D01*
X142581333Y-96591476D01*
X142486095Y-96639095D01*
X143438476Y-96448619D02*
X143486095Y-96401000D01*
X143581333Y-96353380D01*
X143819428Y-96353380D01*
X143914666Y-96401000D01*
X143962285Y-96448619D01*
X144009904Y-96543857D01*
X144009904Y-96639095D01*
X143962285Y-96781952D01*
X143390857Y-97353380D01*
X144009904Y-97353380D01*
G04 #@! TO.C,R13*
X166108142Y-87320380D02*
X165774809Y-86844190D01*
X165536714Y-87320380D02*
X165536714Y-86320380D01*
X165917666Y-86320380D01*
X166012904Y-86368000D01*
X166060523Y-86415619D01*
X166108142Y-86510857D01*
X166108142Y-86653714D01*
X166060523Y-86748952D01*
X166012904Y-86796571D01*
X165917666Y-86844190D01*
X165536714Y-86844190D01*
X167060523Y-87320380D02*
X166489095Y-87320380D01*
X166774809Y-87320380D02*
X166774809Y-86320380D01*
X166679571Y-86463238D01*
X166584333Y-86558476D01*
X166489095Y-86606095D01*
X167393857Y-86320380D02*
X168012904Y-86320380D01*
X167679571Y-86701333D01*
X167822428Y-86701333D01*
X167917666Y-86748952D01*
X167965285Y-86796571D01*
X168012904Y-86891809D01*
X168012904Y-87129904D01*
X167965285Y-87225142D01*
X167917666Y-87272761D01*
X167822428Y-87320380D01*
X167536714Y-87320380D01*
X167441476Y-87272761D01*
X167393857Y-87225142D01*
G04 #@! TO.C,Flash*
X138017428Y-111616571D02*
X137684095Y-111616571D01*
X137684095Y-112140380D02*
X137684095Y-111140380D01*
X138160285Y-111140380D01*
X138684095Y-112140380D02*
X138588857Y-112092761D01*
X138541238Y-111997523D01*
X138541238Y-111140380D01*
X139493619Y-112140380D02*
X139493619Y-111616571D01*
X139446000Y-111521333D01*
X139350761Y-111473714D01*
X139160285Y-111473714D01*
X139065047Y-111521333D01*
X139493619Y-112092761D02*
X139398380Y-112140380D01*
X139160285Y-112140380D01*
X139065047Y-112092761D01*
X139017428Y-111997523D01*
X139017428Y-111902285D01*
X139065047Y-111807047D01*
X139160285Y-111759428D01*
X139398380Y-111759428D01*
X139493619Y-111711809D01*
X139922190Y-112092761D02*
X140017428Y-112140380D01*
X140207904Y-112140380D01*
X140303142Y-112092761D01*
X140350761Y-111997523D01*
X140350761Y-111949904D01*
X140303142Y-111854666D01*
X140207904Y-111807047D01*
X140065047Y-111807047D01*
X139969809Y-111759428D01*
X139922190Y-111664190D01*
X139922190Y-111616571D01*
X139969809Y-111521333D01*
X140065047Y-111473714D01*
X140207904Y-111473714D01*
X140303142Y-111521333D01*
X140779333Y-112140380D02*
X140779333Y-111140380D01*
X141207904Y-112140380D02*
X141207904Y-111616571D01*
X141160285Y-111521333D01*
X141065047Y-111473714D01*
X140922190Y-111473714D01*
X140826952Y-111521333D01*
X140779333Y-111568952D01*
G04 #@! TO.C,U1*
X143724380Y-102488904D02*
X144533904Y-102488904D01*
X144629142Y-102441285D01*
X144676761Y-102393666D01*
X144724380Y-102298428D01*
X144724380Y-102107952D01*
X144676761Y-102012714D01*
X144629142Y-101965095D01*
X144533904Y-101917476D01*
X143724380Y-101917476D01*
X144724380Y-100917476D02*
X144724380Y-101488904D01*
X144724380Y-101203190D02*
X143724380Y-101203190D01*
X143867238Y-101298428D01*
X143962476Y-101393666D01*
X144010095Y-101488904D01*
G04 #@! TO.C,U3*
X166787380Y-119252904D02*
X167596904Y-119252904D01*
X167692142Y-119205285D01*
X167739761Y-119157666D01*
X167787380Y-119062428D01*
X167787380Y-118871952D01*
X167739761Y-118776714D01*
X167692142Y-118729095D01*
X167596904Y-118681476D01*
X166787380Y-118681476D01*
X166787380Y-118300523D02*
X166787380Y-117681476D01*
X167168333Y-118014809D01*
X167168333Y-117871952D01*
X167215952Y-117776714D01*
X167263571Y-117729095D01*
X167358809Y-117681476D01*
X167596904Y-117681476D01*
X167692142Y-117729095D01*
X167739761Y-117776714D01*
X167787380Y-117871952D01*
X167787380Y-118157666D01*
X167739761Y-118252904D01*
X167692142Y-118300523D01*
G04 #@! TO.C,SW2*
X165185761Y-119443333D02*
X165233380Y-119300476D01*
X165233380Y-119062380D01*
X165185761Y-118967142D01*
X165138142Y-118919523D01*
X165042904Y-118871904D01*
X164947666Y-118871904D01*
X164852428Y-118919523D01*
X164804809Y-118967142D01*
X164757190Y-119062380D01*
X164709571Y-119252857D01*
X164661952Y-119348095D01*
X164614333Y-119395714D01*
X164519095Y-119443333D01*
X164423857Y-119443333D01*
X164328619Y-119395714D01*
X164281000Y-119348095D01*
X164233380Y-119252857D01*
X164233380Y-119014761D01*
X164281000Y-118871904D01*
X164233380Y-118538571D02*
X165233380Y-118300476D01*
X164519095Y-118110000D01*
X165233380Y-117919523D01*
X164233380Y-117681428D01*
X164328619Y-117348095D02*
X164281000Y-117300476D01*
X164233380Y-117205238D01*
X164233380Y-116967142D01*
X164281000Y-116871904D01*
X164328619Y-116824285D01*
X164423857Y-116776666D01*
X164519095Y-116776666D01*
X164661952Y-116824285D01*
X165233380Y-117395714D01*
X165233380Y-116776666D01*
G04 #@! TO.C,D1*
X175458380Y-114784095D02*
X174458380Y-114784095D01*
X174458380Y-114546000D01*
X174506000Y-114403142D01*
X174601238Y-114307904D01*
X174696476Y-114260285D01*
X174886952Y-114212666D01*
X175029809Y-114212666D01*
X175220285Y-114260285D01*
X175315523Y-114307904D01*
X175410761Y-114403142D01*
X175458380Y-114546000D01*
X175458380Y-114784095D01*
X175458380Y-113260285D02*
X175458380Y-113831714D01*
X175458380Y-113546000D02*
X174458380Y-113546000D01*
X174601238Y-113641238D01*
X174696476Y-113736476D01*
X174744095Y-113831714D01*
G04 #@! TO.C,D2*
X177617380Y-114784095D02*
X176617380Y-114784095D01*
X176617380Y-114546000D01*
X176665000Y-114403142D01*
X176760238Y-114307904D01*
X176855476Y-114260285D01*
X177045952Y-114212666D01*
X177188809Y-114212666D01*
X177379285Y-114260285D01*
X177474523Y-114307904D01*
X177569761Y-114403142D01*
X177617380Y-114546000D01*
X177617380Y-114784095D01*
X176712619Y-113831714D02*
X176665000Y-113784095D01*
X176617380Y-113688857D01*
X176617380Y-113450761D01*
X176665000Y-113355523D01*
X176712619Y-113307904D01*
X176807857Y-113260285D01*
X176903095Y-113260285D01*
X177045952Y-113307904D01*
X177617380Y-113879333D01*
X177617380Y-113260285D01*
G04 #@! TO.C,J2*
X154685666Y-125546380D02*
X154685666Y-126260666D01*
X154638047Y-126403523D01*
X154542809Y-126498761D01*
X154399952Y-126546380D01*
X154304714Y-126546380D01*
X155114238Y-125641619D02*
X155161857Y-125594000D01*
X155257095Y-125546380D01*
X155495190Y-125546380D01*
X155590428Y-125594000D01*
X155638047Y-125641619D01*
X155685666Y-125736857D01*
X155685666Y-125832095D01*
X155638047Y-125974952D01*
X155066619Y-126546380D01*
X155685666Y-126546380D01*
G04 #@! TO.C,SW3*
X165936761Y-101834333D02*
X165984380Y-101691476D01*
X165984380Y-101453380D01*
X165936761Y-101358142D01*
X165889142Y-101310523D01*
X165793904Y-101262904D01*
X165698666Y-101262904D01*
X165603428Y-101310523D01*
X165555809Y-101358142D01*
X165508190Y-101453380D01*
X165460571Y-101643857D01*
X165412952Y-101739095D01*
X165365333Y-101786714D01*
X165270095Y-101834333D01*
X165174857Y-101834333D01*
X165079619Y-101786714D01*
X165032000Y-101739095D01*
X164984380Y-101643857D01*
X164984380Y-101405761D01*
X165032000Y-101262904D01*
X164984380Y-100929571D02*
X165984380Y-100691476D01*
X165270095Y-100501000D01*
X165984380Y-100310523D01*
X164984380Y-100072428D01*
X164984380Y-99786714D02*
X164984380Y-99167666D01*
X165365333Y-99501000D01*
X165365333Y-99358142D01*
X165412952Y-99262904D01*
X165460571Y-99215285D01*
X165555809Y-99167666D01*
X165793904Y-99167666D01*
X165889142Y-99215285D01*
X165936761Y-99262904D01*
X165984380Y-99358142D01*
X165984380Y-99643857D01*
X165936761Y-99739095D01*
X165889142Y-99786714D01*
G04 #@! TD*
M02*
