G04 #@! TF.GenerationSoftware,KiCad,Pcbnew,5.0.2-bee76a0~70~ubuntu18.04.1*
G04 #@! TF.CreationDate,2019-03-24T19:46:42+10:00*
G04 #@! TF.ProjectId,esp32_rs232_adapter,65737033-325f-4727-9332-33325f616461,rev?*
G04 #@! TF.SameCoordinates,Original*
G04 #@! TF.FileFunction,Paste,Bot*
G04 #@! TF.FilePolarity,Positive*
%FSLAX46Y46*%
G04 Gerber Fmt 4.6, Leading zero omitted, Abs format (unit mm)*
G04 Created by KiCad (PCBNEW 5.0.2-bee76a0~70~ubuntu18.04.1) date Sun 24 Mar 2019 19:46:42 AEST*
%MOMM*%
%LPD*%
G01*
G04 APERTURE LIST*
%ADD10C,0.100000*%
%ADD11C,0.975000*%
%ADD12R,1.200000X0.400000*%
%ADD13R,3.800000X2.000000*%
%ADD14R,1.500000X2.000000*%
%ADD15R,1.550000X0.600000*%
G04 APERTURE END LIST*
D10*
G04 #@! TO.C,C1*
G36*
X146982642Y-87058174D02*
X147006303Y-87061684D01*
X147029507Y-87067496D01*
X147052029Y-87075554D01*
X147073653Y-87085782D01*
X147094170Y-87098079D01*
X147113383Y-87112329D01*
X147131107Y-87128393D01*
X147147171Y-87146117D01*
X147161421Y-87165330D01*
X147173718Y-87185847D01*
X147183946Y-87207471D01*
X147192004Y-87229993D01*
X147197816Y-87253197D01*
X147201326Y-87276858D01*
X147202500Y-87300750D01*
X147202500Y-88213250D01*
X147201326Y-88237142D01*
X147197816Y-88260803D01*
X147192004Y-88284007D01*
X147183946Y-88306529D01*
X147173718Y-88328153D01*
X147161421Y-88348670D01*
X147147171Y-88367883D01*
X147131107Y-88385607D01*
X147113383Y-88401671D01*
X147094170Y-88415921D01*
X147073653Y-88428218D01*
X147052029Y-88438446D01*
X147029507Y-88446504D01*
X147006303Y-88452316D01*
X146982642Y-88455826D01*
X146958750Y-88457000D01*
X146471250Y-88457000D01*
X146447358Y-88455826D01*
X146423697Y-88452316D01*
X146400493Y-88446504D01*
X146377971Y-88438446D01*
X146356347Y-88428218D01*
X146335830Y-88415921D01*
X146316617Y-88401671D01*
X146298893Y-88385607D01*
X146282829Y-88367883D01*
X146268579Y-88348670D01*
X146256282Y-88328153D01*
X146246054Y-88306529D01*
X146237996Y-88284007D01*
X146232184Y-88260803D01*
X146228674Y-88237142D01*
X146227500Y-88213250D01*
X146227500Y-87300750D01*
X146228674Y-87276858D01*
X146232184Y-87253197D01*
X146237996Y-87229993D01*
X146246054Y-87207471D01*
X146256282Y-87185847D01*
X146268579Y-87165330D01*
X146282829Y-87146117D01*
X146298893Y-87128393D01*
X146316617Y-87112329D01*
X146335830Y-87098079D01*
X146356347Y-87085782D01*
X146377971Y-87075554D01*
X146400493Y-87067496D01*
X146423697Y-87061684D01*
X146447358Y-87058174D01*
X146471250Y-87057000D01*
X146958750Y-87057000D01*
X146982642Y-87058174D01*
X146982642Y-87058174D01*
G37*
D11*
X146715000Y-87757000D03*
D10*
G36*
X148857642Y-87058174D02*
X148881303Y-87061684D01*
X148904507Y-87067496D01*
X148927029Y-87075554D01*
X148948653Y-87085782D01*
X148969170Y-87098079D01*
X148988383Y-87112329D01*
X149006107Y-87128393D01*
X149022171Y-87146117D01*
X149036421Y-87165330D01*
X149048718Y-87185847D01*
X149058946Y-87207471D01*
X149067004Y-87229993D01*
X149072816Y-87253197D01*
X149076326Y-87276858D01*
X149077500Y-87300750D01*
X149077500Y-88213250D01*
X149076326Y-88237142D01*
X149072816Y-88260803D01*
X149067004Y-88284007D01*
X149058946Y-88306529D01*
X149048718Y-88328153D01*
X149036421Y-88348670D01*
X149022171Y-88367883D01*
X149006107Y-88385607D01*
X148988383Y-88401671D01*
X148969170Y-88415921D01*
X148948653Y-88428218D01*
X148927029Y-88438446D01*
X148904507Y-88446504D01*
X148881303Y-88452316D01*
X148857642Y-88455826D01*
X148833750Y-88457000D01*
X148346250Y-88457000D01*
X148322358Y-88455826D01*
X148298697Y-88452316D01*
X148275493Y-88446504D01*
X148252971Y-88438446D01*
X148231347Y-88428218D01*
X148210830Y-88415921D01*
X148191617Y-88401671D01*
X148173893Y-88385607D01*
X148157829Y-88367883D01*
X148143579Y-88348670D01*
X148131282Y-88328153D01*
X148121054Y-88306529D01*
X148112996Y-88284007D01*
X148107184Y-88260803D01*
X148103674Y-88237142D01*
X148102500Y-88213250D01*
X148102500Y-87300750D01*
X148103674Y-87276858D01*
X148107184Y-87253197D01*
X148112996Y-87229993D01*
X148121054Y-87207471D01*
X148131282Y-87185847D01*
X148143579Y-87165330D01*
X148157829Y-87146117D01*
X148173893Y-87128393D01*
X148191617Y-87112329D01*
X148210830Y-87098079D01*
X148231347Y-87085782D01*
X148252971Y-87075554D01*
X148275493Y-87067496D01*
X148298697Y-87061684D01*
X148322358Y-87058174D01*
X148346250Y-87057000D01*
X148833750Y-87057000D01*
X148857642Y-87058174D01*
X148857642Y-87058174D01*
G37*
D11*
X148590000Y-87757000D03*
G04 #@! TD*
D10*
G04 #@! TO.C,C2*
G36*
X150467231Y-121710773D02*
X150490892Y-121714283D01*
X150514096Y-121720095D01*
X150536618Y-121728153D01*
X150558242Y-121738381D01*
X150578759Y-121750678D01*
X150597972Y-121764928D01*
X150615696Y-121780992D01*
X150631760Y-121798716D01*
X150646010Y-121817929D01*
X150658307Y-121838446D01*
X150668535Y-121860070D01*
X150676593Y-121882592D01*
X150682405Y-121905796D01*
X150685915Y-121929457D01*
X150687089Y-121953349D01*
X150687089Y-122865849D01*
X150685915Y-122889741D01*
X150682405Y-122913402D01*
X150676593Y-122936606D01*
X150668535Y-122959128D01*
X150658307Y-122980752D01*
X150646010Y-123001269D01*
X150631760Y-123020482D01*
X150615696Y-123038206D01*
X150597972Y-123054270D01*
X150578759Y-123068520D01*
X150558242Y-123080817D01*
X150536618Y-123091045D01*
X150514096Y-123099103D01*
X150490892Y-123104915D01*
X150467231Y-123108425D01*
X150443339Y-123109599D01*
X149955839Y-123109599D01*
X149931947Y-123108425D01*
X149908286Y-123104915D01*
X149885082Y-123099103D01*
X149862560Y-123091045D01*
X149840936Y-123080817D01*
X149820419Y-123068520D01*
X149801206Y-123054270D01*
X149783482Y-123038206D01*
X149767418Y-123020482D01*
X149753168Y-123001269D01*
X149740871Y-122980752D01*
X149730643Y-122959128D01*
X149722585Y-122936606D01*
X149716773Y-122913402D01*
X149713263Y-122889741D01*
X149712089Y-122865849D01*
X149712089Y-121953349D01*
X149713263Y-121929457D01*
X149716773Y-121905796D01*
X149722585Y-121882592D01*
X149730643Y-121860070D01*
X149740871Y-121838446D01*
X149753168Y-121817929D01*
X149767418Y-121798716D01*
X149783482Y-121780992D01*
X149801206Y-121764928D01*
X149820419Y-121750678D01*
X149840936Y-121738381D01*
X149862560Y-121728153D01*
X149885082Y-121720095D01*
X149908286Y-121714283D01*
X149931947Y-121710773D01*
X149955839Y-121709599D01*
X150443339Y-121709599D01*
X150467231Y-121710773D01*
X150467231Y-121710773D01*
G37*
D11*
X150199589Y-122409599D03*
D10*
G36*
X152342231Y-121710773D02*
X152365892Y-121714283D01*
X152389096Y-121720095D01*
X152411618Y-121728153D01*
X152433242Y-121738381D01*
X152453759Y-121750678D01*
X152472972Y-121764928D01*
X152490696Y-121780992D01*
X152506760Y-121798716D01*
X152521010Y-121817929D01*
X152533307Y-121838446D01*
X152543535Y-121860070D01*
X152551593Y-121882592D01*
X152557405Y-121905796D01*
X152560915Y-121929457D01*
X152562089Y-121953349D01*
X152562089Y-122865849D01*
X152560915Y-122889741D01*
X152557405Y-122913402D01*
X152551593Y-122936606D01*
X152543535Y-122959128D01*
X152533307Y-122980752D01*
X152521010Y-123001269D01*
X152506760Y-123020482D01*
X152490696Y-123038206D01*
X152472972Y-123054270D01*
X152453759Y-123068520D01*
X152433242Y-123080817D01*
X152411618Y-123091045D01*
X152389096Y-123099103D01*
X152365892Y-123104915D01*
X152342231Y-123108425D01*
X152318339Y-123109599D01*
X151830839Y-123109599D01*
X151806947Y-123108425D01*
X151783286Y-123104915D01*
X151760082Y-123099103D01*
X151737560Y-123091045D01*
X151715936Y-123080817D01*
X151695419Y-123068520D01*
X151676206Y-123054270D01*
X151658482Y-123038206D01*
X151642418Y-123020482D01*
X151628168Y-123001269D01*
X151615871Y-122980752D01*
X151605643Y-122959128D01*
X151597585Y-122936606D01*
X151591773Y-122913402D01*
X151588263Y-122889741D01*
X151587089Y-122865849D01*
X151587089Y-121953349D01*
X151588263Y-121929457D01*
X151591773Y-121905796D01*
X151597585Y-121882592D01*
X151605643Y-121860070D01*
X151615871Y-121838446D01*
X151628168Y-121817929D01*
X151642418Y-121798716D01*
X151658482Y-121780992D01*
X151676206Y-121764928D01*
X151695419Y-121750678D01*
X151715936Y-121738381D01*
X151737560Y-121728153D01*
X151760082Y-121720095D01*
X151783286Y-121714283D01*
X151806947Y-121710773D01*
X151830839Y-121709599D01*
X152318339Y-121709599D01*
X152342231Y-121710773D01*
X152342231Y-121710773D01*
G37*
D11*
X152074589Y-122409599D03*
G04 #@! TD*
D10*
G04 #@! TO.C,C3*
G36*
X158027231Y-121710773D02*
X158050892Y-121714283D01*
X158074096Y-121720095D01*
X158096618Y-121728153D01*
X158118242Y-121738381D01*
X158138759Y-121750678D01*
X158157972Y-121764928D01*
X158175696Y-121780992D01*
X158191760Y-121798716D01*
X158206010Y-121817929D01*
X158218307Y-121838446D01*
X158228535Y-121860070D01*
X158236593Y-121882592D01*
X158242405Y-121905796D01*
X158245915Y-121929457D01*
X158247089Y-121953349D01*
X158247089Y-122865849D01*
X158245915Y-122889741D01*
X158242405Y-122913402D01*
X158236593Y-122936606D01*
X158228535Y-122959128D01*
X158218307Y-122980752D01*
X158206010Y-123001269D01*
X158191760Y-123020482D01*
X158175696Y-123038206D01*
X158157972Y-123054270D01*
X158138759Y-123068520D01*
X158118242Y-123080817D01*
X158096618Y-123091045D01*
X158074096Y-123099103D01*
X158050892Y-123104915D01*
X158027231Y-123108425D01*
X158003339Y-123109599D01*
X157515839Y-123109599D01*
X157491947Y-123108425D01*
X157468286Y-123104915D01*
X157445082Y-123099103D01*
X157422560Y-123091045D01*
X157400936Y-123080817D01*
X157380419Y-123068520D01*
X157361206Y-123054270D01*
X157343482Y-123038206D01*
X157327418Y-123020482D01*
X157313168Y-123001269D01*
X157300871Y-122980752D01*
X157290643Y-122959128D01*
X157282585Y-122936606D01*
X157276773Y-122913402D01*
X157273263Y-122889741D01*
X157272089Y-122865849D01*
X157272089Y-121953349D01*
X157273263Y-121929457D01*
X157276773Y-121905796D01*
X157282585Y-121882592D01*
X157290643Y-121860070D01*
X157300871Y-121838446D01*
X157313168Y-121817929D01*
X157327418Y-121798716D01*
X157343482Y-121780992D01*
X157361206Y-121764928D01*
X157380419Y-121750678D01*
X157400936Y-121738381D01*
X157422560Y-121728153D01*
X157445082Y-121720095D01*
X157468286Y-121714283D01*
X157491947Y-121710773D01*
X157515839Y-121709599D01*
X158003339Y-121709599D01*
X158027231Y-121710773D01*
X158027231Y-121710773D01*
G37*
D11*
X157759589Y-122409599D03*
D10*
G36*
X156152231Y-121710773D02*
X156175892Y-121714283D01*
X156199096Y-121720095D01*
X156221618Y-121728153D01*
X156243242Y-121738381D01*
X156263759Y-121750678D01*
X156282972Y-121764928D01*
X156300696Y-121780992D01*
X156316760Y-121798716D01*
X156331010Y-121817929D01*
X156343307Y-121838446D01*
X156353535Y-121860070D01*
X156361593Y-121882592D01*
X156367405Y-121905796D01*
X156370915Y-121929457D01*
X156372089Y-121953349D01*
X156372089Y-122865849D01*
X156370915Y-122889741D01*
X156367405Y-122913402D01*
X156361593Y-122936606D01*
X156353535Y-122959128D01*
X156343307Y-122980752D01*
X156331010Y-123001269D01*
X156316760Y-123020482D01*
X156300696Y-123038206D01*
X156282972Y-123054270D01*
X156263759Y-123068520D01*
X156243242Y-123080817D01*
X156221618Y-123091045D01*
X156199096Y-123099103D01*
X156175892Y-123104915D01*
X156152231Y-123108425D01*
X156128339Y-123109599D01*
X155640839Y-123109599D01*
X155616947Y-123108425D01*
X155593286Y-123104915D01*
X155570082Y-123099103D01*
X155547560Y-123091045D01*
X155525936Y-123080817D01*
X155505419Y-123068520D01*
X155486206Y-123054270D01*
X155468482Y-123038206D01*
X155452418Y-123020482D01*
X155438168Y-123001269D01*
X155425871Y-122980752D01*
X155415643Y-122959128D01*
X155407585Y-122936606D01*
X155401773Y-122913402D01*
X155398263Y-122889741D01*
X155397089Y-122865849D01*
X155397089Y-121953349D01*
X155398263Y-121929457D01*
X155401773Y-121905796D01*
X155407585Y-121882592D01*
X155415643Y-121860070D01*
X155425871Y-121838446D01*
X155438168Y-121817929D01*
X155452418Y-121798716D01*
X155468482Y-121780992D01*
X155486206Y-121764928D01*
X155505419Y-121750678D01*
X155525936Y-121738381D01*
X155547560Y-121728153D01*
X155570082Y-121720095D01*
X155593286Y-121714283D01*
X155616947Y-121710773D01*
X155640839Y-121709599D01*
X156128339Y-121709599D01*
X156152231Y-121710773D01*
X156152231Y-121710773D01*
G37*
D11*
X155884589Y-122409599D03*
G04 #@! TD*
D10*
G04 #@! TO.C,C4*
G36*
X148363731Y-115827273D02*
X148387392Y-115830783D01*
X148410596Y-115836595D01*
X148433118Y-115844653D01*
X148454742Y-115854881D01*
X148475259Y-115867178D01*
X148494472Y-115881428D01*
X148512196Y-115897492D01*
X148528260Y-115915216D01*
X148542510Y-115934429D01*
X148554807Y-115954946D01*
X148565035Y-115976570D01*
X148573093Y-115999092D01*
X148578905Y-116022296D01*
X148582415Y-116045957D01*
X148583589Y-116069849D01*
X148583589Y-116557349D01*
X148582415Y-116581241D01*
X148578905Y-116604902D01*
X148573093Y-116628106D01*
X148565035Y-116650628D01*
X148554807Y-116672252D01*
X148542510Y-116692769D01*
X148528260Y-116711982D01*
X148512196Y-116729706D01*
X148494472Y-116745770D01*
X148475259Y-116760020D01*
X148454742Y-116772317D01*
X148433118Y-116782545D01*
X148410596Y-116790603D01*
X148387392Y-116796415D01*
X148363731Y-116799925D01*
X148339839Y-116801099D01*
X147427339Y-116801099D01*
X147403447Y-116799925D01*
X147379786Y-116796415D01*
X147356582Y-116790603D01*
X147334060Y-116782545D01*
X147312436Y-116772317D01*
X147291919Y-116760020D01*
X147272706Y-116745770D01*
X147254982Y-116729706D01*
X147238918Y-116711982D01*
X147224668Y-116692769D01*
X147212371Y-116672252D01*
X147202143Y-116650628D01*
X147194085Y-116628106D01*
X147188273Y-116604902D01*
X147184763Y-116581241D01*
X147183589Y-116557349D01*
X147183589Y-116069849D01*
X147184763Y-116045957D01*
X147188273Y-116022296D01*
X147194085Y-115999092D01*
X147202143Y-115976570D01*
X147212371Y-115954946D01*
X147224668Y-115934429D01*
X147238918Y-115915216D01*
X147254982Y-115897492D01*
X147272706Y-115881428D01*
X147291919Y-115867178D01*
X147312436Y-115854881D01*
X147334060Y-115844653D01*
X147356582Y-115836595D01*
X147379786Y-115830783D01*
X147403447Y-115827273D01*
X147427339Y-115826099D01*
X148339839Y-115826099D01*
X148363731Y-115827273D01*
X148363731Y-115827273D01*
G37*
D11*
X147883589Y-116313599D03*
D10*
G36*
X148363731Y-117702273D02*
X148387392Y-117705783D01*
X148410596Y-117711595D01*
X148433118Y-117719653D01*
X148454742Y-117729881D01*
X148475259Y-117742178D01*
X148494472Y-117756428D01*
X148512196Y-117772492D01*
X148528260Y-117790216D01*
X148542510Y-117809429D01*
X148554807Y-117829946D01*
X148565035Y-117851570D01*
X148573093Y-117874092D01*
X148578905Y-117897296D01*
X148582415Y-117920957D01*
X148583589Y-117944849D01*
X148583589Y-118432349D01*
X148582415Y-118456241D01*
X148578905Y-118479902D01*
X148573093Y-118503106D01*
X148565035Y-118525628D01*
X148554807Y-118547252D01*
X148542510Y-118567769D01*
X148528260Y-118586982D01*
X148512196Y-118604706D01*
X148494472Y-118620770D01*
X148475259Y-118635020D01*
X148454742Y-118647317D01*
X148433118Y-118657545D01*
X148410596Y-118665603D01*
X148387392Y-118671415D01*
X148363731Y-118674925D01*
X148339839Y-118676099D01*
X147427339Y-118676099D01*
X147403447Y-118674925D01*
X147379786Y-118671415D01*
X147356582Y-118665603D01*
X147334060Y-118657545D01*
X147312436Y-118647317D01*
X147291919Y-118635020D01*
X147272706Y-118620770D01*
X147254982Y-118604706D01*
X147238918Y-118586982D01*
X147224668Y-118567769D01*
X147212371Y-118547252D01*
X147202143Y-118525628D01*
X147194085Y-118503106D01*
X147188273Y-118479902D01*
X147184763Y-118456241D01*
X147183589Y-118432349D01*
X147183589Y-117944849D01*
X147184763Y-117920957D01*
X147188273Y-117897296D01*
X147194085Y-117874092D01*
X147202143Y-117851570D01*
X147212371Y-117829946D01*
X147224668Y-117809429D01*
X147238918Y-117790216D01*
X147254982Y-117772492D01*
X147272706Y-117756428D01*
X147291919Y-117742178D01*
X147312436Y-117729881D01*
X147334060Y-117719653D01*
X147356582Y-117711595D01*
X147379786Y-117705783D01*
X147403447Y-117702273D01*
X147427339Y-117701099D01*
X148339839Y-117701099D01*
X148363731Y-117702273D01*
X148363731Y-117702273D01*
G37*
D11*
X147883589Y-118188599D03*
G04 #@! TD*
D10*
G04 #@! TO.C,C5*
G36*
X148363731Y-121415273D02*
X148387392Y-121418783D01*
X148410596Y-121424595D01*
X148433118Y-121432653D01*
X148454742Y-121442881D01*
X148475259Y-121455178D01*
X148494472Y-121469428D01*
X148512196Y-121485492D01*
X148528260Y-121503216D01*
X148542510Y-121522429D01*
X148554807Y-121542946D01*
X148565035Y-121564570D01*
X148573093Y-121587092D01*
X148578905Y-121610296D01*
X148582415Y-121633957D01*
X148583589Y-121657849D01*
X148583589Y-122145349D01*
X148582415Y-122169241D01*
X148578905Y-122192902D01*
X148573093Y-122216106D01*
X148565035Y-122238628D01*
X148554807Y-122260252D01*
X148542510Y-122280769D01*
X148528260Y-122299982D01*
X148512196Y-122317706D01*
X148494472Y-122333770D01*
X148475259Y-122348020D01*
X148454742Y-122360317D01*
X148433118Y-122370545D01*
X148410596Y-122378603D01*
X148387392Y-122384415D01*
X148363731Y-122387925D01*
X148339839Y-122389099D01*
X147427339Y-122389099D01*
X147403447Y-122387925D01*
X147379786Y-122384415D01*
X147356582Y-122378603D01*
X147334060Y-122370545D01*
X147312436Y-122360317D01*
X147291919Y-122348020D01*
X147272706Y-122333770D01*
X147254982Y-122317706D01*
X147238918Y-122299982D01*
X147224668Y-122280769D01*
X147212371Y-122260252D01*
X147202143Y-122238628D01*
X147194085Y-122216106D01*
X147188273Y-122192902D01*
X147184763Y-122169241D01*
X147183589Y-122145349D01*
X147183589Y-121657849D01*
X147184763Y-121633957D01*
X147188273Y-121610296D01*
X147194085Y-121587092D01*
X147202143Y-121564570D01*
X147212371Y-121542946D01*
X147224668Y-121522429D01*
X147238918Y-121503216D01*
X147254982Y-121485492D01*
X147272706Y-121469428D01*
X147291919Y-121455178D01*
X147312436Y-121442881D01*
X147334060Y-121432653D01*
X147356582Y-121424595D01*
X147379786Y-121418783D01*
X147403447Y-121415273D01*
X147427339Y-121414099D01*
X148339839Y-121414099D01*
X148363731Y-121415273D01*
X148363731Y-121415273D01*
G37*
D11*
X147883589Y-121901599D03*
D10*
G36*
X148363731Y-119540273D02*
X148387392Y-119543783D01*
X148410596Y-119549595D01*
X148433118Y-119557653D01*
X148454742Y-119567881D01*
X148475259Y-119580178D01*
X148494472Y-119594428D01*
X148512196Y-119610492D01*
X148528260Y-119628216D01*
X148542510Y-119647429D01*
X148554807Y-119667946D01*
X148565035Y-119689570D01*
X148573093Y-119712092D01*
X148578905Y-119735296D01*
X148582415Y-119758957D01*
X148583589Y-119782849D01*
X148583589Y-120270349D01*
X148582415Y-120294241D01*
X148578905Y-120317902D01*
X148573093Y-120341106D01*
X148565035Y-120363628D01*
X148554807Y-120385252D01*
X148542510Y-120405769D01*
X148528260Y-120424982D01*
X148512196Y-120442706D01*
X148494472Y-120458770D01*
X148475259Y-120473020D01*
X148454742Y-120485317D01*
X148433118Y-120495545D01*
X148410596Y-120503603D01*
X148387392Y-120509415D01*
X148363731Y-120512925D01*
X148339839Y-120514099D01*
X147427339Y-120514099D01*
X147403447Y-120512925D01*
X147379786Y-120509415D01*
X147356582Y-120503603D01*
X147334060Y-120495545D01*
X147312436Y-120485317D01*
X147291919Y-120473020D01*
X147272706Y-120458770D01*
X147254982Y-120442706D01*
X147238918Y-120424982D01*
X147224668Y-120405769D01*
X147212371Y-120385252D01*
X147202143Y-120363628D01*
X147194085Y-120341106D01*
X147188273Y-120317902D01*
X147184763Y-120294241D01*
X147183589Y-120270349D01*
X147183589Y-119782849D01*
X147184763Y-119758957D01*
X147188273Y-119735296D01*
X147194085Y-119712092D01*
X147202143Y-119689570D01*
X147212371Y-119667946D01*
X147224668Y-119647429D01*
X147238918Y-119628216D01*
X147254982Y-119610492D01*
X147272706Y-119594428D01*
X147291919Y-119580178D01*
X147312436Y-119567881D01*
X147334060Y-119557653D01*
X147356582Y-119549595D01*
X147379786Y-119543783D01*
X147403447Y-119540273D01*
X147427339Y-119539099D01*
X148339839Y-119539099D01*
X148363731Y-119540273D01*
X148363731Y-119540273D01*
G37*
D11*
X147883589Y-120026599D03*
G04 #@! TD*
D10*
G04 #@! TO.C,C6*
G36*
X148363731Y-114049273D02*
X148387392Y-114052783D01*
X148410596Y-114058595D01*
X148433118Y-114066653D01*
X148454742Y-114076881D01*
X148475259Y-114089178D01*
X148494472Y-114103428D01*
X148512196Y-114119492D01*
X148528260Y-114137216D01*
X148542510Y-114156429D01*
X148554807Y-114176946D01*
X148565035Y-114198570D01*
X148573093Y-114221092D01*
X148578905Y-114244296D01*
X148582415Y-114267957D01*
X148583589Y-114291849D01*
X148583589Y-114779349D01*
X148582415Y-114803241D01*
X148578905Y-114826902D01*
X148573093Y-114850106D01*
X148565035Y-114872628D01*
X148554807Y-114894252D01*
X148542510Y-114914769D01*
X148528260Y-114933982D01*
X148512196Y-114951706D01*
X148494472Y-114967770D01*
X148475259Y-114982020D01*
X148454742Y-114994317D01*
X148433118Y-115004545D01*
X148410596Y-115012603D01*
X148387392Y-115018415D01*
X148363731Y-115021925D01*
X148339839Y-115023099D01*
X147427339Y-115023099D01*
X147403447Y-115021925D01*
X147379786Y-115018415D01*
X147356582Y-115012603D01*
X147334060Y-115004545D01*
X147312436Y-114994317D01*
X147291919Y-114982020D01*
X147272706Y-114967770D01*
X147254982Y-114951706D01*
X147238918Y-114933982D01*
X147224668Y-114914769D01*
X147212371Y-114894252D01*
X147202143Y-114872628D01*
X147194085Y-114850106D01*
X147188273Y-114826902D01*
X147184763Y-114803241D01*
X147183589Y-114779349D01*
X147183589Y-114291849D01*
X147184763Y-114267957D01*
X147188273Y-114244296D01*
X147194085Y-114221092D01*
X147202143Y-114198570D01*
X147212371Y-114176946D01*
X147224668Y-114156429D01*
X147238918Y-114137216D01*
X147254982Y-114119492D01*
X147272706Y-114103428D01*
X147291919Y-114089178D01*
X147312436Y-114076881D01*
X147334060Y-114066653D01*
X147356582Y-114058595D01*
X147379786Y-114052783D01*
X147403447Y-114049273D01*
X147427339Y-114048099D01*
X148339839Y-114048099D01*
X148363731Y-114049273D01*
X148363731Y-114049273D01*
G37*
D11*
X147883589Y-114535599D03*
D10*
G36*
X148363731Y-112174273D02*
X148387392Y-112177783D01*
X148410596Y-112183595D01*
X148433118Y-112191653D01*
X148454742Y-112201881D01*
X148475259Y-112214178D01*
X148494472Y-112228428D01*
X148512196Y-112244492D01*
X148528260Y-112262216D01*
X148542510Y-112281429D01*
X148554807Y-112301946D01*
X148565035Y-112323570D01*
X148573093Y-112346092D01*
X148578905Y-112369296D01*
X148582415Y-112392957D01*
X148583589Y-112416849D01*
X148583589Y-112904349D01*
X148582415Y-112928241D01*
X148578905Y-112951902D01*
X148573093Y-112975106D01*
X148565035Y-112997628D01*
X148554807Y-113019252D01*
X148542510Y-113039769D01*
X148528260Y-113058982D01*
X148512196Y-113076706D01*
X148494472Y-113092770D01*
X148475259Y-113107020D01*
X148454742Y-113119317D01*
X148433118Y-113129545D01*
X148410596Y-113137603D01*
X148387392Y-113143415D01*
X148363731Y-113146925D01*
X148339839Y-113148099D01*
X147427339Y-113148099D01*
X147403447Y-113146925D01*
X147379786Y-113143415D01*
X147356582Y-113137603D01*
X147334060Y-113129545D01*
X147312436Y-113119317D01*
X147291919Y-113107020D01*
X147272706Y-113092770D01*
X147254982Y-113076706D01*
X147238918Y-113058982D01*
X147224668Y-113039769D01*
X147212371Y-113019252D01*
X147202143Y-112997628D01*
X147194085Y-112975106D01*
X147188273Y-112951902D01*
X147184763Y-112928241D01*
X147183589Y-112904349D01*
X147183589Y-112416849D01*
X147184763Y-112392957D01*
X147188273Y-112369296D01*
X147194085Y-112346092D01*
X147202143Y-112323570D01*
X147212371Y-112301946D01*
X147224668Y-112281429D01*
X147238918Y-112262216D01*
X147254982Y-112244492D01*
X147272706Y-112228428D01*
X147291919Y-112214178D01*
X147312436Y-112201881D01*
X147334060Y-112191653D01*
X147356582Y-112183595D01*
X147379786Y-112177783D01*
X147403447Y-112174273D01*
X147427339Y-112173099D01*
X148339839Y-112173099D01*
X148363731Y-112174273D01*
X148363731Y-112174273D01*
G37*
D11*
X147883589Y-112660599D03*
G04 #@! TD*
D10*
G04 #@! TO.C,C9*
G36*
X161262142Y-91715674D02*
X161285803Y-91719184D01*
X161309007Y-91724996D01*
X161331529Y-91733054D01*
X161353153Y-91743282D01*
X161373670Y-91755579D01*
X161392883Y-91769829D01*
X161410607Y-91785893D01*
X161426671Y-91803617D01*
X161440921Y-91822830D01*
X161453218Y-91843347D01*
X161463446Y-91864971D01*
X161471504Y-91887493D01*
X161477316Y-91910697D01*
X161480826Y-91934358D01*
X161482000Y-91958250D01*
X161482000Y-92445750D01*
X161480826Y-92469642D01*
X161477316Y-92493303D01*
X161471504Y-92516507D01*
X161463446Y-92539029D01*
X161453218Y-92560653D01*
X161440921Y-92581170D01*
X161426671Y-92600383D01*
X161410607Y-92618107D01*
X161392883Y-92634171D01*
X161373670Y-92648421D01*
X161353153Y-92660718D01*
X161331529Y-92670946D01*
X161309007Y-92679004D01*
X161285803Y-92684816D01*
X161262142Y-92688326D01*
X161238250Y-92689500D01*
X160325750Y-92689500D01*
X160301858Y-92688326D01*
X160278197Y-92684816D01*
X160254993Y-92679004D01*
X160232471Y-92670946D01*
X160210847Y-92660718D01*
X160190330Y-92648421D01*
X160171117Y-92634171D01*
X160153393Y-92618107D01*
X160137329Y-92600383D01*
X160123079Y-92581170D01*
X160110782Y-92560653D01*
X160100554Y-92539029D01*
X160092496Y-92516507D01*
X160086684Y-92493303D01*
X160083174Y-92469642D01*
X160082000Y-92445750D01*
X160082000Y-91958250D01*
X160083174Y-91934358D01*
X160086684Y-91910697D01*
X160092496Y-91887493D01*
X160100554Y-91864971D01*
X160110782Y-91843347D01*
X160123079Y-91822830D01*
X160137329Y-91803617D01*
X160153393Y-91785893D01*
X160171117Y-91769829D01*
X160190330Y-91755579D01*
X160210847Y-91743282D01*
X160232471Y-91733054D01*
X160254993Y-91724996D01*
X160278197Y-91719184D01*
X160301858Y-91715674D01*
X160325750Y-91714500D01*
X161238250Y-91714500D01*
X161262142Y-91715674D01*
X161262142Y-91715674D01*
G37*
D11*
X160782000Y-92202000D03*
D10*
G36*
X161262142Y-93590674D02*
X161285803Y-93594184D01*
X161309007Y-93599996D01*
X161331529Y-93608054D01*
X161353153Y-93618282D01*
X161373670Y-93630579D01*
X161392883Y-93644829D01*
X161410607Y-93660893D01*
X161426671Y-93678617D01*
X161440921Y-93697830D01*
X161453218Y-93718347D01*
X161463446Y-93739971D01*
X161471504Y-93762493D01*
X161477316Y-93785697D01*
X161480826Y-93809358D01*
X161482000Y-93833250D01*
X161482000Y-94320750D01*
X161480826Y-94344642D01*
X161477316Y-94368303D01*
X161471504Y-94391507D01*
X161463446Y-94414029D01*
X161453218Y-94435653D01*
X161440921Y-94456170D01*
X161426671Y-94475383D01*
X161410607Y-94493107D01*
X161392883Y-94509171D01*
X161373670Y-94523421D01*
X161353153Y-94535718D01*
X161331529Y-94545946D01*
X161309007Y-94554004D01*
X161285803Y-94559816D01*
X161262142Y-94563326D01*
X161238250Y-94564500D01*
X160325750Y-94564500D01*
X160301858Y-94563326D01*
X160278197Y-94559816D01*
X160254993Y-94554004D01*
X160232471Y-94545946D01*
X160210847Y-94535718D01*
X160190330Y-94523421D01*
X160171117Y-94509171D01*
X160153393Y-94493107D01*
X160137329Y-94475383D01*
X160123079Y-94456170D01*
X160110782Y-94435653D01*
X160100554Y-94414029D01*
X160092496Y-94391507D01*
X160086684Y-94368303D01*
X160083174Y-94344642D01*
X160082000Y-94320750D01*
X160082000Y-93833250D01*
X160083174Y-93809358D01*
X160086684Y-93785697D01*
X160092496Y-93762493D01*
X160100554Y-93739971D01*
X160110782Y-93718347D01*
X160123079Y-93697830D01*
X160137329Y-93678617D01*
X160153393Y-93660893D01*
X160171117Y-93644829D01*
X160190330Y-93630579D01*
X160210847Y-93618282D01*
X160232471Y-93608054D01*
X160254993Y-93599996D01*
X160278197Y-93594184D01*
X160301858Y-93590674D01*
X160325750Y-93589500D01*
X161238250Y-93589500D01*
X161262142Y-93590674D01*
X161262142Y-93590674D01*
G37*
D11*
X160782000Y-94077000D03*
G04 #@! TD*
D10*
G04 #@! TO.C,C10*
G36*
X149578142Y-96638674D02*
X149601803Y-96642184D01*
X149625007Y-96647996D01*
X149647529Y-96656054D01*
X149669153Y-96666282D01*
X149689670Y-96678579D01*
X149708883Y-96692829D01*
X149726607Y-96708893D01*
X149742671Y-96726617D01*
X149756921Y-96745830D01*
X149769218Y-96766347D01*
X149779446Y-96787971D01*
X149787504Y-96810493D01*
X149793316Y-96833697D01*
X149796826Y-96857358D01*
X149798000Y-96881250D01*
X149798000Y-97368750D01*
X149796826Y-97392642D01*
X149793316Y-97416303D01*
X149787504Y-97439507D01*
X149779446Y-97462029D01*
X149769218Y-97483653D01*
X149756921Y-97504170D01*
X149742671Y-97523383D01*
X149726607Y-97541107D01*
X149708883Y-97557171D01*
X149689670Y-97571421D01*
X149669153Y-97583718D01*
X149647529Y-97593946D01*
X149625007Y-97602004D01*
X149601803Y-97607816D01*
X149578142Y-97611326D01*
X149554250Y-97612500D01*
X148641750Y-97612500D01*
X148617858Y-97611326D01*
X148594197Y-97607816D01*
X148570993Y-97602004D01*
X148548471Y-97593946D01*
X148526847Y-97583718D01*
X148506330Y-97571421D01*
X148487117Y-97557171D01*
X148469393Y-97541107D01*
X148453329Y-97523383D01*
X148439079Y-97504170D01*
X148426782Y-97483653D01*
X148416554Y-97462029D01*
X148408496Y-97439507D01*
X148402684Y-97416303D01*
X148399174Y-97392642D01*
X148398000Y-97368750D01*
X148398000Y-96881250D01*
X148399174Y-96857358D01*
X148402684Y-96833697D01*
X148408496Y-96810493D01*
X148416554Y-96787971D01*
X148426782Y-96766347D01*
X148439079Y-96745830D01*
X148453329Y-96726617D01*
X148469393Y-96708893D01*
X148487117Y-96692829D01*
X148506330Y-96678579D01*
X148526847Y-96666282D01*
X148548471Y-96656054D01*
X148570993Y-96647996D01*
X148594197Y-96642184D01*
X148617858Y-96638674D01*
X148641750Y-96637500D01*
X149554250Y-96637500D01*
X149578142Y-96638674D01*
X149578142Y-96638674D01*
G37*
D11*
X149098000Y-97125000D03*
D10*
G36*
X149578142Y-94763674D02*
X149601803Y-94767184D01*
X149625007Y-94772996D01*
X149647529Y-94781054D01*
X149669153Y-94791282D01*
X149689670Y-94803579D01*
X149708883Y-94817829D01*
X149726607Y-94833893D01*
X149742671Y-94851617D01*
X149756921Y-94870830D01*
X149769218Y-94891347D01*
X149779446Y-94912971D01*
X149787504Y-94935493D01*
X149793316Y-94958697D01*
X149796826Y-94982358D01*
X149798000Y-95006250D01*
X149798000Y-95493750D01*
X149796826Y-95517642D01*
X149793316Y-95541303D01*
X149787504Y-95564507D01*
X149779446Y-95587029D01*
X149769218Y-95608653D01*
X149756921Y-95629170D01*
X149742671Y-95648383D01*
X149726607Y-95666107D01*
X149708883Y-95682171D01*
X149689670Y-95696421D01*
X149669153Y-95708718D01*
X149647529Y-95718946D01*
X149625007Y-95727004D01*
X149601803Y-95732816D01*
X149578142Y-95736326D01*
X149554250Y-95737500D01*
X148641750Y-95737500D01*
X148617858Y-95736326D01*
X148594197Y-95732816D01*
X148570993Y-95727004D01*
X148548471Y-95718946D01*
X148526847Y-95708718D01*
X148506330Y-95696421D01*
X148487117Y-95682171D01*
X148469393Y-95666107D01*
X148453329Y-95648383D01*
X148439079Y-95629170D01*
X148426782Y-95608653D01*
X148416554Y-95587029D01*
X148408496Y-95564507D01*
X148402684Y-95541303D01*
X148399174Y-95517642D01*
X148398000Y-95493750D01*
X148398000Y-95006250D01*
X148399174Y-94982358D01*
X148402684Y-94958697D01*
X148408496Y-94935493D01*
X148416554Y-94912971D01*
X148426782Y-94891347D01*
X148439079Y-94870830D01*
X148453329Y-94851617D01*
X148469393Y-94833893D01*
X148487117Y-94817829D01*
X148506330Y-94803579D01*
X148526847Y-94791282D01*
X148548471Y-94781054D01*
X148570993Y-94772996D01*
X148594197Y-94767184D01*
X148617858Y-94763674D01*
X148641750Y-94762500D01*
X149554250Y-94762500D01*
X149578142Y-94763674D01*
X149578142Y-94763674D01*
G37*
D11*
X149098000Y-95250000D03*
G04 #@! TD*
D10*
G04 #@! TO.C,C11*
G36*
X151610142Y-94763674D02*
X151633803Y-94767184D01*
X151657007Y-94772996D01*
X151679529Y-94781054D01*
X151701153Y-94791282D01*
X151721670Y-94803579D01*
X151740883Y-94817829D01*
X151758607Y-94833893D01*
X151774671Y-94851617D01*
X151788921Y-94870830D01*
X151801218Y-94891347D01*
X151811446Y-94912971D01*
X151819504Y-94935493D01*
X151825316Y-94958697D01*
X151828826Y-94982358D01*
X151830000Y-95006250D01*
X151830000Y-95493750D01*
X151828826Y-95517642D01*
X151825316Y-95541303D01*
X151819504Y-95564507D01*
X151811446Y-95587029D01*
X151801218Y-95608653D01*
X151788921Y-95629170D01*
X151774671Y-95648383D01*
X151758607Y-95666107D01*
X151740883Y-95682171D01*
X151721670Y-95696421D01*
X151701153Y-95708718D01*
X151679529Y-95718946D01*
X151657007Y-95727004D01*
X151633803Y-95732816D01*
X151610142Y-95736326D01*
X151586250Y-95737500D01*
X150673750Y-95737500D01*
X150649858Y-95736326D01*
X150626197Y-95732816D01*
X150602993Y-95727004D01*
X150580471Y-95718946D01*
X150558847Y-95708718D01*
X150538330Y-95696421D01*
X150519117Y-95682171D01*
X150501393Y-95666107D01*
X150485329Y-95648383D01*
X150471079Y-95629170D01*
X150458782Y-95608653D01*
X150448554Y-95587029D01*
X150440496Y-95564507D01*
X150434684Y-95541303D01*
X150431174Y-95517642D01*
X150430000Y-95493750D01*
X150430000Y-95006250D01*
X150431174Y-94982358D01*
X150434684Y-94958697D01*
X150440496Y-94935493D01*
X150448554Y-94912971D01*
X150458782Y-94891347D01*
X150471079Y-94870830D01*
X150485329Y-94851617D01*
X150501393Y-94833893D01*
X150519117Y-94817829D01*
X150538330Y-94803579D01*
X150558847Y-94791282D01*
X150580471Y-94781054D01*
X150602993Y-94772996D01*
X150626197Y-94767184D01*
X150649858Y-94763674D01*
X150673750Y-94762500D01*
X151586250Y-94762500D01*
X151610142Y-94763674D01*
X151610142Y-94763674D01*
G37*
D11*
X151130000Y-95250000D03*
D10*
G36*
X151610142Y-96638674D02*
X151633803Y-96642184D01*
X151657007Y-96647996D01*
X151679529Y-96656054D01*
X151701153Y-96666282D01*
X151721670Y-96678579D01*
X151740883Y-96692829D01*
X151758607Y-96708893D01*
X151774671Y-96726617D01*
X151788921Y-96745830D01*
X151801218Y-96766347D01*
X151811446Y-96787971D01*
X151819504Y-96810493D01*
X151825316Y-96833697D01*
X151828826Y-96857358D01*
X151830000Y-96881250D01*
X151830000Y-97368750D01*
X151828826Y-97392642D01*
X151825316Y-97416303D01*
X151819504Y-97439507D01*
X151811446Y-97462029D01*
X151801218Y-97483653D01*
X151788921Y-97504170D01*
X151774671Y-97523383D01*
X151758607Y-97541107D01*
X151740883Y-97557171D01*
X151721670Y-97571421D01*
X151701153Y-97583718D01*
X151679529Y-97593946D01*
X151657007Y-97602004D01*
X151633803Y-97607816D01*
X151610142Y-97611326D01*
X151586250Y-97612500D01*
X150673750Y-97612500D01*
X150649858Y-97611326D01*
X150626197Y-97607816D01*
X150602993Y-97602004D01*
X150580471Y-97593946D01*
X150558847Y-97583718D01*
X150538330Y-97571421D01*
X150519117Y-97557171D01*
X150501393Y-97541107D01*
X150485329Y-97523383D01*
X150471079Y-97504170D01*
X150458782Y-97483653D01*
X150448554Y-97462029D01*
X150440496Y-97439507D01*
X150434684Y-97416303D01*
X150431174Y-97392642D01*
X150430000Y-97368750D01*
X150430000Y-96881250D01*
X150431174Y-96857358D01*
X150434684Y-96833697D01*
X150440496Y-96810493D01*
X150448554Y-96787971D01*
X150458782Y-96766347D01*
X150471079Y-96745830D01*
X150485329Y-96726617D01*
X150501393Y-96708893D01*
X150519117Y-96692829D01*
X150538330Y-96678579D01*
X150558847Y-96666282D01*
X150580471Y-96656054D01*
X150602993Y-96647996D01*
X150626197Y-96642184D01*
X150649858Y-96638674D01*
X150673750Y-96637500D01*
X151586250Y-96637500D01*
X151610142Y-96638674D01*
X151610142Y-96638674D01*
G37*
D11*
X151130000Y-97125000D03*
G04 #@! TD*
D10*
G04 #@! TO.C,R1*
G36*
X148857642Y-89090174D02*
X148881303Y-89093684D01*
X148904507Y-89099496D01*
X148927029Y-89107554D01*
X148948653Y-89117782D01*
X148969170Y-89130079D01*
X148988383Y-89144329D01*
X149006107Y-89160393D01*
X149022171Y-89178117D01*
X149036421Y-89197330D01*
X149048718Y-89217847D01*
X149058946Y-89239471D01*
X149067004Y-89261993D01*
X149072816Y-89285197D01*
X149076326Y-89308858D01*
X149077500Y-89332750D01*
X149077500Y-90245250D01*
X149076326Y-90269142D01*
X149072816Y-90292803D01*
X149067004Y-90316007D01*
X149058946Y-90338529D01*
X149048718Y-90360153D01*
X149036421Y-90380670D01*
X149022171Y-90399883D01*
X149006107Y-90417607D01*
X148988383Y-90433671D01*
X148969170Y-90447921D01*
X148948653Y-90460218D01*
X148927029Y-90470446D01*
X148904507Y-90478504D01*
X148881303Y-90484316D01*
X148857642Y-90487826D01*
X148833750Y-90489000D01*
X148346250Y-90489000D01*
X148322358Y-90487826D01*
X148298697Y-90484316D01*
X148275493Y-90478504D01*
X148252971Y-90470446D01*
X148231347Y-90460218D01*
X148210830Y-90447921D01*
X148191617Y-90433671D01*
X148173893Y-90417607D01*
X148157829Y-90399883D01*
X148143579Y-90380670D01*
X148131282Y-90360153D01*
X148121054Y-90338529D01*
X148112996Y-90316007D01*
X148107184Y-90292803D01*
X148103674Y-90269142D01*
X148102500Y-90245250D01*
X148102500Y-89332750D01*
X148103674Y-89308858D01*
X148107184Y-89285197D01*
X148112996Y-89261993D01*
X148121054Y-89239471D01*
X148131282Y-89217847D01*
X148143579Y-89197330D01*
X148157829Y-89178117D01*
X148173893Y-89160393D01*
X148191617Y-89144329D01*
X148210830Y-89130079D01*
X148231347Y-89117782D01*
X148252971Y-89107554D01*
X148275493Y-89099496D01*
X148298697Y-89093684D01*
X148322358Y-89090174D01*
X148346250Y-89089000D01*
X148833750Y-89089000D01*
X148857642Y-89090174D01*
X148857642Y-89090174D01*
G37*
D11*
X148590000Y-89789000D03*
D10*
G36*
X146982642Y-89090174D02*
X147006303Y-89093684D01*
X147029507Y-89099496D01*
X147052029Y-89107554D01*
X147073653Y-89117782D01*
X147094170Y-89130079D01*
X147113383Y-89144329D01*
X147131107Y-89160393D01*
X147147171Y-89178117D01*
X147161421Y-89197330D01*
X147173718Y-89217847D01*
X147183946Y-89239471D01*
X147192004Y-89261993D01*
X147197816Y-89285197D01*
X147201326Y-89308858D01*
X147202500Y-89332750D01*
X147202500Y-90245250D01*
X147201326Y-90269142D01*
X147197816Y-90292803D01*
X147192004Y-90316007D01*
X147183946Y-90338529D01*
X147173718Y-90360153D01*
X147161421Y-90380670D01*
X147147171Y-90399883D01*
X147131107Y-90417607D01*
X147113383Y-90433671D01*
X147094170Y-90447921D01*
X147073653Y-90460218D01*
X147052029Y-90470446D01*
X147029507Y-90478504D01*
X147006303Y-90484316D01*
X146982642Y-90487826D01*
X146958750Y-90489000D01*
X146471250Y-90489000D01*
X146447358Y-90487826D01*
X146423697Y-90484316D01*
X146400493Y-90478504D01*
X146377971Y-90470446D01*
X146356347Y-90460218D01*
X146335830Y-90447921D01*
X146316617Y-90433671D01*
X146298893Y-90417607D01*
X146282829Y-90399883D01*
X146268579Y-90380670D01*
X146256282Y-90360153D01*
X146246054Y-90338529D01*
X146237996Y-90316007D01*
X146232184Y-90292803D01*
X146228674Y-90269142D01*
X146227500Y-90245250D01*
X146227500Y-89332750D01*
X146228674Y-89308858D01*
X146232184Y-89285197D01*
X146237996Y-89261993D01*
X146246054Y-89239471D01*
X146256282Y-89217847D01*
X146268579Y-89197330D01*
X146282829Y-89178117D01*
X146298893Y-89160393D01*
X146316617Y-89144329D01*
X146335830Y-89130079D01*
X146356347Y-89117782D01*
X146377971Y-89107554D01*
X146400493Y-89099496D01*
X146423697Y-89093684D01*
X146447358Y-89090174D01*
X146471250Y-89089000D01*
X146958750Y-89089000D01*
X146982642Y-89090174D01*
X146982642Y-89090174D01*
G37*
D11*
X146715000Y-89789000D03*
G04 #@! TD*
D10*
G04 #@! TO.C,R2*
G36*
X162954642Y-103822174D02*
X162978303Y-103825684D01*
X163001507Y-103831496D01*
X163024029Y-103839554D01*
X163045653Y-103849782D01*
X163066170Y-103862079D01*
X163085383Y-103876329D01*
X163103107Y-103892393D01*
X163119171Y-103910117D01*
X163133421Y-103929330D01*
X163145718Y-103949847D01*
X163155946Y-103971471D01*
X163164004Y-103993993D01*
X163169816Y-104017197D01*
X163173326Y-104040858D01*
X163174500Y-104064750D01*
X163174500Y-104977250D01*
X163173326Y-105001142D01*
X163169816Y-105024803D01*
X163164004Y-105048007D01*
X163155946Y-105070529D01*
X163145718Y-105092153D01*
X163133421Y-105112670D01*
X163119171Y-105131883D01*
X163103107Y-105149607D01*
X163085383Y-105165671D01*
X163066170Y-105179921D01*
X163045653Y-105192218D01*
X163024029Y-105202446D01*
X163001507Y-105210504D01*
X162978303Y-105216316D01*
X162954642Y-105219826D01*
X162930750Y-105221000D01*
X162443250Y-105221000D01*
X162419358Y-105219826D01*
X162395697Y-105216316D01*
X162372493Y-105210504D01*
X162349971Y-105202446D01*
X162328347Y-105192218D01*
X162307830Y-105179921D01*
X162288617Y-105165671D01*
X162270893Y-105149607D01*
X162254829Y-105131883D01*
X162240579Y-105112670D01*
X162228282Y-105092153D01*
X162218054Y-105070529D01*
X162209996Y-105048007D01*
X162204184Y-105024803D01*
X162200674Y-105001142D01*
X162199500Y-104977250D01*
X162199500Y-104064750D01*
X162200674Y-104040858D01*
X162204184Y-104017197D01*
X162209996Y-103993993D01*
X162218054Y-103971471D01*
X162228282Y-103949847D01*
X162240579Y-103929330D01*
X162254829Y-103910117D01*
X162270893Y-103892393D01*
X162288617Y-103876329D01*
X162307830Y-103862079D01*
X162328347Y-103849782D01*
X162349971Y-103839554D01*
X162372493Y-103831496D01*
X162395697Y-103825684D01*
X162419358Y-103822174D01*
X162443250Y-103821000D01*
X162930750Y-103821000D01*
X162954642Y-103822174D01*
X162954642Y-103822174D01*
G37*
D11*
X162687000Y-104521000D03*
D10*
G36*
X161079642Y-103822174D02*
X161103303Y-103825684D01*
X161126507Y-103831496D01*
X161149029Y-103839554D01*
X161170653Y-103849782D01*
X161191170Y-103862079D01*
X161210383Y-103876329D01*
X161228107Y-103892393D01*
X161244171Y-103910117D01*
X161258421Y-103929330D01*
X161270718Y-103949847D01*
X161280946Y-103971471D01*
X161289004Y-103993993D01*
X161294816Y-104017197D01*
X161298326Y-104040858D01*
X161299500Y-104064750D01*
X161299500Y-104977250D01*
X161298326Y-105001142D01*
X161294816Y-105024803D01*
X161289004Y-105048007D01*
X161280946Y-105070529D01*
X161270718Y-105092153D01*
X161258421Y-105112670D01*
X161244171Y-105131883D01*
X161228107Y-105149607D01*
X161210383Y-105165671D01*
X161191170Y-105179921D01*
X161170653Y-105192218D01*
X161149029Y-105202446D01*
X161126507Y-105210504D01*
X161103303Y-105216316D01*
X161079642Y-105219826D01*
X161055750Y-105221000D01*
X160568250Y-105221000D01*
X160544358Y-105219826D01*
X160520697Y-105216316D01*
X160497493Y-105210504D01*
X160474971Y-105202446D01*
X160453347Y-105192218D01*
X160432830Y-105179921D01*
X160413617Y-105165671D01*
X160395893Y-105149607D01*
X160379829Y-105131883D01*
X160365579Y-105112670D01*
X160353282Y-105092153D01*
X160343054Y-105070529D01*
X160334996Y-105048007D01*
X160329184Y-105024803D01*
X160325674Y-105001142D01*
X160324500Y-104977250D01*
X160324500Y-104064750D01*
X160325674Y-104040858D01*
X160329184Y-104017197D01*
X160334996Y-103993993D01*
X160343054Y-103971471D01*
X160353282Y-103949847D01*
X160365579Y-103929330D01*
X160379829Y-103910117D01*
X160395893Y-103892393D01*
X160413617Y-103876329D01*
X160432830Y-103862079D01*
X160453347Y-103849782D01*
X160474971Y-103839554D01*
X160497493Y-103831496D01*
X160520697Y-103825684D01*
X160544358Y-103822174D01*
X160568250Y-103821000D01*
X161055750Y-103821000D01*
X161079642Y-103822174D01*
X161079642Y-103822174D01*
G37*
D11*
X160812000Y-104521000D03*
G04 #@! TD*
D10*
G04 #@! TO.C,R3*
G36*
X161001142Y-101663174D02*
X161024803Y-101666684D01*
X161048007Y-101672496D01*
X161070529Y-101680554D01*
X161092153Y-101690782D01*
X161112670Y-101703079D01*
X161131883Y-101717329D01*
X161149607Y-101733393D01*
X161165671Y-101751117D01*
X161179921Y-101770330D01*
X161192218Y-101790847D01*
X161202446Y-101812471D01*
X161210504Y-101834993D01*
X161216316Y-101858197D01*
X161219826Y-101881858D01*
X161221000Y-101905750D01*
X161221000Y-102818250D01*
X161219826Y-102842142D01*
X161216316Y-102865803D01*
X161210504Y-102889007D01*
X161202446Y-102911529D01*
X161192218Y-102933153D01*
X161179921Y-102953670D01*
X161165671Y-102972883D01*
X161149607Y-102990607D01*
X161131883Y-103006671D01*
X161112670Y-103020921D01*
X161092153Y-103033218D01*
X161070529Y-103043446D01*
X161048007Y-103051504D01*
X161024803Y-103057316D01*
X161001142Y-103060826D01*
X160977250Y-103062000D01*
X160489750Y-103062000D01*
X160465858Y-103060826D01*
X160442197Y-103057316D01*
X160418993Y-103051504D01*
X160396471Y-103043446D01*
X160374847Y-103033218D01*
X160354330Y-103020921D01*
X160335117Y-103006671D01*
X160317393Y-102990607D01*
X160301329Y-102972883D01*
X160287079Y-102953670D01*
X160274782Y-102933153D01*
X160264554Y-102911529D01*
X160256496Y-102889007D01*
X160250684Y-102865803D01*
X160247174Y-102842142D01*
X160246000Y-102818250D01*
X160246000Y-101905750D01*
X160247174Y-101881858D01*
X160250684Y-101858197D01*
X160256496Y-101834993D01*
X160264554Y-101812471D01*
X160274782Y-101790847D01*
X160287079Y-101770330D01*
X160301329Y-101751117D01*
X160317393Y-101733393D01*
X160335117Y-101717329D01*
X160354330Y-101703079D01*
X160374847Y-101690782D01*
X160396471Y-101680554D01*
X160418993Y-101672496D01*
X160442197Y-101666684D01*
X160465858Y-101663174D01*
X160489750Y-101662000D01*
X160977250Y-101662000D01*
X161001142Y-101663174D01*
X161001142Y-101663174D01*
G37*
D11*
X160733500Y-102362000D03*
D10*
G36*
X162876142Y-101663174D02*
X162899803Y-101666684D01*
X162923007Y-101672496D01*
X162945529Y-101680554D01*
X162967153Y-101690782D01*
X162987670Y-101703079D01*
X163006883Y-101717329D01*
X163024607Y-101733393D01*
X163040671Y-101751117D01*
X163054921Y-101770330D01*
X163067218Y-101790847D01*
X163077446Y-101812471D01*
X163085504Y-101834993D01*
X163091316Y-101858197D01*
X163094826Y-101881858D01*
X163096000Y-101905750D01*
X163096000Y-102818250D01*
X163094826Y-102842142D01*
X163091316Y-102865803D01*
X163085504Y-102889007D01*
X163077446Y-102911529D01*
X163067218Y-102933153D01*
X163054921Y-102953670D01*
X163040671Y-102972883D01*
X163024607Y-102990607D01*
X163006883Y-103006671D01*
X162987670Y-103020921D01*
X162967153Y-103033218D01*
X162945529Y-103043446D01*
X162923007Y-103051504D01*
X162899803Y-103057316D01*
X162876142Y-103060826D01*
X162852250Y-103062000D01*
X162364750Y-103062000D01*
X162340858Y-103060826D01*
X162317197Y-103057316D01*
X162293993Y-103051504D01*
X162271471Y-103043446D01*
X162249847Y-103033218D01*
X162229330Y-103020921D01*
X162210117Y-103006671D01*
X162192393Y-102990607D01*
X162176329Y-102972883D01*
X162162079Y-102953670D01*
X162149782Y-102933153D01*
X162139554Y-102911529D01*
X162131496Y-102889007D01*
X162125684Y-102865803D01*
X162122174Y-102842142D01*
X162121000Y-102818250D01*
X162121000Y-101905750D01*
X162122174Y-101881858D01*
X162125684Y-101858197D01*
X162131496Y-101834993D01*
X162139554Y-101812471D01*
X162149782Y-101790847D01*
X162162079Y-101770330D01*
X162176329Y-101751117D01*
X162192393Y-101733393D01*
X162210117Y-101717329D01*
X162229330Y-101703079D01*
X162249847Y-101690782D01*
X162271471Y-101680554D01*
X162293993Y-101672496D01*
X162317197Y-101666684D01*
X162340858Y-101663174D01*
X162364750Y-101662000D01*
X162852250Y-101662000D01*
X162876142Y-101663174D01*
X162876142Y-101663174D01*
G37*
D11*
X162608500Y-102362000D03*
G04 #@! TD*
D10*
G04 #@! TO.C,R4*
G36*
X160174731Y-119861273D02*
X160198392Y-119864783D01*
X160221596Y-119870595D01*
X160244118Y-119878653D01*
X160265742Y-119888881D01*
X160286259Y-119901178D01*
X160305472Y-119915428D01*
X160323196Y-119931492D01*
X160339260Y-119949216D01*
X160353510Y-119968429D01*
X160365807Y-119988946D01*
X160376035Y-120010570D01*
X160384093Y-120033092D01*
X160389905Y-120056296D01*
X160393415Y-120079957D01*
X160394589Y-120103849D01*
X160394589Y-120591349D01*
X160393415Y-120615241D01*
X160389905Y-120638902D01*
X160384093Y-120662106D01*
X160376035Y-120684628D01*
X160365807Y-120706252D01*
X160353510Y-120726769D01*
X160339260Y-120745982D01*
X160323196Y-120763706D01*
X160305472Y-120779770D01*
X160286259Y-120794020D01*
X160265742Y-120806317D01*
X160244118Y-120816545D01*
X160221596Y-120824603D01*
X160198392Y-120830415D01*
X160174731Y-120833925D01*
X160150839Y-120835099D01*
X159238339Y-120835099D01*
X159214447Y-120833925D01*
X159190786Y-120830415D01*
X159167582Y-120824603D01*
X159145060Y-120816545D01*
X159123436Y-120806317D01*
X159102919Y-120794020D01*
X159083706Y-120779770D01*
X159065982Y-120763706D01*
X159049918Y-120745982D01*
X159035668Y-120726769D01*
X159023371Y-120706252D01*
X159013143Y-120684628D01*
X159005085Y-120662106D01*
X158999273Y-120638902D01*
X158995763Y-120615241D01*
X158994589Y-120591349D01*
X158994589Y-120103849D01*
X158995763Y-120079957D01*
X158999273Y-120056296D01*
X159005085Y-120033092D01*
X159013143Y-120010570D01*
X159023371Y-119988946D01*
X159035668Y-119968429D01*
X159049918Y-119949216D01*
X159065982Y-119931492D01*
X159083706Y-119915428D01*
X159102919Y-119901178D01*
X159123436Y-119888881D01*
X159145060Y-119878653D01*
X159167582Y-119870595D01*
X159190786Y-119864783D01*
X159214447Y-119861273D01*
X159238339Y-119860099D01*
X160150839Y-119860099D01*
X160174731Y-119861273D01*
X160174731Y-119861273D01*
G37*
D11*
X159694589Y-120347599D03*
D10*
G36*
X160174731Y-117986273D02*
X160198392Y-117989783D01*
X160221596Y-117995595D01*
X160244118Y-118003653D01*
X160265742Y-118013881D01*
X160286259Y-118026178D01*
X160305472Y-118040428D01*
X160323196Y-118056492D01*
X160339260Y-118074216D01*
X160353510Y-118093429D01*
X160365807Y-118113946D01*
X160376035Y-118135570D01*
X160384093Y-118158092D01*
X160389905Y-118181296D01*
X160393415Y-118204957D01*
X160394589Y-118228849D01*
X160394589Y-118716349D01*
X160393415Y-118740241D01*
X160389905Y-118763902D01*
X160384093Y-118787106D01*
X160376035Y-118809628D01*
X160365807Y-118831252D01*
X160353510Y-118851769D01*
X160339260Y-118870982D01*
X160323196Y-118888706D01*
X160305472Y-118904770D01*
X160286259Y-118919020D01*
X160265742Y-118931317D01*
X160244118Y-118941545D01*
X160221596Y-118949603D01*
X160198392Y-118955415D01*
X160174731Y-118958925D01*
X160150839Y-118960099D01*
X159238339Y-118960099D01*
X159214447Y-118958925D01*
X159190786Y-118955415D01*
X159167582Y-118949603D01*
X159145060Y-118941545D01*
X159123436Y-118931317D01*
X159102919Y-118919020D01*
X159083706Y-118904770D01*
X159065982Y-118888706D01*
X159049918Y-118870982D01*
X159035668Y-118851769D01*
X159023371Y-118831252D01*
X159013143Y-118809628D01*
X159005085Y-118787106D01*
X158999273Y-118763902D01*
X158995763Y-118740241D01*
X158994589Y-118716349D01*
X158994589Y-118228849D01*
X158995763Y-118204957D01*
X158999273Y-118181296D01*
X159005085Y-118158092D01*
X159013143Y-118135570D01*
X159023371Y-118113946D01*
X159035668Y-118093429D01*
X159049918Y-118074216D01*
X159065982Y-118056492D01*
X159083706Y-118040428D01*
X159102919Y-118026178D01*
X159123436Y-118013881D01*
X159145060Y-118003653D01*
X159167582Y-117995595D01*
X159190786Y-117989783D01*
X159214447Y-117986273D01*
X159238339Y-117985099D01*
X160150839Y-117985099D01*
X160174731Y-117986273D01*
X160174731Y-117986273D01*
G37*
D11*
X159694589Y-118472599D03*
G04 #@! TD*
D10*
G04 #@! TO.C,R5*
G36*
X162460731Y-119861273D02*
X162484392Y-119864783D01*
X162507596Y-119870595D01*
X162530118Y-119878653D01*
X162551742Y-119888881D01*
X162572259Y-119901178D01*
X162591472Y-119915428D01*
X162609196Y-119931492D01*
X162625260Y-119949216D01*
X162639510Y-119968429D01*
X162651807Y-119988946D01*
X162662035Y-120010570D01*
X162670093Y-120033092D01*
X162675905Y-120056296D01*
X162679415Y-120079957D01*
X162680589Y-120103849D01*
X162680589Y-120591349D01*
X162679415Y-120615241D01*
X162675905Y-120638902D01*
X162670093Y-120662106D01*
X162662035Y-120684628D01*
X162651807Y-120706252D01*
X162639510Y-120726769D01*
X162625260Y-120745982D01*
X162609196Y-120763706D01*
X162591472Y-120779770D01*
X162572259Y-120794020D01*
X162551742Y-120806317D01*
X162530118Y-120816545D01*
X162507596Y-120824603D01*
X162484392Y-120830415D01*
X162460731Y-120833925D01*
X162436839Y-120835099D01*
X161524339Y-120835099D01*
X161500447Y-120833925D01*
X161476786Y-120830415D01*
X161453582Y-120824603D01*
X161431060Y-120816545D01*
X161409436Y-120806317D01*
X161388919Y-120794020D01*
X161369706Y-120779770D01*
X161351982Y-120763706D01*
X161335918Y-120745982D01*
X161321668Y-120726769D01*
X161309371Y-120706252D01*
X161299143Y-120684628D01*
X161291085Y-120662106D01*
X161285273Y-120638902D01*
X161281763Y-120615241D01*
X161280589Y-120591349D01*
X161280589Y-120103849D01*
X161281763Y-120079957D01*
X161285273Y-120056296D01*
X161291085Y-120033092D01*
X161299143Y-120010570D01*
X161309371Y-119988946D01*
X161321668Y-119968429D01*
X161335918Y-119949216D01*
X161351982Y-119931492D01*
X161369706Y-119915428D01*
X161388919Y-119901178D01*
X161409436Y-119888881D01*
X161431060Y-119878653D01*
X161453582Y-119870595D01*
X161476786Y-119864783D01*
X161500447Y-119861273D01*
X161524339Y-119860099D01*
X162436839Y-119860099D01*
X162460731Y-119861273D01*
X162460731Y-119861273D01*
G37*
D11*
X161980589Y-120347599D03*
D10*
G36*
X162460731Y-117986273D02*
X162484392Y-117989783D01*
X162507596Y-117995595D01*
X162530118Y-118003653D01*
X162551742Y-118013881D01*
X162572259Y-118026178D01*
X162591472Y-118040428D01*
X162609196Y-118056492D01*
X162625260Y-118074216D01*
X162639510Y-118093429D01*
X162651807Y-118113946D01*
X162662035Y-118135570D01*
X162670093Y-118158092D01*
X162675905Y-118181296D01*
X162679415Y-118204957D01*
X162680589Y-118228849D01*
X162680589Y-118716349D01*
X162679415Y-118740241D01*
X162675905Y-118763902D01*
X162670093Y-118787106D01*
X162662035Y-118809628D01*
X162651807Y-118831252D01*
X162639510Y-118851769D01*
X162625260Y-118870982D01*
X162609196Y-118888706D01*
X162591472Y-118904770D01*
X162572259Y-118919020D01*
X162551742Y-118931317D01*
X162530118Y-118941545D01*
X162507596Y-118949603D01*
X162484392Y-118955415D01*
X162460731Y-118958925D01*
X162436839Y-118960099D01*
X161524339Y-118960099D01*
X161500447Y-118958925D01*
X161476786Y-118955415D01*
X161453582Y-118949603D01*
X161431060Y-118941545D01*
X161409436Y-118931317D01*
X161388919Y-118919020D01*
X161369706Y-118904770D01*
X161351982Y-118888706D01*
X161335918Y-118870982D01*
X161321668Y-118851769D01*
X161309371Y-118831252D01*
X161299143Y-118809628D01*
X161291085Y-118787106D01*
X161285273Y-118763902D01*
X161281763Y-118740241D01*
X161280589Y-118716349D01*
X161280589Y-118228849D01*
X161281763Y-118204957D01*
X161285273Y-118181296D01*
X161291085Y-118158092D01*
X161299143Y-118135570D01*
X161309371Y-118113946D01*
X161321668Y-118093429D01*
X161335918Y-118074216D01*
X161351982Y-118056492D01*
X161369706Y-118040428D01*
X161388919Y-118026178D01*
X161409436Y-118013881D01*
X161431060Y-118003653D01*
X161453582Y-117995595D01*
X161476786Y-117989783D01*
X161500447Y-117986273D01*
X161524339Y-117985099D01*
X162436839Y-117985099D01*
X162460731Y-117986273D01*
X162460731Y-117986273D01*
G37*
D11*
X161980589Y-118472599D03*
G04 #@! TD*
D12*
G04 #@! TO.C,U2*
X150529589Y-119985599D03*
X150529589Y-119335599D03*
X150529589Y-118685599D03*
X150529589Y-118035599D03*
X150529589Y-117385599D03*
X150529589Y-116735599D03*
X150529589Y-116085599D03*
X150529589Y-115435599D03*
X157429589Y-115435599D03*
X157429589Y-116085599D03*
X157429589Y-116735599D03*
X157429589Y-117385599D03*
X157429589Y-118035599D03*
X157429589Y-118685599D03*
X157429589Y-119335599D03*
X157429589Y-119985599D03*
G04 #@! TD*
D13*
G04 #@! TO.C,U4*
X155829000Y-99035000D03*
D14*
X155829000Y-92735000D03*
X158129000Y-92735000D03*
X153529000Y-92735000D03*
G04 #@! TD*
D15*
G04 #@! TO.C,Q1*
X166972000Y-118110000D03*
X166972000Y-116840000D03*
X166972000Y-115570000D03*
X166972000Y-114300000D03*
X172372000Y-114300000D03*
X172372000Y-115570000D03*
X172372000Y-116840000D03*
X172372000Y-118110000D03*
G04 #@! TD*
D10*
G04 #@! TO.C,R14*
G36*
X164183142Y-115180674D02*
X164206803Y-115184184D01*
X164230007Y-115189996D01*
X164252529Y-115198054D01*
X164274153Y-115208282D01*
X164294670Y-115220579D01*
X164313883Y-115234829D01*
X164331607Y-115250893D01*
X164347671Y-115268617D01*
X164361921Y-115287830D01*
X164374218Y-115308347D01*
X164384446Y-115329971D01*
X164392504Y-115352493D01*
X164398316Y-115375697D01*
X164401826Y-115399358D01*
X164403000Y-115423250D01*
X164403000Y-115910750D01*
X164401826Y-115934642D01*
X164398316Y-115958303D01*
X164392504Y-115981507D01*
X164384446Y-116004029D01*
X164374218Y-116025653D01*
X164361921Y-116046170D01*
X164347671Y-116065383D01*
X164331607Y-116083107D01*
X164313883Y-116099171D01*
X164294670Y-116113421D01*
X164274153Y-116125718D01*
X164252529Y-116135946D01*
X164230007Y-116144004D01*
X164206803Y-116149816D01*
X164183142Y-116153326D01*
X164159250Y-116154500D01*
X163246750Y-116154500D01*
X163222858Y-116153326D01*
X163199197Y-116149816D01*
X163175993Y-116144004D01*
X163153471Y-116135946D01*
X163131847Y-116125718D01*
X163111330Y-116113421D01*
X163092117Y-116099171D01*
X163074393Y-116083107D01*
X163058329Y-116065383D01*
X163044079Y-116046170D01*
X163031782Y-116025653D01*
X163021554Y-116004029D01*
X163013496Y-115981507D01*
X163007684Y-115958303D01*
X163004174Y-115934642D01*
X163003000Y-115910750D01*
X163003000Y-115423250D01*
X163004174Y-115399358D01*
X163007684Y-115375697D01*
X163013496Y-115352493D01*
X163021554Y-115329971D01*
X163031782Y-115308347D01*
X163044079Y-115287830D01*
X163058329Y-115268617D01*
X163074393Y-115250893D01*
X163092117Y-115234829D01*
X163111330Y-115220579D01*
X163131847Y-115208282D01*
X163153471Y-115198054D01*
X163175993Y-115189996D01*
X163199197Y-115184184D01*
X163222858Y-115180674D01*
X163246750Y-115179500D01*
X164159250Y-115179500D01*
X164183142Y-115180674D01*
X164183142Y-115180674D01*
G37*
D11*
X163703000Y-115667000D03*
D10*
G36*
X164183142Y-113305674D02*
X164206803Y-113309184D01*
X164230007Y-113314996D01*
X164252529Y-113323054D01*
X164274153Y-113333282D01*
X164294670Y-113345579D01*
X164313883Y-113359829D01*
X164331607Y-113375893D01*
X164347671Y-113393617D01*
X164361921Y-113412830D01*
X164374218Y-113433347D01*
X164384446Y-113454971D01*
X164392504Y-113477493D01*
X164398316Y-113500697D01*
X164401826Y-113524358D01*
X164403000Y-113548250D01*
X164403000Y-114035750D01*
X164401826Y-114059642D01*
X164398316Y-114083303D01*
X164392504Y-114106507D01*
X164384446Y-114129029D01*
X164374218Y-114150653D01*
X164361921Y-114171170D01*
X164347671Y-114190383D01*
X164331607Y-114208107D01*
X164313883Y-114224171D01*
X164294670Y-114238421D01*
X164274153Y-114250718D01*
X164252529Y-114260946D01*
X164230007Y-114269004D01*
X164206803Y-114274816D01*
X164183142Y-114278326D01*
X164159250Y-114279500D01*
X163246750Y-114279500D01*
X163222858Y-114278326D01*
X163199197Y-114274816D01*
X163175993Y-114269004D01*
X163153471Y-114260946D01*
X163131847Y-114250718D01*
X163111330Y-114238421D01*
X163092117Y-114224171D01*
X163074393Y-114208107D01*
X163058329Y-114190383D01*
X163044079Y-114171170D01*
X163031782Y-114150653D01*
X163021554Y-114129029D01*
X163013496Y-114106507D01*
X163007684Y-114083303D01*
X163004174Y-114059642D01*
X163003000Y-114035750D01*
X163003000Y-113548250D01*
X163004174Y-113524358D01*
X163007684Y-113500697D01*
X163013496Y-113477493D01*
X163021554Y-113454971D01*
X163031782Y-113433347D01*
X163044079Y-113412830D01*
X163058329Y-113393617D01*
X163074393Y-113375893D01*
X163092117Y-113359829D01*
X163111330Y-113345579D01*
X163131847Y-113333282D01*
X163153471Y-113323054D01*
X163175993Y-113314996D01*
X163199197Y-113309184D01*
X163222858Y-113305674D01*
X163246750Y-113304500D01*
X164159250Y-113304500D01*
X164183142Y-113305674D01*
X164183142Y-113305674D01*
G37*
D11*
X163703000Y-113792000D03*
G04 #@! TD*
M02*
