M48
INCH,TZ
T1C0.0157
T2C0.0236
T3C0.0295
T4C0.0335
T5C0.0354
T6C0.0394
T7C0.1260
%
G90
G05
T1
X53335Y-43086
X56465Y-43086
X56650Y-44805
X56650Y-48195
X57328Y-35837
X57650Y-48195
X57654Y-35250
X58900Y-48950
X58999Y-44874
X60100Y-41850
X60119Y-42243
X60266Y-46000
X60453Y-45613
X60650Y-44805
X60650Y-48195
X60690Y-42363
X60850Y-45850
X61031Y-51100
X62432Y-41990
X62650Y-48195
X63250Y-41144
X64346Y-35250
X64346Y-35750
X64346Y-36250
X64346Y-37750
X64467Y-40856
X67400Y-41950
X67400Y-49250
X68100Y-40350
T2
X57654Y-34750
X58200Y-43750
X58222Y-47255
X58500Y-34550
X58700Y-37500
X60450Y-35800
X61150Y-47400
X61350Y-38990
X63281Y-40300
X63300Y-36300
X64050Y-41242
X64450Y-45538
X66450Y-43800
X67450Y-43800
T3
X67463Y-43000
X68250Y-43000
T4
X68574Y-38816
X68574Y-40784
T5
X65800Y-38681
X65800Y-39666
X65800Y-40650
X67099Y-38681
X67099Y-39666
X67099Y-40650
T6
X58850Y-51100
X59395Y-52218
X59941Y-51100
X60486Y-52218
X61031Y-51100
X61576Y-52218
X62122Y-51100
X62667Y-52218
X63212Y-51100
X59500Y-42950
X60500Y-42950
X61500Y-42950
X62500Y-42950
T7
X56110Y-51218
X65952Y-51218
T2
X69499Y-38422G85X69775Y-38422
G05
X69775Y-41178G85X69499Y-41178
G05
T0
M30
