G04 #@! TF.GenerationSoftware,KiCad,Pcbnew,5.0.2-bee76a0~70~ubuntu18.04.1*
G04 #@! TF.CreationDate,2019-03-24T18:51:09+10:00*
G04 #@! TF.ProjectId,esp32_rs232_adapter,65737033-325f-4727-9332-33325f616461,rev?*
G04 #@! TF.SameCoordinates,Original*
G04 #@! TF.FileFunction,Legend,Bot*
G04 #@! TF.FilePolarity,Positive*
%FSLAX46Y46*%
G04 Gerber Fmt 4.6, Leading zero omitted, Abs format (unit mm)*
G04 Created by KiCad (PCBNEW 5.0.2-bee76a0~70~ubuntu18.04.1) date Sun 24 Mar 2019 18:51:09 AEST*
%MOMM*%
%LPD*%
G01*
G04 APERTURE LIST*
%ADD10C,0.120000*%
%ADD11C,0.150000*%
G04 APERTURE END LIST*
D10*
G04 #@! TO.C,C1*
X147393922Y-88467000D02*
X147911078Y-88467000D01*
X147393922Y-87047000D02*
X147911078Y-87047000D01*
G04 #@! TO.C,C2*
X150878511Y-123119599D02*
X151395667Y-123119599D01*
X150878511Y-121699599D02*
X151395667Y-121699599D01*
G04 #@! TO.C,C3*
X157080667Y-121699599D02*
X156563511Y-121699599D01*
X157080667Y-123119599D02*
X156563511Y-123119599D01*
G04 #@! TO.C,C4*
X147173589Y-117509677D02*
X147173589Y-116992521D01*
X148593589Y-117509677D02*
X148593589Y-116992521D01*
G04 #@! TO.C,C5*
X148593589Y-121222677D02*
X148593589Y-120705521D01*
X147173589Y-121222677D02*
X147173589Y-120705521D01*
G04 #@! TO.C,C6*
X148593589Y-113339521D02*
X148593589Y-113856677D01*
X147173589Y-113339521D02*
X147173589Y-113856677D01*
G04 #@! TO.C,C9*
X160072000Y-93398078D02*
X160072000Y-92880922D01*
X161492000Y-93398078D02*
X161492000Y-92880922D01*
G04 #@! TO.C,C10*
X149808000Y-96446078D02*
X149808000Y-95928922D01*
X148388000Y-96446078D02*
X148388000Y-95928922D01*
G04 #@! TO.C,C11*
X150420000Y-96446078D02*
X150420000Y-95928922D01*
X151840000Y-96446078D02*
X151840000Y-95928922D01*
G04 #@! TO.C,R1*
X147911078Y-89079000D02*
X147393922Y-89079000D01*
X147911078Y-90499000D02*
X147393922Y-90499000D01*
G04 #@! TO.C,R2*
X161490922Y-103811000D02*
X162008078Y-103811000D01*
X161490922Y-105231000D02*
X162008078Y-105231000D01*
G04 #@! TO.C,R3*
X161412422Y-103072000D02*
X161929578Y-103072000D01*
X161412422Y-101652000D02*
X161929578Y-101652000D01*
G04 #@! TO.C,R4*
X160404589Y-119668677D02*
X160404589Y-119151521D01*
X158984589Y-119668677D02*
X158984589Y-119151521D01*
G04 #@! TO.C,R5*
X162690589Y-119668677D02*
X162690589Y-119151521D01*
X161270589Y-119668677D02*
X161270589Y-119151521D01*
D11*
G04 #@! TO.C,U2*
X151204589Y-120985599D02*
X151204589Y-120510599D01*
X156754589Y-120985599D02*
X156754589Y-120410599D01*
X156754589Y-114435599D02*
X156754589Y-115010599D01*
X151204589Y-114435599D02*
X151204589Y-115010599D01*
X151204589Y-120985599D02*
X156754589Y-120985599D01*
X151204589Y-114435599D02*
X156754589Y-114435599D01*
X151204589Y-120510599D02*
X149929589Y-120510599D01*
D10*
G04 #@! TO.C,BT1*
X175415000Y-107410000D02*
X175415000Y-112130000D01*
X175415000Y-112130000D02*
X169295000Y-112130000D01*
X169295000Y-112130000D02*
X169295000Y-107410000D01*
X169295000Y-107410000D02*
X175415000Y-107410000D01*
X173655000Y-107410000D02*
X173655000Y-107210000D01*
X173655000Y-107210000D02*
X173955000Y-107210000D01*
X173955000Y-107210000D02*
X173955000Y-107410000D01*
X173655000Y-107310000D02*
X173955000Y-107310000D01*
X172855000Y-107410000D02*
X172855000Y-108020000D01*
X172855000Y-108020000D02*
X174805000Y-108020000D01*
X174805000Y-108020000D02*
X174805000Y-111520000D01*
X174805000Y-111520000D02*
X169905000Y-111520000D01*
X169905000Y-111520000D02*
X169905000Y-108020000D01*
X169905000Y-108020000D02*
X171855000Y-108020000D01*
X171855000Y-108020000D02*
X171855000Y-107410000D01*
X175415000Y-108720000D02*
X174805000Y-108720000D01*
X175415000Y-110020000D02*
X174805000Y-110020000D01*
X169295000Y-108720000D02*
X169905000Y-108720000D01*
X169295000Y-110020000D02*
X169905000Y-110020000D01*
X172455000Y-111520000D02*
X172455000Y-111020000D01*
X172455000Y-111020000D02*
X172255000Y-111020000D01*
X172255000Y-111020000D02*
X172255000Y-111520000D01*
X172355000Y-111520000D02*
X172355000Y-111020000D01*
X174465000Y-107110000D02*
X175715000Y-107110000D01*
X175715000Y-107110000D02*
X175715000Y-108360000D01*
G04 #@! TO.C,U4*
X159239000Y-97795000D02*
X157979000Y-97795000D01*
X152419000Y-97795000D02*
X153679000Y-97795000D01*
X159239000Y-94035000D02*
X159239000Y-97795000D01*
X152419000Y-91785000D02*
X152419000Y-97795000D01*
D11*
G04 #@! TO.C,Q1*
X167597000Y-118780000D02*
X167597000Y-118730000D01*
X171747000Y-118780000D02*
X171747000Y-118635000D01*
X171747000Y-113630000D02*
X171747000Y-113775000D01*
X167597000Y-113630000D02*
X167597000Y-113775000D01*
X167597000Y-118780000D02*
X171747000Y-118780000D01*
X167597000Y-113630000D02*
X171747000Y-113630000D01*
X167597000Y-118730000D02*
X166197000Y-118730000D01*
D10*
G04 #@! TO.C,R14*
X164413000Y-114988078D02*
X164413000Y-114470922D01*
X162993000Y-114988078D02*
X162993000Y-114470922D01*
G04 #@! TO.C,C1*
D11*
X150437666Y-88114142D02*
X150485285Y-88161761D01*
X150628142Y-88209380D01*
X150723380Y-88209380D01*
X150866238Y-88161761D01*
X150961476Y-88066523D01*
X151009095Y-87971285D01*
X151056714Y-87780809D01*
X151056714Y-87637952D01*
X151009095Y-87447476D01*
X150961476Y-87352238D01*
X150866238Y-87257000D01*
X150723380Y-87209380D01*
X150628142Y-87209380D01*
X150485285Y-87257000D01*
X150437666Y-87304619D01*
X149485285Y-88209380D02*
X150056714Y-88209380D01*
X149771000Y-88209380D02*
X149771000Y-87209380D01*
X149866238Y-87352238D01*
X149961476Y-87447476D01*
X150056714Y-87495095D01*
G04 #@! TO.C,C2*
X151225255Y-124417741D02*
X151272874Y-124465360D01*
X151415731Y-124512979D01*
X151510969Y-124512979D01*
X151653827Y-124465360D01*
X151749065Y-124370122D01*
X151796684Y-124274884D01*
X151844303Y-124084408D01*
X151844303Y-123941551D01*
X151796684Y-123751075D01*
X151749065Y-123655837D01*
X151653827Y-123560599D01*
X151510969Y-123512979D01*
X151415731Y-123512979D01*
X151272874Y-123560599D01*
X151225255Y-123608218D01*
X150844303Y-123608218D02*
X150796684Y-123560599D01*
X150701446Y-123512979D01*
X150463350Y-123512979D01*
X150368112Y-123560599D01*
X150320493Y-123608218D01*
X150272874Y-123703456D01*
X150272874Y-123798694D01*
X150320493Y-123941551D01*
X150891922Y-124512979D01*
X150272874Y-124512979D01*
G04 #@! TO.C,C3*
X157067255Y-124544741D02*
X157114874Y-124592360D01*
X157257731Y-124639979D01*
X157352969Y-124639979D01*
X157495827Y-124592360D01*
X157591065Y-124497122D01*
X157638684Y-124401884D01*
X157686303Y-124211408D01*
X157686303Y-124068551D01*
X157638684Y-123878075D01*
X157591065Y-123782837D01*
X157495827Y-123687599D01*
X157352969Y-123639979D01*
X157257731Y-123639979D01*
X157114874Y-123687599D01*
X157067255Y-123735218D01*
X156733922Y-123639979D02*
X156114874Y-123639979D01*
X156448208Y-124020932D01*
X156305350Y-124020932D01*
X156210112Y-124068551D01*
X156162493Y-124116170D01*
X156114874Y-124211408D01*
X156114874Y-124449503D01*
X156162493Y-124544741D01*
X156210112Y-124592360D01*
X156305350Y-124639979D01*
X156591065Y-124639979D01*
X156686303Y-124592360D01*
X156733922Y-124544741D01*
G04 #@! TO.C,C4*
X146589731Y-117162932D02*
X146637350Y-117115313D01*
X146684969Y-116972456D01*
X146684969Y-116877218D01*
X146637350Y-116734360D01*
X146542112Y-116639122D01*
X146446874Y-116591503D01*
X146256398Y-116543884D01*
X146113541Y-116543884D01*
X145923065Y-116591503D01*
X145827827Y-116639122D01*
X145732589Y-116734360D01*
X145684969Y-116877218D01*
X145684969Y-116972456D01*
X145732589Y-117115313D01*
X145780208Y-117162932D01*
X146018303Y-118020075D02*
X146684969Y-118020075D01*
X145637350Y-117781979D02*
X146351636Y-117543884D01*
X146351636Y-118162932D01*
G04 #@! TO.C,C5*
X146589731Y-120845932D02*
X146637350Y-120798313D01*
X146684969Y-120655456D01*
X146684969Y-120560218D01*
X146637350Y-120417360D01*
X146542112Y-120322122D01*
X146446874Y-120274503D01*
X146256398Y-120226884D01*
X146113541Y-120226884D01*
X145923065Y-120274503D01*
X145827827Y-120322122D01*
X145732589Y-120417360D01*
X145684969Y-120560218D01*
X145684969Y-120655456D01*
X145732589Y-120798313D01*
X145780208Y-120845932D01*
X145684969Y-121750694D02*
X145684969Y-121274503D01*
X146161160Y-121226884D01*
X146113541Y-121274503D01*
X146065922Y-121369741D01*
X146065922Y-121607837D01*
X146113541Y-121703075D01*
X146161160Y-121750694D01*
X146256398Y-121798313D01*
X146494493Y-121798313D01*
X146589731Y-121750694D01*
X146637350Y-121703075D01*
X146684969Y-121607837D01*
X146684969Y-121369741D01*
X146637350Y-121274503D01*
X146589731Y-121226884D01*
G04 #@! TO.C,C6*
X146589731Y-113352932D02*
X146637350Y-113305313D01*
X146684969Y-113162456D01*
X146684969Y-113067218D01*
X146637350Y-112924360D01*
X146542112Y-112829122D01*
X146446874Y-112781503D01*
X146256398Y-112733884D01*
X146113541Y-112733884D01*
X145923065Y-112781503D01*
X145827827Y-112829122D01*
X145732589Y-112924360D01*
X145684969Y-113067218D01*
X145684969Y-113162456D01*
X145732589Y-113305313D01*
X145780208Y-113352932D01*
X145684969Y-114210075D02*
X145684969Y-114019599D01*
X145732589Y-113924360D01*
X145780208Y-113876741D01*
X145923065Y-113781503D01*
X146113541Y-113733884D01*
X146494493Y-113733884D01*
X146589731Y-113781503D01*
X146637350Y-113829122D01*
X146684969Y-113924360D01*
X146684969Y-114114837D01*
X146637350Y-114210075D01*
X146589731Y-114257694D01*
X146494493Y-114305313D01*
X146256398Y-114305313D01*
X146161160Y-114257694D01*
X146113541Y-114210075D01*
X146065922Y-114114837D01*
X146065922Y-113924360D01*
X146113541Y-113829122D01*
X146161160Y-113781503D01*
X146256398Y-113733884D01*
G04 #@! TO.C,C9*
X162789142Y-92972833D02*
X162836761Y-92925214D01*
X162884380Y-92782357D01*
X162884380Y-92687119D01*
X162836761Y-92544261D01*
X162741523Y-92449023D01*
X162646285Y-92401404D01*
X162455809Y-92353785D01*
X162312952Y-92353785D01*
X162122476Y-92401404D01*
X162027238Y-92449023D01*
X161932000Y-92544261D01*
X161884380Y-92687119D01*
X161884380Y-92782357D01*
X161932000Y-92925214D01*
X161979619Y-92972833D01*
X162884380Y-93449023D02*
X162884380Y-93639500D01*
X162836761Y-93734738D01*
X162789142Y-93782357D01*
X162646285Y-93877595D01*
X162455809Y-93925214D01*
X162074857Y-93925214D01*
X161979619Y-93877595D01*
X161932000Y-93829976D01*
X161884380Y-93734738D01*
X161884380Y-93544261D01*
X161932000Y-93449023D01*
X161979619Y-93401404D01*
X162074857Y-93353785D01*
X162312952Y-93353785D01*
X162408190Y-93401404D01*
X162455809Y-93449023D01*
X162503428Y-93544261D01*
X162503428Y-93734738D01*
X162455809Y-93829976D01*
X162408190Y-93877595D01*
X162312952Y-93925214D01*
G04 #@! TO.C,C10*
X149455142Y-92194142D02*
X149502761Y-92146523D01*
X149550380Y-92003666D01*
X149550380Y-91908428D01*
X149502761Y-91765571D01*
X149407523Y-91670333D01*
X149312285Y-91622714D01*
X149121809Y-91575095D01*
X148978952Y-91575095D01*
X148788476Y-91622714D01*
X148693238Y-91670333D01*
X148598000Y-91765571D01*
X148550380Y-91908428D01*
X148550380Y-92003666D01*
X148598000Y-92146523D01*
X148645619Y-92194142D01*
X149550380Y-93146523D02*
X149550380Y-92575095D01*
X149550380Y-92860809D02*
X148550380Y-92860809D01*
X148693238Y-92765571D01*
X148788476Y-92670333D01*
X148836095Y-92575095D01*
X148550380Y-93765571D02*
X148550380Y-93860809D01*
X148598000Y-93956047D01*
X148645619Y-94003666D01*
X148740857Y-94051285D01*
X148931333Y-94098904D01*
X149169428Y-94098904D01*
X149359904Y-94051285D01*
X149455142Y-94003666D01*
X149502761Y-93956047D01*
X149550380Y-93860809D01*
X149550380Y-93765571D01*
X149502761Y-93670333D01*
X149455142Y-93622714D01*
X149359904Y-93575095D01*
X149169428Y-93527476D01*
X148931333Y-93527476D01*
X148740857Y-93575095D01*
X148645619Y-93622714D01*
X148598000Y-93670333D01*
X148550380Y-93765571D01*
G04 #@! TO.C,C11*
X151614142Y-92194142D02*
X151661761Y-92146523D01*
X151709380Y-92003666D01*
X151709380Y-91908428D01*
X151661761Y-91765571D01*
X151566523Y-91670333D01*
X151471285Y-91622714D01*
X151280809Y-91575095D01*
X151137952Y-91575095D01*
X150947476Y-91622714D01*
X150852238Y-91670333D01*
X150757000Y-91765571D01*
X150709380Y-91908428D01*
X150709380Y-92003666D01*
X150757000Y-92146523D01*
X150804619Y-92194142D01*
X151709380Y-93146523D02*
X151709380Y-92575095D01*
X151709380Y-92860809D02*
X150709380Y-92860809D01*
X150852238Y-92765571D01*
X150947476Y-92670333D01*
X150995095Y-92575095D01*
X151709380Y-94098904D02*
X151709380Y-93527476D01*
X151709380Y-93813190D02*
X150709380Y-93813190D01*
X150852238Y-93717952D01*
X150947476Y-93622714D01*
X150995095Y-93527476D01*
G04 #@! TO.C,R1*
X150486166Y-90241380D02*
X150819500Y-89765190D01*
X151057595Y-90241380D02*
X151057595Y-89241380D01*
X150676642Y-89241380D01*
X150581404Y-89289000D01*
X150533785Y-89336619D01*
X150486166Y-89431857D01*
X150486166Y-89574714D01*
X150533785Y-89669952D01*
X150581404Y-89717571D01*
X150676642Y-89765190D01*
X151057595Y-89765190D01*
X149533785Y-90241380D02*
X150105214Y-90241380D01*
X149819500Y-90241380D02*
X149819500Y-89241380D01*
X149914738Y-89384238D01*
X150009976Y-89479476D01*
X150105214Y-89527095D01*
G04 #@! TO.C,R2*
X159297666Y-104973380D02*
X159631000Y-104497190D01*
X159869095Y-104973380D02*
X159869095Y-103973380D01*
X159488142Y-103973380D01*
X159392904Y-104021000D01*
X159345285Y-104068619D01*
X159297666Y-104163857D01*
X159297666Y-104306714D01*
X159345285Y-104401952D01*
X159392904Y-104449571D01*
X159488142Y-104497190D01*
X159869095Y-104497190D01*
X158916714Y-104068619D02*
X158869095Y-104021000D01*
X158773857Y-103973380D01*
X158535761Y-103973380D01*
X158440523Y-104021000D01*
X158392904Y-104068619D01*
X158345285Y-104163857D01*
X158345285Y-104259095D01*
X158392904Y-104401952D01*
X158964333Y-104973380D01*
X158345285Y-104973380D01*
G04 #@! TO.C,R3*
X159297666Y-102814380D02*
X159631000Y-102338190D01*
X159869095Y-102814380D02*
X159869095Y-101814380D01*
X159488142Y-101814380D01*
X159392904Y-101862000D01*
X159345285Y-101909619D01*
X159297666Y-102004857D01*
X159297666Y-102147714D01*
X159345285Y-102242952D01*
X159392904Y-102290571D01*
X159488142Y-102338190D01*
X159869095Y-102338190D01*
X158964333Y-101814380D02*
X158345285Y-101814380D01*
X158678619Y-102195333D01*
X158535761Y-102195333D01*
X158440523Y-102242952D01*
X158392904Y-102290571D01*
X158345285Y-102385809D01*
X158345285Y-102623904D01*
X158392904Y-102719142D01*
X158440523Y-102766761D01*
X158535761Y-102814380D01*
X158821476Y-102814380D01*
X158916714Y-102766761D01*
X158964333Y-102719142D01*
G04 #@! TO.C,R4*
X160273969Y-121861932D02*
X159797779Y-121528599D01*
X160273969Y-121290503D02*
X159273969Y-121290503D01*
X159273969Y-121671456D01*
X159321589Y-121766694D01*
X159369208Y-121814313D01*
X159464446Y-121861932D01*
X159607303Y-121861932D01*
X159702541Y-121814313D01*
X159750160Y-121766694D01*
X159797779Y-121671456D01*
X159797779Y-121290503D01*
X159607303Y-122719075D02*
X160273969Y-122719075D01*
X159226350Y-122480979D02*
X159940636Y-122242884D01*
X159940636Y-122861932D01*
G04 #@! TO.C,R5*
X162432969Y-121861932D02*
X161956779Y-121528599D01*
X162432969Y-121290503D02*
X161432969Y-121290503D01*
X161432969Y-121671456D01*
X161480589Y-121766694D01*
X161528208Y-121814313D01*
X161623446Y-121861932D01*
X161766303Y-121861932D01*
X161861541Y-121814313D01*
X161909160Y-121766694D01*
X161956779Y-121671456D01*
X161956779Y-121290503D01*
X161432969Y-122766694D02*
X161432969Y-122290503D01*
X161909160Y-122242884D01*
X161861541Y-122290503D01*
X161813922Y-122385741D01*
X161813922Y-122623837D01*
X161861541Y-122719075D01*
X161909160Y-122766694D01*
X162004398Y-122814313D01*
X162242493Y-122814313D01*
X162337731Y-122766694D01*
X162385350Y-122719075D01*
X162432969Y-122623837D01*
X162432969Y-122385741D01*
X162385350Y-122290503D01*
X162337731Y-122242884D01*
G04 #@! TO.C,U2*
X154741493Y-121362979D02*
X154741493Y-122172503D01*
X154693874Y-122267741D01*
X154646255Y-122315360D01*
X154551017Y-122362979D01*
X154360541Y-122362979D01*
X154265303Y-122315360D01*
X154217684Y-122267741D01*
X154170065Y-122172503D01*
X154170065Y-121362979D01*
X153741493Y-121458218D02*
X153693874Y-121410599D01*
X153598636Y-121362979D01*
X153360541Y-121362979D01*
X153265303Y-121410599D01*
X153217684Y-121458218D01*
X153170065Y-121553456D01*
X153170065Y-121648694D01*
X153217684Y-121791551D01*
X153789112Y-122362979D01*
X153170065Y-122362979D01*
G04 #@! TO.C,BT1*
X173140714Y-106248571D02*
X172997857Y-106296190D01*
X172950238Y-106343809D01*
X172902619Y-106439047D01*
X172902619Y-106581904D01*
X172950238Y-106677142D01*
X172997857Y-106724761D01*
X173093095Y-106772380D01*
X173474047Y-106772380D01*
X173474047Y-105772380D01*
X173140714Y-105772380D01*
X173045476Y-105820000D01*
X172997857Y-105867619D01*
X172950238Y-105962857D01*
X172950238Y-106058095D01*
X172997857Y-106153333D01*
X173045476Y-106200952D01*
X173140714Y-106248571D01*
X173474047Y-106248571D01*
X172616904Y-105772380D02*
X172045476Y-105772380D01*
X172331190Y-106772380D02*
X172331190Y-105772380D01*
X171188333Y-106772380D02*
X171759761Y-106772380D01*
X171474047Y-106772380D02*
X171474047Y-105772380D01*
X171569285Y-105915238D01*
X171664523Y-106010476D01*
X171759761Y-106058095D01*
G04 #@! TO.C,U4*
X159726380Y-95377095D02*
X160535904Y-95377095D01*
X160631142Y-95424714D01*
X160678761Y-95472333D01*
X160726380Y-95567571D01*
X160726380Y-95758047D01*
X160678761Y-95853285D01*
X160631142Y-95900904D01*
X160535904Y-95948523D01*
X159726380Y-95948523D01*
X160059714Y-96853285D02*
X160726380Y-96853285D01*
X159678761Y-96615190D02*
X160393047Y-96377095D01*
X160393047Y-96996142D01*
G04 #@! TO.C,Q1*
X169767238Y-120252619D02*
X169862476Y-120205000D01*
X169957714Y-120109761D01*
X170100571Y-119966904D01*
X170195809Y-119919285D01*
X170291047Y-119919285D01*
X170243428Y-120157380D02*
X170338666Y-120109761D01*
X170433904Y-120014523D01*
X170481523Y-119824047D01*
X170481523Y-119490714D01*
X170433904Y-119300238D01*
X170338666Y-119205000D01*
X170243428Y-119157380D01*
X170052952Y-119157380D01*
X169957714Y-119205000D01*
X169862476Y-119300238D01*
X169814857Y-119490714D01*
X169814857Y-119824047D01*
X169862476Y-120014523D01*
X169957714Y-120109761D01*
X170052952Y-120157380D01*
X170243428Y-120157380D01*
X168862476Y-120157380D02*
X169433904Y-120157380D01*
X169148190Y-120157380D02*
X169148190Y-119157380D01*
X169243428Y-119300238D01*
X169338666Y-119395476D01*
X169433904Y-119443095D01*
G04 #@! TO.C,R14*
X165805380Y-114086642D02*
X165329190Y-113753309D01*
X165805380Y-113515214D02*
X164805380Y-113515214D01*
X164805380Y-113896166D01*
X164853000Y-113991404D01*
X164900619Y-114039023D01*
X164995857Y-114086642D01*
X165138714Y-114086642D01*
X165233952Y-114039023D01*
X165281571Y-113991404D01*
X165329190Y-113896166D01*
X165329190Y-113515214D01*
X165805380Y-115039023D02*
X165805380Y-114467595D01*
X165805380Y-114753309D02*
X164805380Y-114753309D01*
X164948238Y-114658071D01*
X165043476Y-114562833D01*
X165091095Y-114467595D01*
X165138714Y-115896166D02*
X165805380Y-115896166D01*
X164757761Y-115658071D02*
X165472047Y-115419976D01*
X165472047Y-116039023D01*
G04 #@! TD*
M02*
