G04 #@! TF.GenerationSoftware,KiCad,Pcbnew,5.0.2-bee76a0~70~ubuntu18.04.1*
G04 #@! TF.CreationDate,2019-03-24T18:51:09+10:00*
G04 #@! TF.ProjectId,esp32_rs232_adapter,65737033-325f-4727-9332-33325f616461,rev?*
G04 #@! TF.SameCoordinates,Original*
G04 #@! TF.FileFunction,Soldermask,Bot*
G04 #@! TF.FilePolarity,Negative*
%FSLAX46Y46*%
G04 Gerber Fmt 4.6, Leading zero omitted, Abs format (unit mm)*
G04 Created by KiCad (PCBNEW 5.0.2-bee76a0~70~ubuntu18.04.1) date Sun 24 Mar 2019 18:51:09 AEST*
%MOMM*%
%LPD*%
G01*
G04 APERTURE LIST*
%ADD10C,0.100000*%
G04 APERTURE END LIST*
D10*
G36*
X159422228Y-131815703D02*
X159577100Y-131879853D01*
X159716481Y-131972985D01*
X159835015Y-132091519D01*
X159928147Y-132230900D01*
X159992297Y-132385772D01*
X160025000Y-132550184D01*
X160025000Y-132717816D01*
X159992297Y-132882228D01*
X159928147Y-133037100D01*
X159835015Y-133176481D01*
X159716481Y-133295015D01*
X159577100Y-133388147D01*
X159422228Y-133452297D01*
X159257816Y-133485000D01*
X159090184Y-133485000D01*
X158925772Y-133452297D01*
X158770900Y-133388147D01*
X158631519Y-133295015D01*
X158512985Y-133176481D01*
X158419853Y-133037100D01*
X158355703Y-132882228D01*
X158323000Y-132717816D01*
X158323000Y-132550184D01*
X158355703Y-132385772D01*
X158419853Y-132230900D01*
X158512985Y-132091519D01*
X158631519Y-131972985D01*
X158770900Y-131879853D01*
X158925772Y-131815703D01*
X159090184Y-131783000D01*
X159257816Y-131783000D01*
X159422228Y-131815703D01*
X159422228Y-131815703D01*
G37*
G36*
X156652228Y-131815703D02*
X156807100Y-131879853D01*
X156946481Y-131972985D01*
X157065015Y-132091519D01*
X157158147Y-132230900D01*
X157222297Y-132385772D01*
X157255000Y-132550184D01*
X157255000Y-132717816D01*
X157222297Y-132882228D01*
X157158147Y-133037100D01*
X157065015Y-133176481D01*
X156946481Y-133295015D01*
X156807100Y-133388147D01*
X156652228Y-133452297D01*
X156487816Y-133485000D01*
X156320184Y-133485000D01*
X156155772Y-133452297D01*
X156000900Y-133388147D01*
X155861519Y-133295015D01*
X155742985Y-133176481D01*
X155649853Y-133037100D01*
X155585703Y-132882228D01*
X155553000Y-132717816D01*
X155553000Y-132550184D01*
X155585703Y-132385772D01*
X155649853Y-132230900D01*
X155742985Y-132091519D01*
X155861519Y-131972985D01*
X156000900Y-131879853D01*
X156155772Y-131815703D01*
X156320184Y-131783000D01*
X156487816Y-131783000D01*
X156652228Y-131815703D01*
X156652228Y-131815703D01*
G37*
G36*
X153882228Y-131815703D02*
X154037100Y-131879853D01*
X154176481Y-131972985D01*
X154295015Y-132091519D01*
X154388147Y-132230900D01*
X154452297Y-132385772D01*
X154485000Y-132550184D01*
X154485000Y-132717816D01*
X154452297Y-132882228D01*
X154388147Y-133037100D01*
X154295015Y-133176481D01*
X154176481Y-133295015D01*
X154037100Y-133388147D01*
X153882228Y-133452297D01*
X153717816Y-133485000D01*
X153550184Y-133485000D01*
X153385772Y-133452297D01*
X153230900Y-133388147D01*
X153091519Y-133295015D01*
X152972985Y-133176481D01*
X152879853Y-133037100D01*
X152815703Y-132882228D01*
X152783000Y-132717816D01*
X152783000Y-132550184D01*
X152815703Y-132385772D01*
X152879853Y-132230900D01*
X152972985Y-132091519D01*
X153091519Y-131972985D01*
X153230900Y-131879853D01*
X153385772Y-131815703D01*
X153550184Y-131783000D01*
X153717816Y-131783000D01*
X153882228Y-131815703D01*
X153882228Y-131815703D01*
G37*
G36*
X151112228Y-131815703D02*
X151267100Y-131879853D01*
X151406481Y-131972985D01*
X151525015Y-132091519D01*
X151618147Y-132230900D01*
X151682297Y-132385772D01*
X151715000Y-132550184D01*
X151715000Y-132717816D01*
X151682297Y-132882228D01*
X151618147Y-133037100D01*
X151525015Y-133176481D01*
X151406481Y-133295015D01*
X151267100Y-133388147D01*
X151112228Y-133452297D01*
X150947816Y-133485000D01*
X150780184Y-133485000D01*
X150615772Y-133452297D01*
X150460900Y-133388147D01*
X150321519Y-133295015D01*
X150202985Y-133176481D01*
X150109853Y-133037100D01*
X150045703Y-132882228D01*
X150013000Y-132717816D01*
X150013000Y-132550184D01*
X150045703Y-132385772D01*
X150109853Y-132230900D01*
X150202985Y-132091519D01*
X150321519Y-131972985D01*
X150460900Y-131879853D01*
X150615772Y-131815703D01*
X150780184Y-131783000D01*
X150947816Y-131783000D01*
X151112228Y-131815703D01*
X151112228Y-131815703D01*
G37*
G36*
X135614256Y-129582298D02*
X135720579Y-129603447D01*
X136021042Y-129727903D01*
X136245402Y-129877816D01*
X136291454Y-129908587D01*
X136521413Y-130138546D01*
X136521415Y-130138549D01*
X136626625Y-130296006D01*
X136702098Y-130408960D01*
X136738550Y-130496963D01*
X136826553Y-130709421D01*
X136890000Y-131028391D01*
X136890000Y-131353609D01*
X136826553Y-131672579D01*
X136702097Y-131973042D01*
X136622933Y-132091519D01*
X136521413Y-132243454D01*
X136291454Y-132473413D01*
X136291451Y-132473415D01*
X136021042Y-132654097D01*
X135720579Y-132778553D01*
X135614256Y-132799702D01*
X135401611Y-132842000D01*
X135076389Y-132842000D01*
X134863744Y-132799702D01*
X134757421Y-132778553D01*
X134456958Y-132654097D01*
X134186549Y-132473415D01*
X134186546Y-132473413D01*
X133956587Y-132243454D01*
X133855067Y-132091519D01*
X133775903Y-131973042D01*
X133651447Y-131672579D01*
X133588000Y-131353609D01*
X133588000Y-131028391D01*
X133651447Y-130709421D01*
X133739450Y-130496963D01*
X133775902Y-130408960D01*
X133851376Y-130296006D01*
X133956585Y-130138549D01*
X133956587Y-130138546D01*
X134186546Y-129908587D01*
X134232598Y-129877816D01*
X134456958Y-129727903D01*
X134757421Y-129603447D01*
X134863744Y-129582298D01*
X135076389Y-129540000D01*
X135401611Y-129540000D01*
X135614256Y-129582298D01*
X135614256Y-129582298D01*
G37*
G36*
X175270256Y-129582298D02*
X175376579Y-129603447D01*
X175677042Y-129727903D01*
X175901402Y-129877816D01*
X175947454Y-129908587D01*
X176177413Y-130138546D01*
X176177415Y-130138549D01*
X176282625Y-130296006D01*
X176358098Y-130408960D01*
X176394550Y-130496963D01*
X176482553Y-130709421D01*
X176546000Y-131028391D01*
X176546000Y-131353609D01*
X176482553Y-131672579D01*
X176358097Y-131973042D01*
X176278933Y-132091519D01*
X176177413Y-132243454D01*
X175947454Y-132473413D01*
X175947451Y-132473415D01*
X175677042Y-132654097D01*
X175376579Y-132778553D01*
X175270256Y-132799702D01*
X175057611Y-132842000D01*
X174732389Y-132842000D01*
X174519744Y-132799702D01*
X174413421Y-132778553D01*
X174112958Y-132654097D01*
X173842549Y-132473415D01*
X173842546Y-132473413D01*
X173612587Y-132243454D01*
X173511067Y-132091519D01*
X173431903Y-131973042D01*
X173307447Y-131672579D01*
X173244000Y-131353609D01*
X173244000Y-131028391D01*
X173307447Y-130709421D01*
X173395450Y-130496963D01*
X173431902Y-130408960D01*
X173507376Y-130296006D01*
X173612585Y-130138549D01*
X173612587Y-130138546D01*
X173842546Y-129908587D01*
X173888598Y-129877816D01*
X174112958Y-129727903D01*
X174413421Y-129603447D01*
X174519744Y-129582298D01*
X174732389Y-129540000D01*
X175057611Y-129540000D01*
X175270256Y-129582298D01*
X175270256Y-129582298D01*
G37*
G36*
X143117252Y-128121818D02*
X143117254Y-128121819D01*
X143117255Y-128121819D01*
X143490513Y-128276427D01*
X143490514Y-128276428D01*
X143826439Y-128500886D01*
X144112114Y-128786561D01*
X144112116Y-128786564D01*
X144336573Y-129122487D01*
X144447753Y-129390900D01*
X144491182Y-129495748D01*
X144570000Y-129891993D01*
X144570000Y-130296007D01*
X144538372Y-130455014D01*
X144491181Y-130692255D01*
X144336573Y-131065513D01*
X144336572Y-131065514D01*
X144112114Y-131401439D01*
X143826439Y-131687114D01*
X143826436Y-131687116D01*
X143490513Y-131911573D01*
X143117255Y-132066181D01*
X143117254Y-132066181D01*
X143117252Y-132066182D01*
X142721007Y-132145000D01*
X142316993Y-132145000D01*
X141920748Y-132066182D01*
X141920746Y-132066181D01*
X141920745Y-132066181D01*
X141547487Y-131911573D01*
X141211564Y-131687116D01*
X141211561Y-131687114D01*
X140925886Y-131401439D01*
X140701428Y-131065514D01*
X140701427Y-131065513D01*
X140546819Y-130692255D01*
X140499629Y-130455014D01*
X140468000Y-130296007D01*
X140468000Y-129891993D01*
X140546818Y-129495748D01*
X140590247Y-129390900D01*
X140701427Y-129122487D01*
X140925884Y-128786564D01*
X140925886Y-128786561D01*
X141211561Y-128500886D01*
X141547486Y-128276428D01*
X141547487Y-128276427D01*
X141920745Y-128121819D01*
X141920746Y-128121819D01*
X141920748Y-128121818D01*
X142316993Y-128043000D01*
X142721007Y-128043000D01*
X143117252Y-128121818D01*
X143117252Y-128121818D01*
G37*
G36*
X168117252Y-128121818D02*
X168117254Y-128121819D01*
X168117255Y-128121819D01*
X168490513Y-128276427D01*
X168490514Y-128276428D01*
X168826439Y-128500886D01*
X169112114Y-128786561D01*
X169112116Y-128786564D01*
X169336573Y-129122487D01*
X169447753Y-129390900D01*
X169491182Y-129495748D01*
X169570000Y-129891993D01*
X169570000Y-130296007D01*
X169538372Y-130455014D01*
X169491181Y-130692255D01*
X169336573Y-131065513D01*
X169336572Y-131065514D01*
X169112114Y-131401439D01*
X168826439Y-131687114D01*
X168826436Y-131687116D01*
X168490513Y-131911573D01*
X168117255Y-132066181D01*
X168117254Y-132066181D01*
X168117252Y-132066182D01*
X167721007Y-132145000D01*
X167316993Y-132145000D01*
X166920748Y-132066182D01*
X166920746Y-132066181D01*
X166920745Y-132066181D01*
X166547487Y-131911573D01*
X166211564Y-131687116D01*
X166211561Y-131687114D01*
X165925886Y-131401439D01*
X165701428Y-131065514D01*
X165701427Y-131065513D01*
X165546819Y-130692255D01*
X165499629Y-130455014D01*
X165468000Y-130296007D01*
X165468000Y-129891993D01*
X165546818Y-129495748D01*
X165590247Y-129390900D01*
X165701427Y-129122487D01*
X165925884Y-128786564D01*
X165925886Y-128786561D01*
X166211561Y-128500886D01*
X166547486Y-128276428D01*
X166547487Y-128276427D01*
X166920745Y-128121819D01*
X166920746Y-128121819D01*
X166920748Y-128121818D01*
X167316993Y-128043000D01*
X167721007Y-128043000D01*
X168117252Y-128121818D01*
X168117252Y-128121818D01*
G37*
G36*
X160807228Y-128975703D02*
X160962100Y-129039853D01*
X161101481Y-129132985D01*
X161220015Y-129251519D01*
X161313147Y-129390900D01*
X161377297Y-129545772D01*
X161410000Y-129710184D01*
X161410000Y-129877816D01*
X161377297Y-130042228D01*
X161313147Y-130197100D01*
X161220015Y-130336481D01*
X161101481Y-130455015D01*
X160962100Y-130548147D01*
X160807228Y-130612297D01*
X160642816Y-130645000D01*
X160475184Y-130645000D01*
X160310772Y-130612297D01*
X160155900Y-130548147D01*
X160016519Y-130455015D01*
X159897985Y-130336481D01*
X159804853Y-130197100D01*
X159740703Y-130042228D01*
X159708000Y-129877816D01*
X159708000Y-129710184D01*
X159740703Y-129545772D01*
X159804853Y-129390900D01*
X159897985Y-129251519D01*
X160016519Y-129132985D01*
X160155900Y-129039853D01*
X160310772Y-128975703D01*
X160475184Y-128943000D01*
X160642816Y-128943000D01*
X160807228Y-128975703D01*
X160807228Y-128975703D01*
G37*
G36*
X150330000Y-130645000D02*
X148628000Y-130645000D01*
X148628000Y-128943000D01*
X150330000Y-128943000D01*
X150330000Y-130645000D01*
X150330000Y-130645000D01*
G37*
G36*
X152497228Y-128975703D02*
X152652100Y-129039853D01*
X152791481Y-129132985D01*
X152910015Y-129251519D01*
X153003147Y-129390900D01*
X153067297Y-129545772D01*
X153100000Y-129710184D01*
X153100000Y-129877816D01*
X153067297Y-130042228D01*
X153003147Y-130197100D01*
X152910015Y-130336481D01*
X152791481Y-130455015D01*
X152652100Y-130548147D01*
X152497228Y-130612297D01*
X152332816Y-130645000D01*
X152165184Y-130645000D01*
X152000772Y-130612297D01*
X151845900Y-130548147D01*
X151706519Y-130455015D01*
X151587985Y-130336481D01*
X151494853Y-130197100D01*
X151430703Y-130042228D01*
X151398000Y-129877816D01*
X151398000Y-129710184D01*
X151430703Y-129545772D01*
X151494853Y-129390900D01*
X151587985Y-129251519D01*
X151706519Y-129132985D01*
X151845900Y-129039853D01*
X152000772Y-128975703D01*
X152165184Y-128943000D01*
X152332816Y-128943000D01*
X152497228Y-128975703D01*
X152497228Y-128975703D01*
G37*
G36*
X155267228Y-128975703D02*
X155422100Y-129039853D01*
X155561481Y-129132985D01*
X155680015Y-129251519D01*
X155773147Y-129390900D01*
X155837297Y-129545772D01*
X155870000Y-129710184D01*
X155870000Y-129877816D01*
X155837297Y-130042228D01*
X155773147Y-130197100D01*
X155680015Y-130336481D01*
X155561481Y-130455015D01*
X155422100Y-130548147D01*
X155267228Y-130612297D01*
X155102816Y-130645000D01*
X154935184Y-130645000D01*
X154770772Y-130612297D01*
X154615900Y-130548147D01*
X154476519Y-130455015D01*
X154357985Y-130336481D01*
X154264853Y-130197100D01*
X154200703Y-130042228D01*
X154168000Y-129877816D01*
X154168000Y-129710184D01*
X154200703Y-129545772D01*
X154264853Y-129390900D01*
X154357985Y-129251519D01*
X154476519Y-129132985D01*
X154615900Y-129039853D01*
X154770772Y-128975703D01*
X154935184Y-128943000D01*
X155102816Y-128943000D01*
X155267228Y-128975703D01*
X155267228Y-128975703D01*
G37*
G36*
X158037228Y-128975703D02*
X158192100Y-129039853D01*
X158331481Y-129132985D01*
X158450015Y-129251519D01*
X158543147Y-129390900D01*
X158607297Y-129545772D01*
X158640000Y-129710184D01*
X158640000Y-129877816D01*
X158607297Y-130042228D01*
X158543147Y-130197100D01*
X158450015Y-130336481D01*
X158331481Y-130455015D01*
X158192100Y-130548147D01*
X158037228Y-130612297D01*
X157872816Y-130645000D01*
X157705184Y-130645000D01*
X157540772Y-130612297D01*
X157385900Y-130548147D01*
X157246519Y-130455015D01*
X157127985Y-130336481D01*
X157034853Y-130197100D01*
X156970703Y-130042228D01*
X156938000Y-129877816D01*
X156938000Y-129710184D01*
X156970703Y-129545772D01*
X157034853Y-129390900D01*
X157127985Y-129251519D01*
X157246519Y-129132985D01*
X157385900Y-129039853D01*
X157540772Y-128975703D01*
X157705184Y-128943000D01*
X157872816Y-128943000D01*
X158037228Y-128975703D01*
X158037228Y-128975703D01*
G37*
G36*
X150571555Y-121663164D02*
X150610226Y-121674895D01*
X150645868Y-121693947D01*
X150677106Y-121719582D01*
X150702741Y-121750820D01*
X150721793Y-121786462D01*
X150733524Y-121825133D01*
X150738089Y-121871487D01*
X150738089Y-122947711D01*
X150733524Y-122994065D01*
X150721793Y-123032736D01*
X150702741Y-123068378D01*
X150677106Y-123099616D01*
X150645868Y-123125251D01*
X150610226Y-123144303D01*
X150571555Y-123156034D01*
X150525201Y-123160599D01*
X149873977Y-123160599D01*
X149827623Y-123156034D01*
X149788952Y-123144303D01*
X149753310Y-123125251D01*
X149722072Y-123099616D01*
X149696437Y-123068378D01*
X149677385Y-123032736D01*
X149665654Y-122994065D01*
X149661089Y-122947711D01*
X149661089Y-121871487D01*
X149665654Y-121825133D01*
X149677385Y-121786462D01*
X149696437Y-121750820D01*
X149722072Y-121719582D01*
X149753310Y-121693947D01*
X149788952Y-121674895D01*
X149827623Y-121663164D01*
X149873977Y-121658599D01*
X150525201Y-121658599D01*
X150571555Y-121663164D01*
X150571555Y-121663164D01*
G37*
G36*
X152446555Y-121663164D02*
X152485226Y-121674895D01*
X152520868Y-121693947D01*
X152552106Y-121719582D01*
X152577741Y-121750820D01*
X152596793Y-121786462D01*
X152608524Y-121825133D01*
X152613089Y-121871487D01*
X152613089Y-122947711D01*
X152608524Y-122994065D01*
X152596793Y-123032736D01*
X152577741Y-123068378D01*
X152552106Y-123099616D01*
X152520868Y-123125251D01*
X152485226Y-123144303D01*
X152446555Y-123156034D01*
X152400201Y-123160599D01*
X151748977Y-123160599D01*
X151702623Y-123156034D01*
X151663952Y-123144303D01*
X151628310Y-123125251D01*
X151597072Y-123099616D01*
X151571437Y-123068378D01*
X151552385Y-123032736D01*
X151540654Y-122994065D01*
X151536089Y-122947711D01*
X151536089Y-121871487D01*
X151540654Y-121825133D01*
X151552385Y-121786462D01*
X151571437Y-121750820D01*
X151597072Y-121719582D01*
X151628310Y-121693947D01*
X151663952Y-121674895D01*
X151702623Y-121663164D01*
X151748977Y-121658599D01*
X152400201Y-121658599D01*
X152446555Y-121663164D01*
X152446555Y-121663164D01*
G37*
G36*
X158131555Y-121663164D02*
X158170226Y-121674895D01*
X158205868Y-121693947D01*
X158237106Y-121719582D01*
X158262741Y-121750820D01*
X158281793Y-121786462D01*
X158293524Y-121825133D01*
X158298089Y-121871487D01*
X158298089Y-122947711D01*
X158293524Y-122994065D01*
X158281793Y-123032736D01*
X158262741Y-123068378D01*
X158237106Y-123099616D01*
X158205868Y-123125251D01*
X158170226Y-123144303D01*
X158131555Y-123156034D01*
X158085201Y-123160599D01*
X157433977Y-123160599D01*
X157387623Y-123156034D01*
X157348952Y-123144303D01*
X157313310Y-123125251D01*
X157282072Y-123099616D01*
X157256437Y-123068378D01*
X157237385Y-123032736D01*
X157225654Y-122994065D01*
X157221089Y-122947711D01*
X157221089Y-121871487D01*
X157225654Y-121825133D01*
X157237385Y-121786462D01*
X157256437Y-121750820D01*
X157282072Y-121719582D01*
X157313310Y-121693947D01*
X157348952Y-121674895D01*
X157387623Y-121663164D01*
X157433977Y-121658599D01*
X158085201Y-121658599D01*
X158131555Y-121663164D01*
X158131555Y-121663164D01*
G37*
G36*
X156256555Y-121663164D02*
X156295226Y-121674895D01*
X156330868Y-121693947D01*
X156362106Y-121719582D01*
X156387741Y-121750820D01*
X156406793Y-121786462D01*
X156418524Y-121825133D01*
X156423089Y-121871487D01*
X156423089Y-122947711D01*
X156418524Y-122994065D01*
X156406793Y-123032736D01*
X156387741Y-123068378D01*
X156362106Y-123099616D01*
X156330868Y-123125251D01*
X156295226Y-123144303D01*
X156256555Y-123156034D01*
X156210201Y-123160599D01*
X155558977Y-123160599D01*
X155512623Y-123156034D01*
X155473952Y-123144303D01*
X155438310Y-123125251D01*
X155407072Y-123099616D01*
X155381437Y-123068378D01*
X155362385Y-123032736D01*
X155350654Y-122994065D01*
X155346089Y-122947711D01*
X155346089Y-121871487D01*
X155350654Y-121825133D01*
X155362385Y-121786462D01*
X155381437Y-121750820D01*
X155407072Y-121719582D01*
X155438310Y-121693947D01*
X155473952Y-121674895D01*
X155512623Y-121663164D01*
X155558977Y-121658599D01*
X156210201Y-121658599D01*
X156256555Y-121663164D01*
X156256555Y-121663164D01*
G37*
G36*
X148468055Y-121367664D02*
X148506726Y-121379395D01*
X148542368Y-121398447D01*
X148573606Y-121424082D01*
X148599241Y-121455320D01*
X148618293Y-121490962D01*
X148630024Y-121529633D01*
X148634589Y-121575987D01*
X148634589Y-122227211D01*
X148630024Y-122273565D01*
X148618293Y-122312236D01*
X148599241Y-122347878D01*
X148573606Y-122379116D01*
X148542368Y-122404751D01*
X148506726Y-122423803D01*
X148468055Y-122435534D01*
X148421701Y-122440099D01*
X147345477Y-122440099D01*
X147299123Y-122435534D01*
X147260452Y-122423803D01*
X147224810Y-122404751D01*
X147193572Y-122379116D01*
X147167937Y-122347878D01*
X147148885Y-122312236D01*
X147137154Y-122273565D01*
X147132589Y-122227211D01*
X147132589Y-121575987D01*
X147137154Y-121529633D01*
X147148885Y-121490962D01*
X147167937Y-121455320D01*
X147193572Y-121424082D01*
X147224810Y-121398447D01*
X147260452Y-121379395D01*
X147299123Y-121367664D01*
X147345477Y-121363099D01*
X148421701Y-121363099D01*
X148468055Y-121367664D01*
X148468055Y-121367664D01*
G37*
G36*
X162565055Y-119813664D02*
X162603726Y-119825395D01*
X162639368Y-119844447D01*
X162670606Y-119870082D01*
X162696241Y-119901320D01*
X162715293Y-119936962D01*
X162727024Y-119975633D01*
X162731589Y-120021987D01*
X162731589Y-120673211D01*
X162727024Y-120719565D01*
X162715293Y-120758236D01*
X162696241Y-120793878D01*
X162670606Y-120825116D01*
X162639368Y-120850751D01*
X162603726Y-120869803D01*
X162565055Y-120881534D01*
X162518701Y-120886099D01*
X161442477Y-120886099D01*
X161396123Y-120881534D01*
X161357452Y-120869803D01*
X161321810Y-120850751D01*
X161290572Y-120825116D01*
X161264937Y-120793878D01*
X161245885Y-120758236D01*
X161234154Y-120719565D01*
X161229589Y-120673211D01*
X161229589Y-120021987D01*
X161234154Y-119975633D01*
X161245885Y-119936962D01*
X161264937Y-119901320D01*
X161290572Y-119870082D01*
X161321810Y-119844447D01*
X161357452Y-119825395D01*
X161396123Y-119813664D01*
X161442477Y-119809099D01*
X162518701Y-119809099D01*
X162565055Y-119813664D01*
X162565055Y-119813664D01*
G37*
G36*
X160279055Y-119813664D02*
X160317726Y-119825395D01*
X160353368Y-119844447D01*
X160384606Y-119870082D01*
X160410241Y-119901320D01*
X160429293Y-119936962D01*
X160441024Y-119975633D01*
X160445589Y-120021987D01*
X160445589Y-120673211D01*
X160441024Y-120719565D01*
X160429293Y-120758236D01*
X160410241Y-120793878D01*
X160384606Y-120825116D01*
X160353368Y-120850751D01*
X160317726Y-120869803D01*
X160279055Y-120881534D01*
X160232701Y-120886099D01*
X159156477Y-120886099D01*
X159110123Y-120881534D01*
X159071452Y-120869803D01*
X159035810Y-120850751D01*
X159004572Y-120825116D01*
X158978937Y-120793878D01*
X158959885Y-120758236D01*
X158948154Y-120719565D01*
X158943589Y-120673211D01*
X158943589Y-120021987D01*
X158948154Y-119975633D01*
X158959885Y-119936962D01*
X158978937Y-119901320D01*
X159004572Y-119870082D01*
X159035810Y-119844447D01*
X159071452Y-119825395D01*
X159110123Y-119813664D01*
X159156477Y-119809099D01*
X160232701Y-119809099D01*
X160279055Y-119813664D01*
X160279055Y-119813664D01*
G37*
G36*
X148468055Y-119492664D02*
X148506726Y-119504395D01*
X148542368Y-119523447D01*
X148573606Y-119549082D01*
X148599241Y-119580320D01*
X148618293Y-119615962D01*
X148630024Y-119654633D01*
X148634589Y-119700987D01*
X148634589Y-120352211D01*
X148630024Y-120398565D01*
X148618293Y-120437236D01*
X148599241Y-120472878D01*
X148573606Y-120504116D01*
X148542368Y-120529751D01*
X148506726Y-120548803D01*
X148468055Y-120560534D01*
X148421701Y-120565099D01*
X147345477Y-120565099D01*
X147299123Y-120560534D01*
X147260452Y-120548803D01*
X147224810Y-120529751D01*
X147193572Y-120504116D01*
X147167937Y-120472878D01*
X147148885Y-120437236D01*
X147137154Y-120398565D01*
X147132589Y-120352211D01*
X147132589Y-119700987D01*
X147137154Y-119654633D01*
X147148885Y-119615962D01*
X147167937Y-119580320D01*
X147193572Y-119549082D01*
X147224810Y-119523447D01*
X147260452Y-119504395D01*
X147299123Y-119492664D01*
X147345477Y-119488099D01*
X148421701Y-119488099D01*
X148468055Y-119492664D01*
X148468055Y-119492664D01*
G37*
G36*
X158080589Y-120236599D02*
X156778589Y-120236599D01*
X156778589Y-115184599D01*
X158080589Y-115184599D01*
X158080589Y-120236599D01*
X158080589Y-120236599D01*
G37*
G36*
X151180589Y-120236599D02*
X149878589Y-120236599D01*
X149878589Y-115184599D01*
X151180589Y-115184599D01*
X151180589Y-120236599D01*
X151180589Y-120236599D01*
G37*
G36*
X160279055Y-117938664D02*
X160317726Y-117950395D01*
X160353368Y-117969447D01*
X160384606Y-117995082D01*
X160410241Y-118026320D01*
X160429293Y-118061962D01*
X160441024Y-118100633D01*
X160445589Y-118146987D01*
X160445589Y-118798211D01*
X160441024Y-118844565D01*
X160429293Y-118883236D01*
X160410241Y-118918878D01*
X160384606Y-118950116D01*
X160353368Y-118975751D01*
X160317726Y-118994803D01*
X160279055Y-119006534D01*
X160232701Y-119011099D01*
X159156477Y-119011099D01*
X159110123Y-119006534D01*
X159071452Y-118994803D01*
X159035810Y-118975751D01*
X159004572Y-118950116D01*
X158978937Y-118918878D01*
X158959885Y-118883236D01*
X158948154Y-118844565D01*
X158943589Y-118798211D01*
X158943589Y-118146987D01*
X158948154Y-118100633D01*
X158959885Y-118061962D01*
X158978937Y-118026320D01*
X159004572Y-117995082D01*
X159035810Y-117969447D01*
X159071452Y-117950395D01*
X159110123Y-117938664D01*
X159156477Y-117934099D01*
X160232701Y-117934099D01*
X160279055Y-117938664D01*
X160279055Y-117938664D01*
G37*
G36*
X162565055Y-117938664D02*
X162603726Y-117950395D01*
X162639368Y-117969447D01*
X162670606Y-117995082D01*
X162696241Y-118026320D01*
X162715293Y-118061962D01*
X162727024Y-118100633D01*
X162731589Y-118146987D01*
X162731589Y-118798211D01*
X162727024Y-118844565D01*
X162715293Y-118883236D01*
X162696241Y-118918878D01*
X162670606Y-118950116D01*
X162639368Y-118975751D01*
X162603726Y-118994803D01*
X162565055Y-119006534D01*
X162518701Y-119011099D01*
X161442477Y-119011099D01*
X161396123Y-119006534D01*
X161357452Y-118994803D01*
X161321810Y-118975751D01*
X161290572Y-118950116D01*
X161264937Y-118918878D01*
X161245885Y-118883236D01*
X161234154Y-118844565D01*
X161229589Y-118798211D01*
X161229589Y-118146987D01*
X161234154Y-118100633D01*
X161245885Y-118061962D01*
X161264937Y-118026320D01*
X161290572Y-117995082D01*
X161321810Y-117969447D01*
X161357452Y-117950395D01*
X161396123Y-117938664D01*
X161442477Y-117934099D01*
X162518701Y-117934099D01*
X162565055Y-117938664D01*
X162565055Y-117938664D01*
G37*
G36*
X148468055Y-117654664D02*
X148506726Y-117666395D01*
X148542368Y-117685447D01*
X148573606Y-117711082D01*
X148599241Y-117742320D01*
X148618293Y-117777962D01*
X148630024Y-117816633D01*
X148634589Y-117862987D01*
X148634589Y-118514211D01*
X148630024Y-118560565D01*
X148618293Y-118599236D01*
X148599241Y-118634878D01*
X148573606Y-118666116D01*
X148542368Y-118691751D01*
X148506726Y-118710803D01*
X148468055Y-118722534D01*
X148421701Y-118727099D01*
X147345477Y-118727099D01*
X147299123Y-118722534D01*
X147260452Y-118710803D01*
X147224810Y-118691751D01*
X147193572Y-118666116D01*
X147167937Y-118634878D01*
X147148885Y-118599236D01*
X147137154Y-118560565D01*
X147132589Y-118514211D01*
X147132589Y-117862987D01*
X147137154Y-117816633D01*
X147148885Y-117777962D01*
X147167937Y-117742320D01*
X147193572Y-117711082D01*
X147224810Y-117685447D01*
X147260452Y-117666395D01*
X147299123Y-117654664D01*
X147345477Y-117650099D01*
X148421701Y-117650099D01*
X148468055Y-117654664D01*
X148468055Y-117654664D01*
G37*
G36*
X167798000Y-118461000D02*
X166146000Y-118461000D01*
X166146000Y-117759000D01*
X167798000Y-117759000D01*
X167798000Y-118461000D01*
X167798000Y-118461000D01*
G37*
G36*
X173198000Y-118461000D02*
X171546000Y-118461000D01*
X171546000Y-117759000D01*
X173198000Y-117759000D01*
X173198000Y-118461000D01*
X173198000Y-118461000D01*
G37*
G36*
X167798000Y-117191000D02*
X166146000Y-117191000D01*
X166146000Y-116489000D01*
X167798000Y-116489000D01*
X167798000Y-117191000D01*
X167798000Y-117191000D01*
G37*
G36*
X173198000Y-117191000D02*
X171546000Y-117191000D01*
X171546000Y-116489000D01*
X173198000Y-116489000D01*
X173198000Y-117191000D01*
X173198000Y-117191000D01*
G37*
G36*
X148468055Y-115779664D02*
X148506726Y-115791395D01*
X148542368Y-115810447D01*
X148573606Y-115836082D01*
X148599241Y-115867320D01*
X148618293Y-115902962D01*
X148630024Y-115941633D01*
X148634589Y-115987987D01*
X148634589Y-116639211D01*
X148630024Y-116685565D01*
X148618293Y-116724236D01*
X148599241Y-116759878D01*
X148573606Y-116791116D01*
X148542368Y-116816751D01*
X148506726Y-116835803D01*
X148468055Y-116847534D01*
X148421701Y-116852099D01*
X147345477Y-116852099D01*
X147299123Y-116847534D01*
X147260452Y-116835803D01*
X147224810Y-116816751D01*
X147193572Y-116791116D01*
X147167937Y-116759878D01*
X147148885Y-116724236D01*
X147137154Y-116685565D01*
X147132589Y-116639211D01*
X147132589Y-115987987D01*
X147137154Y-115941633D01*
X147148885Y-115902962D01*
X147167937Y-115867320D01*
X147193572Y-115836082D01*
X147224810Y-115810447D01*
X147260452Y-115791395D01*
X147299123Y-115779664D01*
X147345477Y-115775099D01*
X148421701Y-115775099D01*
X148468055Y-115779664D01*
X148468055Y-115779664D01*
G37*
G36*
X164287466Y-115133065D02*
X164326137Y-115144796D01*
X164361779Y-115163848D01*
X164393017Y-115189483D01*
X164418652Y-115220721D01*
X164437704Y-115256363D01*
X164449435Y-115295034D01*
X164454000Y-115341388D01*
X164454000Y-115992612D01*
X164449435Y-116038966D01*
X164437704Y-116077637D01*
X164418652Y-116113279D01*
X164393017Y-116144517D01*
X164361779Y-116170152D01*
X164326137Y-116189204D01*
X164287466Y-116200935D01*
X164241112Y-116205500D01*
X163164888Y-116205500D01*
X163118534Y-116200935D01*
X163079863Y-116189204D01*
X163044221Y-116170152D01*
X163012983Y-116144517D01*
X162987348Y-116113279D01*
X162968296Y-116077637D01*
X162956565Y-116038966D01*
X162952000Y-115992612D01*
X162952000Y-115341388D01*
X162956565Y-115295034D01*
X162968296Y-115256363D01*
X162987348Y-115220721D01*
X163012983Y-115189483D01*
X163044221Y-115163848D01*
X163079863Y-115144796D01*
X163118534Y-115133065D01*
X163164888Y-115128500D01*
X164241112Y-115128500D01*
X164287466Y-115133065D01*
X164287466Y-115133065D01*
G37*
G36*
X173198000Y-115921000D02*
X171546000Y-115921000D01*
X171546000Y-115219000D01*
X173198000Y-115219000D01*
X173198000Y-115921000D01*
X173198000Y-115921000D01*
G37*
G36*
X167798000Y-115921000D02*
X166146000Y-115921000D01*
X166146000Y-115219000D01*
X167798000Y-115219000D01*
X167798000Y-115921000D01*
X167798000Y-115921000D01*
G37*
G36*
X148468055Y-114001664D02*
X148506726Y-114013395D01*
X148542368Y-114032447D01*
X148573606Y-114058082D01*
X148599241Y-114089320D01*
X148618293Y-114124962D01*
X148630024Y-114163633D01*
X148634589Y-114209987D01*
X148634589Y-114861211D01*
X148630024Y-114907565D01*
X148618293Y-114946236D01*
X148599241Y-114981878D01*
X148573606Y-115013116D01*
X148542368Y-115038751D01*
X148506726Y-115057803D01*
X148468055Y-115069534D01*
X148421701Y-115074099D01*
X147345477Y-115074099D01*
X147299123Y-115069534D01*
X147260452Y-115057803D01*
X147224810Y-115038751D01*
X147193572Y-115013116D01*
X147167937Y-114981878D01*
X147148885Y-114946236D01*
X147137154Y-114907565D01*
X147132589Y-114861211D01*
X147132589Y-114209987D01*
X147137154Y-114163633D01*
X147148885Y-114124962D01*
X147167937Y-114089320D01*
X147193572Y-114058082D01*
X147224810Y-114032447D01*
X147260452Y-114013395D01*
X147299123Y-114001664D01*
X147345477Y-113997099D01*
X148421701Y-113997099D01*
X148468055Y-114001664D01*
X148468055Y-114001664D01*
G37*
G36*
X167798000Y-114651000D02*
X166146000Y-114651000D01*
X166146000Y-113949000D01*
X167798000Y-113949000D01*
X167798000Y-114651000D01*
X167798000Y-114651000D01*
G37*
G36*
X173198000Y-114651000D02*
X171546000Y-114651000D01*
X171546000Y-113949000D01*
X173198000Y-113949000D01*
X173198000Y-114651000D01*
X173198000Y-114651000D01*
G37*
G36*
X164287466Y-113258065D02*
X164326137Y-113269796D01*
X164361779Y-113288848D01*
X164393017Y-113314483D01*
X164418652Y-113345721D01*
X164437704Y-113381363D01*
X164449435Y-113420034D01*
X164454000Y-113466388D01*
X164454000Y-114117612D01*
X164449435Y-114163966D01*
X164437704Y-114202637D01*
X164418652Y-114238279D01*
X164393017Y-114269517D01*
X164361779Y-114295152D01*
X164326137Y-114314204D01*
X164287466Y-114325935D01*
X164241112Y-114330500D01*
X163164888Y-114330500D01*
X163118534Y-114325935D01*
X163079863Y-114314204D01*
X163044221Y-114295152D01*
X163012983Y-114269517D01*
X162987348Y-114238279D01*
X162968296Y-114202637D01*
X162956565Y-114163966D01*
X162952000Y-114117612D01*
X162952000Y-113466388D01*
X162956565Y-113420034D01*
X162968296Y-113381363D01*
X162987348Y-113345721D01*
X163012983Y-113314483D01*
X163044221Y-113288848D01*
X163079863Y-113269796D01*
X163118534Y-113258065D01*
X163164888Y-113253500D01*
X164241112Y-113253500D01*
X164287466Y-113258065D01*
X164287466Y-113258065D01*
G37*
G36*
X148468055Y-112126664D02*
X148506726Y-112138395D01*
X148542368Y-112157447D01*
X148573606Y-112183082D01*
X148599241Y-112214320D01*
X148618293Y-112249962D01*
X148630024Y-112288633D01*
X148634589Y-112334987D01*
X148634589Y-112986211D01*
X148630024Y-113032565D01*
X148618293Y-113071236D01*
X148599241Y-113106878D01*
X148573606Y-113138116D01*
X148542368Y-113163751D01*
X148506726Y-113182803D01*
X148468055Y-113194534D01*
X148421701Y-113199099D01*
X147345477Y-113199099D01*
X147299123Y-113194534D01*
X147260452Y-113182803D01*
X147224810Y-113163751D01*
X147193572Y-113138116D01*
X147167937Y-113106878D01*
X147148885Y-113071236D01*
X147137154Y-113032565D01*
X147132589Y-112986211D01*
X147132589Y-112334987D01*
X147137154Y-112288633D01*
X147148885Y-112249962D01*
X147167937Y-112214320D01*
X147193572Y-112183082D01*
X147224810Y-112157447D01*
X147260452Y-112138395D01*
X147299123Y-112126664D01*
X147345477Y-112122099D01*
X148421701Y-112122099D01*
X148468055Y-112126664D01*
X148468055Y-112126664D01*
G37*
G36*
X171482618Y-108303420D02*
X171564427Y-108328237D01*
X171605333Y-108340645D01*
X171683600Y-108382480D01*
X171718426Y-108401095D01*
X171817553Y-108482447D01*
X171898905Y-108581574D01*
X171898906Y-108581576D01*
X171959355Y-108694667D01*
X171959355Y-108694668D01*
X171996580Y-108817382D01*
X172006000Y-108913027D01*
X172006000Y-109526973D01*
X171996580Y-109622618D01*
X171971763Y-109704427D01*
X171959355Y-109745333D01*
X171905819Y-109845491D01*
X171898905Y-109858426D01*
X171817553Y-109957553D01*
X171817551Y-109957555D01*
X171789028Y-109980963D01*
X171718425Y-110038905D01*
X171666699Y-110066553D01*
X171605332Y-110099355D01*
X171564426Y-110111763D01*
X171482617Y-110136580D01*
X171355000Y-110149149D01*
X171227382Y-110136580D01*
X171145573Y-110111763D01*
X171104667Y-110099355D01*
X170991576Y-110038906D01*
X170991574Y-110038905D01*
X170892447Y-109957553D01*
X170811095Y-109858425D01*
X170750646Y-109745333D01*
X170750645Y-109745332D01*
X170738237Y-109704426D01*
X170713420Y-109622617D01*
X170704000Y-109526972D01*
X170704000Y-108913027D01*
X170713420Y-108817382D01*
X170750645Y-108694668D01*
X170750645Y-108694667D01*
X170770795Y-108656970D01*
X170811095Y-108581574D01*
X170892448Y-108482447D01*
X170991575Y-108401095D01*
X171026401Y-108382480D01*
X171104668Y-108340645D01*
X171145574Y-108328237D01*
X171227383Y-108303420D01*
X171355000Y-108290851D01*
X171482618Y-108303420D01*
X171482618Y-108303420D01*
G37*
G36*
X173846242Y-108298404D02*
X173883339Y-108309657D01*
X173917520Y-108327927D01*
X173947482Y-108352518D01*
X173972073Y-108382480D01*
X173990343Y-108416661D01*
X174001596Y-108453758D01*
X174006000Y-108498473D01*
X174006000Y-109941527D01*
X174001596Y-109986242D01*
X173990343Y-110023339D01*
X173972073Y-110057520D01*
X173947482Y-110087482D01*
X173917520Y-110112073D01*
X173883339Y-110130343D01*
X173846242Y-110141596D01*
X173801527Y-110146000D01*
X172908473Y-110146000D01*
X172863758Y-110141596D01*
X172826661Y-110130343D01*
X172792480Y-110112073D01*
X172762518Y-110087482D01*
X172737927Y-110057520D01*
X172719657Y-110023339D01*
X172708404Y-109986242D01*
X172704000Y-109941527D01*
X172704000Y-108498473D01*
X172708404Y-108453758D01*
X172719657Y-108416661D01*
X172737927Y-108382480D01*
X172762518Y-108352518D01*
X172792480Y-108327927D01*
X172826661Y-108309657D01*
X172863758Y-108298404D01*
X172908473Y-108294000D01*
X173801527Y-108294000D01*
X173846242Y-108298404D01*
X173846242Y-108298404D01*
G37*
G36*
X153780442Y-108198518D02*
X153846627Y-108205037D01*
X153959853Y-108239384D01*
X154016467Y-108256557D01*
X154125146Y-108314648D01*
X154172991Y-108340222D01*
X154208729Y-108369552D01*
X154310186Y-108452814D01*
X154393448Y-108554271D01*
X154422778Y-108590009D01*
X154422779Y-108590011D01*
X154506443Y-108746533D01*
X154506443Y-108746534D01*
X154557963Y-108916373D01*
X154575359Y-109093000D01*
X154557963Y-109269627D01*
X154523616Y-109382853D01*
X154506443Y-109439467D01*
X154459670Y-109526972D01*
X154422778Y-109595991D01*
X154393448Y-109631729D01*
X154310186Y-109733186D01*
X154208729Y-109816448D01*
X154172991Y-109845778D01*
X154172989Y-109845779D01*
X154016467Y-109929443D01*
X153959853Y-109946616D01*
X153846627Y-109980963D01*
X153780442Y-109987482D01*
X153714260Y-109994000D01*
X153625740Y-109994000D01*
X153559558Y-109987482D01*
X153493373Y-109980963D01*
X153380147Y-109946616D01*
X153323533Y-109929443D01*
X153167011Y-109845779D01*
X153167009Y-109845778D01*
X153131271Y-109816448D01*
X153029814Y-109733186D01*
X152946552Y-109631729D01*
X152917222Y-109595991D01*
X152880330Y-109526972D01*
X152833557Y-109439467D01*
X152816384Y-109382853D01*
X152782037Y-109269627D01*
X152764641Y-109093000D01*
X152782037Y-108916373D01*
X152833557Y-108746534D01*
X152833557Y-108746533D01*
X152917221Y-108590011D01*
X152917222Y-108590009D01*
X152946552Y-108554271D01*
X153029814Y-108452814D01*
X153131271Y-108369552D01*
X153167009Y-108340222D01*
X153214854Y-108314648D01*
X153323533Y-108256557D01*
X153380147Y-108239384D01*
X153493373Y-108205037D01*
X153559558Y-108198518D01*
X153625740Y-108192000D01*
X153714260Y-108192000D01*
X153780442Y-108198518D01*
X153780442Y-108198518D01*
G37*
G36*
X152031000Y-109994000D02*
X150229000Y-109994000D01*
X150229000Y-108192000D01*
X152031000Y-108192000D01*
X152031000Y-109994000D01*
X152031000Y-109994000D01*
G37*
G36*
X156320442Y-108198518D02*
X156386627Y-108205037D01*
X156499853Y-108239384D01*
X156556467Y-108256557D01*
X156665146Y-108314648D01*
X156712991Y-108340222D01*
X156748729Y-108369552D01*
X156850186Y-108452814D01*
X156933448Y-108554271D01*
X156962778Y-108590009D01*
X156962779Y-108590011D01*
X157046443Y-108746533D01*
X157046443Y-108746534D01*
X157097963Y-108916373D01*
X157115359Y-109093000D01*
X157097963Y-109269627D01*
X157063616Y-109382853D01*
X157046443Y-109439467D01*
X156999670Y-109526972D01*
X156962778Y-109595991D01*
X156933448Y-109631729D01*
X156850186Y-109733186D01*
X156748729Y-109816448D01*
X156712991Y-109845778D01*
X156712989Y-109845779D01*
X156556467Y-109929443D01*
X156499853Y-109946616D01*
X156386627Y-109980963D01*
X156320442Y-109987482D01*
X156254260Y-109994000D01*
X156165740Y-109994000D01*
X156099558Y-109987482D01*
X156033373Y-109980963D01*
X155920147Y-109946616D01*
X155863533Y-109929443D01*
X155707011Y-109845779D01*
X155707009Y-109845778D01*
X155671271Y-109816448D01*
X155569814Y-109733186D01*
X155486552Y-109631729D01*
X155457222Y-109595991D01*
X155420330Y-109526972D01*
X155373557Y-109439467D01*
X155356384Y-109382853D01*
X155322037Y-109269627D01*
X155304641Y-109093000D01*
X155322037Y-108916373D01*
X155373557Y-108746534D01*
X155373557Y-108746533D01*
X155457221Y-108590011D01*
X155457222Y-108590009D01*
X155486552Y-108554271D01*
X155569814Y-108452814D01*
X155671271Y-108369552D01*
X155707009Y-108340222D01*
X155754854Y-108314648D01*
X155863533Y-108256557D01*
X155920147Y-108239384D01*
X156033373Y-108205037D01*
X156099558Y-108198518D01*
X156165740Y-108192000D01*
X156254260Y-108192000D01*
X156320442Y-108198518D01*
X156320442Y-108198518D01*
G37*
G36*
X158860442Y-108198518D02*
X158926627Y-108205037D01*
X159039853Y-108239384D01*
X159096467Y-108256557D01*
X159205146Y-108314648D01*
X159252991Y-108340222D01*
X159288729Y-108369552D01*
X159390186Y-108452814D01*
X159473448Y-108554271D01*
X159502778Y-108590009D01*
X159502779Y-108590011D01*
X159586443Y-108746533D01*
X159586443Y-108746534D01*
X159637963Y-108916373D01*
X159655359Y-109093000D01*
X159637963Y-109269627D01*
X159603616Y-109382853D01*
X159586443Y-109439467D01*
X159539670Y-109526972D01*
X159502778Y-109595991D01*
X159473448Y-109631729D01*
X159390186Y-109733186D01*
X159288729Y-109816448D01*
X159252991Y-109845778D01*
X159252989Y-109845779D01*
X159096467Y-109929443D01*
X159039853Y-109946616D01*
X158926627Y-109980963D01*
X158860442Y-109987482D01*
X158794260Y-109994000D01*
X158705740Y-109994000D01*
X158639558Y-109987482D01*
X158573373Y-109980963D01*
X158460147Y-109946616D01*
X158403533Y-109929443D01*
X158247011Y-109845779D01*
X158247009Y-109845778D01*
X158211271Y-109816448D01*
X158109814Y-109733186D01*
X158026552Y-109631729D01*
X157997222Y-109595991D01*
X157960330Y-109526972D01*
X157913557Y-109439467D01*
X157896384Y-109382853D01*
X157862037Y-109269627D01*
X157844641Y-109093000D01*
X157862037Y-108916373D01*
X157913557Y-108746534D01*
X157913557Y-108746533D01*
X157997221Y-108590011D01*
X157997222Y-108590009D01*
X158026552Y-108554271D01*
X158109814Y-108452814D01*
X158211271Y-108369552D01*
X158247009Y-108340222D01*
X158294854Y-108314648D01*
X158403533Y-108256557D01*
X158460147Y-108239384D01*
X158573373Y-108205037D01*
X158639558Y-108198518D01*
X158705740Y-108192000D01*
X158794260Y-108192000D01*
X158860442Y-108198518D01*
X158860442Y-108198518D01*
G37*
G36*
X161183966Y-103774565D02*
X161222637Y-103786296D01*
X161258279Y-103805348D01*
X161289517Y-103830983D01*
X161315152Y-103862221D01*
X161334204Y-103897863D01*
X161345935Y-103936534D01*
X161350500Y-103982888D01*
X161350500Y-105059112D01*
X161345935Y-105105466D01*
X161334204Y-105144137D01*
X161315152Y-105179779D01*
X161289517Y-105211017D01*
X161258279Y-105236652D01*
X161222637Y-105255704D01*
X161183966Y-105267435D01*
X161137612Y-105272000D01*
X160486388Y-105272000D01*
X160440034Y-105267435D01*
X160401363Y-105255704D01*
X160365721Y-105236652D01*
X160334483Y-105211017D01*
X160308848Y-105179779D01*
X160289796Y-105144137D01*
X160278065Y-105105466D01*
X160273500Y-105059112D01*
X160273500Y-103982888D01*
X160278065Y-103936534D01*
X160289796Y-103897863D01*
X160308848Y-103862221D01*
X160334483Y-103830983D01*
X160365721Y-103805348D01*
X160401363Y-103786296D01*
X160440034Y-103774565D01*
X160486388Y-103770000D01*
X161137612Y-103770000D01*
X161183966Y-103774565D01*
X161183966Y-103774565D01*
G37*
G36*
X163058966Y-103774565D02*
X163097637Y-103786296D01*
X163133279Y-103805348D01*
X163164517Y-103830983D01*
X163190152Y-103862221D01*
X163209204Y-103897863D01*
X163220935Y-103936534D01*
X163225500Y-103982888D01*
X163225500Y-105059112D01*
X163220935Y-105105466D01*
X163209204Y-105144137D01*
X163190152Y-105179779D01*
X163164517Y-105211017D01*
X163133279Y-105236652D01*
X163097637Y-105255704D01*
X163058966Y-105267435D01*
X163012612Y-105272000D01*
X162361388Y-105272000D01*
X162315034Y-105267435D01*
X162276363Y-105255704D01*
X162240721Y-105236652D01*
X162209483Y-105211017D01*
X162183848Y-105179779D01*
X162164796Y-105144137D01*
X162153065Y-105105466D01*
X162148500Y-105059112D01*
X162148500Y-103982888D01*
X162153065Y-103936534D01*
X162164796Y-103897863D01*
X162183848Y-103862221D01*
X162209483Y-103830983D01*
X162240721Y-103805348D01*
X162276363Y-103786296D01*
X162315034Y-103774565D01*
X162361388Y-103770000D01*
X163012612Y-103770000D01*
X163058966Y-103774565D01*
X163058966Y-103774565D01*
G37*
G36*
X177292355Y-103944140D02*
X177356118Y-103950420D01*
X177437927Y-103975237D01*
X177478833Y-103987645D01*
X177575378Y-104039250D01*
X177591926Y-104048095D01*
X177691053Y-104129447D01*
X177772405Y-104228574D01*
X177772406Y-104228576D01*
X177832855Y-104341667D01*
X177832855Y-104341668D01*
X177870080Y-104464382D01*
X177882649Y-104592000D01*
X177870080Y-104719618D01*
X177845263Y-104801427D01*
X177832855Y-104842333D01*
X177779319Y-104942491D01*
X177772405Y-104955426D01*
X177691053Y-105054553D01*
X177591926Y-105135905D01*
X177591924Y-105135906D01*
X177478833Y-105196355D01*
X177437927Y-105208763D01*
X177356118Y-105233580D01*
X177292355Y-105239860D01*
X177260474Y-105243000D01*
X176496526Y-105243000D01*
X176464645Y-105239860D01*
X176400882Y-105233580D01*
X176319073Y-105208763D01*
X176278167Y-105196355D01*
X176165076Y-105135906D01*
X176165074Y-105135905D01*
X176065947Y-105054553D01*
X175984595Y-104955426D01*
X175977681Y-104942491D01*
X175924145Y-104842333D01*
X175911737Y-104801427D01*
X175886920Y-104719618D01*
X175874351Y-104592000D01*
X175886920Y-104464382D01*
X175924145Y-104341668D01*
X175924145Y-104341667D01*
X175984594Y-104228576D01*
X175984595Y-104228574D01*
X176065947Y-104129447D01*
X176165074Y-104048095D01*
X176181622Y-104039250D01*
X176278167Y-103987645D01*
X176319073Y-103975237D01*
X176400882Y-103950420D01*
X176464645Y-103944140D01*
X176496526Y-103941000D01*
X177260474Y-103941000D01*
X177292355Y-103944140D01*
X177292355Y-103944140D01*
G37*
G36*
X174404849Y-102845820D02*
X174404852Y-102845821D01*
X174404851Y-102845821D01*
X174546074Y-102904317D01*
X174546075Y-102904318D01*
X174673174Y-102989243D01*
X174781257Y-103097326D01*
X174781259Y-103097329D01*
X174866183Y-103224426D01*
X174907828Y-103324967D01*
X174924680Y-103365651D01*
X174954500Y-103515569D01*
X174954500Y-103668431D01*
X174924680Y-103818349D01*
X174924679Y-103818351D01*
X174866183Y-103959574D01*
X174812945Y-104039250D01*
X174781257Y-104086674D01*
X174673174Y-104194757D01*
X174673171Y-104194759D01*
X174546074Y-104279683D01*
X174436843Y-104324927D01*
X174404849Y-104338180D01*
X174254931Y-104368000D01*
X174102069Y-104368000D01*
X173952151Y-104338180D01*
X173920157Y-104324927D01*
X173810926Y-104279683D01*
X173683829Y-104194759D01*
X173683826Y-104194757D01*
X173575743Y-104086674D01*
X173544055Y-104039250D01*
X173490817Y-103959574D01*
X173432321Y-103818351D01*
X173432320Y-103818349D01*
X173402500Y-103668431D01*
X173402500Y-103515569D01*
X173432320Y-103365651D01*
X173449172Y-103324967D01*
X173490817Y-103224426D01*
X173575741Y-103097329D01*
X173575743Y-103097326D01*
X173683826Y-102989243D01*
X173810925Y-102904318D01*
X173810926Y-102904317D01*
X173952149Y-102845821D01*
X173952148Y-102845821D01*
X173952151Y-102845820D01*
X174102069Y-102816000D01*
X174254931Y-102816000D01*
X174404849Y-102845820D01*
X174404849Y-102845820D01*
G37*
G36*
X170564004Y-102511544D02*
X170651059Y-102528860D01*
X170787732Y-102585472D01*
X170787733Y-102585473D01*
X170910738Y-102667662D01*
X171015338Y-102772262D01*
X171015340Y-102772265D01*
X171097528Y-102895268D01*
X171154140Y-103031941D01*
X171183000Y-103177033D01*
X171183000Y-103324967D01*
X171154140Y-103470059D01*
X171097528Y-103606732D01*
X171097527Y-103606733D01*
X171015338Y-103729738D01*
X170910738Y-103834338D01*
X170910735Y-103834340D01*
X170787732Y-103916528D01*
X170651059Y-103973140D01*
X170564004Y-103990456D01*
X170505969Y-104002000D01*
X170358031Y-104002000D01*
X170299996Y-103990456D01*
X170212941Y-103973140D01*
X170076268Y-103916528D01*
X169953265Y-103834340D01*
X169953262Y-103834338D01*
X169848662Y-103729738D01*
X169766473Y-103606733D01*
X169766472Y-103606732D01*
X169709860Y-103470059D01*
X169681000Y-103324967D01*
X169681000Y-103177033D01*
X169709860Y-103031941D01*
X169766472Y-102895268D01*
X169848660Y-102772265D01*
X169848662Y-102772262D01*
X169953262Y-102667662D01*
X170076267Y-102585473D01*
X170076268Y-102585472D01*
X170212941Y-102528860D01*
X170299996Y-102511544D01*
X170358031Y-102500000D01*
X170505969Y-102500000D01*
X170564004Y-102511544D01*
X170564004Y-102511544D01*
G37*
G36*
X167883000Y-104002000D02*
X166381000Y-104002000D01*
X166381000Y-102500000D01*
X167883000Y-102500000D01*
X167883000Y-104002000D01*
X167883000Y-104002000D01*
G37*
G36*
X162980466Y-101615565D02*
X163019137Y-101627296D01*
X163054779Y-101646348D01*
X163086017Y-101671983D01*
X163111652Y-101703221D01*
X163130704Y-101738863D01*
X163142435Y-101777534D01*
X163147000Y-101823888D01*
X163147000Y-102900112D01*
X163142435Y-102946466D01*
X163130704Y-102985137D01*
X163111652Y-103020779D01*
X163086017Y-103052017D01*
X163054779Y-103077652D01*
X163019137Y-103096704D01*
X162980466Y-103108435D01*
X162934112Y-103113000D01*
X162282888Y-103113000D01*
X162236534Y-103108435D01*
X162197863Y-103096704D01*
X162162221Y-103077652D01*
X162130983Y-103052017D01*
X162105348Y-103020779D01*
X162086296Y-102985137D01*
X162074565Y-102946466D01*
X162070000Y-102900112D01*
X162070000Y-101823888D01*
X162074565Y-101777534D01*
X162086296Y-101738863D01*
X162105348Y-101703221D01*
X162130983Y-101671983D01*
X162162221Y-101646348D01*
X162197863Y-101627296D01*
X162236534Y-101615565D01*
X162282888Y-101611000D01*
X162934112Y-101611000D01*
X162980466Y-101615565D01*
X162980466Y-101615565D01*
G37*
G36*
X161105466Y-101615565D02*
X161144137Y-101627296D01*
X161179779Y-101646348D01*
X161211017Y-101671983D01*
X161236652Y-101703221D01*
X161255704Y-101738863D01*
X161267435Y-101777534D01*
X161272000Y-101823888D01*
X161272000Y-102900112D01*
X161267435Y-102946466D01*
X161255704Y-102985137D01*
X161236652Y-103020779D01*
X161211017Y-103052017D01*
X161179779Y-103077652D01*
X161144137Y-103096704D01*
X161105466Y-103108435D01*
X161059112Y-103113000D01*
X160407888Y-103113000D01*
X160361534Y-103108435D01*
X160322863Y-103096704D01*
X160287221Y-103077652D01*
X160255983Y-103052017D01*
X160230348Y-103020779D01*
X160211296Y-102985137D01*
X160199565Y-102946466D01*
X160195000Y-102900112D01*
X160195000Y-101823888D01*
X160199565Y-101777534D01*
X160211296Y-101738863D01*
X160230348Y-101703221D01*
X160255983Y-101671983D01*
X160287221Y-101646348D01*
X160322863Y-101627296D01*
X160361534Y-101615565D01*
X160407888Y-101611000D01*
X161059112Y-101611000D01*
X161105466Y-101615565D01*
X161105466Y-101615565D01*
G37*
G36*
X170564004Y-100011544D02*
X170651059Y-100028860D01*
X170787732Y-100085472D01*
X170787733Y-100085473D01*
X170910738Y-100167662D01*
X171015338Y-100272262D01*
X171015340Y-100272265D01*
X171097528Y-100395268D01*
X171154140Y-100531941D01*
X171183000Y-100677033D01*
X171183000Y-100824967D01*
X171154140Y-100970059D01*
X171097528Y-101106732D01*
X171097527Y-101106733D01*
X171015338Y-101229738D01*
X170910738Y-101334338D01*
X170910735Y-101334340D01*
X170787732Y-101416528D01*
X170651059Y-101473140D01*
X170564004Y-101490456D01*
X170505969Y-101502000D01*
X170358031Y-101502000D01*
X170299996Y-101490456D01*
X170212941Y-101473140D01*
X170076268Y-101416528D01*
X169953265Y-101334340D01*
X169953262Y-101334338D01*
X169848662Y-101229738D01*
X169766473Y-101106733D01*
X169766472Y-101106732D01*
X169709860Y-100970059D01*
X169681000Y-100824967D01*
X169681000Y-100677033D01*
X169709860Y-100531941D01*
X169766472Y-100395268D01*
X169848660Y-100272265D01*
X169848662Y-100272262D01*
X169953262Y-100167662D01*
X170076267Y-100085473D01*
X170076268Y-100085472D01*
X170212941Y-100028860D01*
X170299996Y-100011544D01*
X170358031Y-100000000D01*
X170505969Y-100000000D01*
X170564004Y-100011544D01*
X170564004Y-100011544D01*
G37*
G36*
X167264004Y-100011544D02*
X167351059Y-100028860D01*
X167487732Y-100085472D01*
X167487733Y-100085473D01*
X167610738Y-100167662D01*
X167715338Y-100272262D01*
X167715340Y-100272265D01*
X167797528Y-100395268D01*
X167854140Y-100531941D01*
X167883000Y-100677033D01*
X167883000Y-100824967D01*
X167854140Y-100970059D01*
X167797528Y-101106732D01*
X167797527Y-101106733D01*
X167715338Y-101229738D01*
X167610738Y-101334338D01*
X167610735Y-101334340D01*
X167487732Y-101416528D01*
X167351059Y-101473140D01*
X167264004Y-101490456D01*
X167205969Y-101502000D01*
X167058031Y-101502000D01*
X166999996Y-101490456D01*
X166912941Y-101473140D01*
X166776268Y-101416528D01*
X166653265Y-101334340D01*
X166653262Y-101334338D01*
X166548662Y-101229738D01*
X166466473Y-101106733D01*
X166466472Y-101106732D01*
X166409860Y-100970059D01*
X166381000Y-100824967D01*
X166381000Y-100677033D01*
X166409860Y-100531941D01*
X166466472Y-100395268D01*
X166548660Y-100272265D01*
X166548662Y-100272262D01*
X166653262Y-100167662D01*
X166776267Y-100085473D01*
X166776268Y-100085472D01*
X166912941Y-100028860D01*
X166999996Y-100011544D01*
X167058031Y-100000000D01*
X167205969Y-100000000D01*
X167264004Y-100011544D01*
X167264004Y-100011544D01*
G37*
G36*
X157780000Y-100086000D02*
X153878000Y-100086000D01*
X153878000Y-97984000D01*
X157780000Y-97984000D01*
X157780000Y-100086000D01*
X157780000Y-100086000D01*
G37*
G36*
X174404849Y-97845820D02*
X174404852Y-97845821D01*
X174404851Y-97845821D01*
X174546074Y-97904317D01*
X174665327Y-97984000D01*
X174673174Y-97989243D01*
X174781257Y-98097326D01*
X174781259Y-98097329D01*
X174866183Y-98224426D01*
X174907828Y-98324967D01*
X174924680Y-98365651D01*
X174954500Y-98515569D01*
X174954500Y-98668431D01*
X174924680Y-98818349D01*
X174924679Y-98818351D01*
X174866183Y-98959574D01*
X174782405Y-99084956D01*
X174781257Y-99086674D01*
X174673174Y-99194757D01*
X174673171Y-99194759D01*
X174546074Y-99279683D01*
X174436843Y-99324927D01*
X174404849Y-99338180D01*
X174254931Y-99368000D01*
X174102069Y-99368000D01*
X173952151Y-99338180D01*
X173920157Y-99324927D01*
X173810926Y-99279683D01*
X173683829Y-99194759D01*
X173683826Y-99194757D01*
X173575743Y-99086674D01*
X173574595Y-99084956D01*
X173490817Y-98959574D01*
X173432321Y-98818351D01*
X173432320Y-98818349D01*
X173402500Y-98668431D01*
X173402500Y-98515569D01*
X173432320Y-98365651D01*
X173449172Y-98324967D01*
X173490817Y-98224426D01*
X173575741Y-98097329D01*
X173575743Y-98097326D01*
X173683826Y-97989243D01*
X173691673Y-97984000D01*
X173810926Y-97904317D01*
X173952149Y-97845821D01*
X173952148Y-97845821D01*
X173952151Y-97845820D01*
X174102069Y-97816000D01*
X174254931Y-97816000D01*
X174404849Y-97845820D01*
X174404849Y-97845820D01*
G37*
G36*
X167264004Y-97511544D02*
X167351059Y-97528860D01*
X167487732Y-97585472D01*
X167551607Y-97628152D01*
X167610738Y-97667662D01*
X167715338Y-97772262D01*
X167715340Y-97772265D01*
X167797528Y-97895268D01*
X167854140Y-98031941D01*
X167867146Y-98097329D01*
X167874820Y-98135906D01*
X167883000Y-98177033D01*
X167883000Y-98324967D01*
X167854140Y-98470059D01*
X167797528Y-98606732D01*
X167797527Y-98606733D01*
X167715338Y-98729738D01*
X167610738Y-98834338D01*
X167610735Y-98834340D01*
X167487732Y-98916528D01*
X167351059Y-98973140D01*
X167264004Y-98990456D01*
X167205969Y-99002000D01*
X167058031Y-99002000D01*
X166999996Y-98990456D01*
X166912941Y-98973140D01*
X166776268Y-98916528D01*
X166653265Y-98834340D01*
X166653262Y-98834338D01*
X166548662Y-98729738D01*
X166466473Y-98606733D01*
X166466472Y-98606732D01*
X166409860Y-98470059D01*
X166381000Y-98324967D01*
X166381000Y-98177033D01*
X166389181Y-98135906D01*
X166396854Y-98097329D01*
X166409860Y-98031941D01*
X166466472Y-97895268D01*
X166548660Y-97772265D01*
X166548662Y-97772262D01*
X166653262Y-97667662D01*
X166712393Y-97628152D01*
X166776268Y-97585472D01*
X166912941Y-97528860D01*
X166999996Y-97511544D01*
X167058031Y-97500000D01*
X167205969Y-97500000D01*
X167264004Y-97511544D01*
X167264004Y-97511544D01*
G37*
G36*
X170564004Y-97511544D02*
X170651059Y-97528860D01*
X170787732Y-97585472D01*
X170851607Y-97628152D01*
X170910738Y-97667662D01*
X171015338Y-97772262D01*
X171015340Y-97772265D01*
X171097528Y-97895268D01*
X171154140Y-98031941D01*
X171167146Y-98097329D01*
X171174820Y-98135906D01*
X171183000Y-98177033D01*
X171183000Y-98324967D01*
X171154140Y-98470059D01*
X171097528Y-98606732D01*
X171097527Y-98606733D01*
X171015338Y-98729738D01*
X170910738Y-98834338D01*
X170910735Y-98834340D01*
X170787732Y-98916528D01*
X170651059Y-98973140D01*
X170564004Y-98990456D01*
X170505969Y-99002000D01*
X170358031Y-99002000D01*
X170299996Y-98990456D01*
X170212941Y-98973140D01*
X170076268Y-98916528D01*
X169953265Y-98834340D01*
X169953262Y-98834338D01*
X169848662Y-98729738D01*
X169766473Y-98606733D01*
X169766472Y-98606732D01*
X169709860Y-98470059D01*
X169681000Y-98324967D01*
X169681000Y-98177033D01*
X169689181Y-98135906D01*
X169696854Y-98097329D01*
X169709860Y-98031941D01*
X169766472Y-97895268D01*
X169848660Y-97772265D01*
X169848662Y-97772262D01*
X169953262Y-97667662D01*
X170012393Y-97628152D01*
X170076268Y-97585472D01*
X170212941Y-97528860D01*
X170299996Y-97511544D01*
X170358031Y-97500000D01*
X170505969Y-97500000D01*
X170564004Y-97511544D01*
X170564004Y-97511544D01*
G37*
G36*
X177292355Y-96944140D02*
X177356118Y-96950420D01*
X177437927Y-96975237D01*
X177478833Y-96987645D01*
X177578991Y-97041181D01*
X177591926Y-97048095D01*
X177691053Y-97129447D01*
X177772405Y-97228574D01*
X177772406Y-97228576D01*
X177832855Y-97341667D01*
X177832855Y-97341668D01*
X177870080Y-97464382D01*
X177882649Y-97592000D01*
X177870080Y-97719618D01*
X177845263Y-97801427D01*
X177832855Y-97842333D01*
X177799723Y-97904318D01*
X177772405Y-97955426D01*
X177691053Y-98054553D01*
X177591926Y-98135905D01*
X177591924Y-98135906D01*
X177478833Y-98196355D01*
X177437927Y-98208763D01*
X177356118Y-98233580D01*
X177292355Y-98239860D01*
X177260474Y-98243000D01*
X176496526Y-98243000D01*
X176464645Y-98239860D01*
X176400882Y-98233580D01*
X176319073Y-98208763D01*
X176278167Y-98196355D01*
X176165076Y-98135906D01*
X176165074Y-98135905D01*
X176065947Y-98054553D01*
X175984595Y-97955426D01*
X175957277Y-97904318D01*
X175924145Y-97842333D01*
X175911737Y-97801427D01*
X175886920Y-97719618D01*
X175874351Y-97592000D01*
X175886920Y-97464382D01*
X175924145Y-97341668D01*
X175924145Y-97341667D01*
X175984594Y-97228576D01*
X175984595Y-97228574D01*
X176065947Y-97129447D01*
X176165074Y-97048095D01*
X176178009Y-97041181D01*
X176278167Y-96987645D01*
X176319073Y-96975237D01*
X176400882Y-96950420D01*
X176464645Y-96944140D01*
X176496526Y-96941000D01*
X177260474Y-96941000D01*
X177292355Y-96944140D01*
X177292355Y-96944140D01*
G37*
G36*
X151714466Y-96591065D02*
X151753137Y-96602796D01*
X151788779Y-96621848D01*
X151820017Y-96647483D01*
X151845652Y-96678721D01*
X151864704Y-96714363D01*
X151876435Y-96753034D01*
X151881000Y-96799388D01*
X151881000Y-97450612D01*
X151876435Y-97496966D01*
X151864704Y-97535637D01*
X151845652Y-97571279D01*
X151820017Y-97602517D01*
X151788779Y-97628152D01*
X151753137Y-97647204D01*
X151714466Y-97658935D01*
X151668112Y-97663500D01*
X150591888Y-97663500D01*
X150545534Y-97658935D01*
X150506863Y-97647204D01*
X150471221Y-97628152D01*
X150439983Y-97602517D01*
X150414348Y-97571279D01*
X150395296Y-97535637D01*
X150383565Y-97496966D01*
X150379000Y-97450612D01*
X150379000Y-96799388D01*
X150383565Y-96753034D01*
X150395296Y-96714363D01*
X150414348Y-96678721D01*
X150439983Y-96647483D01*
X150471221Y-96621848D01*
X150506863Y-96602796D01*
X150545534Y-96591065D01*
X150591888Y-96586500D01*
X151668112Y-96586500D01*
X151714466Y-96591065D01*
X151714466Y-96591065D01*
G37*
G36*
X149682466Y-96591065D02*
X149721137Y-96602796D01*
X149756779Y-96621848D01*
X149788017Y-96647483D01*
X149813652Y-96678721D01*
X149832704Y-96714363D01*
X149844435Y-96753034D01*
X149849000Y-96799388D01*
X149849000Y-97450612D01*
X149844435Y-97496966D01*
X149832704Y-97535637D01*
X149813652Y-97571279D01*
X149788017Y-97602517D01*
X149756779Y-97628152D01*
X149721137Y-97647204D01*
X149682466Y-97658935D01*
X149636112Y-97663500D01*
X148559888Y-97663500D01*
X148513534Y-97658935D01*
X148474863Y-97647204D01*
X148439221Y-97628152D01*
X148407983Y-97602517D01*
X148382348Y-97571279D01*
X148363296Y-97535637D01*
X148351565Y-97496966D01*
X148347000Y-97450612D01*
X148347000Y-96799388D01*
X148351565Y-96753034D01*
X148363296Y-96714363D01*
X148382348Y-96678721D01*
X148407983Y-96647483D01*
X148439221Y-96621848D01*
X148474863Y-96602796D01*
X148513534Y-96591065D01*
X148559888Y-96586500D01*
X149636112Y-96586500D01*
X149682466Y-96591065D01*
X149682466Y-96591065D01*
G37*
G36*
X151714466Y-94716065D02*
X151753137Y-94727796D01*
X151788779Y-94746848D01*
X151820017Y-94772483D01*
X151845652Y-94803721D01*
X151864704Y-94839363D01*
X151876435Y-94878034D01*
X151881000Y-94924388D01*
X151881000Y-95575612D01*
X151876435Y-95621966D01*
X151864704Y-95660637D01*
X151845652Y-95696279D01*
X151820017Y-95727517D01*
X151788779Y-95753152D01*
X151753137Y-95772204D01*
X151714466Y-95783935D01*
X151668112Y-95788500D01*
X150591888Y-95788500D01*
X150545534Y-95783935D01*
X150506863Y-95772204D01*
X150471221Y-95753152D01*
X150439983Y-95727517D01*
X150414348Y-95696279D01*
X150395296Y-95660637D01*
X150383565Y-95621966D01*
X150379000Y-95575612D01*
X150379000Y-94924388D01*
X150383565Y-94878034D01*
X150395296Y-94839363D01*
X150414348Y-94803721D01*
X150439983Y-94772483D01*
X150471221Y-94746848D01*
X150506863Y-94727796D01*
X150545534Y-94716065D01*
X150591888Y-94711500D01*
X151668112Y-94711500D01*
X151714466Y-94716065D01*
X151714466Y-94716065D01*
G37*
G36*
X149682466Y-94716065D02*
X149721137Y-94727796D01*
X149756779Y-94746848D01*
X149788017Y-94772483D01*
X149813652Y-94803721D01*
X149832704Y-94839363D01*
X149844435Y-94878034D01*
X149849000Y-94924388D01*
X149849000Y-95575612D01*
X149844435Y-95621966D01*
X149832704Y-95660637D01*
X149813652Y-95696279D01*
X149788017Y-95727517D01*
X149756779Y-95753152D01*
X149721137Y-95772204D01*
X149682466Y-95783935D01*
X149636112Y-95788500D01*
X148559888Y-95788500D01*
X148513534Y-95783935D01*
X148474863Y-95772204D01*
X148439221Y-95753152D01*
X148407983Y-95727517D01*
X148382348Y-95696279D01*
X148363296Y-95660637D01*
X148351565Y-95621966D01*
X148347000Y-95575612D01*
X148347000Y-94924388D01*
X148351565Y-94878034D01*
X148363296Y-94839363D01*
X148382348Y-94803721D01*
X148407983Y-94772483D01*
X148439221Y-94746848D01*
X148474863Y-94727796D01*
X148513534Y-94716065D01*
X148559888Y-94711500D01*
X149636112Y-94711500D01*
X149682466Y-94716065D01*
X149682466Y-94716065D01*
G37*
G36*
X161366466Y-93543065D02*
X161405137Y-93554796D01*
X161440779Y-93573848D01*
X161472017Y-93599483D01*
X161497652Y-93630721D01*
X161516704Y-93666363D01*
X161528435Y-93705034D01*
X161533000Y-93751388D01*
X161533000Y-94402612D01*
X161528435Y-94448966D01*
X161516704Y-94487637D01*
X161497652Y-94523279D01*
X161472017Y-94554517D01*
X161440779Y-94580152D01*
X161405137Y-94599204D01*
X161366466Y-94610935D01*
X161320112Y-94615500D01*
X160243888Y-94615500D01*
X160197534Y-94610935D01*
X160158863Y-94599204D01*
X160123221Y-94580152D01*
X160091983Y-94554517D01*
X160066348Y-94523279D01*
X160047296Y-94487637D01*
X160035565Y-94448966D01*
X160031000Y-94402612D01*
X160031000Y-93751388D01*
X160035565Y-93705034D01*
X160047296Y-93666363D01*
X160066348Y-93630721D01*
X160091983Y-93599483D01*
X160123221Y-93573848D01*
X160158863Y-93554796D01*
X160197534Y-93543065D01*
X160243888Y-93538500D01*
X161320112Y-93538500D01*
X161366466Y-93543065D01*
X161366466Y-93543065D01*
G37*
G36*
X154330000Y-93786000D02*
X152728000Y-93786000D01*
X152728000Y-91684000D01*
X154330000Y-91684000D01*
X154330000Y-93786000D01*
X154330000Y-93786000D01*
G37*
G36*
X158930000Y-93786000D02*
X157328000Y-93786000D01*
X157328000Y-91684000D01*
X158930000Y-91684000D01*
X158930000Y-93786000D01*
X158930000Y-93786000D01*
G37*
G36*
X156630000Y-93786000D02*
X155028000Y-93786000D01*
X155028000Y-91684000D01*
X156630000Y-91684000D01*
X156630000Y-93786000D01*
X156630000Y-93786000D01*
G37*
G36*
X161366466Y-91668065D02*
X161405137Y-91679796D01*
X161440779Y-91698848D01*
X161472017Y-91724483D01*
X161497652Y-91755721D01*
X161516704Y-91791363D01*
X161528435Y-91830034D01*
X161533000Y-91876388D01*
X161533000Y-92527612D01*
X161528435Y-92573966D01*
X161516704Y-92612637D01*
X161497652Y-92648279D01*
X161472017Y-92679517D01*
X161440779Y-92705152D01*
X161405137Y-92724204D01*
X161366466Y-92735935D01*
X161320112Y-92740500D01*
X160243888Y-92740500D01*
X160197534Y-92735935D01*
X160158863Y-92724204D01*
X160123221Y-92705152D01*
X160091983Y-92679517D01*
X160066348Y-92648279D01*
X160047296Y-92612637D01*
X160035565Y-92573966D01*
X160031000Y-92527612D01*
X160031000Y-91876388D01*
X160035565Y-91830034D01*
X160047296Y-91791363D01*
X160066348Y-91755721D01*
X160091983Y-91724483D01*
X160123221Y-91698848D01*
X160158863Y-91679796D01*
X160197534Y-91668065D01*
X160243888Y-91663500D01*
X161320112Y-91663500D01*
X161366466Y-91668065D01*
X161366466Y-91668065D01*
G37*
G36*
X175270256Y-87799298D02*
X175376579Y-87820447D01*
X175677042Y-87944903D01*
X175943852Y-88123180D01*
X175947454Y-88125587D01*
X176177413Y-88355546D01*
X176177415Y-88355549D01*
X176276230Y-88503435D01*
X176358098Y-88625960D01*
X176482553Y-88926422D01*
X176513774Y-89083377D01*
X176546000Y-89245391D01*
X176546000Y-89570609D01*
X176482553Y-89889579D01*
X176358097Y-90190042D01*
X176209697Y-90412137D01*
X176177413Y-90460454D01*
X175947454Y-90690413D01*
X175947451Y-90690415D01*
X175677042Y-90871097D01*
X175376579Y-90995553D01*
X175270256Y-91016702D01*
X175057611Y-91059000D01*
X174732389Y-91059000D01*
X174519744Y-91016702D01*
X174413421Y-90995553D01*
X174112958Y-90871097D01*
X173842549Y-90690415D01*
X173842546Y-90690413D01*
X173612587Y-90460454D01*
X173580303Y-90412137D01*
X173431903Y-90190042D01*
X173307447Y-89889579D01*
X173244000Y-89570609D01*
X173244000Y-89245391D01*
X173276227Y-89083377D01*
X173307447Y-88926422D01*
X173431902Y-88625960D01*
X173513771Y-88503435D01*
X173612585Y-88355549D01*
X173612587Y-88355546D01*
X173842546Y-88125587D01*
X173846148Y-88123180D01*
X174112958Y-87944903D01*
X174413421Y-87820447D01*
X174519744Y-87799298D01*
X174732389Y-87757000D01*
X175057611Y-87757000D01*
X175270256Y-87799298D01*
X175270256Y-87799298D01*
G37*
G36*
X135614256Y-87799298D02*
X135720579Y-87820447D01*
X136021042Y-87944903D01*
X136287852Y-88123180D01*
X136291454Y-88125587D01*
X136521413Y-88355546D01*
X136521415Y-88355549D01*
X136620230Y-88503435D01*
X136702098Y-88625960D01*
X136826553Y-88926422D01*
X136857774Y-89083377D01*
X136890000Y-89245391D01*
X136890000Y-89570609D01*
X136826553Y-89889579D01*
X136702097Y-90190042D01*
X136553697Y-90412137D01*
X136521413Y-90460454D01*
X136291454Y-90690413D01*
X136291451Y-90690415D01*
X136021042Y-90871097D01*
X135720579Y-90995553D01*
X135614256Y-91016702D01*
X135401611Y-91059000D01*
X135076389Y-91059000D01*
X134863744Y-91016702D01*
X134757421Y-90995553D01*
X134456958Y-90871097D01*
X134186549Y-90690415D01*
X134186546Y-90690413D01*
X133956587Y-90460454D01*
X133924303Y-90412137D01*
X133775903Y-90190042D01*
X133651447Y-89889579D01*
X133588000Y-89570609D01*
X133588000Y-89245391D01*
X133620227Y-89083377D01*
X133651447Y-88926422D01*
X133775902Y-88625960D01*
X133857771Y-88503435D01*
X133956585Y-88355549D01*
X133956587Y-88355546D01*
X134186546Y-88125587D01*
X134190148Y-88123180D01*
X134456958Y-87944903D01*
X134757421Y-87820447D01*
X134863744Y-87799298D01*
X135076389Y-87757000D01*
X135401611Y-87757000D01*
X135614256Y-87799298D01*
X135614256Y-87799298D01*
G37*
G36*
X148961966Y-89042565D02*
X149000637Y-89054296D01*
X149036279Y-89073348D01*
X149067517Y-89098983D01*
X149093152Y-89130221D01*
X149112204Y-89165863D01*
X149123935Y-89204534D01*
X149128500Y-89250888D01*
X149128500Y-90327112D01*
X149123935Y-90373466D01*
X149112204Y-90412137D01*
X149093152Y-90447779D01*
X149067517Y-90479017D01*
X149036279Y-90504652D01*
X149000637Y-90523704D01*
X148961966Y-90535435D01*
X148915612Y-90540000D01*
X148264388Y-90540000D01*
X148218034Y-90535435D01*
X148179363Y-90523704D01*
X148143721Y-90504652D01*
X148112483Y-90479017D01*
X148086848Y-90447779D01*
X148067796Y-90412137D01*
X148056065Y-90373466D01*
X148051500Y-90327112D01*
X148051500Y-89250888D01*
X148056065Y-89204534D01*
X148067796Y-89165863D01*
X148086848Y-89130221D01*
X148112483Y-89098983D01*
X148143721Y-89073348D01*
X148179363Y-89054296D01*
X148218034Y-89042565D01*
X148264388Y-89038000D01*
X148915612Y-89038000D01*
X148961966Y-89042565D01*
X148961966Y-89042565D01*
G37*
G36*
X147086966Y-89042565D02*
X147125637Y-89054296D01*
X147161279Y-89073348D01*
X147192517Y-89098983D01*
X147218152Y-89130221D01*
X147237204Y-89165863D01*
X147248935Y-89204534D01*
X147253500Y-89250888D01*
X147253500Y-90327112D01*
X147248935Y-90373466D01*
X147237204Y-90412137D01*
X147218152Y-90447779D01*
X147192517Y-90479017D01*
X147161279Y-90504652D01*
X147125637Y-90523704D01*
X147086966Y-90535435D01*
X147040612Y-90540000D01*
X146389388Y-90540000D01*
X146343034Y-90535435D01*
X146304363Y-90523704D01*
X146268721Y-90504652D01*
X146237483Y-90479017D01*
X146211848Y-90447779D01*
X146192796Y-90412137D01*
X146181065Y-90373466D01*
X146176500Y-90327112D01*
X146176500Y-89250888D01*
X146181065Y-89204534D01*
X146192796Y-89165863D01*
X146211848Y-89130221D01*
X146237483Y-89098983D01*
X146268721Y-89073348D01*
X146304363Y-89054296D01*
X146343034Y-89042565D01*
X146389388Y-89038000D01*
X147040612Y-89038000D01*
X147086966Y-89042565D01*
X147086966Y-89042565D01*
G37*
G36*
X148961966Y-87010565D02*
X149000637Y-87022296D01*
X149036279Y-87041348D01*
X149067517Y-87066983D01*
X149093152Y-87098221D01*
X149112204Y-87133863D01*
X149123935Y-87172534D01*
X149128500Y-87218888D01*
X149128500Y-88295112D01*
X149123935Y-88341466D01*
X149112204Y-88380137D01*
X149093152Y-88415779D01*
X149067517Y-88447017D01*
X149036279Y-88472652D01*
X149000637Y-88491704D01*
X148961966Y-88503435D01*
X148915612Y-88508000D01*
X148264388Y-88508000D01*
X148218034Y-88503435D01*
X148179363Y-88491704D01*
X148143721Y-88472652D01*
X148112483Y-88447017D01*
X148086848Y-88415779D01*
X148067796Y-88380137D01*
X148056065Y-88341466D01*
X148051500Y-88295112D01*
X148051500Y-87218888D01*
X148056065Y-87172534D01*
X148067796Y-87133863D01*
X148086848Y-87098221D01*
X148112483Y-87066983D01*
X148143721Y-87041348D01*
X148179363Y-87022296D01*
X148218034Y-87010565D01*
X148264388Y-87006000D01*
X148915612Y-87006000D01*
X148961966Y-87010565D01*
X148961966Y-87010565D01*
G37*
G36*
X147086966Y-87010565D02*
X147125637Y-87022296D01*
X147161279Y-87041348D01*
X147192517Y-87066983D01*
X147218152Y-87098221D01*
X147237204Y-87133863D01*
X147248935Y-87172534D01*
X147253500Y-87218888D01*
X147253500Y-88295112D01*
X147248935Y-88341466D01*
X147237204Y-88380137D01*
X147218152Y-88415779D01*
X147192517Y-88447017D01*
X147161279Y-88472652D01*
X147125637Y-88491704D01*
X147086966Y-88503435D01*
X147040612Y-88508000D01*
X146389388Y-88508000D01*
X146343034Y-88503435D01*
X146304363Y-88491704D01*
X146268721Y-88472652D01*
X146237483Y-88447017D01*
X146211848Y-88415779D01*
X146192796Y-88380137D01*
X146181065Y-88341466D01*
X146176500Y-88295112D01*
X146176500Y-87218888D01*
X146181065Y-87172534D01*
X146192796Y-87133863D01*
X146211848Y-87098221D01*
X146237483Y-87066983D01*
X146268721Y-87041348D01*
X146304363Y-87022296D01*
X146343034Y-87010565D01*
X146389388Y-87006000D01*
X147040612Y-87006000D01*
X147086966Y-87010565D01*
X147086966Y-87010565D01*
G37*
M02*
