G04 #@! TF.GenerationSoftware,KiCad,Pcbnew,5.0.2-bee76a0~70~ubuntu18.04.1*
G04 #@! TF.CreationDate,2019-03-24T19:46:42+10:00*
G04 #@! TF.ProjectId,esp32_rs232_adapter,65737033-325f-4727-9332-33325f616461,rev?*
G04 #@! TF.SameCoordinates,Original*
G04 #@! TF.FileFunction,Soldermask,Top*
G04 #@! TF.FilePolarity,Negative*
%FSLAX46Y46*%
G04 Gerber Fmt 4.6, Leading zero omitted, Abs format (unit mm)*
G04 Created by KiCad (PCBNEW 5.0.2-bee76a0~70~ubuntu18.04.1) date Sun 24 Mar 2019 19:46:42 AEST*
%MOMM*%
%LPD*%
G01*
G04 APERTURE LIST*
%ADD10C,0.100000*%
G04 APERTURE END LIST*
D10*
G36*
X153882228Y-131815703D02*
X154037100Y-131879853D01*
X154176481Y-131972985D01*
X154295015Y-132091519D01*
X154388147Y-132230900D01*
X154452297Y-132385772D01*
X154485000Y-132550184D01*
X154485000Y-132717816D01*
X154452297Y-132882228D01*
X154388147Y-133037100D01*
X154295015Y-133176481D01*
X154176481Y-133295015D01*
X154037100Y-133388147D01*
X153882228Y-133452297D01*
X153717816Y-133485000D01*
X153550184Y-133485000D01*
X153385772Y-133452297D01*
X153230900Y-133388147D01*
X153091519Y-133295015D01*
X152972985Y-133176481D01*
X152879853Y-133037100D01*
X152815703Y-132882228D01*
X152783000Y-132717816D01*
X152783000Y-132550184D01*
X152815703Y-132385772D01*
X152879853Y-132230900D01*
X152972985Y-132091519D01*
X153091519Y-131972985D01*
X153230900Y-131879853D01*
X153385772Y-131815703D01*
X153550184Y-131783000D01*
X153717816Y-131783000D01*
X153882228Y-131815703D01*
X153882228Y-131815703D01*
G37*
G36*
X156652228Y-131815703D02*
X156807100Y-131879853D01*
X156946481Y-131972985D01*
X157065015Y-132091519D01*
X157158147Y-132230900D01*
X157222297Y-132385772D01*
X157255000Y-132550184D01*
X157255000Y-132717816D01*
X157222297Y-132882228D01*
X157158147Y-133037100D01*
X157065015Y-133176481D01*
X156946481Y-133295015D01*
X156807100Y-133388147D01*
X156652228Y-133452297D01*
X156487816Y-133485000D01*
X156320184Y-133485000D01*
X156155772Y-133452297D01*
X156000900Y-133388147D01*
X155861519Y-133295015D01*
X155742985Y-133176481D01*
X155649853Y-133037100D01*
X155585703Y-132882228D01*
X155553000Y-132717816D01*
X155553000Y-132550184D01*
X155585703Y-132385772D01*
X155649853Y-132230900D01*
X155742985Y-132091519D01*
X155861519Y-131972985D01*
X156000900Y-131879853D01*
X156155772Y-131815703D01*
X156320184Y-131783000D01*
X156487816Y-131783000D01*
X156652228Y-131815703D01*
X156652228Y-131815703D01*
G37*
G36*
X159422228Y-131815703D02*
X159577100Y-131879853D01*
X159716481Y-131972985D01*
X159835015Y-132091519D01*
X159928147Y-132230900D01*
X159992297Y-132385772D01*
X160025000Y-132550184D01*
X160025000Y-132717816D01*
X159992297Y-132882228D01*
X159928147Y-133037100D01*
X159835015Y-133176481D01*
X159716481Y-133295015D01*
X159577100Y-133388147D01*
X159422228Y-133452297D01*
X159257816Y-133485000D01*
X159090184Y-133485000D01*
X158925772Y-133452297D01*
X158770900Y-133388147D01*
X158631519Y-133295015D01*
X158512985Y-133176481D01*
X158419853Y-133037100D01*
X158355703Y-132882228D01*
X158323000Y-132717816D01*
X158323000Y-132550184D01*
X158355703Y-132385772D01*
X158419853Y-132230900D01*
X158512985Y-132091519D01*
X158631519Y-131972985D01*
X158770900Y-131879853D01*
X158925772Y-131815703D01*
X159090184Y-131783000D01*
X159257816Y-131783000D01*
X159422228Y-131815703D01*
X159422228Y-131815703D01*
G37*
G36*
X151112228Y-131815703D02*
X151267100Y-131879853D01*
X151406481Y-131972985D01*
X151525015Y-132091519D01*
X151618147Y-132230900D01*
X151682297Y-132385772D01*
X151715000Y-132550184D01*
X151715000Y-132717816D01*
X151682297Y-132882228D01*
X151618147Y-133037100D01*
X151525015Y-133176481D01*
X151406481Y-133295015D01*
X151267100Y-133388147D01*
X151112228Y-133452297D01*
X150947816Y-133485000D01*
X150780184Y-133485000D01*
X150615772Y-133452297D01*
X150460900Y-133388147D01*
X150321519Y-133295015D01*
X150202985Y-133176481D01*
X150109853Y-133037100D01*
X150045703Y-132882228D01*
X150013000Y-132717816D01*
X150013000Y-132550184D01*
X150045703Y-132385772D01*
X150109853Y-132230900D01*
X150202985Y-132091519D01*
X150321519Y-131972985D01*
X150460900Y-131879853D01*
X150615772Y-131815703D01*
X150780184Y-131783000D01*
X150947816Y-131783000D01*
X151112228Y-131815703D01*
X151112228Y-131815703D01*
G37*
G36*
X175270256Y-129582298D02*
X175376579Y-129603447D01*
X175677042Y-129727903D01*
X175901402Y-129877816D01*
X175947454Y-129908587D01*
X176177413Y-130138546D01*
X176177415Y-130138549D01*
X176282625Y-130296006D01*
X176358098Y-130408960D01*
X176394550Y-130496963D01*
X176482553Y-130709421D01*
X176546000Y-131028391D01*
X176546000Y-131353609D01*
X176482553Y-131672579D01*
X176358097Y-131973042D01*
X176278933Y-132091519D01*
X176177413Y-132243454D01*
X175947454Y-132473413D01*
X175947451Y-132473415D01*
X175677042Y-132654097D01*
X175376579Y-132778553D01*
X175270256Y-132799702D01*
X175057611Y-132842000D01*
X174732389Y-132842000D01*
X174519744Y-132799702D01*
X174413421Y-132778553D01*
X174112958Y-132654097D01*
X173842549Y-132473415D01*
X173842546Y-132473413D01*
X173612587Y-132243454D01*
X173511067Y-132091519D01*
X173431903Y-131973042D01*
X173307447Y-131672579D01*
X173244000Y-131353609D01*
X173244000Y-131028391D01*
X173307447Y-130709421D01*
X173395450Y-130496963D01*
X173431902Y-130408960D01*
X173507376Y-130296006D01*
X173612585Y-130138549D01*
X173612587Y-130138546D01*
X173842546Y-129908587D01*
X173888598Y-129877816D01*
X174112958Y-129727903D01*
X174413421Y-129603447D01*
X174519744Y-129582298D01*
X174732389Y-129540000D01*
X175057611Y-129540000D01*
X175270256Y-129582298D01*
X175270256Y-129582298D01*
G37*
G36*
X135614256Y-129582298D02*
X135720579Y-129603447D01*
X136021042Y-129727903D01*
X136245402Y-129877816D01*
X136291454Y-129908587D01*
X136521413Y-130138546D01*
X136521415Y-130138549D01*
X136626625Y-130296006D01*
X136702098Y-130408960D01*
X136738550Y-130496963D01*
X136826553Y-130709421D01*
X136890000Y-131028391D01*
X136890000Y-131353609D01*
X136826553Y-131672579D01*
X136702097Y-131973042D01*
X136622933Y-132091519D01*
X136521413Y-132243454D01*
X136291454Y-132473413D01*
X136291451Y-132473415D01*
X136021042Y-132654097D01*
X135720579Y-132778553D01*
X135614256Y-132799702D01*
X135401611Y-132842000D01*
X135076389Y-132842000D01*
X134863744Y-132799702D01*
X134757421Y-132778553D01*
X134456958Y-132654097D01*
X134186549Y-132473415D01*
X134186546Y-132473413D01*
X133956587Y-132243454D01*
X133855067Y-132091519D01*
X133775903Y-131973042D01*
X133651447Y-131672579D01*
X133588000Y-131353609D01*
X133588000Y-131028391D01*
X133651447Y-130709421D01*
X133739450Y-130496963D01*
X133775902Y-130408960D01*
X133851376Y-130296006D01*
X133956585Y-130138549D01*
X133956587Y-130138546D01*
X134186546Y-129908587D01*
X134232598Y-129877816D01*
X134456958Y-129727903D01*
X134757421Y-129603447D01*
X134863744Y-129582298D01*
X135076389Y-129540000D01*
X135401611Y-129540000D01*
X135614256Y-129582298D01*
X135614256Y-129582298D01*
G37*
G36*
X168117252Y-128121818D02*
X168117254Y-128121819D01*
X168117255Y-128121819D01*
X168490513Y-128276427D01*
X168490514Y-128276428D01*
X168826439Y-128500886D01*
X169112114Y-128786561D01*
X169112116Y-128786564D01*
X169336573Y-129122487D01*
X169447753Y-129390900D01*
X169491182Y-129495748D01*
X169570000Y-129891993D01*
X169570000Y-130296007D01*
X169538372Y-130455014D01*
X169491181Y-130692255D01*
X169336573Y-131065513D01*
X169336572Y-131065514D01*
X169112114Y-131401439D01*
X168826439Y-131687114D01*
X168826436Y-131687116D01*
X168490513Y-131911573D01*
X168117255Y-132066181D01*
X168117254Y-132066181D01*
X168117252Y-132066182D01*
X167721007Y-132145000D01*
X167316993Y-132145000D01*
X166920748Y-132066182D01*
X166920746Y-132066181D01*
X166920745Y-132066181D01*
X166547487Y-131911573D01*
X166211564Y-131687116D01*
X166211561Y-131687114D01*
X165925886Y-131401439D01*
X165701428Y-131065514D01*
X165701427Y-131065513D01*
X165546819Y-130692255D01*
X165499629Y-130455014D01*
X165468000Y-130296007D01*
X165468000Y-129891993D01*
X165546818Y-129495748D01*
X165590247Y-129390900D01*
X165701427Y-129122487D01*
X165925884Y-128786564D01*
X165925886Y-128786561D01*
X166211561Y-128500886D01*
X166547486Y-128276428D01*
X166547487Y-128276427D01*
X166920745Y-128121819D01*
X166920746Y-128121819D01*
X166920748Y-128121818D01*
X167316993Y-128043000D01*
X167721007Y-128043000D01*
X168117252Y-128121818D01*
X168117252Y-128121818D01*
G37*
G36*
X143117252Y-128121818D02*
X143117254Y-128121819D01*
X143117255Y-128121819D01*
X143490513Y-128276427D01*
X143490514Y-128276428D01*
X143826439Y-128500886D01*
X144112114Y-128786561D01*
X144112116Y-128786564D01*
X144336573Y-129122487D01*
X144447753Y-129390900D01*
X144491182Y-129495748D01*
X144570000Y-129891993D01*
X144570000Y-130296007D01*
X144538372Y-130455014D01*
X144491181Y-130692255D01*
X144336573Y-131065513D01*
X144336572Y-131065514D01*
X144112114Y-131401439D01*
X143826439Y-131687114D01*
X143826436Y-131687116D01*
X143490513Y-131911573D01*
X143117255Y-132066181D01*
X143117254Y-132066181D01*
X143117252Y-132066182D01*
X142721007Y-132145000D01*
X142316993Y-132145000D01*
X141920748Y-132066182D01*
X141920746Y-132066181D01*
X141920745Y-132066181D01*
X141547487Y-131911573D01*
X141211564Y-131687116D01*
X141211561Y-131687114D01*
X140925886Y-131401439D01*
X140701428Y-131065514D01*
X140701427Y-131065513D01*
X140546819Y-130692255D01*
X140499629Y-130455014D01*
X140468000Y-130296007D01*
X140468000Y-129891993D01*
X140546818Y-129495748D01*
X140590247Y-129390900D01*
X140701427Y-129122487D01*
X140925884Y-128786564D01*
X140925886Y-128786561D01*
X141211561Y-128500886D01*
X141547486Y-128276428D01*
X141547487Y-128276427D01*
X141920745Y-128121819D01*
X141920746Y-128121819D01*
X141920748Y-128121818D01*
X142316993Y-128043000D01*
X142721007Y-128043000D01*
X143117252Y-128121818D01*
X143117252Y-128121818D01*
G37*
G36*
X160807228Y-128975703D02*
X160962100Y-129039853D01*
X161101481Y-129132985D01*
X161220015Y-129251519D01*
X161313147Y-129390900D01*
X161377297Y-129545772D01*
X161410000Y-129710184D01*
X161410000Y-129877816D01*
X161377297Y-130042228D01*
X161313147Y-130197100D01*
X161220015Y-130336481D01*
X161101481Y-130455015D01*
X160962100Y-130548147D01*
X160807228Y-130612297D01*
X160642816Y-130645000D01*
X160475184Y-130645000D01*
X160310772Y-130612297D01*
X160155900Y-130548147D01*
X160016519Y-130455015D01*
X159897985Y-130336481D01*
X159804853Y-130197100D01*
X159740703Y-130042228D01*
X159708000Y-129877816D01*
X159708000Y-129710184D01*
X159740703Y-129545772D01*
X159804853Y-129390900D01*
X159897985Y-129251519D01*
X160016519Y-129132985D01*
X160155900Y-129039853D01*
X160310772Y-128975703D01*
X160475184Y-128943000D01*
X160642816Y-128943000D01*
X160807228Y-128975703D01*
X160807228Y-128975703D01*
G37*
G36*
X150330000Y-130645000D02*
X148628000Y-130645000D01*
X148628000Y-128943000D01*
X150330000Y-128943000D01*
X150330000Y-130645000D01*
X150330000Y-130645000D01*
G37*
G36*
X152497228Y-128975703D02*
X152652100Y-129039853D01*
X152791481Y-129132985D01*
X152910015Y-129251519D01*
X153003147Y-129390900D01*
X153067297Y-129545772D01*
X153100000Y-129710184D01*
X153100000Y-129877816D01*
X153067297Y-130042228D01*
X153003147Y-130197100D01*
X152910015Y-130336481D01*
X152791481Y-130455015D01*
X152652100Y-130548147D01*
X152497228Y-130612297D01*
X152332816Y-130645000D01*
X152165184Y-130645000D01*
X152000772Y-130612297D01*
X151845900Y-130548147D01*
X151706519Y-130455015D01*
X151587985Y-130336481D01*
X151494853Y-130197100D01*
X151430703Y-130042228D01*
X151398000Y-129877816D01*
X151398000Y-129710184D01*
X151430703Y-129545772D01*
X151494853Y-129390900D01*
X151587985Y-129251519D01*
X151706519Y-129132985D01*
X151845900Y-129039853D01*
X152000772Y-128975703D01*
X152165184Y-128943000D01*
X152332816Y-128943000D01*
X152497228Y-128975703D01*
X152497228Y-128975703D01*
G37*
G36*
X155267228Y-128975703D02*
X155422100Y-129039853D01*
X155561481Y-129132985D01*
X155680015Y-129251519D01*
X155773147Y-129390900D01*
X155837297Y-129545772D01*
X155870000Y-129710184D01*
X155870000Y-129877816D01*
X155837297Y-130042228D01*
X155773147Y-130197100D01*
X155680015Y-130336481D01*
X155561481Y-130455015D01*
X155422100Y-130548147D01*
X155267228Y-130612297D01*
X155102816Y-130645000D01*
X154935184Y-130645000D01*
X154770772Y-130612297D01*
X154615900Y-130548147D01*
X154476519Y-130455015D01*
X154357985Y-130336481D01*
X154264853Y-130197100D01*
X154200703Y-130042228D01*
X154168000Y-129877816D01*
X154168000Y-129710184D01*
X154200703Y-129545772D01*
X154264853Y-129390900D01*
X154357985Y-129251519D01*
X154476519Y-129132985D01*
X154615900Y-129039853D01*
X154770772Y-128975703D01*
X154935184Y-128943000D01*
X155102816Y-128943000D01*
X155267228Y-128975703D01*
X155267228Y-128975703D01*
G37*
G36*
X158037228Y-128975703D02*
X158192100Y-129039853D01*
X158331481Y-129132985D01*
X158450015Y-129251519D01*
X158543147Y-129390900D01*
X158607297Y-129545772D01*
X158640000Y-129710184D01*
X158640000Y-129877816D01*
X158607297Y-130042228D01*
X158543147Y-130197100D01*
X158450015Y-130336481D01*
X158331481Y-130455015D01*
X158192100Y-130548147D01*
X158037228Y-130612297D01*
X157872816Y-130645000D01*
X157705184Y-130645000D01*
X157540772Y-130612297D01*
X157385900Y-130548147D01*
X157246519Y-130455015D01*
X157127985Y-130336481D01*
X157034853Y-130197100D01*
X156970703Y-130042228D01*
X156938000Y-129877816D01*
X156938000Y-129710184D01*
X156970703Y-129545772D01*
X157034853Y-129390900D01*
X157127985Y-129251519D01*
X157246519Y-129132985D01*
X157385900Y-129039853D01*
X157540772Y-128975703D01*
X157705184Y-128943000D01*
X157872816Y-128943000D01*
X158037228Y-128975703D01*
X158037228Y-128975703D01*
G37*
G36*
X169621466Y-124561065D02*
X169660137Y-124572796D01*
X169695779Y-124591848D01*
X169727017Y-124617483D01*
X169752652Y-124648721D01*
X169771704Y-124684363D01*
X169783435Y-124723034D01*
X169788000Y-124769388D01*
X169788000Y-125420612D01*
X169783435Y-125466966D01*
X169771704Y-125505637D01*
X169752652Y-125541279D01*
X169727017Y-125572517D01*
X169695779Y-125598152D01*
X169660137Y-125617204D01*
X169621466Y-125628935D01*
X169575112Y-125633500D01*
X168498888Y-125633500D01*
X168452534Y-125628935D01*
X168413863Y-125617204D01*
X168378221Y-125598152D01*
X168346983Y-125572517D01*
X168321348Y-125541279D01*
X168302296Y-125505637D01*
X168290565Y-125466966D01*
X168286000Y-125420612D01*
X168286000Y-124769388D01*
X168290565Y-124723034D01*
X168302296Y-124684363D01*
X168321348Y-124648721D01*
X168346983Y-124617483D01*
X168378221Y-124591848D01*
X168413863Y-124572796D01*
X168452534Y-124561065D01*
X168498888Y-124556500D01*
X169575112Y-124556500D01*
X169621466Y-124561065D01*
X169621466Y-124561065D01*
G37*
G36*
X171780466Y-124561065D02*
X171819137Y-124572796D01*
X171854779Y-124591848D01*
X171886017Y-124617483D01*
X171911652Y-124648721D01*
X171930704Y-124684363D01*
X171942435Y-124723034D01*
X171947000Y-124769388D01*
X171947000Y-125420612D01*
X171942435Y-125466966D01*
X171930704Y-125505637D01*
X171911652Y-125541279D01*
X171886017Y-125572517D01*
X171854779Y-125598152D01*
X171819137Y-125617204D01*
X171780466Y-125628935D01*
X171734112Y-125633500D01*
X170657888Y-125633500D01*
X170611534Y-125628935D01*
X170572863Y-125617204D01*
X170537221Y-125598152D01*
X170505983Y-125572517D01*
X170480348Y-125541279D01*
X170461296Y-125505637D01*
X170449565Y-125466966D01*
X170445000Y-125420612D01*
X170445000Y-124769388D01*
X170449565Y-124723034D01*
X170461296Y-124684363D01*
X170480348Y-124648721D01*
X170505983Y-124617483D01*
X170537221Y-124591848D01*
X170572863Y-124572796D01*
X170611534Y-124561065D01*
X170657888Y-124556500D01*
X171734112Y-124556500D01*
X171780466Y-124561065D01*
X171780466Y-124561065D01*
G37*
G36*
X171780466Y-122686065D02*
X171819137Y-122697796D01*
X171854779Y-122716848D01*
X171886017Y-122742483D01*
X171911652Y-122773721D01*
X171930704Y-122809363D01*
X171942435Y-122848034D01*
X171947000Y-122894388D01*
X171947000Y-123545612D01*
X171942435Y-123591966D01*
X171930704Y-123630637D01*
X171911652Y-123666279D01*
X171886017Y-123697517D01*
X171854779Y-123723152D01*
X171819137Y-123742204D01*
X171780466Y-123753935D01*
X171734112Y-123758500D01*
X170657888Y-123758500D01*
X170611534Y-123753935D01*
X170572863Y-123742204D01*
X170537221Y-123723152D01*
X170505983Y-123697517D01*
X170480348Y-123666279D01*
X170461296Y-123630637D01*
X170449565Y-123591966D01*
X170445000Y-123545612D01*
X170445000Y-122894388D01*
X170449565Y-122848034D01*
X170461296Y-122809363D01*
X170480348Y-122773721D01*
X170505983Y-122742483D01*
X170537221Y-122716848D01*
X170572863Y-122697796D01*
X170611534Y-122686065D01*
X170657888Y-122681500D01*
X171734112Y-122681500D01*
X171780466Y-122686065D01*
X171780466Y-122686065D01*
G37*
G36*
X169621466Y-122686065D02*
X169660137Y-122697796D01*
X169695779Y-122716848D01*
X169727017Y-122742483D01*
X169752652Y-122773721D01*
X169771704Y-122809363D01*
X169783435Y-122848034D01*
X169788000Y-122894388D01*
X169788000Y-123545612D01*
X169783435Y-123591966D01*
X169771704Y-123630637D01*
X169752652Y-123666279D01*
X169727017Y-123697517D01*
X169695779Y-123723152D01*
X169660137Y-123742204D01*
X169621466Y-123753935D01*
X169575112Y-123758500D01*
X168498888Y-123758500D01*
X168452534Y-123753935D01*
X168413863Y-123742204D01*
X168378221Y-123723152D01*
X168346983Y-123697517D01*
X168321348Y-123666279D01*
X168302296Y-123630637D01*
X168290565Y-123591966D01*
X168286000Y-123545612D01*
X168286000Y-122894388D01*
X168290565Y-122848034D01*
X168302296Y-122809363D01*
X168321348Y-122773721D01*
X168346983Y-122742483D01*
X168378221Y-122716848D01*
X168413863Y-122697796D01*
X168452534Y-122686065D01*
X168498888Y-122681500D01*
X169575112Y-122681500D01*
X169621466Y-122686065D01*
X169621466Y-122686065D01*
G37*
G36*
X147042000Y-123686000D02*
X145820000Y-123686000D01*
X145820000Y-121144000D01*
X147042000Y-121144000D01*
X147042000Y-123686000D01*
X147042000Y-123686000D01*
G37*
G36*
X157202000Y-123686000D02*
X155980000Y-123686000D01*
X155980000Y-121144000D01*
X157202000Y-121144000D01*
X157202000Y-123686000D01*
X157202000Y-123686000D01*
G37*
G36*
X159742000Y-123686000D02*
X158520000Y-123686000D01*
X158520000Y-121144000D01*
X159742000Y-121144000D01*
X159742000Y-123686000D01*
X159742000Y-123686000D01*
G37*
G36*
X154662000Y-123686000D02*
X153440000Y-123686000D01*
X153440000Y-121144000D01*
X154662000Y-121144000D01*
X154662000Y-123686000D01*
X154662000Y-123686000D01*
G37*
G36*
X152122000Y-123686000D02*
X150900000Y-123686000D01*
X150900000Y-121144000D01*
X152122000Y-121144000D01*
X152122000Y-123686000D01*
X152122000Y-123686000D01*
G37*
G36*
X149582000Y-123686000D02*
X148360000Y-123686000D01*
X148360000Y-121144000D01*
X149582000Y-121144000D01*
X149582000Y-123686000D01*
X149582000Y-123686000D01*
G37*
G36*
X162282000Y-123686000D02*
X161060000Y-123686000D01*
X161060000Y-121144000D01*
X162282000Y-121144000D01*
X162282000Y-123686000D01*
X162282000Y-123686000D01*
G37*
G36*
X144502000Y-123686000D02*
X143280000Y-123686000D01*
X143280000Y-121144000D01*
X144502000Y-121144000D01*
X144502000Y-123686000D01*
X144502000Y-123686000D01*
G37*
G36*
X167462466Y-121483065D02*
X167501137Y-121494796D01*
X167536779Y-121513848D01*
X167568017Y-121539483D01*
X167593652Y-121570721D01*
X167612704Y-121606363D01*
X167624435Y-121645034D01*
X167629000Y-121691388D01*
X167629000Y-122342612D01*
X167624435Y-122388966D01*
X167612704Y-122427637D01*
X167593652Y-122463279D01*
X167568017Y-122494517D01*
X167536779Y-122520152D01*
X167501137Y-122539204D01*
X167462466Y-122550935D01*
X167416112Y-122555500D01*
X166339888Y-122555500D01*
X166293534Y-122550935D01*
X166254863Y-122539204D01*
X166219221Y-122520152D01*
X166187983Y-122494517D01*
X166162348Y-122463279D01*
X166143296Y-122427637D01*
X166131565Y-122388966D01*
X166127000Y-122342612D01*
X166127000Y-121691388D01*
X166131565Y-121645034D01*
X166143296Y-121606363D01*
X166162348Y-121570721D01*
X166187983Y-121539483D01*
X166219221Y-121513848D01*
X166254863Y-121494796D01*
X166293534Y-121483065D01*
X166339888Y-121478500D01*
X167416112Y-121478500D01*
X167462466Y-121483065D01*
X167462466Y-121483065D01*
G37*
G36*
X172979928Y-120342764D02*
X173001011Y-120349160D01*
X173020442Y-120359546D01*
X173037475Y-120373525D01*
X173051454Y-120390558D01*
X173061840Y-120409989D01*
X173068236Y-120431072D01*
X173071000Y-120459140D01*
X173071000Y-121872860D01*
X173068236Y-121900928D01*
X173061840Y-121922011D01*
X173051454Y-121941442D01*
X173037475Y-121958475D01*
X173020442Y-121972454D01*
X173001011Y-121982840D01*
X172979928Y-121989236D01*
X172951860Y-121992000D01*
X172488140Y-121992000D01*
X172460072Y-121989236D01*
X172438989Y-121982840D01*
X172419558Y-121972454D01*
X172402525Y-121958475D01*
X172388546Y-121941442D01*
X172378160Y-121922011D01*
X172371764Y-121900928D01*
X172369000Y-121872860D01*
X172369000Y-120459140D01*
X172371764Y-120431072D01*
X172378160Y-120409989D01*
X172388546Y-120390558D01*
X172402525Y-120373525D01*
X172419558Y-120359546D01*
X172438989Y-120349160D01*
X172460072Y-120342764D01*
X172488140Y-120340000D01*
X172951860Y-120340000D01*
X172979928Y-120342764D01*
X172979928Y-120342764D01*
G37*
G36*
X171709928Y-120342764D02*
X171731011Y-120349160D01*
X171750442Y-120359546D01*
X171767475Y-120373525D01*
X171781454Y-120390558D01*
X171791840Y-120409989D01*
X171798236Y-120431072D01*
X171801000Y-120459140D01*
X171801000Y-121872860D01*
X171798236Y-121900928D01*
X171791840Y-121922011D01*
X171781454Y-121941442D01*
X171767475Y-121958475D01*
X171750442Y-121972454D01*
X171731011Y-121982840D01*
X171709928Y-121989236D01*
X171681860Y-121992000D01*
X171218140Y-121992000D01*
X171190072Y-121989236D01*
X171168989Y-121982840D01*
X171149558Y-121972454D01*
X171132525Y-121958475D01*
X171118546Y-121941442D01*
X171108160Y-121922011D01*
X171101764Y-121900928D01*
X171099000Y-121872860D01*
X171099000Y-120459140D01*
X171101764Y-120431072D01*
X171108160Y-120409989D01*
X171118546Y-120390558D01*
X171132525Y-120373525D01*
X171149558Y-120359546D01*
X171168989Y-120349160D01*
X171190072Y-120342764D01*
X171218140Y-120340000D01*
X171681860Y-120340000D01*
X171709928Y-120342764D01*
X171709928Y-120342764D01*
G37*
G36*
X170439928Y-120342764D02*
X170461011Y-120349160D01*
X170480442Y-120359546D01*
X170497475Y-120373525D01*
X170511454Y-120390558D01*
X170521840Y-120409989D01*
X170528236Y-120431072D01*
X170531000Y-120459140D01*
X170531000Y-121872860D01*
X170528236Y-121900928D01*
X170521840Y-121922011D01*
X170511454Y-121941442D01*
X170497475Y-121958475D01*
X170480442Y-121972454D01*
X170461011Y-121982840D01*
X170439928Y-121989236D01*
X170411860Y-121992000D01*
X169948140Y-121992000D01*
X169920072Y-121989236D01*
X169898989Y-121982840D01*
X169879558Y-121972454D01*
X169862525Y-121958475D01*
X169848546Y-121941442D01*
X169838160Y-121922011D01*
X169831764Y-121900928D01*
X169829000Y-121872860D01*
X169829000Y-120459140D01*
X169831764Y-120431072D01*
X169838160Y-120409989D01*
X169848546Y-120390558D01*
X169862525Y-120373525D01*
X169879558Y-120359546D01*
X169898989Y-120349160D01*
X169920072Y-120342764D01*
X169948140Y-120340000D01*
X170411860Y-120340000D01*
X170439928Y-120342764D01*
X170439928Y-120342764D01*
G37*
G36*
X169169928Y-120342764D02*
X169191011Y-120349160D01*
X169210442Y-120359546D01*
X169227475Y-120373525D01*
X169241454Y-120390558D01*
X169251840Y-120409989D01*
X169258236Y-120431072D01*
X169261000Y-120459140D01*
X169261000Y-121872860D01*
X169258236Y-121900928D01*
X169251840Y-121922011D01*
X169241454Y-121941442D01*
X169227475Y-121958475D01*
X169210442Y-121972454D01*
X169191011Y-121982840D01*
X169169928Y-121989236D01*
X169141860Y-121992000D01*
X168678140Y-121992000D01*
X168650072Y-121989236D01*
X168628989Y-121982840D01*
X168609558Y-121972454D01*
X168592525Y-121958475D01*
X168578546Y-121941442D01*
X168568160Y-121922011D01*
X168561764Y-121900928D01*
X168559000Y-121872860D01*
X168559000Y-120459140D01*
X168561764Y-120431072D01*
X168568160Y-120409989D01*
X168578546Y-120390558D01*
X168592525Y-120373525D01*
X168609558Y-120359546D01*
X168628989Y-120349160D01*
X168650072Y-120342764D01*
X168678140Y-120340000D01*
X169141860Y-120340000D01*
X169169928Y-120342764D01*
X169169928Y-120342764D01*
G37*
G36*
X175590466Y-120594065D02*
X175629137Y-120605796D01*
X175664779Y-120624848D01*
X175696017Y-120650483D01*
X175721652Y-120681721D01*
X175740704Y-120717363D01*
X175752435Y-120756034D01*
X175757000Y-120802388D01*
X175757000Y-121453612D01*
X175752435Y-121499966D01*
X175740704Y-121538637D01*
X175721652Y-121574279D01*
X175696017Y-121605517D01*
X175664779Y-121631152D01*
X175629137Y-121650204D01*
X175590466Y-121661935D01*
X175544112Y-121666500D01*
X174467888Y-121666500D01*
X174421534Y-121661935D01*
X174382863Y-121650204D01*
X174347221Y-121631152D01*
X174315983Y-121605517D01*
X174290348Y-121574279D01*
X174271296Y-121538637D01*
X174259565Y-121499966D01*
X174255000Y-121453612D01*
X174255000Y-120802388D01*
X174259565Y-120756034D01*
X174271296Y-120717363D01*
X174290348Y-120681721D01*
X174315983Y-120650483D01*
X174347221Y-120624848D01*
X174382863Y-120605796D01*
X174421534Y-120594065D01*
X174467888Y-120589500D01*
X175544112Y-120589500D01*
X175590466Y-120594065D01*
X175590466Y-120594065D01*
G37*
G36*
X177749466Y-120594065D02*
X177788137Y-120605796D01*
X177823779Y-120624848D01*
X177855017Y-120650483D01*
X177880652Y-120681721D01*
X177899704Y-120717363D01*
X177911435Y-120756034D01*
X177916000Y-120802388D01*
X177916000Y-121453612D01*
X177911435Y-121499966D01*
X177899704Y-121538637D01*
X177880652Y-121574279D01*
X177855017Y-121605517D01*
X177823779Y-121631152D01*
X177788137Y-121650204D01*
X177749466Y-121661935D01*
X177703112Y-121666500D01*
X176626888Y-121666500D01*
X176580534Y-121661935D01*
X176541863Y-121650204D01*
X176506221Y-121631152D01*
X176474983Y-121605517D01*
X176449348Y-121574279D01*
X176430296Y-121538637D01*
X176418565Y-121499966D01*
X176414000Y-121453612D01*
X176414000Y-120802388D01*
X176418565Y-120756034D01*
X176430296Y-120717363D01*
X176449348Y-120681721D01*
X176474983Y-120650483D01*
X176506221Y-120624848D01*
X176541863Y-120605796D01*
X176580534Y-120594065D01*
X176626888Y-120589500D01*
X177703112Y-120589500D01*
X177749466Y-120594065D01*
X177749466Y-120594065D01*
G37*
G36*
X167462466Y-119608065D02*
X167501137Y-119619796D01*
X167536779Y-119638848D01*
X167568017Y-119664483D01*
X167593652Y-119695721D01*
X167612704Y-119731363D01*
X167624435Y-119770034D01*
X167629000Y-119816388D01*
X167629000Y-120467612D01*
X167624435Y-120513966D01*
X167612704Y-120552637D01*
X167593652Y-120588279D01*
X167568017Y-120619517D01*
X167536779Y-120645152D01*
X167501137Y-120664204D01*
X167462466Y-120675935D01*
X167416112Y-120680500D01*
X166339888Y-120680500D01*
X166293534Y-120675935D01*
X166254863Y-120664204D01*
X166219221Y-120645152D01*
X166187983Y-120619517D01*
X166162348Y-120588279D01*
X166143296Y-120552637D01*
X166131565Y-120513966D01*
X166127000Y-120467612D01*
X166127000Y-119816388D01*
X166131565Y-119770034D01*
X166143296Y-119731363D01*
X166162348Y-119695721D01*
X166187983Y-119664483D01*
X166219221Y-119638848D01*
X166254863Y-119619796D01*
X166293534Y-119608065D01*
X166339888Y-119603500D01*
X167416112Y-119603500D01*
X167462466Y-119608065D01*
X167462466Y-119608065D01*
G37*
G36*
X177749466Y-118719065D02*
X177788137Y-118730796D01*
X177823779Y-118749848D01*
X177855017Y-118775483D01*
X177880652Y-118806721D01*
X177899704Y-118842363D01*
X177911435Y-118881034D01*
X177916000Y-118927388D01*
X177916000Y-119578612D01*
X177911435Y-119624966D01*
X177899704Y-119663637D01*
X177880652Y-119699279D01*
X177855017Y-119730517D01*
X177823779Y-119756152D01*
X177788137Y-119775204D01*
X177749466Y-119786935D01*
X177703112Y-119791500D01*
X176626888Y-119791500D01*
X176580534Y-119786935D01*
X176541863Y-119775204D01*
X176506221Y-119756152D01*
X176474983Y-119730517D01*
X176449348Y-119699279D01*
X176430296Y-119663637D01*
X176418565Y-119624966D01*
X176414000Y-119578612D01*
X176414000Y-118927388D01*
X176418565Y-118881034D01*
X176430296Y-118842363D01*
X176449348Y-118806721D01*
X176474983Y-118775483D01*
X176506221Y-118749848D01*
X176541863Y-118730796D01*
X176580534Y-118719065D01*
X176626888Y-118714500D01*
X177703112Y-118714500D01*
X177749466Y-118719065D01*
X177749466Y-118719065D01*
G37*
G36*
X175590466Y-118719065D02*
X175629137Y-118730796D01*
X175664779Y-118749848D01*
X175696017Y-118775483D01*
X175721652Y-118806721D01*
X175740704Y-118842363D01*
X175752435Y-118881034D01*
X175757000Y-118927388D01*
X175757000Y-119578612D01*
X175752435Y-119624966D01*
X175740704Y-119663637D01*
X175721652Y-119699279D01*
X175696017Y-119730517D01*
X175664779Y-119756152D01*
X175629137Y-119775204D01*
X175590466Y-119786935D01*
X175544112Y-119791500D01*
X174467888Y-119791500D01*
X174421534Y-119786935D01*
X174382863Y-119775204D01*
X174347221Y-119756152D01*
X174315983Y-119730517D01*
X174290348Y-119699279D01*
X174271296Y-119663637D01*
X174259565Y-119624966D01*
X174255000Y-119578612D01*
X174255000Y-118927388D01*
X174259565Y-118881034D01*
X174271296Y-118842363D01*
X174290348Y-118806721D01*
X174315983Y-118775483D01*
X174347221Y-118749848D01*
X174382863Y-118730796D01*
X174421534Y-118719065D01*
X174467888Y-118714500D01*
X175544112Y-118714500D01*
X175590466Y-118719065D01*
X175590466Y-118719065D01*
G37*
G36*
X175590466Y-117116565D02*
X175629137Y-117128296D01*
X175664779Y-117147348D01*
X175696017Y-117172983D01*
X175721652Y-117204221D01*
X175740704Y-117239863D01*
X175752435Y-117278534D01*
X175757000Y-117324888D01*
X175757000Y-117976112D01*
X175752435Y-118022466D01*
X175740704Y-118061137D01*
X175721652Y-118096779D01*
X175696017Y-118128017D01*
X175664779Y-118153652D01*
X175629137Y-118172704D01*
X175590466Y-118184435D01*
X175544112Y-118189000D01*
X174467888Y-118189000D01*
X174421534Y-118184435D01*
X174382863Y-118172704D01*
X174347221Y-118153652D01*
X174315983Y-118128017D01*
X174290348Y-118096779D01*
X174271296Y-118061137D01*
X174259565Y-118022466D01*
X174255000Y-117976112D01*
X174255000Y-117324888D01*
X174259565Y-117278534D01*
X174271296Y-117239863D01*
X174290348Y-117204221D01*
X174315983Y-117172983D01*
X174347221Y-117147348D01*
X174382863Y-117128296D01*
X174421534Y-117116565D01*
X174467888Y-117112000D01*
X175544112Y-117112000D01*
X175590466Y-117116565D01*
X175590466Y-117116565D01*
G37*
G36*
X177749466Y-117068065D02*
X177788137Y-117079796D01*
X177823779Y-117098848D01*
X177855017Y-117124483D01*
X177880652Y-117155721D01*
X177899704Y-117191363D01*
X177911435Y-117230034D01*
X177916000Y-117276388D01*
X177916000Y-117927612D01*
X177911435Y-117973966D01*
X177899704Y-118012637D01*
X177880652Y-118048279D01*
X177855017Y-118079517D01*
X177823779Y-118105152D01*
X177788137Y-118124204D01*
X177749466Y-118135935D01*
X177703112Y-118140500D01*
X176626888Y-118140500D01*
X176580534Y-118135935D01*
X176541863Y-118124204D01*
X176506221Y-118105152D01*
X176474983Y-118079517D01*
X176449348Y-118048279D01*
X176430296Y-118012637D01*
X176418565Y-117973966D01*
X176414000Y-117927612D01*
X176414000Y-117276388D01*
X176418565Y-117230034D01*
X176430296Y-117191363D01*
X176449348Y-117155721D01*
X176474983Y-117124483D01*
X176506221Y-117098848D01*
X176541863Y-117079796D01*
X176580534Y-117068065D01*
X176626888Y-117063500D01*
X177703112Y-117063500D01*
X177749466Y-117068065D01*
X177749466Y-117068065D01*
G37*
G36*
X167462466Y-116179065D02*
X167501137Y-116190796D01*
X167536779Y-116209848D01*
X167568017Y-116235483D01*
X167593652Y-116266721D01*
X167612704Y-116302363D01*
X167624435Y-116341034D01*
X167629000Y-116387388D01*
X167629000Y-117038612D01*
X167624435Y-117084966D01*
X167612704Y-117123637D01*
X167593652Y-117159279D01*
X167568017Y-117190517D01*
X167536779Y-117216152D01*
X167501137Y-117235204D01*
X167462466Y-117246935D01*
X167416112Y-117251500D01*
X166339888Y-117251500D01*
X166293534Y-117246935D01*
X166254863Y-117235204D01*
X166219221Y-117216152D01*
X166187983Y-117190517D01*
X166162348Y-117159279D01*
X166143296Y-117123637D01*
X166131565Y-117084966D01*
X166127000Y-117038612D01*
X166127000Y-116387388D01*
X166131565Y-116341034D01*
X166143296Y-116302363D01*
X166162348Y-116266721D01*
X166187983Y-116235483D01*
X166219221Y-116209848D01*
X166254863Y-116190796D01*
X166293534Y-116179065D01*
X166339888Y-116174500D01*
X167416112Y-116174500D01*
X167462466Y-116179065D01*
X167462466Y-116179065D01*
G37*
G36*
X170439928Y-114992764D02*
X170461011Y-114999160D01*
X170480442Y-115009546D01*
X170497475Y-115023525D01*
X170511454Y-115040558D01*
X170521840Y-115059989D01*
X170528236Y-115081072D01*
X170531000Y-115109140D01*
X170531000Y-116522860D01*
X170528236Y-116550928D01*
X170521840Y-116572011D01*
X170511454Y-116591442D01*
X170497475Y-116608475D01*
X170480442Y-116622454D01*
X170461011Y-116632840D01*
X170439928Y-116639236D01*
X170411860Y-116642000D01*
X169948140Y-116642000D01*
X169920072Y-116639236D01*
X169898989Y-116632840D01*
X169879558Y-116622454D01*
X169862525Y-116608475D01*
X169848546Y-116591442D01*
X169838160Y-116572011D01*
X169831764Y-116550928D01*
X169829000Y-116522860D01*
X169829000Y-115109140D01*
X169831764Y-115081072D01*
X169838160Y-115059989D01*
X169848546Y-115040558D01*
X169862525Y-115023525D01*
X169879558Y-115009546D01*
X169898989Y-114999160D01*
X169920072Y-114992764D01*
X169948140Y-114990000D01*
X170411860Y-114990000D01*
X170439928Y-114992764D01*
X170439928Y-114992764D01*
G37*
G36*
X172979928Y-114992764D02*
X173001011Y-114999160D01*
X173020442Y-115009546D01*
X173037475Y-115023525D01*
X173051454Y-115040558D01*
X173061840Y-115059989D01*
X173068236Y-115081072D01*
X173071000Y-115109140D01*
X173071000Y-116522860D01*
X173068236Y-116550928D01*
X173061840Y-116572011D01*
X173051454Y-116591442D01*
X173037475Y-116608475D01*
X173020442Y-116622454D01*
X173001011Y-116632840D01*
X172979928Y-116639236D01*
X172951860Y-116642000D01*
X172488140Y-116642000D01*
X172460072Y-116639236D01*
X172438989Y-116632840D01*
X172419558Y-116622454D01*
X172402525Y-116608475D01*
X172388546Y-116591442D01*
X172378160Y-116572011D01*
X172371764Y-116550928D01*
X172369000Y-116522860D01*
X172369000Y-115109140D01*
X172371764Y-115081072D01*
X172378160Y-115059989D01*
X172388546Y-115040558D01*
X172402525Y-115023525D01*
X172419558Y-115009546D01*
X172438989Y-114999160D01*
X172460072Y-114992764D01*
X172488140Y-114990000D01*
X172951860Y-114990000D01*
X172979928Y-114992764D01*
X172979928Y-114992764D01*
G37*
G36*
X171709928Y-114992764D02*
X171731011Y-114999160D01*
X171750442Y-115009546D01*
X171767475Y-115023525D01*
X171781454Y-115040558D01*
X171791840Y-115059989D01*
X171798236Y-115081072D01*
X171801000Y-115109140D01*
X171801000Y-116522860D01*
X171798236Y-116550928D01*
X171791840Y-116572011D01*
X171781454Y-116591442D01*
X171767475Y-116608475D01*
X171750442Y-116622454D01*
X171731011Y-116632840D01*
X171709928Y-116639236D01*
X171681860Y-116642000D01*
X171218140Y-116642000D01*
X171190072Y-116639236D01*
X171168989Y-116632840D01*
X171149558Y-116622454D01*
X171132525Y-116608475D01*
X171118546Y-116591442D01*
X171108160Y-116572011D01*
X171101764Y-116550928D01*
X171099000Y-116522860D01*
X171099000Y-115109140D01*
X171101764Y-115081072D01*
X171108160Y-115059989D01*
X171118546Y-115040558D01*
X171132525Y-115023525D01*
X171149558Y-115009546D01*
X171168989Y-114999160D01*
X171190072Y-114992764D01*
X171218140Y-114990000D01*
X171681860Y-114990000D01*
X171709928Y-114992764D01*
X171709928Y-114992764D01*
G37*
G36*
X169169928Y-114992764D02*
X169191011Y-114999160D01*
X169210442Y-115009546D01*
X169227475Y-115023525D01*
X169241454Y-115040558D01*
X169251840Y-115059989D01*
X169258236Y-115081072D01*
X169261000Y-115109140D01*
X169261000Y-116522860D01*
X169258236Y-116550928D01*
X169251840Y-116572011D01*
X169241454Y-116591442D01*
X169227475Y-116608475D01*
X169210442Y-116622454D01*
X169191011Y-116632840D01*
X169169928Y-116639236D01*
X169141860Y-116642000D01*
X168678140Y-116642000D01*
X168650072Y-116639236D01*
X168628989Y-116632840D01*
X168609558Y-116622454D01*
X168592525Y-116608475D01*
X168578546Y-116591442D01*
X168568160Y-116572011D01*
X168561764Y-116550928D01*
X168559000Y-116522860D01*
X168559000Y-115109140D01*
X168561764Y-115081072D01*
X168568160Y-115059989D01*
X168578546Y-115040558D01*
X168592525Y-115023525D01*
X168609558Y-115009546D01*
X168628989Y-114999160D01*
X168650072Y-114992764D01*
X168678140Y-114990000D01*
X169141860Y-114990000D01*
X169169928Y-114992764D01*
X169169928Y-114992764D01*
G37*
G36*
X175590466Y-115241565D02*
X175629137Y-115253296D01*
X175664779Y-115272348D01*
X175696017Y-115297983D01*
X175721652Y-115329221D01*
X175740704Y-115364863D01*
X175752435Y-115403534D01*
X175757000Y-115449888D01*
X175757000Y-116101112D01*
X175752435Y-116147466D01*
X175740704Y-116186137D01*
X175721652Y-116221779D01*
X175696017Y-116253017D01*
X175664779Y-116278652D01*
X175629137Y-116297704D01*
X175590466Y-116309435D01*
X175544112Y-116314000D01*
X174467888Y-116314000D01*
X174421534Y-116309435D01*
X174382863Y-116297704D01*
X174347221Y-116278652D01*
X174315983Y-116253017D01*
X174290348Y-116221779D01*
X174271296Y-116186137D01*
X174259565Y-116147466D01*
X174255000Y-116101112D01*
X174255000Y-115449888D01*
X174259565Y-115403534D01*
X174271296Y-115364863D01*
X174290348Y-115329221D01*
X174315983Y-115297983D01*
X174347221Y-115272348D01*
X174382863Y-115253296D01*
X174421534Y-115241565D01*
X174467888Y-115237000D01*
X175544112Y-115237000D01*
X175590466Y-115241565D01*
X175590466Y-115241565D01*
G37*
G36*
X177749466Y-115193065D02*
X177788137Y-115204796D01*
X177823779Y-115223848D01*
X177855017Y-115249483D01*
X177880652Y-115280721D01*
X177899704Y-115316363D01*
X177911435Y-115355034D01*
X177916000Y-115401388D01*
X177916000Y-116052612D01*
X177911435Y-116098966D01*
X177899704Y-116137637D01*
X177880652Y-116173279D01*
X177855017Y-116204517D01*
X177823779Y-116230152D01*
X177788137Y-116249204D01*
X177749466Y-116260935D01*
X177703112Y-116265500D01*
X176626888Y-116265500D01*
X176580534Y-116260935D01*
X176541863Y-116249204D01*
X176506221Y-116230152D01*
X176474983Y-116204517D01*
X176449348Y-116173279D01*
X176430296Y-116137637D01*
X176418565Y-116098966D01*
X176414000Y-116052612D01*
X176414000Y-115401388D01*
X176418565Y-115355034D01*
X176430296Y-115316363D01*
X176449348Y-115280721D01*
X176474983Y-115249483D01*
X176506221Y-115223848D01*
X176541863Y-115204796D01*
X176580534Y-115193065D01*
X176626888Y-115188500D01*
X177703112Y-115188500D01*
X177749466Y-115193065D01*
X177749466Y-115193065D01*
G37*
G36*
X167462466Y-114304065D02*
X167501137Y-114315796D01*
X167536779Y-114334848D01*
X167568017Y-114360483D01*
X167593652Y-114391721D01*
X167612704Y-114427363D01*
X167624435Y-114466034D01*
X167629000Y-114512388D01*
X167629000Y-115163612D01*
X167624435Y-115209966D01*
X167612704Y-115248637D01*
X167593652Y-115284279D01*
X167568017Y-115315517D01*
X167536779Y-115341152D01*
X167501137Y-115360204D01*
X167462466Y-115371935D01*
X167416112Y-115376500D01*
X166339888Y-115376500D01*
X166293534Y-115371935D01*
X166254863Y-115360204D01*
X166219221Y-115341152D01*
X166187983Y-115315517D01*
X166162348Y-115284279D01*
X166143296Y-115248637D01*
X166131565Y-115209966D01*
X166127000Y-115163612D01*
X166127000Y-114512388D01*
X166131565Y-114466034D01*
X166143296Y-114427363D01*
X166162348Y-114391721D01*
X166187983Y-114360483D01*
X166219221Y-114334848D01*
X166254863Y-114315796D01*
X166293534Y-114304065D01*
X166339888Y-114299500D01*
X167416112Y-114299500D01*
X167462466Y-114304065D01*
X167462466Y-114304065D01*
G37*
G36*
X149582000Y-115076000D02*
X148360000Y-115076000D01*
X148360000Y-112534000D01*
X149582000Y-112534000D01*
X149582000Y-115076000D01*
X149582000Y-115076000D01*
G37*
G36*
X162282000Y-115076000D02*
X161060000Y-115076000D01*
X161060000Y-112534000D01*
X162282000Y-112534000D01*
X162282000Y-115076000D01*
X162282000Y-115076000D01*
G37*
G36*
X154662000Y-115076000D02*
X153440000Y-115076000D01*
X153440000Y-112534000D01*
X154662000Y-112534000D01*
X154662000Y-115076000D01*
X154662000Y-115076000D01*
G37*
G36*
X152122000Y-115076000D02*
X150900000Y-115076000D01*
X150900000Y-112534000D01*
X152122000Y-112534000D01*
X152122000Y-115076000D01*
X152122000Y-115076000D01*
G37*
G36*
X147042000Y-115076000D02*
X145820000Y-115076000D01*
X145820000Y-112534000D01*
X147042000Y-112534000D01*
X147042000Y-115076000D01*
X147042000Y-115076000D01*
G37*
G36*
X144502000Y-115076000D02*
X143280000Y-115076000D01*
X143280000Y-112534000D01*
X144502000Y-112534000D01*
X144502000Y-115076000D01*
X144502000Y-115076000D01*
G37*
G36*
X159742000Y-115076000D02*
X158520000Y-115076000D01*
X158520000Y-112534000D01*
X159742000Y-112534000D01*
X159742000Y-115076000D01*
X159742000Y-115076000D01*
G37*
G36*
X157202000Y-115076000D02*
X155980000Y-115076000D01*
X155980000Y-112534000D01*
X157202000Y-112534000D01*
X157202000Y-115076000D01*
X157202000Y-115076000D01*
G37*
G36*
X173492604Y-111981347D02*
X173529145Y-111992432D01*
X173562820Y-112010431D01*
X173592341Y-112034659D01*
X173616569Y-112064180D01*
X173634568Y-112097855D01*
X173645653Y-112134396D01*
X173650000Y-112178538D01*
X173650000Y-113627462D01*
X173645653Y-113671604D01*
X173634568Y-113708145D01*
X173616569Y-113741820D01*
X173592341Y-113771341D01*
X173562820Y-113795569D01*
X173529145Y-113813568D01*
X173492604Y-113824653D01*
X173448462Y-113829000D01*
X172499538Y-113829000D01*
X172455396Y-113824653D01*
X172418855Y-113813568D01*
X172385180Y-113795569D01*
X172355659Y-113771341D01*
X172331431Y-113741820D01*
X172313432Y-113708145D01*
X172302347Y-113671604D01*
X172298000Y-113627462D01*
X172298000Y-112178538D01*
X172302347Y-112134396D01*
X172313432Y-112097855D01*
X172331431Y-112064180D01*
X172355659Y-112034659D01*
X172385180Y-112010431D01*
X172418855Y-111992432D01*
X172455396Y-111981347D01*
X172499538Y-111977000D01*
X173448462Y-111977000D01*
X173492604Y-111981347D01*
X173492604Y-111981347D01*
G37*
G36*
X170692604Y-111981347D02*
X170729145Y-111992432D01*
X170762820Y-112010431D01*
X170792341Y-112034659D01*
X170816569Y-112064180D01*
X170834568Y-112097855D01*
X170845653Y-112134396D01*
X170850000Y-112178538D01*
X170850000Y-113627462D01*
X170845653Y-113671604D01*
X170834568Y-113708145D01*
X170816569Y-113741820D01*
X170792341Y-113771341D01*
X170762820Y-113795569D01*
X170729145Y-113813568D01*
X170692604Y-113824653D01*
X170648462Y-113829000D01*
X169699538Y-113829000D01*
X169655396Y-113824653D01*
X169618855Y-113813568D01*
X169585180Y-113795569D01*
X169555659Y-113771341D01*
X169531431Y-113741820D01*
X169513432Y-113708145D01*
X169502347Y-113671604D01*
X169498000Y-113627462D01*
X169498000Y-112178538D01*
X169502347Y-112134396D01*
X169513432Y-112097855D01*
X169531431Y-112064180D01*
X169555659Y-112034659D01*
X169585180Y-112010431D01*
X169618855Y-111992432D01*
X169655396Y-111981347D01*
X169699538Y-111977000D01*
X170648462Y-111977000D01*
X170692604Y-111981347D01*
X170692604Y-111981347D01*
G37*
G36*
X167462466Y-112623065D02*
X167501137Y-112634796D01*
X167536779Y-112653848D01*
X167568017Y-112679483D01*
X167593652Y-112710721D01*
X167612704Y-112746363D01*
X167624435Y-112785034D01*
X167629000Y-112831388D01*
X167629000Y-113482612D01*
X167624435Y-113528966D01*
X167612704Y-113567637D01*
X167593652Y-113603279D01*
X167568017Y-113634517D01*
X167536779Y-113660152D01*
X167501137Y-113679204D01*
X167462466Y-113690935D01*
X167416112Y-113695500D01*
X166339888Y-113695500D01*
X166293534Y-113690935D01*
X166254863Y-113679204D01*
X166219221Y-113660152D01*
X166187983Y-113634517D01*
X166162348Y-113603279D01*
X166143296Y-113567637D01*
X166131565Y-113528966D01*
X166127000Y-113482612D01*
X166127000Y-112831388D01*
X166131565Y-112785034D01*
X166143296Y-112746363D01*
X166162348Y-112710721D01*
X166187983Y-112679483D01*
X166219221Y-112653848D01*
X166254863Y-112634796D01*
X166293534Y-112623065D01*
X166339888Y-112618500D01*
X167416112Y-112618500D01*
X167462466Y-112623065D01*
X167462466Y-112623065D01*
G37*
G36*
X167462466Y-110748065D02*
X167501137Y-110759796D01*
X167536779Y-110778848D01*
X167568017Y-110804483D01*
X167593652Y-110835721D01*
X167612704Y-110871363D01*
X167624435Y-110910034D01*
X167629000Y-110956388D01*
X167629000Y-111607612D01*
X167624435Y-111653966D01*
X167612704Y-111692637D01*
X167593652Y-111728279D01*
X167568017Y-111759517D01*
X167536779Y-111785152D01*
X167501137Y-111804204D01*
X167462466Y-111815935D01*
X167416112Y-111820500D01*
X166339888Y-111820500D01*
X166293534Y-111815935D01*
X166254863Y-111804204D01*
X166219221Y-111785152D01*
X166187983Y-111759517D01*
X166162348Y-111728279D01*
X166143296Y-111692637D01*
X166131565Y-111653966D01*
X166127000Y-111607612D01*
X166127000Y-110956388D01*
X166131565Y-110910034D01*
X166143296Y-110871363D01*
X166162348Y-110835721D01*
X166187983Y-110804483D01*
X166219221Y-110778848D01*
X166254863Y-110759796D01*
X166293534Y-110748065D01*
X166339888Y-110743500D01*
X167416112Y-110743500D01*
X167462466Y-110748065D01*
X167462466Y-110748065D01*
G37*
G36*
X171482618Y-108303420D02*
X171564427Y-108328237D01*
X171605333Y-108340645D01*
X171683600Y-108382480D01*
X171718426Y-108401095D01*
X171817553Y-108482447D01*
X171898905Y-108581574D01*
X171898906Y-108581576D01*
X171959355Y-108694667D01*
X171959355Y-108694668D01*
X171996580Y-108817382D01*
X172006000Y-108913027D01*
X172006000Y-109526973D01*
X171996580Y-109622618D01*
X171971763Y-109704427D01*
X171959355Y-109745333D01*
X171905819Y-109845491D01*
X171898905Y-109858426D01*
X171817553Y-109957553D01*
X171817551Y-109957555D01*
X171789028Y-109980963D01*
X171718425Y-110038905D01*
X171666699Y-110066553D01*
X171605332Y-110099355D01*
X171564426Y-110111763D01*
X171482617Y-110136580D01*
X171355000Y-110149149D01*
X171227382Y-110136580D01*
X171145573Y-110111763D01*
X171104667Y-110099355D01*
X170991576Y-110038906D01*
X170991574Y-110038905D01*
X170892447Y-109957553D01*
X170811095Y-109858425D01*
X170750646Y-109745333D01*
X170750645Y-109745332D01*
X170738237Y-109704426D01*
X170713420Y-109622617D01*
X170704000Y-109526972D01*
X170704000Y-108913027D01*
X170713420Y-108817382D01*
X170750645Y-108694668D01*
X170750645Y-108694667D01*
X170770795Y-108656970D01*
X170811095Y-108581574D01*
X170892448Y-108482447D01*
X170991575Y-108401095D01*
X171026401Y-108382480D01*
X171104668Y-108340645D01*
X171145574Y-108328237D01*
X171227383Y-108303420D01*
X171355000Y-108290851D01*
X171482618Y-108303420D01*
X171482618Y-108303420D01*
G37*
G36*
X173846242Y-108298404D02*
X173883339Y-108309657D01*
X173917520Y-108327927D01*
X173947482Y-108352518D01*
X173972073Y-108382480D01*
X173990343Y-108416661D01*
X174001596Y-108453758D01*
X174006000Y-108498473D01*
X174006000Y-109941527D01*
X174001596Y-109986242D01*
X173990343Y-110023339D01*
X173972073Y-110057520D01*
X173947482Y-110087482D01*
X173917520Y-110112073D01*
X173883339Y-110130343D01*
X173846242Y-110141596D01*
X173801527Y-110146000D01*
X172908473Y-110146000D01*
X172863758Y-110141596D01*
X172826661Y-110130343D01*
X172792480Y-110112073D01*
X172762518Y-110087482D01*
X172737927Y-110057520D01*
X172719657Y-110023339D01*
X172708404Y-109986242D01*
X172704000Y-109941527D01*
X172704000Y-108498473D01*
X172708404Y-108453758D01*
X172719657Y-108416661D01*
X172737927Y-108382480D01*
X172762518Y-108352518D01*
X172792480Y-108327927D01*
X172826661Y-108309657D01*
X172863758Y-108298404D01*
X172908473Y-108294000D01*
X173801527Y-108294000D01*
X173846242Y-108298404D01*
X173846242Y-108298404D01*
G37*
G36*
X167462466Y-109067065D02*
X167501137Y-109078796D01*
X167536779Y-109097848D01*
X167568017Y-109123483D01*
X167593652Y-109154721D01*
X167612704Y-109190363D01*
X167624435Y-109229034D01*
X167629000Y-109275388D01*
X167629000Y-109926612D01*
X167624435Y-109972966D01*
X167612704Y-110011637D01*
X167593652Y-110047279D01*
X167568017Y-110078517D01*
X167536779Y-110104152D01*
X167501137Y-110123204D01*
X167462466Y-110134935D01*
X167416112Y-110139500D01*
X166339888Y-110139500D01*
X166293534Y-110134935D01*
X166254863Y-110123204D01*
X166219221Y-110104152D01*
X166187983Y-110078517D01*
X166162348Y-110047279D01*
X166143296Y-110011637D01*
X166131565Y-109972966D01*
X166127000Y-109926612D01*
X166127000Y-109275388D01*
X166131565Y-109229034D01*
X166143296Y-109190363D01*
X166162348Y-109154721D01*
X166187983Y-109123483D01*
X166219221Y-109097848D01*
X166254863Y-109078796D01*
X166293534Y-109067065D01*
X166339888Y-109062500D01*
X167416112Y-109062500D01*
X167462466Y-109067065D01*
X167462466Y-109067065D01*
G37*
G36*
X136297000Y-110139000D02*
X134645000Y-110139000D01*
X134645000Y-108737000D01*
X136297000Y-108737000D01*
X136297000Y-110139000D01*
X136297000Y-110139000D01*
G37*
G36*
X144247000Y-110139000D02*
X142595000Y-110139000D01*
X142595000Y-108737000D01*
X144247000Y-108737000D01*
X144247000Y-110139000D01*
X144247000Y-110139000D01*
G37*
G36*
X152031000Y-109994000D02*
X150229000Y-109994000D01*
X150229000Y-108192000D01*
X152031000Y-108192000D01*
X152031000Y-109994000D01*
X152031000Y-109994000D01*
G37*
G36*
X153780442Y-108198518D02*
X153846627Y-108205037D01*
X153959853Y-108239384D01*
X154016467Y-108256557D01*
X154125146Y-108314648D01*
X154172991Y-108340222D01*
X154208729Y-108369552D01*
X154310186Y-108452814D01*
X154393448Y-108554271D01*
X154422778Y-108590009D01*
X154422779Y-108590011D01*
X154506443Y-108746533D01*
X154506443Y-108746534D01*
X154557963Y-108916373D01*
X154575359Y-109093000D01*
X154557963Y-109269627D01*
X154556215Y-109275388D01*
X154506443Y-109439467D01*
X154459670Y-109526972D01*
X154422778Y-109595991D01*
X154393448Y-109631729D01*
X154310186Y-109733186D01*
X154208729Y-109816448D01*
X154172991Y-109845778D01*
X154172989Y-109845779D01*
X154016467Y-109929443D01*
X153959853Y-109946616D01*
X153846627Y-109980963D01*
X153780442Y-109987482D01*
X153714260Y-109994000D01*
X153625740Y-109994000D01*
X153559558Y-109987482D01*
X153493373Y-109980963D01*
X153380147Y-109946616D01*
X153323533Y-109929443D01*
X153167011Y-109845779D01*
X153167009Y-109845778D01*
X153131271Y-109816448D01*
X153029814Y-109733186D01*
X152946552Y-109631729D01*
X152917222Y-109595991D01*
X152880330Y-109526972D01*
X152833557Y-109439467D01*
X152783785Y-109275388D01*
X152782037Y-109269627D01*
X152764641Y-109093000D01*
X152782037Y-108916373D01*
X152833557Y-108746534D01*
X152833557Y-108746533D01*
X152917221Y-108590011D01*
X152917222Y-108590009D01*
X152946552Y-108554271D01*
X153029814Y-108452814D01*
X153131271Y-108369552D01*
X153167009Y-108340222D01*
X153214854Y-108314648D01*
X153323533Y-108256557D01*
X153380147Y-108239384D01*
X153493373Y-108205037D01*
X153559558Y-108198518D01*
X153625740Y-108192000D01*
X153714260Y-108192000D01*
X153780442Y-108198518D01*
X153780442Y-108198518D01*
G37*
G36*
X158860442Y-108198518D02*
X158926627Y-108205037D01*
X159039853Y-108239384D01*
X159096467Y-108256557D01*
X159205146Y-108314648D01*
X159252991Y-108340222D01*
X159288729Y-108369552D01*
X159390186Y-108452814D01*
X159473448Y-108554271D01*
X159502778Y-108590009D01*
X159502779Y-108590011D01*
X159586443Y-108746533D01*
X159586443Y-108746534D01*
X159637963Y-108916373D01*
X159655359Y-109093000D01*
X159637963Y-109269627D01*
X159636215Y-109275388D01*
X159586443Y-109439467D01*
X159539670Y-109526972D01*
X159502778Y-109595991D01*
X159473448Y-109631729D01*
X159390186Y-109733186D01*
X159288729Y-109816448D01*
X159252991Y-109845778D01*
X159252989Y-109845779D01*
X159096467Y-109929443D01*
X159039853Y-109946616D01*
X158926627Y-109980963D01*
X158860442Y-109987482D01*
X158794260Y-109994000D01*
X158705740Y-109994000D01*
X158639558Y-109987482D01*
X158573373Y-109980963D01*
X158460147Y-109946616D01*
X158403533Y-109929443D01*
X158247011Y-109845779D01*
X158247009Y-109845778D01*
X158211271Y-109816448D01*
X158109814Y-109733186D01*
X158026552Y-109631729D01*
X157997222Y-109595991D01*
X157960330Y-109526972D01*
X157913557Y-109439467D01*
X157863785Y-109275388D01*
X157862037Y-109269627D01*
X157844641Y-109093000D01*
X157862037Y-108916373D01*
X157913557Y-108746534D01*
X157913557Y-108746533D01*
X157997221Y-108590011D01*
X157997222Y-108590009D01*
X158026552Y-108554271D01*
X158109814Y-108452814D01*
X158211271Y-108369552D01*
X158247009Y-108340222D01*
X158294854Y-108314648D01*
X158403533Y-108256557D01*
X158460147Y-108239384D01*
X158573373Y-108205037D01*
X158639558Y-108198518D01*
X158705740Y-108192000D01*
X158794260Y-108192000D01*
X158860442Y-108198518D01*
X158860442Y-108198518D01*
G37*
G36*
X156320442Y-108198518D02*
X156386627Y-108205037D01*
X156499853Y-108239384D01*
X156556467Y-108256557D01*
X156665146Y-108314648D01*
X156712991Y-108340222D01*
X156748729Y-108369552D01*
X156850186Y-108452814D01*
X156933448Y-108554271D01*
X156962778Y-108590009D01*
X156962779Y-108590011D01*
X157046443Y-108746533D01*
X157046443Y-108746534D01*
X157097963Y-108916373D01*
X157115359Y-109093000D01*
X157097963Y-109269627D01*
X157096215Y-109275388D01*
X157046443Y-109439467D01*
X156999670Y-109526972D01*
X156962778Y-109595991D01*
X156933448Y-109631729D01*
X156850186Y-109733186D01*
X156748729Y-109816448D01*
X156712991Y-109845778D01*
X156712989Y-109845779D01*
X156556467Y-109929443D01*
X156499853Y-109946616D01*
X156386627Y-109980963D01*
X156320442Y-109987482D01*
X156254260Y-109994000D01*
X156165740Y-109994000D01*
X156099558Y-109987482D01*
X156033373Y-109980963D01*
X155920147Y-109946616D01*
X155863533Y-109929443D01*
X155707011Y-109845779D01*
X155707009Y-109845778D01*
X155671271Y-109816448D01*
X155569814Y-109733186D01*
X155486552Y-109631729D01*
X155457222Y-109595991D01*
X155420330Y-109526972D01*
X155373557Y-109439467D01*
X155323785Y-109275388D01*
X155322037Y-109269627D01*
X155304641Y-109093000D01*
X155322037Y-108916373D01*
X155373557Y-108746534D01*
X155373557Y-108746533D01*
X155457221Y-108590011D01*
X155457222Y-108590009D01*
X155486552Y-108554271D01*
X155569814Y-108452814D01*
X155671271Y-108369552D01*
X155707009Y-108340222D01*
X155754854Y-108314648D01*
X155863533Y-108256557D01*
X155920147Y-108239384D01*
X156033373Y-108205037D01*
X156099558Y-108198518D01*
X156165740Y-108192000D01*
X156254260Y-108192000D01*
X156320442Y-108198518D01*
X156320442Y-108198518D01*
G37*
G36*
X167462466Y-107192065D02*
X167501137Y-107203796D01*
X167536779Y-107222848D01*
X167568017Y-107248483D01*
X167593652Y-107279721D01*
X167612704Y-107315363D01*
X167624435Y-107354034D01*
X167629000Y-107400388D01*
X167629000Y-108051612D01*
X167624435Y-108097966D01*
X167612704Y-108136637D01*
X167593652Y-108172279D01*
X167568017Y-108203517D01*
X167536779Y-108229152D01*
X167501137Y-108248204D01*
X167462466Y-108259935D01*
X167416112Y-108264500D01*
X166339888Y-108264500D01*
X166293534Y-108259935D01*
X166254863Y-108248204D01*
X166219221Y-108229152D01*
X166187983Y-108203517D01*
X166162348Y-108172279D01*
X166143296Y-108136637D01*
X166131565Y-108097966D01*
X166127000Y-108051612D01*
X166127000Y-107400388D01*
X166131565Y-107354034D01*
X166143296Y-107315363D01*
X166162348Y-107279721D01*
X166187983Y-107248483D01*
X166219221Y-107222848D01*
X166254863Y-107203796D01*
X166293534Y-107192065D01*
X166339888Y-107187500D01*
X167416112Y-107187500D01*
X167462466Y-107192065D01*
X167462466Y-107192065D01*
G37*
G36*
X144247000Y-105639000D02*
X142595000Y-105639000D01*
X142595000Y-104237000D01*
X144247000Y-104237000D01*
X144247000Y-105639000D01*
X144247000Y-105639000D01*
G37*
G36*
X136297000Y-105639000D02*
X134645000Y-105639000D01*
X134645000Y-104237000D01*
X136297000Y-104237000D01*
X136297000Y-105639000D01*
X136297000Y-105639000D01*
G37*
G36*
X154806000Y-105556000D02*
X153804000Y-105556000D01*
X153804000Y-103454000D01*
X154806000Y-103454000D01*
X154806000Y-105556000D01*
X154806000Y-105556000D01*
G37*
G36*
X150996000Y-105556000D02*
X149994000Y-105556000D01*
X149994000Y-103454000D01*
X150996000Y-103454000D01*
X150996000Y-105556000D01*
X150996000Y-105556000D01*
G37*
G36*
X152266000Y-105556000D02*
X151264000Y-105556000D01*
X151264000Y-103454000D01*
X152266000Y-103454000D01*
X152266000Y-105556000D01*
X152266000Y-105556000D01*
G37*
G36*
X156076000Y-105556000D02*
X155074000Y-105556000D01*
X155074000Y-103454000D01*
X156076000Y-103454000D01*
X156076000Y-105556000D01*
X156076000Y-105556000D01*
G37*
G36*
X161156000Y-105556000D02*
X160154000Y-105556000D01*
X160154000Y-103454000D01*
X161156000Y-103454000D01*
X161156000Y-105556000D01*
X161156000Y-105556000D01*
G37*
G36*
X157346000Y-105556000D02*
X156344000Y-105556000D01*
X156344000Y-103454000D01*
X157346000Y-103454000D01*
X157346000Y-105556000D01*
X157346000Y-105556000D01*
G37*
G36*
X159886000Y-105556000D02*
X158884000Y-105556000D01*
X158884000Y-103454000D01*
X159886000Y-103454000D01*
X159886000Y-105556000D01*
X159886000Y-105556000D01*
G37*
G36*
X158616000Y-105556000D02*
X157614000Y-105556000D01*
X157614000Y-103454000D01*
X158616000Y-103454000D01*
X158616000Y-105556000D01*
X158616000Y-105556000D01*
G37*
G36*
X149726000Y-105556000D02*
X148724000Y-105556000D01*
X148724000Y-103454000D01*
X149726000Y-103454000D01*
X149726000Y-105556000D01*
X149726000Y-105556000D01*
G37*
G36*
X153536000Y-105556000D02*
X152534000Y-105556000D01*
X152534000Y-103454000D01*
X153536000Y-103454000D01*
X153536000Y-105556000D01*
X153536000Y-105556000D01*
G37*
G36*
X177879500Y-104553886D02*
X177880102Y-104566138D01*
X177882649Y-104592000D01*
X177880102Y-104617862D01*
X177879500Y-104630114D01*
X177879500Y-104703407D01*
X177870543Y-104720165D01*
X177866410Y-104731715D01*
X177832855Y-104842333D01*
X177779319Y-104942491D01*
X177772405Y-104955426D01*
X177691053Y-105054553D01*
X177591926Y-105135905D01*
X177591924Y-105135906D01*
X177478833Y-105196355D01*
X177437927Y-105208763D01*
X177356118Y-105233580D01*
X177292355Y-105239860D01*
X177260474Y-105243000D01*
X176496526Y-105243000D01*
X176464645Y-105239860D01*
X176400882Y-105233580D01*
X176319073Y-105208763D01*
X176278167Y-105196355D01*
X176165076Y-105135906D01*
X176165074Y-105135905D01*
X176065947Y-105054553D01*
X175984595Y-104955426D01*
X175977681Y-104942491D01*
X175924145Y-104842333D01*
X175890590Y-104731715D01*
X175881212Y-104709076D01*
X175877500Y-104703520D01*
X175877500Y-104630114D01*
X175876898Y-104617862D01*
X175874351Y-104592000D01*
X175876898Y-104566138D01*
X175877500Y-104553886D01*
X175877500Y-103341000D01*
X177879500Y-103341000D01*
X177879500Y-104553886D01*
X177879500Y-104553886D01*
G37*
G36*
X174404849Y-97845820D02*
X174436843Y-97859073D01*
X174546074Y-97904317D01*
X174640202Y-97967212D01*
X174673174Y-97989243D01*
X174781257Y-98097326D01*
X174781259Y-98097329D01*
X174866183Y-98224426D01*
X174907828Y-98324967D01*
X174924680Y-98365651D01*
X174954500Y-98515569D01*
X174954500Y-98668431D01*
X174924680Y-98818349D01*
X174924679Y-98818351D01*
X174866183Y-98959574D01*
X174816620Y-99033750D01*
X174781257Y-99086674D01*
X174673174Y-99194757D01*
X174673171Y-99194759D01*
X174546074Y-99279683D01*
X174495778Y-99300516D01*
X174474169Y-99312067D01*
X174455227Y-99327612D01*
X174439682Y-99346554D01*
X174428131Y-99368165D01*
X174421018Y-99391614D01*
X174418616Y-99416000D01*
X174421018Y-99440387D01*
X174428131Y-99463836D01*
X174439683Y-99485447D01*
X174455228Y-99504389D01*
X174474170Y-99519934D01*
X174495781Y-99531485D01*
X174519230Y-99538598D01*
X174543616Y-99541000D01*
X174904500Y-99541000D01*
X174904500Y-102643000D01*
X174543616Y-102643000D01*
X174519230Y-102645402D01*
X174495781Y-102652515D01*
X174474170Y-102664066D01*
X174455228Y-102679612D01*
X174439682Y-102698554D01*
X174428131Y-102720165D01*
X174421018Y-102743614D01*
X174418616Y-102768000D01*
X174421018Y-102792386D01*
X174428131Y-102815835D01*
X174439682Y-102837446D01*
X174455228Y-102856388D01*
X174474170Y-102871934D01*
X174495778Y-102883484D01*
X174546074Y-102904317D01*
X174546075Y-102904318D01*
X174673174Y-102989243D01*
X174781257Y-103097326D01*
X174781259Y-103097329D01*
X174866183Y-103224426D01*
X174907828Y-103324967D01*
X174924680Y-103365651D01*
X174954500Y-103515569D01*
X174954500Y-103668431D01*
X174924680Y-103818349D01*
X174924679Y-103818351D01*
X174866183Y-103959574D01*
X174835162Y-104006000D01*
X174781257Y-104086674D01*
X174673174Y-104194757D01*
X174673171Y-104194759D01*
X174546074Y-104279683D01*
X174436843Y-104324927D01*
X174404849Y-104338180D01*
X174254931Y-104368000D01*
X174102069Y-104368000D01*
X173952151Y-104338180D01*
X173920157Y-104324927D01*
X173810926Y-104279683D01*
X173683829Y-104194759D01*
X173683826Y-104194757D01*
X173575743Y-104086674D01*
X173521838Y-104006000D01*
X173490817Y-103959574D01*
X173432321Y-103818351D01*
X173432320Y-103818349D01*
X173402500Y-103668431D01*
X173402500Y-103515569D01*
X173432320Y-103365651D01*
X173449172Y-103324967D01*
X173490817Y-103224426D01*
X173575741Y-103097329D01*
X173575743Y-103097326D01*
X173683826Y-102989243D01*
X173810925Y-102904318D01*
X173810926Y-102904317D01*
X173861222Y-102883484D01*
X173882831Y-102871933D01*
X173901773Y-102856388D01*
X173917318Y-102837446D01*
X173928869Y-102815835D01*
X173935982Y-102792386D01*
X173938384Y-102768000D01*
X173935982Y-102743613D01*
X173928869Y-102720164D01*
X173917317Y-102698553D01*
X173901772Y-102679611D01*
X173882830Y-102664066D01*
X173861219Y-102652515D01*
X173837770Y-102645402D01*
X173813384Y-102643000D01*
X173452500Y-102643000D01*
X173452500Y-99541000D01*
X173813384Y-99541000D01*
X173837770Y-99538598D01*
X173861219Y-99531485D01*
X173882830Y-99519934D01*
X173901772Y-99504388D01*
X173917318Y-99485446D01*
X173928869Y-99463835D01*
X173935982Y-99440386D01*
X173938384Y-99416000D01*
X173935982Y-99391614D01*
X173928869Y-99368165D01*
X173917318Y-99346554D01*
X173901772Y-99327612D01*
X173882830Y-99312066D01*
X173861222Y-99300516D01*
X173810926Y-99279683D01*
X173683829Y-99194759D01*
X173683826Y-99194757D01*
X173575743Y-99086674D01*
X173540380Y-99033750D01*
X173490817Y-98959574D01*
X173432321Y-98818351D01*
X173432320Y-98818349D01*
X173402500Y-98668431D01*
X173402500Y-98515569D01*
X173432320Y-98365651D01*
X173449172Y-98324967D01*
X173490817Y-98224426D01*
X173575741Y-98097329D01*
X173575743Y-98097326D01*
X173683826Y-97989243D01*
X173716798Y-97967212D01*
X173810926Y-97904317D01*
X173920157Y-97859073D01*
X173952151Y-97845820D01*
X174102069Y-97816000D01*
X174254931Y-97816000D01*
X174404849Y-97845820D01*
X174404849Y-97845820D01*
G37*
G36*
X164491000Y-104006000D02*
X162389000Y-104006000D01*
X162389000Y-103004000D01*
X164491000Y-103004000D01*
X164491000Y-104006000D01*
X164491000Y-104006000D01*
G37*
G36*
X147491000Y-104006000D02*
X145389000Y-104006000D01*
X145389000Y-103004000D01*
X147491000Y-103004000D01*
X147491000Y-104006000D01*
X147491000Y-104006000D01*
G37*
G36*
X167883000Y-104002000D02*
X166381000Y-104002000D01*
X166381000Y-102500000D01*
X167883000Y-102500000D01*
X167883000Y-104002000D01*
X167883000Y-104002000D01*
G37*
G36*
X170564004Y-102511544D02*
X170651059Y-102528860D01*
X170787732Y-102585472D01*
X170888069Y-102652515D01*
X170910738Y-102667662D01*
X171015338Y-102772262D01*
X171015340Y-102772265D01*
X171097528Y-102895268D01*
X171154140Y-103031941D01*
X171183000Y-103177033D01*
X171183000Y-103324967D01*
X171154140Y-103470059D01*
X171097528Y-103606732D01*
X171097527Y-103606733D01*
X171015338Y-103729738D01*
X170910738Y-103834338D01*
X170910735Y-103834340D01*
X170787732Y-103916528D01*
X170651059Y-103973140D01*
X170564004Y-103990456D01*
X170505969Y-104002000D01*
X170358031Y-104002000D01*
X170299996Y-103990456D01*
X170212941Y-103973140D01*
X170076268Y-103916528D01*
X169953265Y-103834340D01*
X169953262Y-103834338D01*
X169848662Y-103729738D01*
X169766473Y-103606733D01*
X169766472Y-103606732D01*
X169709860Y-103470059D01*
X169681000Y-103324967D01*
X169681000Y-103177033D01*
X169709860Y-103031941D01*
X169766472Y-102895268D01*
X169848660Y-102772265D01*
X169848662Y-102772262D01*
X169953262Y-102667662D01*
X169975931Y-102652515D01*
X170076268Y-102585472D01*
X170212941Y-102528860D01*
X170299996Y-102511544D01*
X170358031Y-102500000D01*
X170505969Y-102500000D01*
X170564004Y-102511544D01*
X170564004Y-102511544D01*
G37*
G36*
X177879500Y-102893000D02*
X175877500Y-102893000D01*
X175877500Y-101291000D01*
X177879500Y-101291000D01*
X177879500Y-102893000D01*
X177879500Y-102893000D01*
G37*
G36*
X164491000Y-102736000D02*
X162389000Y-102736000D01*
X162389000Y-101734000D01*
X164491000Y-101734000D01*
X164491000Y-102736000D01*
X164491000Y-102736000D01*
G37*
G36*
X147491000Y-102736000D02*
X145389000Y-102736000D01*
X145389000Y-101734000D01*
X147491000Y-101734000D01*
X147491000Y-102736000D01*
X147491000Y-102736000D01*
G37*
G36*
X167264004Y-100011544D02*
X167351059Y-100028860D01*
X167487732Y-100085472D01*
X167487733Y-100085473D01*
X167610738Y-100167662D01*
X167715338Y-100272262D01*
X167715340Y-100272265D01*
X167797528Y-100395268D01*
X167854140Y-100531941D01*
X167883000Y-100677033D01*
X167883000Y-100824967D01*
X167854140Y-100970059D01*
X167797528Y-101106732D01*
X167797527Y-101106733D01*
X167715338Y-101229738D01*
X167610738Y-101334338D01*
X167610735Y-101334340D01*
X167487732Y-101416528D01*
X167351059Y-101473140D01*
X167264004Y-101490456D01*
X167205969Y-101502000D01*
X167058031Y-101502000D01*
X166999996Y-101490456D01*
X166912941Y-101473140D01*
X166776268Y-101416528D01*
X166653265Y-101334340D01*
X166653262Y-101334338D01*
X166548662Y-101229738D01*
X166466473Y-101106733D01*
X166466472Y-101106732D01*
X166409860Y-100970059D01*
X166381000Y-100824967D01*
X166381000Y-100677033D01*
X166409860Y-100531941D01*
X166466472Y-100395268D01*
X166548660Y-100272265D01*
X166548662Y-100272262D01*
X166653262Y-100167662D01*
X166776267Y-100085473D01*
X166776268Y-100085472D01*
X166912941Y-100028860D01*
X166999996Y-100011544D01*
X167058031Y-100000000D01*
X167205969Y-100000000D01*
X167264004Y-100011544D01*
X167264004Y-100011544D01*
G37*
G36*
X170564004Y-100011544D02*
X170651059Y-100028860D01*
X170787732Y-100085472D01*
X170787733Y-100085473D01*
X170910738Y-100167662D01*
X171015338Y-100272262D01*
X171015340Y-100272265D01*
X171097528Y-100395268D01*
X171154140Y-100531941D01*
X171183000Y-100677033D01*
X171183000Y-100824967D01*
X171154140Y-100970059D01*
X171097528Y-101106732D01*
X171097527Y-101106733D01*
X171015338Y-101229738D01*
X170910738Y-101334338D01*
X170910735Y-101334340D01*
X170787732Y-101416528D01*
X170651059Y-101473140D01*
X170564004Y-101490456D01*
X170505969Y-101502000D01*
X170358031Y-101502000D01*
X170299996Y-101490456D01*
X170212941Y-101473140D01*
X170076268Y-101416528D01*
X169953265Y-101334340D01*
X169953262Y-101334338D01*
X169848662Y-101229738D01*
X169766473Y-101106733D01*
X169766472Y-101106732D01*
X169709860Y-100970059D01*
X169681000Y-100824967D01*
X169681000Y-100677033D01*
X169709860Y-100531941D01*
X169766472Y-100395268D01*
X169848660Y-100272265D01*
X169848662Y-100272262D01*
X169953262Y-100167662D01*
X170076267Y-100085473D01*
X170076268Y-100085472D01*
X170212941Y-100028860D01*
X170299996Y-100011544D01*
X170358031Y-100000000D01*
X170505969Y-100000000D01*
X170564004Y-100011544D01*
X170564004Y-100011544D01*
G37*
G36*
X164491000Y-101466000D02*
X162389000Y-101466000D01*
X162389000Y-100464000D01*
X164491000Y-100464000D01*
X164491000Y-101466000D01*
X164491000Y-101466000D01*
G37*
G36*
X147491000Y-101466000D02*
X145389000Y-101466000D01*
X145389000Y-100464000D01*
X147491000Y-100464000D01*
X147491000Y-101466000D01*
X147491000Y-101466000D01*
G37*
G36*
X177879500Y-100893000D02*
X175877500Y-100893000D01*
X175877500Y-99291000D01*
X177879500Y-99291000D01*
X177879500Y-100893000D01*
X177879500Y-100893000D01*
G37*
G36*
X147491000Y-100196000D02*
X145389000Y-100196000D01*
X145389000Y-99194000D01*
X147491000Y-99194000D01*
X147491000Y-100196000D01*
X147491000Y-100196000D01*
G37*
G36*
X164491000Y-100196000D02*
X162389000Y-100196000D01*
X162389000Y-99194000D01*
X164491000Y-99194000D01*
X164491000Y-100196000D01*
X164491000Y-100196000D01*
G37*
G36*
X144105966Y-97805565D02*
X144144637Y-97817296D01*
X144180279Y-97836348D01*
X144211517Y-97861983D01*
X144237152Y-97893221D01*
X144256204Y-97928863D01*
X144267935Y-97967534D01*
X144272500Y-98013888D01*
X144272500Y-99090112D01*
X144267935Y-99136466D01*
X144256204Y-99175137D01*
X144237152Y-99210779D01*
X144211517Y-99242017D01*
X144180279Y-99267652D01*
X144144637Y-99286704D01*
X144105966Y-99298435D01*
X144059612Y-99303000D01*
X143408388Y-99303000D01*
X143362034Y-99298435D01*
X143323363Y-99286704D01*
X143287721Y-99267652D01*
X143256483Y-99242017D01*
X143230848Y-99210779D01*
X143211796Y-99175137D01*
X143200065Y-99136466D01*
X143195500Y-99090112D01*
X143195500Y-98013888D01*
X143200065Y-97967534D01*
X143211796Y-97928863D01*
X143230848Y-97893221D01*
X143256483Y-97861983D01*
X143287721Y-97836348D01*
X143323363Y-97817296D01*
X143362034Y-97805565D01*
X143408388Y-97801000D01*
X144059612Y-97801000D01*
X144105966Y-97805565D01*
X144105966Y-97805565D01*
G37*
G36*
X140452966Y-97805565D02*
X140491637Y-97817296D01*
X140527279Y-97836348D01*
X140558517Y-97861983D01*
X140584152Y-97893221D01*
X140603204Y-97928863D01*
X140614935Y-97967534D01*
X140619500Y-98013888D01*
X140619500Y-99090112D01*
X140614935Y-99136466D01*
X140603204Y-99175137D01*
X140584152Y-99210779D01*
X140558517Y-99242017D01*
X140527279Y-99267652D01*
X140491637Y-99286704D01*
X140452966Y-99298435D01*
X140406612Y-99303000D01*
X139755388Y-99303000D01*
X139709034Y-99298435D01*
X139670363Y-99286704D01*
X139634721Y-99267652D01*
X139603483Y-99242017D01*
X139577848Y-99210779D01*
X139558796Y-99175137D01*
X139547065Y-99136466D01*
X139542500Y-99090112D01*
X139542500Y-98013888D01*
X139547065Y-97967534D01*
X139558796Y-97928863D01*
X139577848Y-97893221D01*
X139603483Y-97861983D01*
X139634721Y-97836348D01*
X139670363Y-97817296D01*
X139709034Y-97805565D01*
X139755388Y-97801000D01*
X140406612Y-97801000D01*
X140452966Y-97805565D01*
X140452966Y-97805565D01*
G37*
G36*
X138577966Y-97805565D02*
X138616637Y-97817296D01*
X138652279Y-97836348D01*
X138683517Y-97861983D01*
X138709152Y-97893221D01*
X138728204Y-97928863D01*
X138739935Y-97967534D01*
X138744500Y-98013888D01*
X138744500Y-99090112D01*
X138739935Y-99136466D01*
X138728204Y-99175137D01*
X138709152Y-99210779D01*
X138683517Y-99242017D01*
X138652279Y-99267652D01*
X138616637Y-99286704D01*
X138577966Y-99298435D01*
X138531612Y-99303000D01*
X137880388Y-99303000D01*
X137834034Y-99298435D01*
X137795363Y-99286704D01*
X137759721Y-99267652D01*
X137728483Y-99242017D01*
X137702848Y-99210779D01*
X137683796Y-99175137D01*
X137672065Y-99136466D01*
X137667500Y-99090112D01*
X137667500Y-98013888D01*
X137672065Y-97967534D01*
X137683796Y-97928863D01*
X137702848Y-97893221D01*
X137728483Y-97861983D01*
X137759721Y-97836348D01*
X137795363Y-97817296D01*
X137834034Y-97805565D01*
X137880388Y-97801000D01*
X138531612Y-97801000D01*
X138577966Y-97805565D01*
X138577966Y-97805565D01*
G37*
G36*
X142230966Y-97805565D02*
X142269637Y-97817296D01*
X142305279Y-97836348D01*
X142336517Y-97861983D01*
X142362152Y-97893221D01*
X142381204Y-97928863D01*
X142392935Y-97967534D01*
X142397500Y-98013888D01*
X142397500Y-99090112D01*
X142392935Y-99136466D01*
X142381204Y-99175137D01*
X142362152Y-99210779D01*
X142336517Y-99242017D01*
X142305279Y-99267652D01*
X142269637Y-99286704D01*
X142230966Y-99298435D01*
X142184612Y-99303000D01*
X141533388Y-99303000D01*
X141487034Y-99298435D01*
X141448363Y-99286704D01*
X141412721Y-99267652D01*
X141381483Y-99242017D01*
X141355848Y-99210779D01*
X141336796Y-99175137D01*
X141325065Y-99136466D01*
X141320500Y-99090112D01*
X141320500Y-98013888D01*
X141325065Y-97967534D01*
X141336796Y-97928863D01*
X141355848Y-97893221D01*
X141381483Y-97861983D01*
X141412721Y-97836348D01*
X141448363Y-97817296D01*
X141487034Y-97805565D01*
X141533388Y-97801000D01*
X142184612Y-97801000D01*
X142230966Y-97805565D01*
X142230966Y-97805565D01*
G37*
G36*
X170564004Y-97511544D02*
X170651059Y-97528860D01*
X170787732Y-97585472D01*
X170836207Y-97617862D01*
X170910738Y-97667662D01*
X171015338Y-97772262D01*
X171015340Y-97772265D01*
X171097528Y-97895268D01*
X171154140Y-98031941D01*
X171183000Y-98177033D01*
X171183000Y-98324967D01*
X171154140Y-98470059D01*
X171097528Y-98606732D01*
X171097527Y-98606733D01*
X171015338Y-98729738D01*
X170910738Y-98834338D01*
X170910735Y-98834340D01*
X170787732Y-98916528D01*
X170651059Y-98973140D01*
X170564004Y-98990456D01*
X170505969Y-99002000D01*
X170358031Y-99002000D01*
X170299996Y-98990456D01*
X170212941Y-98973140D01*
X170076268Y-98916528D01*
X169953265Y-98834340D01*
X169953262Y-98834338D01*
X169848662Y-98729738D01*
X169766473Y-98606733D01*
X169766472Y-98606732D01*
X169709860Y-98470059D01*
X169681000Y-98324967D01*
X169681000Y-98177033D01*
X169709860Y-98031941D01*
X169766472Y-97895268D01*
X169848660Y-97772265D01*
X169848662Y-97772262D01*
X169953262Y-97667662D01*
X170027793Y-97617862D01*
X170076268Y-97585472D01*
X170212941Y-97528860D01*
X170299996Y-97511544D01*
X170358031Y-97500000D01*
X170505969Y-97500000D01*
X170564004Y-97511544D01*
X170564004Y-97511544D01*
G37*
G36*
X167264004Y-97511544D02*
X167351059Y-97528860D01*
X167487732Y-97585472D01*
X167536207Y-97617862D01*
X167610738Y-97667662D01*
X167715338Y-97772262D01*
X167715340Y-97772265D01*
X167797528Y-97895268D01*
X167854140Y-98031941D01*
X167883000Y-98177033D01*
X167883000Y-98324967D01*
X167854140Y-98470059D01*
X167797528Y-98606732D01*
X167797527Y-98606733D01*
X167715338Y-98729738D01*
X167610738Y-98834338D01*
X167610735Y-98834340D01*
X167487732Y-98916528D01*
X167351059Y-98973140D01*
X167264004Y-98990456D01*
X167205969Y-99002000D01*
X167058031Y-99002000D01*
X166999996Y-98990456D01*
X166912941Y-98973140D01*
X166776268Y-98916528D01*
X166653265Y-98834340D01*
X166653262Y-98834338D01*
X166548662Y-98729738D01*
X166466473Y-98606733D01*
X166466472Y-98606732D01*
X166409860Y-98470059D01*
X166381000Y-98324967D01*
X166381000Y-98177033D01*
X166409860Y-98031941D01*
X166466472Y-97895268D01*
X166548660Y-97772265D01*
X166548662Y-97772262D01*
X166653262Y-97667662D01*
X166727793Y-97617862D01*
X166776268Y-97585472D01*
X166912941Y-97528860D01*
X166999996Y-97511544D01*
X167058031Y-97500000D01*
X167205969Y-97500000D01*
X167264004Y-97511544D01*
X167264004Y-97511544D01*
G37*
G36*
X164491000Y-98926000D02*
X162389000Y-98926000D01*
X162389000Y-97924000D01*
X164491000Y-97924000D01*
X164491000Y-98926000D01*
X164491000Y-98926000D01*
G37*
G36*
X147491000Y-98926000D02*
X145389000Y-98926000D01*
X145389000Y-97924000D01*
X147491000Y-97924000D01*
X147491000Y-98926000D01*
X147491000Y-98926000D01*
G37*
G36*
X177292355Y-96944140D02*
X177356118Y-96950420D01*
X177437927Y-96975237D01*
X177478833Y-96987645D01*
X177578991Y-97041181D01*
X177591926Y-97048095D01*
X177691053Y-97129447D01*
X177772405Y-97228574D01*
X177772406Y-97228576D01*
X177832855Y-97341667D01*
X177866410Y-97452285D01*
X177875788Y-97474924D01*
X177879500Y-97480480D01*
X177879500Y-97553886D01*
X177880102Y-97566138D01*
X177882649Y-97592000D01*
X177880102Y-97617862D01*
X177879500Y-97630114D01*
X177879500Y-98843000D01*
X175877500Y-98843000D01*
X175877500Y-97630114D01*
X175876898Y-97617862D01*
X175874351Y-97592000D01*
X175876898Y-97566138D01*
X175877500Y-97553886D01*
X175877500Y-97480593D01*
X175886457Y-97463835D01*
X175890590Y-97452285D01*
X175924145Y-97341667D01*
X175984594Y-97228576D01*
X175984595Y-97228574D01*
X176065947Y-97129447D01*
X176165074Y-97048095D01*
X176178009Y-97041181D01*
X176278167Y-96987645D01*
X176319073Y-96975237D01*
X176400882Y-96950420D01*
X176464645Y-96944140D01*
X176496526Y-96941000D01*
X177260474Y-96941000D01*
X177292355Y-96944140D01*
X177292355Y-96944140D01*
G37*
G36*
X164491000Y-97656000D02*
X162389000Y-97656000D01*
X162389000Y-96654000D01*
X164491000Y-96654000D01*
X164491000Y-97656000D01*
X164491000Y-97656000D01*
G37*
G36*
X147491000Y-97656000D02*
X145389000Y-97656000D01*
X145389000Y-96654000D01*
X147491000Y-96654000D01*
X147491000Y-97656000D01*
X147491000Y-97656000D01*
G37*
G36*
X156491000Y-97046000D02*
X151389000Y-97046000D01*
X151389000Y-91944000D01*
X156491000Y-91944000D01*
X156491000Y-97046000D01*
X156491000Y-97046000D01*
G37*
G36*
X164491000Y-96386000D02*
X162389000Y-96386000D01*
X162389000Y-95384000D01*
X164491000Y-95384000D01*
X164491000Y-96386000D01*
X164491000Y-96386000D01*
G37*
G36*
X147491000Y-96386000D02*
X145389000Y-96386000D01*
X145389000Y-95384000D01*
X147491000Y-95384000D01*
X147491000Y-96386000D01*
X147491000Y-96386000D01*
G37*
G36*
X147491000Y-95116000D02*
X145389000Y-95116000D01*
X145389000Y-94114000D01*
X147491000Y-94114000D01*
X147491000Y-95116000D01*
X147491000Y-95116000D01*
G37*
G36*
X164491000Y-95116000D02*
X162389000Y-95116000D01*
X162389000Y-94114000D01*
X164491000Y-94114000D01*
X164491000Y-95116000D01*
X164491000Y-95116000D01*
G37*
G36*
X147491000Y-93846000D02*
X145389000Y-93846000D01*
X145389000Y-92844000D01*
X147491000Y-92844000D01*
X147491000Y-93846000D01*
X147491000Y-93846000D01*
G37*
G36*
X164491000Y-93846000D02*
X162389000Y-93846000D01*
X162389000Y-92844000D01*
X164491000Y-92844000D01*
X164491000Y-93846000D01*
X164491000Y-93846000D01*
G37*
G36*
X167589466Y-91892065D02*
X167628137Y-91903796D01*
X167663779Y-91922848D01*
X167695017Y-91948483D01*
X167720652Y-91979721D01*
X167739704Y-92015363D01*
X167751435Y-92054034D01*
X167756000Y-92100388D01*
X167756000Y-92751612D01*
X167751435Y-92797966D01*
X167739704Y-92836637D01*
X167720652Y-92872279D01*
X167695017Y-92903517D01*
X167663779Y-92929152D01*
X167628137Y-92948204D01*
X167589466Y-92959935D01*
X167543112Y-92964500D01*
X166466888Y-92964500D01*
X166420534Y-92959935D01*
X166381863Y-92948204D01*
X166346221Y-92929152D01*
X166314983Y-92903517D01*
X166289348Y-92872279D01*
X166270296Y-92836637D01*
X166258565Y-92797966D01*
X166254000Y-92751612D01*
X166254000Y-92100388D01*
X166258565Y-92054034D01*
X166270296Y-92015363D01*
X166289348Y-91979721D01*
X166314983Y-91948483D01*
X166346221Y-91922848D01*
X166381863Y-91903796D01*
X166420534Y-91892065D01*
X166466888Y-91887500D01*
X167543112Y-91887500D01*
X167589466Y-91892065D01*
X167589466Y-91892065D01*
G37*
G36*
X147491000Y-92576000D02*
X145389000Y-92576000D01*
X145389000Y-91574000D01*
X147491000Y-91574000D01*
X147491000Y-92576000D01*
X147491000Y-92576000D01*
G37*
G36*
X164491000Y-92576000D02*
X162389000Y-92576000D01*
X162389000Y-91574000D01*
X164491000Y-91574000D01*
X164491000Y-92576000D01*
X164491000Y-92576000D01*
G37*
G36*
X147491000Y-91306000D02*
X145389000Y-91306000D01*
X145389000Y-90304000D01*
X147491000Y-90304000D01*
X147491000Y-91306000D01*
X147491000Y-91306000D01*
G37*
G36*
X164491000Y-91306000D02*
X162389000Y-91306000D01*
X162389000Y-90304000D01*
X164491000Y-90304000D01*
X164491000Y-91306000D01*
X164491000Y-91306000D01*
G37*
G36*
X167589466Y-90017065D02*
X167628137Y-90028796D01*
X167663779Y-90047848D01*
X167695017Y-90073483D01*
X167720652Y-90104721D01*
X167739704Y-90140363D01*
X167751435Y-90179034D01*
X167756000Y-90225388D01*
X167756000Y-90876612D01*
X167751435Y-90922966D01*
X167739704Y-90961637D01*
X167720652Y-90997279D01*
X167695017Y-91028517D01*
X167663779Y-91054152D01*
X167628137Y-91073204D01*
X167589466Y-91084935D01*
X167543112Y-91089500D01*
X166466888Y-91089500D01*
X166420534Y-91084935D01*
X166381863Y-91073204D01*
X166346221Y-91054152D01*
X166314983Y-91028517D01*
X166289348Y-90997279D01*
X166270296Y-90961637D01*
X166258565Y-90922966D01*
X166254000Y-90876612D01*
X166254000Y-90225388D01*
X166258565Y-90179034D01*
X166270296Y-90140363D01*
X166289348Y-90104721D01*
X166314983Y-90073483D01*
X166346221Y-90047848D01*
X166381863Y-90028796D01*
X166420534Y-90017065D01*
X166466888Y-90012500D01*
X167543112Y-90012500D01*
X167589466Y-90017065D01*
X167589466Y-90017065D01*
G37*
G36*
X175270256Y-87799298D02*
X175376579Y-87820447D01*
X175677042Y-87944903D01*
X175943852Y-88123180D01*
X175947454Y-88125587D01*
X176177413Y-88355546D01*
X176177415Y-88355549D01*
X176358097Y-88625958D01*
X176482553Y-88926421D01*
X176492572Y-88976788D01*
X176521557Y-89122505D01*
X176546000Y-89245391D01*
X176546000Y-89570609D01*
X176482553Y-89889579D01*
X176358097Y-90190042D01*
X176281952Y-90304000D01*
X176177413Y-90460454D01*
X175947454Y-90690413D01*
X175947451Y-90690415D01*
X175677042Y-90871097D01*
X175376579Y-90995553D01*
X175300736Y-91010639D01*
X175057611Y-91059000D01*
X174732389Y-91059000D01*
X174489264Y-91010639D01*
X174413421Y-90995553D01*
X174112958Y-90871097D01*
X173842549Y-90690415D01*
X173842546Y-90690413D01*
X173612587Y-90460454D01*
X173508048Y-90304000D01*
X173431903Y-90190042D01*
X173307447Y-89889579D01*
X173244000Y-89570609D01*
X173244000Y-89245391D01*
X173268444Y-89122505D01*
X173297428Y-88976788D01*
X173307447Y-88926421D01*
X173431903Y-88625958D01*
X173612585Y-88355549D01*
X173612587Y-88355546D01*
X173842546Y-88125587D01*
X173846148Y-88123180D01*
X174112958Y-87944903D01*
X174413421Y-87820447D01*
X174519744Y-87799298D01*
X174732389Y-87757000D01*
X175057611Y-87757000D01*
X175270256Y-87799298D01*
X175270256Y-87799298D01*
G37*
G36*
X135614256Y-87799298D02*
X135720579Y-87820447D01*
X136021042Y-87944903D01*
X136287852Y-88123180D01*
X136291454Y-88125587D01*
X136521413Y-88355546D01*
X136521415Y-88355549D01*
X136702097Y-88625958D01*
X136826553Y-88926421D01*
X136836572Y-88976788D01*
X136865557Y-89122505D01*
X136890000Y-89245391D01*
X136890000Y-89570609D01*
X136826553Y-89889579D01*
X136702097Y-90190042D01*
X136625952Y-90304000D01*
X136521413Y-90460454D01*
X136291454Y-90690413D01*
X136291451Y-90690415D01*
X136021042Y-90871097D01*
X135720579Y-90995553D01*
X135644736Y-91010639D01*
X135401611Y-91059000D01*
X135076389Y-91059000D01*
X134833264Y-91010639D01*
X134757421Y-90995553D01*
X134456958Y-90871097D01*
X134186549Y-90690415D01*
X134186546Y-90690413D01*
X133956587Y-90460454D01*
X133852048Y-90304000D01*
X133775903Y-90190042D01*
X133651447Y-89889579D01*
X133588000Y-89570609D01*
X133588000Y-89245391D01*
X133612444Y-89122505D01*
X133641428Y-88976788D01*
X133651447Y-88926421D01*
X133775903Y-88625958D01*
X133956585Y-88355549D01*
X133956587Y-88355546D01*
X134186546Y-88125587D01*
X134190148Y-88123180D01*
X134456958Y-87944903D01*
X134757421Y-87820447D01*
X134863744Y-87799298D01*
X135076389Y-87757000D01*
X135401611Y-87757000D01*
X135614256Y-87799298D01*
X135614256Y-87799298D01*
G37*
G36*
X147491000Y-90036000D02*
X145389000Y-90036000D01*
X145389000Y-89034000D01*
X147491000Y-89034000D01*
X147491000Y-90036000D01*
X147491000Y-90036000D01*
G37*
G36*
X164491000Y-90036000D02*
X162389000Y-90036000D01*
X162389000Y-89034000D01*
X164491000Y-89034000D01*
X164491000Y-90036000D01*
X164491000Y-90036000D01*
G37*
G36*
X166263966Y-87645565D02*
X166302637Y-87657296D01*
X166338279Y-87676348D01*
X166369517Y-87701983D01*
X166395152Y-87733221D01*
X166414204Y-87768863D01*
X166425935Y-87807534D01*
X166430500Y-87853888D01*
X166430500Y-88930112D01*
X166425935Y-88976466D01*
X166414204Y-89015137D01*
X166395152Y-89050779D01*
X166369517Y-89082017D01*
X166338279Y-89107652D01*
X166302637Y-89126704D01*
X166263966Y-89138435D01*
X166217612Y-89143000D01*
X165566388Y-89143000D01*
X165520034Y-89138435D01*
X165481363Y-89126704D01*
X165445721Y-89107652D01*
X165414483Y-89082017D01*
X165388848Y-89050779D01*
X165369796Y-89015137D01*
X165358065Y-88976466D01*
X165353500Y-88930112D01*
X165353500Y-87853888D01*
X165358065Y-87807534D01*
X165369796Y-87768863D01*
X165388848Y-87733221D01*
X165414483Y-87701983D01*
X165445721Y-87676348D01*
X165481363Y-87657296D01*
X165520034Y-87645565D01*
X165566388Y-87641000D01*
X166217612Y-87641000D01*
X166263966Y-87645565D01*
X166263966Y-87645565D01*
G37*
G36*
X168138966Y-87645565D02*
X168177637Y-87657296D01*
X168213279Y-87676348D01*
X168244517Y-87701983D01*
X168270152Y-87733221D01*
X168289204Y-87768863D01*
X168300935Y-87807534D01*
X168305500Y-87853888D01*
X168305500Y-88930112D01*
X168300935Y-88976466D01*
X168289204Y-89015137D01*
X168270152Y-89050779D01*
X168244517Y-89082017D01*
X168213279Y-89107652D01*
X168177637Y-89126704D01*
X168138966Y-89138435D01*
X168092612Y-89143000D01*
X167441388Y-89143000D01*
X167395034Y-89138435D01*
X167356363Y-89126704D01*
X167320721Y-89107652D01*
X167289483Y-89082017D01*
X167263848Y-89050779D01*
X167244796Y-89015137D01*
X167233065Y-88976466D01*
X167228500Y-88930112D01*
X167228500Y-87853888D01*
X167233065Y-87807534D01*
X167244796Y-87768863D01*
X167263848Y-87733221D01*
X167289483Y-87701983D01*
X167320721Y-87676348D01*
X167356363Y-87657296D01*
X167395034Y-87645565D01*
X167441388Y-87641000D01*
X168092612Y-87641000D01*
X168138966Y-87645565D01*
X168138966Y-87645565D01*
G37*
G36*
X164491000Y-88766000D02*
X162389000Y-88766000D01*
X162389000Y-87764000D01*
X164491000Y-87764000D01*
X164491000Y-88766000D01*
X164491000Y-88766000D01*
G37*
G36*
X147491000Y-88766000D02*
X145389000Y-88766000D01*
X145389000Y-87764000D01*
X147491000Y-87764000D01*
X147491000Y-88766000D01*
X147491000Y-88766000D01*
G37*
G36*
X164491000Y-87496000D02*
X162389000Y-87496000D01*
X162389000Y-86494000D01*
X164491000Y-86494000D01*
X164491000Y-87496000D01*
X164491000Y-87496000D01*
G37*
G36*
X147491000Y-87496000D02*
X145389000Y-87496000D01*
X145389000Y-86494000D01*
X147491000Y-86494000D01*
X147491000Y-87496000D01*
X147491000Y-87496000D01*
G37*
M02*
