G04 #@! TF.GenerationSoftware,KiCad,Pcbnew,5.0.2-bee76a0~70~ubuntu18.04.1*
G04 #@! TF.CreationDate,2019-03-24T19:46:42+10:00*
G04 #@! TF.ProjectId,esp32_rs232_adapter,65737033-325f-4727-9332-33325f616461,rev?*
G04 #@! TF.SameCoordinates,Original*
G04 #@! TF.FileFunction,Paste,Top*
G04 #@! TF.FilePolarity,Positive*
%FSLAX46Y46*%
G04 Gerber Fmt 4.6, Leading zero omitted, Abs format (unit mm)*
G04 Created by KiCad (PCBNEW 5.0.2-bee76a0~70~ubuntu18.04.1) date Sun 24 Mar 2019 19:46:42 AEST*
%MOMM*%
%LPD*%
G01*
G04 APERTURE LIST*
%ADD10C,0.100000*%
%ADD11C,1.250000*%
%ADD12C,0.975000*%
%ADD13R,1.900000X1.500000*%
%ADD14R,1.350000X0.400000*%
%ADD15R,1.550000X1.300000*%
%ADD16R,5.000000X5.000000*%
%ADD17R,2.000000X0.900000*%
%ADD18R,0.900000X2.000000*%
%ADD19C,0.600000*%
%ADD20R,1.120000X2.440000*%
G04 APERTURE END LIST*
D10*
G04 #@! TO.C,F1*
G36*
X170573504Y-112029204D02*
X170597773Y-112032804D01*
X170621571Y-112038765D01*
X170644671Y-112047030D01*
X170666849Y-112057520D01*
X170687893Y-112070133D01*
X170707598Y-112084747D01*
X170725777Y-112101223D01*
X170742253Y-112119402D01*
X170756867Y-112139107D01*
X170769480Y-112160151D01*
X170779970Y-112182329D01*
X170788235Y-112205429D01*
X170794196Y-112229227D01*
X170797796Y-112253496D01*
X170799000Y-112278000D01*
X170799000Y-113528000D01*
X170797796Y-113552504D01*
X170794196Y-113576773D01*
X170788235Y-113600571D01*
X170779970Y-113623671D01*
X170769480Y-113645849D01*
X170756867Y-113666893D01*
X170742253Y-113686598D01*
X170725777Y-113704777D01*
X170707598Y-113721253D01*
X170687893Y-113735867D01*
X170666849Y-113748480D01*
X170644671Y-113758970D01*
X170621571Y-113767235D01*
X170597773Y-113773196D01*
X170573504Y-113776796D01*
X170549000Y-113778000D01*
X169799000Y-113778000D01*
X169774496Y-113776796D01*
X169750227Y-113773196D01*
X169726429Y-113767235D01*
X169703329Y-113758970D01*
X169681151Y-113748480D01*
X169660107Y-113735867D01*
X169640402Y-113721253D01*
X169622223Y-113704777D01*
X169605747Y-113686598D01*
X169591133Y-113666893D01*
X169578520Y-113645849D01*
X169568030Y-113623671D01*
X169559765Y-113600571D01*
X169553804Y-113576773D01*
X169550204Y-113552504D01*
X169549000Y-113528000D01*
X169549000Y-112278000D01*
X169550204Y-112253496D01*
X169553804Y-112229227D01*
X169559765Y-112205429D01*
X169568030Y-112182329D01*
X169578520Y-112160151D01*
X169591133Y-112139107D01*
X169605747Y-112119402D01*
X169622223Y-112101223D01*
X169640402Y-112084747D01*
X169660107Y-112070133D01*
X169681151Y-112057520D01*
X169703329Y-112047030D01*
X169726429Y-112038765D01*
X169750227Y-112032804D01*
X169774496Y-112029204D01*
X169799000Y-112028000D01*
X170549000Y-112028000D01*
X170573504Y-112029204D01*
X170573504Y-112029204D01*
G37*
D11*
X170174000Y-112903000D03*
D10*
G36*
X173373504Y-112029204D02*
X173397773Y-112032804D01*
X173421571Y-112038765D01*
X173444671Y-112047030D01*
X173466849Y-112057520D01*
X173487893Y-112070133D01*
X173507598Y-112084747D01*
X173525777Y-112101223D01*
X173542253Y-112119402D01*
X173556867Y-112139107D01*
X173569480Y-112160151D01*
X173579970Y-112182329D01*
X173588235Y-112205429D01*
X173594196Y-112229227D01*
X173597796Y-112253496D01*
X173599000Y-112278000D01*
X173599000Y-113528000D01*
X173597796Y-113552504D01*
X173594196Y-113576773D01*
X173588235Y-113600571D01*
X173579970Y-113623671D01*
X173569480Y-113645849D01*
X173556867Y-113666893D01*
X173542253Y-113686598D01*
X173525777Y-113704777D01*
X173507598Y-113721253D01*
X173487893Y-113735867D01*
X173466849Y-113748480D01*
X173444671Y-113758970D01*
X173421571Y-113767235D01*
X173397773Y-113773196D01*
X173373504Y-113776796D01*
X173349000Y-113778000D01*
X172599000Y-113778000D01*
X172574496Y-113776796D01*
X172550227Y-113773196D01*
X172526429Y-113767235D01*
X172503329Y-113758970D01*
X172481151Y-113748480D01*
X172460107Y-113735867D01*
X172440402Y-113721253D01*
X172422223Y-113704777D01*
X172405747Y-113686598D01*
X172391133Y-113666893D01*
X172378520Y-113645849D01*
X172368030Y-113623671D01*
X172359765Y-113600571D01*
X172353804Y-113576773D01*
X172350204Y-113552504D01*
X172349000Y-113528000D01*
X172349000Y-112278000D01*
X172350204Y-112253496D01*
X172353804Y-112229227D01*
X172359765Y-112205429D01*
X172368030Y-112182329D01*
X172378520Y-112160151D01*
X172391133Y-112139107D01*
X172405747Y-112119402D01*
X172422223Y-112101223D01*
X172440402Y-112084747D01*
X172460107Y-112070133D01*
X172481151Y-112057520D01*
X172503329Y-112047030D01*
X172526429Y-112038765D01*
X172550227Y-112032804D01*
X172574496Y-112029204D01*
X172599000Y-112028000D01*
X173349000Y-112028000D01*
X173373504Y-112029204D01*
X173373504Y-112029204D01*
G37*
D11*
X172974000Y-112903000D03*
G04 #@! TD*
D10*
G04 #@! TO.C,C7*
G36*
X169517142Y-124608674D02*
X169540803Y-124612184D01*
X169564007Y-124617996D01*
X169586529Y-124626054D01*
X169608153Y-124636282D01*
X169628670Y-124648579D01*
X169647883Y-124662829D01*
X169665607Y-124678893D01*
X169681671Y-124696617D01*
X169695921Y-124715830D01*
X169708218Y-124736347D01*
X169718446Y-124757971D01*
X169726504Y-124780493D01*
X169732316Y-124803697D01*
X169735826Y-124827358D01*
X169737000Y-124851250D01*
X169737000Y-125338750D01*
X169735826Y-125362642D01*
X169732316Y-125386303D01*
X169726504Y-125409507D01*
X169718446Y-125432029D01*
X169708218Y-125453653D01*
X169695921Y-125474170D01*
X169681671Y-125493383D01*
X169665607Y-125511107D01*
X169647883Y-125527171D01*
X169628670Y-125541421D01*
X169608153Y-125553718D01*
X169586529Y-125563946D01*
X169564007Y-125572004D01*
X169540803Y-125577816D01*
X169517142Y-125581326D01*
X169493250Y-125582500D01*
X168580750Y-125582500D01*
X168556858Y-125581326D01*
X168533197Y-125577816D01*
X168509993Y-125572004D01*
X168487471Y-125563946D01*
X168465847Y-125553718D01*
X168445330Y-125541421D01*
X168426117Y-125527171D01*
X168408393Y-125511107D01*
X168392329Y-125493383D01*
X168378079Y-125474170D01*
X168365782Y-125453653D01*
X168355554Y-125432029D01*
X168347496Y-125409507D01*
X168341684Y-125386303D01*
X168338174Y-125362642D01*
X168337000Y-125338750D01*
X168337000Y-124851250D01*
X168338174Y-124827358D01*
X168341684Y-124803697D01*
X168347496Y-124780493D01*
X168355554Y-124757971D01*
X168365782Y-124736347D01*
X168378079Y-124715830D01*
X168392329Y-124696617D01*
X168408393Y-124678893D01*
X168426117Y-124662829D01*
X168445330Y-124648579D01*
X168465847Y-124636282D01*
X168487471Y-124626054D01*
X168509993Y-124617996D01*
X168533197Y-124612184D01*
X168556858Y-124608674D01*
X168580750Y-124607500D01*
X169493250Y-124607500D01*
X169517142Y-124608674D01*
X169517142Y-124608674D01*
G37*
D12*
X169037000Y-125095000D03*
D10*
G36*
X169517142Y-122733674D02*
X169540803Y-122737184D01*
X169564007Y-122742996D01*
X169586529Y-122751054D01*
X169608153Y-122761282D01*
X169628670Y-122773579D01*
X169647883Y-122787829D01*
X169665607Y-122803893D01*
X169681671Y-122821617D01*
X169695921Y-122840830D01*
X169708218Y-122861347D01*
X169718446Y-122882971D01*
X169726504Y-122905493D01*
X169732316Y-122928697D01*
X169735826Y-122952358D01*
X169737000Y-122976250D01*
X169737000Y-123463750D01*
X169735826Y-123487642D01*
X169732316Y-123511303D01*
X169726504Y-123534507D01*
X169718446Y-123557029D01*
X169708218Y-123578653D01*
X169695921Y-123599170D01*
X169681671Y-123618383D01*
X169665607Y-123636107D01*
X169647883Y-123652171D01*
X169628670Y-123666421D01*
X169608153Y-123678718D01*
X169586529Y-123688946D01*
X169564007Y-123697004D01*
X169540803Y-123702816D01*
X169517142Y-123706326D01*
X169493250Y-123707500D01*
X168580750Y-123707500D01*
X168556858Y-123706326D01*
X168533197Y-123702816D01*
X168509993Y-123697004D01*
X168487471Y-123688946D01*
X168465847Y-123678718D01*
X168445330Y-123666421D01*
X168426117Y-123652171D01*
X168408393Y-123636107D01*
X168392329Y-123618383D01*
X168378079Y-123599170D01*
X168365782Y-123578653D01*
X168355554Y-123557029D01*
X168347496Y-123534507D01*
X168341684Y-123511303D01*
X168338174Y-123487642D01*
X168337000Y-123463750D01*
X168337000Y-122976250D01*
X168338174Y-122952358D01*
X168341684Y-122928697D01*
X168347496Y-122905493D01*
X168355554Y-122882971D01*
X168365782Y-122861347D01*
X168378079Y-122840830D01*
X168392329Y-122821617D01*
X168408393Y-122803893D01*
X168426117Y-122787829D01*
X168445330Y-122773579D01*
X168465847Y-122761282D01*
X168487471Y-122751054D01*
X168509993Y-122742996D01*
X168533197Y-122737184D01*
X168556858Y-122733674D01*
X168580750Y-122732500D01*
X169493250Y-122732500D01*
X169517142Y-122733674D01*
X169517142Y-122733674D01*
G37*
D12*
X169037000Y-123220000D03*
G04 #@! TD*
D10*
G04 #@! TO.C,C8*
G36*
X167358142Y-114351674D02*
X167381803Y-114355184D01*
X167405007Y-114360996D01*
X167427529Y-114369054D01*
X167449153Y-114379282D01*
X167469670Y-114391579D01*
X167488883Y-114405829D01*
X167506607Y-114421893D01*
X167522671Y-114439617D01*
X167536921Y-114458830D01*
X167549218Y-114479347D01*
X167559446Y-114500971D01*
X167567504Y-114523493D01*
X167573316Y-114546697D01*
X167576826Y-114570358D01*
X167578000Y-114594250D01*
X167578000Y-115081750D01*
X167576826Y-115105642D01*
X167573316Y-115129303D01*
X167567504Y-115152507D01*
X167559446Y-115175029D01*
X167549218Y-115196653D01*
X167536921Y-115217170D01*
X167522671Y-115236383D01*
X167506607Y-115254107D01*
X167488883Y-115270171D01*
X167469670Y-115284421D01*
X167449153Y-115296718D01*
X167427529Y-115306946D01*
X167405007Y-115315004D01*
X167381803Y-115320816D01*
X167358142Y-115324326D01*
X167334250Y-115325500D01*
X166421750Y-115325500D01*
X166397858Y-115324326D01*
X166374197Y-115320816D01*
X166350993Y-115315004D01*
X166328471Y-115306946D01*
X166306847Y-115296718D01*
X166286330Y-115284421D01*
X166267117Y-115270171D01*
X166249393Y-115254107D01*
X166233329Y-115236383D01*
X166219079Y-115217170D01*
X166206782Y-115196653D01*
X166196554Y-115175029D01*
X166188496Y-115152507D01*
X166182684Y-115129303D01*
X166179174Y-115105642D01*
X166178000Y-115081750D01*
X166178000Y-114594250D01*
X166179174Y-114570358D01*
X166182684Y-114546697D01*
X166188496Y-114523493D01*
X166196554Y-114500971D01*
X166206782Y-114479347D01*
X166219079Y-114458830D01*
X166233329Y-114439617D01*
X166249393Y-114421893D01*
X166267117Y-114405829D01*
X166286330Y-114391579D01*
X166306847Y-114379282D01*
X166328471Y-114369054D01*
X166350993Y-114360996D01*
X166374197Y-114355184D01*
X166397858Y-114351674D01*
X166421750Y-114350500D01*
X167334250Y-114350500D01*
X167358142Y-114351674D01*
X167358142Y-114351674D01*
G37*
D12*
X166878000Y-114838000D03*
D10*
G36*
X167358142Y-116226674D02*
X167381803Y-116230184D01*
X167405007Y-116235996D01*
X167427529Y-116244054D01*
X167449153Y-116254282D01*
X167469670Y-116266579D01*
X167488883Y-116280829D01*
X167506607Y-116296893D01*
X167522671Y-116314617D01*
X167536921Y-116333830D01*
X167549218Y-116354347D01*
X167559446Y-116375971D01*
X167567504Y-116398493D01*
X167573316Y-116421697D01*
X167576826Y-116445358D01*
X167578000Y-116469250D01*
X167578000Y-116956750D01*
X167576826Y-116980642D01*
X167573316Y-117004303D01*
X167567504Y-117027507D01*
X167559446Y-117050029D01*
X167549218Y-117071653D01*
X167536921Y-117092170D01*
X167522671Y-117111383D01*
X167506607Y-117129107D01*
X167488883Y-117145171D01*
X167469670Y-117159421D01*
X167449153Y-117171718D01*
X167427529Y-117181946D01*
X167405007Y-117190004D01*
X167381803Y-117195816D01*
X167358142Y-117199326D01*
X167334250Y-117200500D01*
X166421750Y-117200500D01*
X166397858Y-117199326D01*
X166374197Y-117195816D01*
X166350993Y-117190004D01*
X166328471Y-117181946D01*
X166306847Y-117171718D01*
X166286330Y-117159421D01*
X166267117Y-117145171D01*
X166249393Y-117129107D01*
X166233329Y-117111383D01*
X166219079Y-117092170D01*
X166206782Y-117071653D01*
X166196554Y-117050029D01*
X166188496Y-117027507D01*
X166182684Y-117004303D01*
X166179174Y-116980642D01*
X166178000Y-116956750D01*
X166178000Y-116469250D01*
X166179174Y-116445358D01*
X166182684Y-116421697D01*
X166188496Y-116398493D01*
X166196554Y-116375971D01*
X166206782Y-116354347D01*
X166219079Y-116333830D01*
X166233329Y-116314617D01*
X166249393Y-116296893D01*
X166267117Y-116280829D01*
X166286330Y-116266579D01*
X166306847Y-116254282D01*
X166328471Y-116244054D01*
X166350993Y-116235996D01*
X166374197Y-116230184D01*
X166397858Y-116226674D01*
X166421750Y-116225500D01*
X167334250Y-116225500D01*
X167358142Y-116226674D01*
X167358142Y-116226674D01*
G37*
D12*
X166878000Y-116713000D03*
G04 #@! TD*
D10*
G04 #@! TO.C,D3*
G36*
X138473642Y-97853174D02*
X138497303Y-97856684D01*
X138520507Y-97862496D01*
X138543029Y-97870554D01*
X138564653Y-97880782D01*
X138585170Y-97893079D01*
X138604383Y-97907329D01*
X138622107Y-97923393D01*
X138638171Y-97941117D01*
X138652421Y-97960330D01*
X138664718Y-97980847D01*
X138674946Y-98002471D01*
X138683004Y-98024993D01*
X138688816Y-98048197D01*
X138692326Y-98071858D01*
X138693500Y-98095750D01*
X138693500Y-99008250D01*
X138692326Y-99032142D01*
X138688816Y-99055803D01*
X138683004Y-99079007D01*
X138674946Y-99101529D01*
X138664718Y-99123153D01*
X138652421Y-99143670D01*
X138638171Y-99162883D01*
X138622107Y-99180607D01*
X138604383Y-99196671D01*
X138585170Y-99210921D01*
X138564653Y-99223218D01*
X138543029Y-99233446D01*
X138520507Y-99241504D01*
X138497303Y-99247316D01*
X138473642Y-99250826D01*
X138449750Y-99252000D01*
X137962250Y-99252000D01*
X137938358Y-99250826D01*
X137914697Y-99247316D01*
X137891493Y-99241504D01*
X137868971Y-99233446D01*
X137847347Y-99223218D01*
X137826830Y-99210921D01*
X137807617Y-99196671D01*
X137789893Y-99180607D01*
X137773829Y-99162883D01*
X137759579Y-99143670D01*
X137747282Y-99123153D01*
X137737054Y-99101529D01*
X137728996Y-99079007D01*
X137723184Y-99055803D01*
X137719674Y-99032142D01*
X137718500Y-99008250D01*
X137718500Y-98095750D01*
X137719674Y-98071858D01*
X137723184Y-98048197D01*
X137728996Y-98024993D01*
X137737054Y-98002471D01*
X137747282Y-97980847D01*
X137759579Y-97960330D01*
X137773829Y-97941117D01*
X137789893Y-97923393D01*
X137807617Y-97907329D01*
X137826830Y-97893079D01*
X137847347Y-97880782D01*
X137868971Y-97870554D01*
X137891493Y-97862496D01*
X137914697Y-97856684D01*
X137938358Y-97853174D01*
X137962250Y-97852000D01*
X138449750Y-97852000D01*
X138473642Y-97853174D01*
X138473642Y-97853174D01*
G37*
D12*
X138206000Y-98552000D03*
D10*
G36*
X140348642Y-97853174D02*
X140372303Y-97856684D01*
X140395507Y-97862496D01*
X140418029Y-97870554D01*
X140439653Y-97880782D01*
X140460170Y-97893079D01*
X140479383Y-97907329D01*
X140497107Y-97923393D01*
X140513171Y-97941117D01*
X140527421Y-97960330D01*
X140539718Y-97980847D01*
X140549946Y-98002471D01*
X140558004Y-98024993D01*
X140563816Y-98048197D01*
X140567326Y-98071858D01*
X140568500Y-98095750D01*
X140568500Y-99008250D01*
X140567326Y-99032142D01*
X140563816Y-99055803D01*
X140558004Y-99079007D01*
X140549946Y-99101529D01*
X140539718Y-99123153D01*
X140527421Y-99143670D01*
X140513171Y-99162883D01*
X140497107Y-99180607D01*
X140479383Y-99196671D01*
X140460170Y-99210921D01*
X140439653Y-99223218D01*
X140418029Y-99233446D01*
X140395507Y-99241504D01*
X140372303Y-99247316D01*
X140348642Y-99250826D01*
X140324750Y-99252000D01*
X139837250Y-99252000D01*
X139813358Y-99250826D01*
X139789697Y-99247316D01*
X139766493Y-99241504D01*
X139743971Y-99233446D01*
X139722347Y-99223218D01*
X139701830Y-99210921D01*
X139682617Y-99196671D01*
X139664893Y-99180607D01*
X139648829Y-99162883D01*
X139634579Y-99143670D01*
X139622282Y-99123153D01*
X139612054Y-99101529D01*
X139603996Y-99079007D01*
X139598184Y-99055803D01*
X139594674Y-99032142D01*
X139593500Y-99008250D01*
X139593500Y-98095750D01*
X139594674Y-98071858D01*
X139598184Y-98048197D01*
X139603996Y-98024993D01*
X139612054Y-98002471D01*
X139622282Y-97980847D01*
X139634579Y-97960330D01*
X139648829Y-97941117D01*
X139664893Y-97923393D01*
X139682617Y-97907329D01*
X139701830Y-97893079D01*
X139722347Y-97880782D01*
X139743971Y-97870554D01*
X139766493Y-97862496D01*
X139789697Y-97856684D01*
X139813358Y-97853174D01*
X139837250Y-97852000D01*
X140324750Y-97852000D01*
X140348642Y-97853174D01*
X140348642Y-97853174D01*
G37*
D12*
X140081000Y-98552000D03*
G04 #@! TD*
D10*
G04 #@! TO.C,D4*
G36*
X167485142Y-90064674D02*
X167508803Y-90068184D01*
X167532007Y-90073996D01*
X167554529Y-90082054D01*
X167576153Y-90092282D01*
X167596670Y-90104579D01*
X167615883Y-90118829D01*
X167633607Y-90134893D01*
X167649671Y-90152617D01*
X167663921Y-90171830D01*
X167676218Y-90192347D01*
X167686446Y-90213971D01*
X167694504Y-90236493D01*
X167700316Y-90259697D01*
X167703826Y-90283358D01*
X167705000Y-90307250D01*
X167705000Y-90794750D01*
X167703826Y-90818642D01*
X167700316Y-90842303D01*
X167694504Y-90865507D01*
X167686446Y-90888029D01*
X167676218Y-90909653D01*
X167663921Y-90930170D01*
X167649671Y-90949383D01*
X167633607Y-90967107D01*
X167615883Y-90983171D01*
X167596670Y-90997421D01*
X167576153Y-91009718D01*
X167554529Y-91019946D01*
X167532007Y-91028004D01*
X167508803Y-91033816D01*
X167485142Y-91037326D01*
X167461250Y-91038500D01*
X166548750Y-91038500D01*
X166524858Y-91037326D01*
X166501197Y-91033816D01*
X166477993Y-91028004D01*
X166455471Y-91019946D01*
X166433847Y-91009718D01*
X166413330Y-90997421D01*
X166394117Y-90983171D01*
X166376393Y-90967107D01*
X166360329Y-90949383D01*
X166346079Y-90930170D01*
X166333782Y-90909653D01*
X166323554Y-90888029D01*
X166315496Y-90865507D01*
X166309684Y-90842303D01*
X166306174Y-90818642D01*
X166305000Y-90794750D01*
X166305000Y-90307250D01*
X166306174Y-90283358D01*
X166309684Y-90259697D01*
X166315496Y-90236493D01*
X166323554Y-90213971D01*
X166333782Y-90192347D01*
X166346079Y-90171830D01*
X166360329Y-90152617D01*
X166376393Y-90134893D01*
X166394117Y-90118829D01*
X166413330Y-90104579D01*
X166433847Y-90092282D01*
X166455471Y-90082054D01*
X166477993Y-90073996D01*
X166501197Y-90068184D01*
X166524858Y-90064674D01*
X166548750Y-90063500D01*
X167461250Y-90063500D01*
X167485142Y-90064674D01*
X167485142Y-90064674D01*
G37*
D12*
X167005000Y-90551000D03*
D10*
G36*
X167485142Y-91939674D02*
X167508803Y-91943184D01*
X167532007Y-91948996D01*
X167554529Y-91957054D01*
X167576153Y-91967282D01*
X167596670Y-91979579D01*
X167615883Y-91993829D01*
X167633607Y-92009893D01*
X167649671Y-92027617D01*
X167663921Y-92046830D01*
X167676218Y-92067347D01*
X167686446Y-92088971D01*
X167694504Y-92111493D01*
X167700316Y-92134697D01*
X167703826Y-92158358D01*
X167705000Y-92182250D01*
X167705000Y-92669750D01*
X167703826Y-92693642D01*
X167700316Y-92717303D01*
X167694504Y-92740507D01*
X167686446Y-92763029D01*
X167676218Y-92784653D01*
X167663921Y-92805170D01*
X167649671Y-92824383D01*
X167633607Y-92842107D01*
X167615883Y-92858171D01*
X167596670Y-92872421D01*
X167576153Y-92884718D01*
X167554529Y-92894946D01*
X167532007Y-92903004D01*
X167508803Y-92908816D01*
X167485142Y-92912326D01*
X167461250Y-92913500D01*
X166548750Y-92913500D01*
X166524858Y-92912326D01*
X166501197Y-92908816D01*
X166477993Y-92903004D01*
X166455471Y-92894946D01*
X166433847Y-92884718D01*
X166413330Y-92872421D01*
X166394117Y-92858171D01*
X166376393Y-92842107D01*
X166360329Y-92824383D01*
X166346079Y-92805170D01*
X166333782Y-92784653D01*
X166323554Y-92763029D01*
X166315496Y-92740507D01*
X166309684Y-92717303D01*
X166306174Y-92693642D01*
X166305000Y-92669750D01*
X166305000Y-92182250D01*
X166306174Y-92158358D01*
X166309684Y-92134697D01*
X166315496Y-92111493D01*
X166323554Y-92088971D01*
X166333782Y-92067347D01*
X166346079Y-92046830D01*
X166360329Y-92027617D01*
X166376393Y-92009893D01*
X166394117Y-91993829D01*
X166413330Y-91979579D01*
X166433847Y-91967282D01*
X166455471Y-91957054D01*
X166477993Y-91948996D01*
X166501197Y-91943184D01*
X166524858Y-91939674D01*
X166548750Y-91938500D01*
X167461250Y-91938500D01*
X167485142Y-91939674D01*
X167485142Y-91939674D01*
G37*
D12*
X167005000Y-92426000D03*
G04 #@! TD*
D13*
G04 #@! TO.C,J4*
X176878500Y-100092000D03*
D14*
X174178500Y-101742000D03*
X174178500Y-102392000D03*
X174178500Y-99792000D03*
X174178500Y-100442000D03*
X174178500Y-101092000D03*
D13*
X176878500Y-102092000D03*
G04 #@! TD*
D10*
G04 #@! TO.C,R6*
G36*
X171676142Y-124608674D02*
X171699803Y-124612184D01*
X171723007Y-124617996D01*
X171745529Y-124626054D01*
X171767153Y-124636282D01*
X171787670Y-124648579D01*
X171806883Y-124662829D01*
X171824607Y-124678893D01*
X171840671Y-124696617D01*
X171854921Y-124715830D01*
X171867218Y-124736347D01*
X171877446Y-124757971D01*
X171885504Y-124780493D01*
X171891316Y-124803697D01*
X171894826Y-124827358D01*
X171896000Y-124851250D01*
X171896000Y-125338750D01*
X171894826Y-125362642D01*
X171891316Y-125386303D01*
X171885504Y-125409507D01*
X171877446Y-125432029D01*
X171867218Y-125453653D01*
X171854921Y-125474170D01*
X171840671Y-125493383D01*
X171824607Y-125511107D01*
X171806883Y-125527171D01*
X171787670Y-125541421D01*
X171767153Y-125553718D01*
X171745529Y-125563946D01*
X171723007Y-125572004D01*
X171699803Y-125577816D01*
X171676142Y-125581326D01*
X171652250Y-125582500D01*
X170739750Y-125582500D01*
X170715858Y-125581326D01*
X170692197Y-125577816D01*
X170668993Y-125572004D01*
X170646471Y-125563946D01*
X170624847Y-125553718D01*
X170604330Y-125541421D01*
X170585117Y-125527171D01*
X170567393Y-125511107D01*
X170551329Y-125493383D01*
X170537079Y-125474170D01*
X170524782Y-125453653D01*
X170514554Y-125432029D01*
X170506496Y-125409507D01*
X170500684Y-125386303D01*
X170497174Y-125362642D01*
X170496000Y-125338750D01*
X170496000Y-124851250D01*
X170497174Y-124827358D01*
X170500684Y-124803697D01*
X170506496Y-124780493D01*
X170514554Y-124757971D01*
X170524782Y-124736347D01*
X170537079Y-124715830D01*
X170551329Y-124696617D01*
X170567393Y-124678893D01*
X170585117Y-124662829D01*
X170604330Y-124648579D01*
X170624847Y-124636282D01*
X170646471Y-124626054D01*
X170668993Y-124617996D01*
X170692197Y-124612184D01*
X170715858Y-124608674D01*
X170739750Y-124607500D01*
X171652250Y-124607500D01*
X171676142Y-124608674D01*
X171676142Y-124608674D01*
G37*
D12*
X171196000Y-125095000D03*
D10*
G36*
X171676142Y-122733674D02*
X171699803Y-122737184D01*
X171723007Y-122742996D01*
X171745529Y-122751054D01*
X171767153Y-122761282D01*
X171787670Y-122773579D01*
X171806883Y-122787829D01*
X171824607Y-122803893D01*
X171840671Y-122821617D01*
X171854921Y-122840830D01*
X171867218Y-122861347D01*
X171877446Y-122882971D01*
X171885504Y-122905493D01*
X171891316Y-122928697D01*
X171894826Y-122952358D01*
X171896000Y-122976250D01*
X171896000Y-123463750D01*
X171894826Y-123487642D01*
X171891316Y-123511303D01*
X171885504Y-123534507D01*
X171877446Y-123557029D01*
X171867218Y-123578653D01*
X171854921Y-123599170D01*
X171840671Y-123618383D01*
X171824607Y-123636107D01*
X171806883Y-123652171D01*
X171787670Y-123666421D01*
X171767153Y-123678718D01*
X171745529Y-123688946D01*
X171723007Y-123697004D01*
X171699803Y-123702816D01*
X171676142Y-123706326D01*
X171652250Y-123707500D01*
X170739750Y-123707500D01*
X170715858Y-123706326D01*
X170692197Y-123702816D01*
X170668993Y-123697004D01*
X170646471Y-123688946D01*
X170624847Y-123678718D01*
X170604330Y-123666421D01*
X170585117Y-123652171D01*
X170567393Y-123636107D01*
X170551329Y-123618383D01*
X170537079Y-123599170D01*
X170524782Y-123578653D01*
X170514554Y-123557029D01*
X170506496Y-123534507D01*
X170500684Y-123511303D01*
X170497174Y-123487642D01*
X170496000Y-123463750D01*
X170496000Y-122976250D01*
X170497174Y-122952358D01*
X170500684Y-122928697D01*
X170506496Y-122905493D01*
X170514554Y-122882971D01*
X170524782Y-122861347D01*
X170537079Y-122840830D01*
X170551329Y-122821617D01*
X170567393Y-122803893D01*
X170585117Y-122787829D01*
X170604330Y-122773579D01*
X170624847Y-122761282D01*
X170646471Y-122751054D01*
X170668993Y-122742996D01*
X170692197Y-122737184D01*
X170715858Y-122733674D01*
X170739750Y-122732500D01*
X171652250Y-122732500D01*
X171676142Y-122733674D01*
X171676142Y-122733674D01*
G37*
D12*
X171196000Y-123220000D03*
G04 #@! TD*
D10*
G04 #@! TO.C,R7*
G36*
X175486142Y-118766674D02*
X175509803Y-118770184D01*
X175533007Y-118775996D01*
X175555529Y-118784054D01*
X175577153Y-118794282D01*
X175597670Y-118806579D01*
X175616883Y-118820829D01*
X175634607Y-118836893D01*
X175650671Y-118854617D01*
X175664921Y-118873830D01*
X175677218Y-118894347D01*
X175687446Y-118915971D01*
X175695504Y-118938493D01*
X175701316Y-118961697D01*
X175704826Y-118985358D01*
X175706000Y-119009250D01*
X175706000Y-119496750D01*
X175704826Y-119520642D01*
X175701316Y-119544303D01*
X175695504Y-119567507D01*
X175687446Y-119590029D01*
X175677218Y-119611653D01*
X175664921Y-119632170D01*
X175650671Y-119651383D01*
X175634607Y-119669107D01*
X175616883Y-119685171D01*
X175597670Y-119699421D01*
X175577153Y-119711718D01*
X175555529Y-119721946D01*
X175533007Y-119730004D01*
X175509803Y-119735816D01*
X175486142Y-119739326D01*
X175462250Y-119740500D01*
X174549750Y-119740500D01*
X174525858Y-119739326D01*
X174502197Y-119735816D01*
X174478993Y-119730004D01*
X174456471Y-119721946D01*
X174434847Y-119711718D01*
X174414330Y-119699421D01*
X174395117Y-119685171D01*
X174377393Y-119669107D01*
X174361329Y-119651383D01*
X174347079Y-119632170D01*
X174334782Y-119611653D01*
X174324554Y-119590029D01*
X174316496Y-119567507D01*
X174310684Y-119544303D01*
X174307174Y-119520642D01*
X174306000Y-119496750D01*
X174306000Y-119009250D01*
X174307174Y-118985358D01*
X174310684Y-118961697D01*
X174316496Y-118938493D01*
X174324554Y-118915971D01*
X174334782Y-118894347D01*
X174347079Y-118873830D01*
X174361329Y-118854617D01*
X174377393Y-118836893D01*
X174395117Y-118820829D01*
X174414330Y-118806579D01*
X174434847Y-118794282D01*
X174456471Y-118784054D01*
X174478993Y-118775996D01*
X174502197Y-118770184D01*
X174525858Y-118766674D01*
X174549750Y-118765500D01*
X175462250Y-118765500D01*
X175486142Y-118766674D01*
X175486142Y-118766674D01*
G37*
D12*
X175006000Y-119253000D03*
D10*
G36*
X175486142Y-120641674D02*
X175509803Y-120645184D01*
X175533007Y-120650996D01*
X175555529Y-120659054D01*
X175577153Y-120669282D01*
X175597670Y-120681579D01*
X175616883Y-120695829D01*
X175634607Y-120711893D01*
X175650671Y-120729617D01*
X175664921Y-120748830D01*
X175677218Y-120769347D01*
X175687446Y-120790971D01*
X175695504Y-120813493D01*
X175701316Y-120836697D01*
X175704826Y-120860358D01*
X175706000Y-120884250D01*
X175706000Y-121371750D01*
X175704826Y-121395642D01*
X175701316Y-121419303D01*
X175695504Y-121442507D01*
X175687446Y-121465029D01*
X175677218Y-121486653D01*
X175664921Y-121507170D01*
X175650671Y-121526383D01*
X175634607Y-121544107D01*
X175616883Y-121560171D01*
X175597670Y-121574421D01*
X175577153Y-121586718D01*
X175555529Y-121596946D01*
X175533007Y-121605004D01*
X175509803Y-121610816D01*
X175486142Y-121614326D01*
X175462250Y-121615500D01*
X174549750Y-121615500D01*
X174525858Y-121614326D01*
X174502197Y-121610816D01*
X174478993Y-121605004D01*
X174456471Y-121596946D01*
X174434847Y-121586718D01*
X174414330Y-121574421D01*
X174395117Y-121560171D01*
X174377393Y-121544107D01*
X174361329Y-121526383D01*
X174347079Y-121507170D01*
X174334782Y-121486653D01*
X174324554Y-121465029D01*
X174316496Y-121442507D01*
X174310684Y-121419303D01*
X174307174Y-121395642D01*
X174306000Y-121371750D01*
X174306000Y-120884250D01*
X174307174Y-120860358D01*
X174310684Y-120836697D01*
X174316496Y-120813493D01*
X174324554Y-120790971D01*
X174334782Y-120769347D01*
X174347079Y-120748830D01*
X174361329Y-120729617D01*
X174377393Y-120711893D01*
X174395117Y-120695829D01*
X174414330Y-120681579D01*
X174434847Y-120669282D01*
X174456471Y-120659054D01*
X174478993Y-120650996D01*
X174502197Y-120645184D01*
X174525858Y-120641674D01*
X174549750Y-120640500D01*
X175462250Y-120640500D01*
X175486142Y-120641674D01*
X175486142Y-120641674D01*
G37*
D12*
X175006000Y-121128000D03*
G04 #@! TD*
D10*
G04 #@! TO.C,R8*
G36*
X177645142Y-120641674D02*
X177668803Y-120645184D01*
X177692007Y-120650996D01*
X177714529Y-120659054D01*
X177736153Y-120669282D01*
X177756670Y-120681579D01*
X177775883Y-120695829D01*
X177793607Y-120711893D01*
X177809671Y-120729617D01*
X177823921Y-120748830D01*
X177836218Y-120769347D01*
X177846446Y-120790971D01*
X177854504Y-120813493D01*
X177860316Y-120836697D01*
X177863826Y-120860358D01*
X177865000Y-120884250D01*
X177865000Y-121371750D01*
X177863826Y-121395642D01*
X177860316Y-121419303D01*
X177854504Y-121442507D01*
X177846446Y-121465029D01*
X177836218Y-121486653D01*
X177823921Y-121507170D01*
X177809671Y-121526383D01*
X177793607Y-121544107D01*
X177775883Y-121560171D01*
X177756670Y-121574421D01*
X177736153Y-121586718D01*
X177714529Y-121596946D01*
X177692007Y-121605004D01*
X177668803Y-121610816D01*
X177645142Y-121614326D01*
X177621250Y-121615500D01*
X176708750Y-121615500D01*
X176684858Y-121614326D01*
X176661197Y-121610816D01*
X176637993Y-121605004D01*
X176615471Y-121596946D01*
X176593847Y-121586718D01*
X176573330Y-121574421D01*
X176554117Y-121560171D01*
X176536393Y-121544107D01*
X176520329Y-121526383D01*
X176506079Y-121507170D01*
X176493782Y-121486653D01*
X176483554Y-121465029D01*
X176475496Y-121442507D01*
X176469684Y-121419303D01*
X176466174Y-121395642D01*
X176465000Y-121371750D01*
X176465000Y-120884250D01*
X176466174Y-120860358D01*
X176469684Y-120836697D01*
X176475496Y-120813493D01*
X176483554Y-120790971D01*
X176493782Y-120769347D01*
X176506079Y-120748830D01*
X176520329Y-120729617D01*
X176536393Y-120711893D01*
X176554117Y-120695829D01*
X176573330Y-120681579D01*
X176593847Y-120669282D01*
X176615471Y-120659054D01*
X176637993Y-120650996D01*
X176661197Y-120645184D01*
X176684858Y-120641674D01*
X176708750Y-120640500D01*
X177621250Y-120640500D01*
X177645142Y-120641674D01*
X177645142Y-120641674D01*
G37*
D12*
X177165000Y-121128000D03*
D10*
G36*
X177645142Y-118766674D02*
X177668803Y-118770184D01*
X177692007Y-118775996D01*
X177714529Y-118784054D01*
X177736153Y-118794282D01*
X177756670Y-118806579D01*
X177775883Y-118820829D01*
X177793607Y-118836893D01*
X177809671Y-118854617D01*
X177823921Y-118873830D01*
X177836218Y-118894347D01*
X177846446Y-118915971D01*
X177854504Y-118938493D01*
X177860316Y-118961697D01*
X177863826Y-118985358D01*
X177865000Y-119009250D01*
X177865000Y-119496750D01*
X177863826Y-119520642D01*
X177860316Y-119544303D01*
X177854504Y-119567507D01*
X177846446Y-119590029D01*
X177836218Y-119611653D01*
X177823921Y-119632170D01*
X177809671Y-119651383D01*
X177793607Y-119669107D01*
X177775883Y-119685171D01*
X177756670Y-119699421D01*
X177736153Y-119711718D01*
X177714529Y-119721946D01*
X177692007Y-119730004D01*
X177668803Y-119735816D01*
X177645142Y-119739326D01*
X177621250Y-119740500D01*
X176708750Y-119740500D01*
X176684858Y-119739326D01*
X176661197Y-119735816D01*
X176637993Y-119730004D01*
X176615471Y-119721946D01*
X176593847Y-119711718D01*
X176573330Y-119699421D01*
X176554117Y-119685171D01*
X176536393Y-119669107D01*
X176520329Y-119651383D01*
X176506079Y-119632170D01*
X176493782Y-119611653D01*
X176483554Y-119590029D01*
X176475496Y-119567507D01*
X176469684Y-119544303D01*
X176466174Y-119520642D01*
X176465000Y-119496750D01*
X176465000Y-119009250D01*
X176466174Y-118985358D01*
X176469684Y-118961697D01*
X176475496Y-118938493D01*
X176483554Y-118915971D01*
X176493782Y-118894347D01*
X176506079Y-118873830D01*
X176520329Y-118854617D01*
X176536393Y-118836893D01*
X176554117Y-118820829D01*
X176573330Y-118806579D01*
X176593847Y-118794282D01*
X176615471Y-118784054D01*
X176637993Y-118775996D01*
X176661197Y-118770184D01*
X176684858Y-118766674D01*
X176708750Y-118765500D01*
X177621250Y-118765500D01*
X177645142Y-118766674D01*
X177645142Y-118766674D01*
G37*
D12*
X177165000Y-119253000D03*
G04 #@! TD*
D10*
G04 #@! TO.C,R9*
G36*
X167358142Y-119655674D02*
X167381803Y-119659184D01*
X167405007Y-119664996D01*
X167427529Y-119673054D01*
X167449153Y-119683282D01*
X167469670Y-119695579D01*
X167488883Y-119709829D01*
X167506607Y-119725893D01*
X167522671Y-119743617D01*
X167536921Y-119762830D01*
X167549218Y-119783347D01*
X167559446Y-119804971D01*
X167567504Y-119827493D01*
X167573316Y-119850697D01*
X167576826Y-119874358D01*
X167578000Y-119898250D01*
X167578000Y-120385750D01*
X167576826Y-120409642D01*
X167573316Y-120433303D01*
X167567504Y-120456507D01*
X167559446Y-120479029D01*
X167549218Y-120500653D01*
X167536921Y-120521170D01*
X167522671Y-120540383D01*
X167506607Y-120558107D01*
X167488883Y-120574171D01*
X167469670Y-120588421D01*
X167449153Y-120600718D01*
X167427529Y-120610946D01*
X167405007Y-120619004D01*
X167381803Y-120624816D01*
X167358142Y-120628326D01*
X167334250Y-120629500D01*
X166421750Y-120629500D01*
X166397858Y-120628326D01*
X166374197Y-120624816D01*
X166350993Y-120619004D01*
X166328471Y-120610946D01*
X166306847Y-120600718D01*
X166286330Y-120588421D01*
X166267117Y-120574171D01*
X166249393Y-120558107D01*
X166233329Y-120540383D01*
X166219079Y-120521170D01*
X166206782Y-120500653D01*
X166196554Y-120479029D01*
X166188496Y-120456507D01*
X166182684Y-120433303D01*
X166179174Y-120409642D01*
X166178000Y-120385750D01*
X166178000Y-119898250D01*
X166179174Y-119874358D01*
X166182684Y-119850697D01*
X166188496Y-119827493D01*
X166196554Y-119804971D01*
X166206782Y-119783347D01*
X166219079Y-119762830D01*
X166233329Y-119743617D01*
X166249393Y-119725893D01*
X166267117Y-119709829D01*
X166286330Y-119695579D01*
X166306847Y-119683282D01*
X166328471Y-119673054D01*
X166350993Y-119664996D01*
X166374197Y-119659184D01*
X166397858Y-119655674D01*
X166421750Y-119654500D01*
X167334250Y-119654500D01*
X167358142Y-119655674D01*
X167358142Y-119655674D01*
G37*
D12*
X166878000Y-120142000D03*
D10*
G36*
X167358142Y-121530674D02*
X167381803Y-121534184D01*
X167405007Y-121539996D01*
X167427529Y-121548054D01*
X167449153Y-121558282D01*
X167469670Y-121570579D01*
X167488883Y-121584829D01*
X167506607Y-121600893D01*
X167522671Y-121618617D01*
X167536921Y-121637830D01*
X167549218Y-121658347D01*
X167559446Y-121679971D01*
X167567504Y-121702493D01*
X167573316Y-121725697D01*
X167576826Y-121749358D01*
X167578000Y-121773250D01*
X167578000Y-122260750D01*
X167576826Y-122284642D01*
X167573316Y-122308303D01*
X167567504Y-122331507D01*
X167559446Y-122354029D01*
X167549218Y-122375653D01*
X167536921Y-122396170D01*
X167522671Y-122415383D01*
X167506607Y-122433107D01*
X167488883Y-122449171D01*
X167469670Y-122463421D01*
X167449153Y-122475718D01*
X167427529Y-122485946D01*
X167405007Y-122494004D01*
X167381803Y-122499816D01*
X167358142Y-122503326D01*
X167334250Y-122504500D01*
X166421750Y-122504500D01*
X166397858Y-122503326D01*
X166374197Y-122499816D01*
X166350993Y-122494004D01*
X166328471Y-122485946D01*
X166306847Y-122475718D01*
X166286330Y-122463421D01*
X166267117Y-122449171D01*
X166249393Y-122433107D01*
X166233329Y-122415383D01*
X166219079Y-122396170D01*
X166206782Y-122375653D01*
X166196554Y-122354029D01*
X166188496Y-122331507D01*
X166182684Y-122308303D01*
X166179174Y-122284642D01*
X166178000Y-122260750D01*
X166178000Y-121773250D01*
X166179174Y-121749358D01*
X166182684Y-121725697D01*
X166188496Y-121702493D01*
X166196554Y-121679971D01*
X166206782Y-121658347D01*
X166219079Y-121637830D01*
X166233329Y-121618617D01*
X166249393Y-121600893D01*
X166267117Y-121584829D01*
X166286330Y-121570579D01*
X166306847Y-121558282D01*
X166328471Y-121548054D01*
X166350993Y-121539996D01*
X166374197Y-121534184D01*
X166397858Y-121530674D01*
X166421750Y-121529500D01*
X167334250Y-121529500D01*
X167358142Y-121530674D01*
X167358142Y-121530674D01*
G37*
D12*
X166878000Y-122017000D03*
G04 #@! TD*
D10*
G04 #@! TO.C,R10*
G36*
X167358142Y-110795674D02*
X167381803Y-110799184D01*
X167405007Y-110804996D01*
X167427529Y-110813054D01*
X167449153Y-110823282D01*
X167469670Y-110835579D01*
X167488883Y-110849829D01*
X167506607Y-110865893D01*
X167522671Y-110883617D01*
X167536921Y-110902830D01*
X167549218Y-110923347D01*
X167559446Y-110944971D01*
X167567504Y-110967493D01*
X167573316Y-110990697D01*
X167576826Y-111014358D01*
X167578000Y-111038250D01*
X167578000Y-111525750D01*
X167576826Y-111549642D01*
X167573316Y-111573303D01*
X167567504Y-111596507D01*
X167559446Y-111619029D01*
X167549218Y-111640653D01*
X167536921Y-111661170D01*
X167522671Y-111680383D01*
X167506607Y-111698107D01*
X167488883Y-111714171D01*
X167469670Y-111728421D01*
X167449153Y-111740718D01*
X167427529Y-111750946D01*
X167405007Y-111759004D01*
X167381803Y-111764816D01*
X167358142Y-111768326D01*
X167334250Y-111769500D01*
X166421750Y-111769500D01*
X166397858Y-111768326D01*
X166374197Y-111764816D01*
X166350993Y-111759004D01*
X166328471Y-111750946D01*
X166306847Y-111740718D01*
X166286330Y-111728421D01*
X166267117Y-111714171D01*
X166249393Y-111698107D01*
X166233329Y-111680383D01*
X166219079Y-111661170D01*
X166206782Y-111640653D01*
X166196554Y-111619029D01*
X166188496Y-111596507D01*
X166182684Y-111573303D01*
X166179174Y-111549642D01*
X166178000Y-111525750D01*
X166178000Y-111038250D01*
X166179174Y-111014358D01*
X166182684Y-110990697D01*
X166188496Y-110967493D01*
X166196554Y-110944971D01*
X166206782Y-110923347D01*
X166219079Y-110902830D01*
X166233329Y-110883617D01*
X166249393Y-110865893D01*
X166267117Y-110849829D01*
X166286330Y-110835579D01*
X166306847Y-110823282D01*
X166328471Y-110813054D01*
X166350993Y-110804996D01*
X166374197Y-110799184D01*
X166397858Y-110795674D01*
X166421750Y-110794500D01*
X167334250Y-110794500D01*
X167358142Y-110795674D01*
X167358142Y-110795674D01*
G37*
D12*
X166878000Y-111282000D03*
D10*
G36*
X167358142Y-112670674D02*
X167381803Y-112674184D01*
X167405007Y-112679996D01*
X167427529Y-112688054D01*
X167449153Y-112698282D01*
X167469670Y-112710579D01*
X167488883Y-112724829D01*
X167506607Y-112740893D01*
X167522671Y-112758617D01*
X167536921Y-112777830D01*
X167549218Y-112798347D01*
X167559446Y-112819971D01*
X167567504Y-112842493D01*
X167573316Y-112865697D01*
X167576826Y-112889358D01*
X167578000Y-112913250D01*
X167578000Y-113400750D01*
X167576826Y-113424642D01*
X167573316Y-113448303D01*
X167567504Y-113471507D01*
X167559446Y-113494029D01*
X167549218Y-113515653D01*
X167536921Y-113536170D01*
X167522671Y-113555383D01*
X167506607Y-113573107D01*
X167488883Y-113589171D01*
X167469670Y-113603421D01*
X167449153Y-113615718D01*
X167427529Y-113625946D01*
X167405007Y-113634004D01*
X167381803Y-113639816D01*
X167358142Y-113643326D01*
X167334250Y-113644500D01*
X166421750Y-113644500D01*
X166397858Y-113643326D01*
X166374197Y-113639816D01*
X166350993Y-113634004D01*
X166328471Y-113625946D01*
X166306847Y-113615718D01*
X166286330Y-113603421D01*
X166267117Y-113589171D01*
X166249393Y-113573107D01*
X166233329Y-113555383D01*
X166219079Y-113536170D01*
X166206782Y-113515653D01*
X166196554Y-113494029D01*
X166188496Y-113471507D01*
X166182684Y-113448303D01*
X166179174Y-113424642D01*
X166178000Y-113400750D01*
X166178000Y-112913250D01*
X166179174Y-112889358D01*
X166182684Y-112865697D01*
X166188496Y-112842493D01*
X166196554Y-112819971D01*
X166206782Y-112798347D01*
X166219079Y-112777830D01*
X166233329Y-112758617D01*
X166249393Y-112740893D01*
X166267117Y-112724829D01*
X166286330Y-112710579D01*
X166306847Y-112698282D01*
X166328471Y-112688054D01*
X166350993Y-112679996D01*
X166374197Y-112674184D01*
X166397858Y-112670674D01*
X166421750Y-112669500D01*
X167334250Y-112669500D01*
X167358142Y-112670674D01*
X167358142Y-112670674D01*
G37*
D12*
X166878000Y-113157000D03*
G04 #@! TD*
D10*
G04 #@! TO.C,R11*
G36*
X167358142Y-109114674D02*
X167381803Y-109118184D01*
X167405007Y-109123996D01*
X167427529Y-109132054D01*
X167449153Y-109142282D01*
X167469670Y-109154579D01*
X167488883Y-109168829D01*
X167506607Y-109184893D01*
X167522671Y-109202617D01*
X167536921Y-109221830D01*
X167549218Y-109242347D01*
X167559446Y-109263971D01*
X167567504Y-109286493D01*
X167573316Y-109309697D01*
X167576826Y-109333358D01*
X167578000Y-109357250D01*
X167578000Y-109844750D01*
X167576826Y-109868642D01*
X167573316Y-109892303D01*
X167567504Y-109915507D01*
X167559446Y-109938029D01*
X167549218Y-109959653D01*
X167536921Y-109980170D01*
X167522671Y-109999383D01*
X167506607Y-110017107D01*
X167488883Y-110033171D01*
X167469670Y-110047421D01*
X167449153Y-110059718D01*
X167427529Y-110069946D01*
X167405007Y-110078004D01*
X167381803Y-110083816D01*
X167358142Y-110087326D01*
X167334250Y-110088500D01*
X166421750Y-110088500D01*
X166397858Y-110087326D01*
X166374197Y-110083816D01*
X166350993Y-110078004D01*
X166328471Y-110069946D01*
X166306847Y-110059718D01*
X166286330Y-110047421D01*
X166267117Y-110033171D01*
X166249393Y-110017107D01*
X166233329Y-109999383D01*
X166219079Y-109980170D01*
X166206782Y-109959653D01*
X166196554Y-109938029D01*
X166188496Y-109915507D01*
X166182684Y-109892303D01*
X166179174Y-109868642D01*
X166178000Y-109844750D01*
X166178000Y-109357250D01*
X166179174Y-109333358D01*
X166182684Y-109309697D01*
X166188496Y-109286493D01*
X166196554Y-109263971D01*
X166206782Y-109242347D01*
X166219079Y-109221830D01*
X166233329Y-109202617D01*
X166249393Y-109184893D01*
X166267117Y-109168829D01*
X166286330Y-109154579D01*
X166306847Y-109142282D01*
X166328471Y-109132054D01*
X166350993Y-109123996D01*
X166374197Y-109118184D01*
X166397858Y-109114674D01*
X166421750Y-109113500D01*
X167334250Y-109113500D01*
X167358142Y-109114674D01*
X167358142Y-109114674D01*
G37*
D12*
X166878000Y-109601000D03*
D10*
G36*
X167358142Y-107239674D02*
X167381803Y-107243184D01*
X167405007Y-107248996D01*
X167427529Y-107257054D01*
X167449153Y-107267282D01*
X167469670Y-107279579D01*
X167488883Y-107293829D01*
X167506607Y-107309893D01*
X167522671Y-107327617D01*
X167536921Y-107346830D01*
X167549218Y-107367347D01*
X167559446Y-107388971D01*
X167567504Y-107411493D01*
X167573316Y-107434697D01*
X167576826Y-107458358D01*
X167578000Y-107482250D01*
X167578000Y-107969750D01*
X167576826Y-107993642D01*
X167573316Y-108017303D01*
X167567504Y-108040507D01*
X167559446Y-108063029D01*
X167549218Y-108084653D01*
X167536921Y-108105170D01*
X167522671Y-108124383D01*
X167506607Y-108142107D01*
X167488883Y-108158171D01*
X167469670Y-108172421D01*
X167449153Y-108184718D01*
X167427529Y-108194946D01*
X167405007Y-108203004D01*
X167381803Y-108208816D01*
X167358142Y-108212326D01*
X167334250Y-108213500D01*
X166421750Y-108213500D01*
X166397858Y-108212326D01*
X166374197Y-108208816D01*
X166350993Y-108203004D01*
X166328471Y-108194946D01*
X166306847Y-108184718D01*
X166286330Y-108172421D01*
X166267117Y-108158171D01*
X166249393Y-108142107D01*
X166233329Y-108124383D01*
X166219079Y-108105170D01*
X166206782Y-108084653D01*
X166196554Y-108063029D01*
X166188496Y-108040507D01*
X166182684Y-108017303D01*
X166179174Y-107993642D01*
X166178000Y-107969750D01*
X166178000Y-107482250D01*
X166179174Y-107458358D01*
X166182684Y-107434697D01*
X166188496Y-107411493D01*
X166196554Y-107388971D01*
X166206782Y-107367347D01*
X166219079Y-107346830D01*
X166233329Y-107327617D01*
X166249393Y-107309893D01*
X166267117Y-107293829D01*
X166286330Y-107279579D01*
X166306847Y-107267282D01*
X166328471Y-107257054D01*
X166350993Y-107248996D01*
X166374197Y-107243184D01*
X166397858Y-107239674D01*
X166421750Y-107238500D01*
X167334250Y-107238500D01*
X167358142Y-107239674D01*
X167358142Y-107239674D01*
G37*
D12*
X166878000Y-107726000D03*
G04 #@! TD*
D10*
G04 #@! TO.C,R12*
G36*
X142126642Y-97853174D02*
X142150303Y-97856684D01*
X142173507Y-97862496D01*
X142196029Y-97870554D01*
X142217653Y-97880782D01*
X142238170Y-97893079D01*
X142257383Y-97907329D01*
X142275107Y-97923393D01*
X142291171Y-97941117D01*
X142305421Y-97960330D01*
X142317718Y-97980847D01*
X142327946Y-98002471D01*
X142336004Y-98024993D01*
X142341816Y-98048197D01*
X142345326Y-98071858D01*
X142346500Y-98095750D01*
X142346500Y-99008250D01*
X142345326Y-99032142D01*
X142341816Y-99055803D01*
X142336004Y-99079007D01*
X142327946Y-99101529D01*
X142317718Y-99123153D01*
X142305421Y-99143670D01*
X142291171Y-99162883D01*
X142275107Y-99180607D01*
X142257383Y-99196671D01*
X142238170Y-99210921D01*
X142217653Y-99223218D01*
X142196029Y-99233446D01*
X142173507Y-99241504D01*
X142150303Y-99247316D01*
X142126642Y-99250826D01*
X142102750Y-99252000D01*
X141615250Y-99252000D01*
X141591358Y-99250826D01*
X141567697Y-99247316D01*
X141544493Y-99241504D01*
X141521971Y-99233446D01*
X141500347Y-99223218D01*
X141479830Y-99210921D01*
X141460617Y-99196671D01*
X141442893Y-99180607D01*
X141426829Y-99162883D01*
X141412579Y-99143670D01*
X141400282Y-99123153D01*
X141390054Y-99101529D01*
X141381996Y-99079007D01*
X141376184Y-99055803D01*
X141372674Y-99032142D01*
X141371500Y-99008250D01*
X141371500Y-98095750D01*
X141372674Y-98071858D01*
X141376184Y-98048197D01*
X141381996Y-98024993D01*
X141390054Y-98002471D01*
X141400282Y-97980847D01*
X141412579Y-97960330D01*
X141426829Y-97941117D01*
X141442893Y-97923393D01*
X141460617Y-97907329D01*
X141479830Y-97893079D01*
X141500347Y-97880782D01*
X141521971Y-97870554D01*
X141544493Y-97862496D01*
X141567697Y-97856684D01*
X141591358Y-97853174D01*
X141615250Y-97852000D01*
X142102750Y-97852000D01*
X142126642Y-97853174D01*
X142126642Y-97853174D01*
G37*
D12*
X141859000Y-98552000D03*
D10*
G36*
X144001642Y-97853174D02*
X144025303Y-97856684D01*
X144048507Y-97862496D01*
X144071029Y-97870554D01*
X144092653Y-97880782D01*
X144113170Y-97893079D01*
X144132383Y-97907329D01*
X144150107Y-97923393D01*
X144166171Y-97941117D01*
X144180421Y-97960330D01*
X144192718Y-97980847D01*
X144202946Y-98002471D01*
X144211004Y-98024993D01*
X144216816Y-98048197D01*
X144220326Y-98071858D01*
X144221500Y-98095750D01*
X144221500Y-99008250D01*
X144220326Y-99032142D01*
X144216816Y-99055803D01*
X144211004Y-99079007D01*
X144202946Y-99101529D01*
X144192718Y-99123153D01*
X144180421Y-99143670D01*
X144166171Y-99162883D01*
X144150107Y-99180607D01*
X144132383Y-99196671D01*
X144113170Y-99210921D01*
X144092653Y-99223218D01*
X144071029Y-99233446D01*
X144048507Y-99241504D01*
X144025303Y-99247316D01*
X144001642Y-99250826D01*
X143977750Y-99252000D01*
X143490250Y-99252000D01*
X143466358Y-99250826D01*
X143442697Y-99247316D01*
X143419493Y-99241504D01*
X143396971Y-99233446D01*
X143375347Y-99223218D01*
X143354830Y-99210921D01*
X143335617Y-99196671D01*
X143317893Y-99180607D01*
X143301829Y-99162883D01*
X143287579Y-99143670D01*
X143275282Y-99123153D01*
X143265054Y-99101529D01*
X143256996Y-99079007D01*
X143251184Y-99055803D01*
X143247674Y-99032142D01*
X143246500Y-99008250D01*
X143246500Y-98095750D01*
X143247674Y-98071858D01*
X143251184Y-98048197D01*
X143256996Y-98024993D01*
X143265054Y-98002471D01*
X143275282Y-97980847D01*
X143287579Y-97960330D01*
X143301829Y-97941117D01*
X143317893Y-97923393D01*
X143335617Y-97907329D01*
X143354830Y-97893079D01*
X143375347Y-97880782D01*
X143396971Y-97870554D01*
X143419493Y-97862496D01*
X143442697Y-97856684D01*
X143466358Y-97853174D01*
X143490250Y-97852000D01*
X143977750Y-97852000D01*
X144001642Y-97853174D01*
X144001642Y-97853174D01*
G37*
D12*
X143734000Y-98552000D03*
G04 #@! TD*
D10*
G04 #@! TO.C,R13*
G36*
X168034642Y-87693174D02*
X168058303Y-87696684D01*
X168081507Y-87702496D01*
X168104029Y-87710554D01*
X168125653Y-87720782D01*
X168146170Y-87733079D01*
X168165383Y-87747329D01*
X168183107Y-87763393D01*
X168199171Y-87781117D01*
X168213421Y-87800330D01*
X168225718Y-87820847D01*
X168235946Y-87842471D01*
X168244004Y-87864993D01*
X168249816Y-87888197D01*
X168253326Y-87911858D01*
X168254500Y-87935750D01*
X168254500Y-88848250D01*
X168253326Y-88872142D01*
X168249816Y-88895803D01*
X168244004Y-88919007D01*
X168235946Y-88941529D01*
X168225718Y-88963153D01*
X168213421Y-88983670D01*
X168199171Y-89002883D01*
X168183107Y-89020607D01*
X168165383Y-89036671D01*
X168146170Y-89050921D01*
X168125653Y-89063218D01*
X168104029Y-89073446D01*
X168081507Y-89081504D01*
X168058303Y-89087316D01*
X168034642Y-89090826D01*
X168010750Y-89092000D01*
X167523250Y-89092000D01*
X167499358Y-89090826D01*
X167475697Y-89087316D01*
X167452493Y-89081504D01*
X167429971Y-89073446D01*
X167408347Y-89063218D01*
X167387830Y-89050921D01*
X167368617Y-89036671D01*
X167350893Y-89020607D01*
X167334829Y-89002883D01*
X167320579Y-88983670D01*
X167308282Y-88963153D01*
X167298054Y-88941529D01*
X167289996Y-88919007D01*
X167284184Y-88895803D01*
X167280674Y-88872142D01*
X167279500Y-88848250D01*
X167279500Y-87935750D01*
X167280674Y-87911858D01*
X167284184Y-87888197D01*
X167289996Y-87864993D01*
X167298054Y-87842471D01*
X167308282Y-87820847D01*
X167320579Y-87800330D01*
X167334829Y-87781117D01*
X167350893Y-87763393D01*
X167368617Y-87747329D01*
X167387830Y-87733079D01*
X167408347Y-87720782D01*
X167429971Y-87710554D01*
X167452493Y-87702496D01*
X167475697Y-87696684D01*
X167499358Y-87693174D01*
X167523250Y-87692000D01*
X168010750Y-87692000D01*
X168034642Y-87693174D01*
X168034642Y-87693174D01*
G37*
D12*
X167767000Y-88392000D03*
D10*
G36*
X166159642Y-87693174D02*
X166183303Y-87696684D01*
X166206507Y-87702496D01*
X166229029Y-87710554D01*
X166250653Y-87720782D01*
X166271170Y-87733079D01*
X166290383Y-87747329D01*
X166308107Y-87763393D01*
X166324171Y-87781117D01*
X166338421Y-87800330D01*
X166350718Y-87820847D01*
X166360946Y-87842471D01*
X166369004Y-87864993D01*
X166374816Y-87888197D01*
X166378326Y-87911858D01*
X166379500Y-87935750D01*
X166379500Y-88848250D01*
X166378326Y-88872142D01*
X166374816Y-88895803D01*
X166369004Y-88919007D01*
X166360946Y-88941529D01*
X166350718Y-88963153D01*
X166338421Y-88983670D01*
X166324171Y-89002883D01*
X166308107Y-89020607D01*
X166290383Y-89036671D01*
X166271170Y-89050921D01*
X166250653Y-89063218D01*
X166229029Y-89073446D01*
X166206507Y-89081504D01*
X166183303Y-89087316D01*
X166159642Y-89090826D01*
X166135750Y-89092000D01*
X165648250Y-89092000D01*
X165624358Y-89090826D01*
X165600697Y-89087316D01*
X165577493Y-89081504D01*
X165554971Y-89073446D01*
X165533347Y-89063218D01*
X165512830Y-89050921D01*
X165493617Y-89036671D01*
X165475893Y-89020607D01*
X165459829Y-89002883D01*
X165445579Y-88983670D01*
X165433282Y-88963153D01*
X165423054Y-88941529D01*
X165414996Y-88919007D01*
X165409184Y-88895803D01*
X165405674Y-88872142D01*
X165404500Y-88848250D01*
X165404500Y-87935750D01*
X165405674Y-87911858D01*
X165409184Y-87888197D01*
X165414996Y-87864993D01*
X165423054Y-87842471D01*
X165433282Y-87820847D01*
X165445579Y-87800330D01*
X165459829Y-87781117D01*
X165475893Y-87763393D01*
X165493617Y-87747329D01*
X165512830Y-87733079D01*
X165533347Y-87720782D01*
X165554971Y-87710554D01*
X165577493Y-87702496D01*
X165600697Y-87696684D01*
X165624358Y-87693174D01*
X165648250Y-87692000D01*
X166135750Y-87692000D01*
X166159642Y-87693174D01*
X166159642Y-87693174D01*
G37*
D12*
X165892000Y-88392000D03*
G04 #@! TD*
D15*
G04 #@! TO.C,Flash*
X143421000Y-109438000D03*
X135471000Y-109438000D03*
X143421000Y-104938000D03*
X135471000Y-104938000D03*
G04 #@! TD*
D16*
G04 #@! TO.C,U1*
X153940000Y-94495000D03*
D17*
X146440000Y-86995000D03*
X146440000Y-88265000D03*
X146440000Y-89535000D03*
X146440000Y-90805000D03*
X146440000Y-92075000D03*
X146440000Y-93345000D03*
X146440000Y-94615000D03*
X146440000Y-95885000D03*
X146440000Y-97155000D03*
X146440000Y-98425000D03*
X146440000Y-99695000D03*
X146440000Y-100965000D03*
X146440000Y-102235000D03*
X146440000Y-103505000D03*
D18*
X149225000Y-104505000D03*
X150495000Y-104505000D03*
X151765000Y-104505000D03*
X153035000Y-104505000D03*
X154305000Y-104505000D03*
X155575000Y-104505000D03*
X156845000Y-104505000D03*
X158115000Y-104505000D03*
X159385000Y-104505000D03*
X160655000Y-104505000D03*
D17*
X163440000Y-103505000D03*
X163440000Y-102235000D03*
X163440000Y-100965000D03*
X163440000Y-99695000D03*
X163440000Y-98425000D03*
X163440000Y-97155000D03*
X163440000Y-95885000D03*
X163440000Y-94615000D03*
X163440000Y-93345000D03*
X163440000Y-92075000D03*
X163440000Y-90805000D03*
X163440000Y-89535000D03*
X163440000Y-88265000D03*
X163440000Y-86995000D03*
G04 #@! TD*
D10*
G04 #@! TO.C,U3*
G36*
X169074703Y-120391722D02*
X169089264Y-120393882D01*
X169103543Y-120397459D01*
X169117403Y-120402418D01*
X169130710Y-120408712D01*
X169143336Y-120416280D01*
X169155159Y-120425048D01*
X169166066Y-120434934D01*
X169175952Y-120445841D01*
X169184720Y-120457664D01*
X169192288Y-120470290D01*
X169198582Y-120483597D01*
X169203541Y-120497457D01*
X169207118Y-120511736D01*
X169209278Y-120526297D01*
X169210000Y-120541000D01*
X169210000Y-121791000D01*
X169209278Y-121805703D01*
X169207118Y-121820264D01*
X169203541Y-121834543D01*
X169198582Y-121848403D01*
X169192288Y-121861710D01*
X169184720Y-121874336D01*
X169175952Y-121886159D01*
X169166066Y-121897066D01*
X169155159Y-121906952D01*
X169143336Y-121915720D01*
X169130710Y-121923288D01*
X169117403Y-121929582D01*
X169103543Y-121934541D01*
X169089264Y-121938118D01*
X169074703Y-121940278D01*
X169060000Y-121941000D01*
X168760000Y-121941000D01*
X168745297Y-121940278D01*
X168730736Y-121938118D01*
X168716457Y-121934541D01*
X168702597Y-121929582D01*
X168689290Y-121923288D01*
X168676664Y-121915720D01*
X168664841Y-121906952D01*
X168653934Y-121897066D01*
X168644048Y-121886159D01*
X168635280Y-121874336D01*
X168627712Y-121861710D01*
X168621418Y-121848403D01*
X168616459Y-121834543D01*
X168612882Y-121820264D01*
X168610722Y-121805703D01*
X168610000Y-121791000D01*
X168610000Y-120541000D01*
X168610722Y-120526297D01*
X168612882Y-120511736D01*
X168616459Y-120497457D01*
X168621418Y-120483597D01*
X168627712Y-120470290D01*
X168635280Y-120457664D01*
X168644048Y-120445841D01*
X168653934Y-120434934D01*
X168664841Y-120425048D01*
X168676664Y-120416280D01*
X168689290Y-120408712D01*
X168702597Y-120402418D01*
X168716457Y-120397459D01*
X168730736Y-120393882D01*
X168745297Y-120391722D01*
X168760000Y-120391000D01*
X169060000Y-120391000D01*
X169074703Y-120391722D01*
X169074703Y-120391722D01*
G37*
D19*
X168910000Y-121166000D03*
D10*
G36*
X170344703Y-120391722D02*
X170359264Y-120393882D01*
X170373543Y-120397459D01*
X170387403Y-120402418D01*
X170400710Y-120408712D01*
X170413336Y-120416280D01*
X170425159Y-120425048D01*
X170436066Y-120434934D01*
X170445952Y-120445841D01*
X170454720Y-120457664D01*
X170462288Y-120470290D01*
X170468582Y-120483597D01*
X170473541Y-120497457D01*
X170477118Y-120511736D01*
X170479278Y-120526297D01*
X170480000Y-120541000D01*
X170480000Y-121791000D01*
X170479278Y-121805703D01*
X170477118Y-121820264D01*
X170473541Y-121834543D01*
X170468582Y-121848403D01*
X170462288Y-121861710D01*
X170454720Y-121874336D01*
X170445952Y-121886159D01*
X170436066Y-121897066D01*
X170425159Y-121906952D01*
X170413336Y-121915720D01*
X170400710Y-121923288D01*
X170387403Y-121929582D01*
X170373543Y-121934541D01*
X170359264Y-121938118D01*
X170344703Y-121940278D01*
X170330000Y-121941000D01*
X170030000Y-121941000D01*
X170015297Y-121940278D01*
X170000736Y-121938118D01*
X169986457Y-121934541D01*
X169972597Y-121929582D01*
X169959290Y-121923288D01*
X169946664Y-121915720D01*
X169934841Y-121906952D01*
X169923934Y-121897066D01*
X169914048Y-121886159D01*
X169905280Y-121874336D01*
X169897712Y-121861710D01*
X169891418Y-121848403D01*
X169886459Y-121834543D01*
X169882882Y-121820264D01*
X169880722Y-121805703D01*
X169880000Y-121791000D01*
X169880000Y-120541000D01*
X169880722Y-120526297D01*
X169882882Y-120511736D01*
X169886459Y-120497457D01*
X169891418Y-120483597D01*
X169897712Y-120470290D01*
X169905280Y-120457664D01*
X169914048Y-120445841D01*
X169923934Y-120434934D01*
X169934841Y-120425048D01*
X169946664Y-120416280D01*
X169959290Y-120408712D01*
X169972597Y-120402418D01*
X169986457Y-120397459D01*
X170000736Y-120393882D01*
X170015297Y-120391722D01*
X170030000Y-120391000D01*
X170330000Y-120391000D01*
X170344703Y-120391722D01*
X170344703Y-120391722D01*
G37*
D19*
X170180000Y-121166000D03*
D10*
G36*
X171614703Y-120391722D02*
X171629264Y-120393882D01*
X171643543Y-120397459D01*
X171657403Y-120402418D01*
X171670710Y-120408712D01*
X171683336Y-120416280D01*
X171695159Y-120425048D01*
X171706066Y-120434934D01*
X171715952Y-120445841D01*
X171724720Y-120457664D01*
X171732288Y-120470290D01*
X171738582Y-120483597D01*
X171743541Y-120497457D01*
X171747118Y-120511736D01*
X171749278Y-120526297D01*
X171750000Y-120541000D01*
X171750000Y-121791000D01*
X171749278Y-121805703D01*
X171747118Y-121820264D01*
X171743541Y-121834543D01*
X171738582Y-121848403D01*
X171732288Y-121861710D01*
X171724720Y-121874336D01*
X171715952Y-121886159D01*
X171706066Y-121897066D01*
X171695159Y-121906952D01*
X171683336Y-121915720D01*
X171670710Y-121923288D01*
X171657403Y-121929582D01*
X171643543Y-121934541D01*
X171629264Y-121938118D01*
X171614703Y-121940278D01*
X171600000Y-121941000D01*
X171300000Y-121941000D01*
X171285297Y-121940278D01*
X171270736Y-121938118D01*
X171256457Y-121934541D01*
X171242597Y-121929582D01*
X171229290Y-121923288D01*
X171216664Y-121915720D01*
X171204841Y-121906952D01*
X171193934Y-121897066D01*
X171184048Y-121886159D01*
X171175280Y-121874336D01*
X171167712Y-121861710D01*
X171161418Y-121848403D01*
X171156459Y-121834543D01*
X171152882Y-121820264D01*
X171150722Y-121805703D01*
X171150000Y-121791000D01*
X171150000Y-120541000D01*
X171150722Y-120526297D01*
X171152882Y-120511736D01*
X171156459Y-120497457D01*
X171161418Y-120483597D01*
X171167712Y-120470290D01*
X171175280Y-120457664D01*
X171184048Y-120445841D01*
X171193934Y-120434934D01*
X171204841Y-120425048D01*
X171216664Y-120416280D01*
X171229290Y-120408712D01*
X171242597Y-120402418D01*
X171256457Y-120397459D01*
X171270736Y-120393882D01*
X171285297Y-120391722D01*
X171300000Y-120391000D01*
X171600000Y-120391000D01*
X171614703Y-120391722D01*
X171614703Y-120391722D01*
G37*
D19*
X171450000Y-121166000D03*
D10*
G36*
X172884703Y-120391722D02*
X172899264Y-120393882D01*
X172913543Y-120397459D01*
X172927403Y-120402418D01*
X172940710Y-120408712D01*
X172953336Y-120416280D01*
X172965159Y-120425048D01*
X172976066Y-120434934D01*
X172985952Y-120445841D01*
X172994720Y-120457664D01*
X173002288Y-120470290D01*
X173008582Y-120483597D01*
X173013541Y-120497457D01*
X173017118Y-120511736D01*
X173019278Y-120526297D01*
X173020000Y-120541000D01*
X173020000Y-121791000D01*
X173019278Y-121805703D01*
X173017118Y-121820264D01*
X173013541Y-121834543D01*
X173008582Y-121848403D01*
X173002288Y-121861710D01*
X172994720Y-121874336D01*
X172985952Y-121886159D01*
X172976066Y-121897066D01*
X172965159Y-121906952D01*
X172953336Y-121915720D01*
X172940710Y-121923288D01*
X172927403Y-121929582D01*
X172913543Y-121934541D01*
X172899264Y-121938118D01*
X172884703Y-121940278D01*
X172870000Y-121941000D01*
X172570000Y-121941000D01*
X172555297Y-121940278D01*
X172540736Y-121938118D01*
X172526457Y-121934541D01*
X172512597Y-121929582D01*
X172499290Y-121923288D01*
X172486664Y-121915720D01*
X172474841Y-121906952D01*
X172463934Y-121897066D01*
X172454048Y-121886159D01*
X172445280Y-121874336D01*
X172437712Y-121861710D01*
X172431418Y-121848403D01*
X172426459Y-121834543D01*
X172422882Y-121820264D01*
X172420722Y-121805703D01*
X172420000Y-121791000D01*
X172420000Y-120541000D01*
X172420722Y-120526297D01*
X172422882Y-120511736D01*
X172426459Y-120497457D01*
X172431418Y-120483597D01*
X172437712Y-120470290D01*
X172445280Y-120457664D01*
X172454048Y-120445841D01*
X172463934Y-120434934D01*
X172474841Y-120425048D01*
X172486664Y-120416280D01*
X172499290Y-120408712D01*
X172512597Y-120402418D01*
X172526457Y-120397459D01*
X172540736Y-120393882D01*
X172555297Y-120391722D01*
X172570000Y-120391000D01*
X172870000Y-120391000D01*
X172884703Y-120391722D01*
X172884703Y-120391722D01*
G37*
D19*
X172720000Y-121166000D03*
D10*
G36*
X172884703Y-115041722D02*
X172899264Y-115043882D01*
X172913543Y-115047459D01*
X172927403Y-115052418D01*
X172940710Y-115058712D01*
X172953336Y-115066280D01*
X172965159Y-115075048D01*
X172976066Y-115084934D01*
X172985952Y-115095841D01*
X172994720Y-115107664D01*
X173002288Y-115120290D01*
X173008582Y-115133597D01*
X173013541Y-115147457D01*
X173017118Y-115161736D01*
X173019278Y-115176297D01*
X173020000Y-115191000D01*
X173020000Y-116441000D01*
X173019278Y-116455703D01*
X173017118Y-116470264D01*
X173013541Y-116484543D01*
X173008582Y-116498403D01*
X173002288Y-116511710D01*
X172994720Y-116524336D01*
X172985952Y-116536159D01*
X172976066Y-116547066D01*
X172965159Y-116556952D01*
X172953336Y-116565720D01*
X172940710Y-116573288D01*
X172927403Y-116579582D01*
X172913543Y-116584541D01*
X172899264Y-116588118D01*
X172884703Y-116590278D01*
X172870000Y-116591000D01*
X172570000Y-116591000D01*
X172555297Y-116590278D01*
X172540736Y-116588118D01*
X172526457Y-116584541D01*
X172512597Y-116579582D01*
X172499290Y-116573288D01*
X172486664Y-116565720D01*
X172474841Y-116556952D01*
X172463934Y-116547066D01*
X172454048Y-116536159D01*
X172445280Y-116524336D01*
X172437712Y-116511710D01*
X172431418Y-116498403D01*
X172426459Y-116484543D01*
X172422882Y-116470264D01*
X172420722Y-116455703D01*
X172420000Y-116441000D01*
X172420000Y-115191000D01*
X172420722Y-115176297D01*
X172422882Y-115161736D01*
X172426459Y-115147457D01*
X172431418Y-115133597D01*
X172437712Y-115120290D01*
X172445280Y-115107664D01*
X172454048Y-115095841D01*
X172463934Y-115084934D01*
X172474841Y-115075048D01*
X172486664Y-115066280D01*
X172499290Y-115058712D01*
X172512597Y-115052418D01*
X172526457Y-115047459D01*
X172540736Y-115043882D01*
X172555297Y-115041722D01*
X172570000Y-115041000D01*
X172870000Y-115041000D01*
X172884703Y-115041722D01*
X172884703Y-115041722D01*
G37*
D19*
X172720000Y-115816000D03*
D10*
G36*
X171614703Y-115041722D02*
X171629264Y-115043882D01*
X171643543Y-115047459D01*
X171657403Y-115052418D01*
X171670710Y-115058712D01*
X171683336Y-115066280D01*
X171695159Y-115075048D01*
X171706066Y-115084934D01*
X171715952Y-115095841D01*
X171724720Y-115107664D01*
X171732288Y-115120290D01*
X171738582Y-115133597D01*
X171743541Y-115147457D01*
X171747118Y-115161736D01*
X171749278Y-115176297D01*
X171750000Y-115191000D01*
X171750000Y-116441000D01*
X171749278Y-116455703D01*
X171747118Y-116470264D01*
X171743541Y-116484543D01*
X171738582Y-116498403D01*
X171732288Y-116511710D01*
X171724720Y-116524336D01*
X171715952Y-116536159D01*
X171706066Y-116547066D01*
X171695159Y-116556952D01*
X171683336Y-116565720D01*
X171670710Y-116573288D01*
X171657403Y-116579582D01*
X171643543Y-116584541D01*
X171629264Y-116588118D01*
X171614703Y-116590278D01*
X171600000Y-116591000D01*
X171300000Y-116591000D01*
X171285297Y-116590278D01*
X171270736Y-116588118D01*
X171256457Y-116584541D01*
X171242597Y-116579582D01*
X171229290Y-116573288D01*
X171216664Y-116565720D01*
X171204841Y-116556952D01*
X171193934Y-116547066D01*
X171184048Y-116536159D01*
X171175280Y-116524336D01*
X171167712Y-116511710D01*
X171161418Y-116498403D01*
X171156459Y-116484543D01*
X171152882Y-116470264D01*
X171150722Y-116455703D01*
X171150000Y-116441000D01*
X171150000Y-115191000D01*
X171150722Y-115176297D01*
X171152882Y-115161736D01*
X171156459Y-115147457D01*
X171161418Y-115133597D01*
X171167712Y-115120290D01*
X171175280Y-115107664D01*
X171184048Y-115095841D01*
X171193934Y-115084934D01*
X171204841Y-115075048D01*
X171216664Y-115066280D01*
X171229290Y-115058712D01*
X171242597Y-115052418D01*
X171256457Y-115047459D01*
X171270736Y-115043882D01*
X171285297Y-115041722D01*
X171300000Y-115041000D01*
X171600000Y-115041000D01*
X171614703Y-115041722D01*
X171614703Y-115041722D01*
G37*
D19*
X171450000Y-115816000D03*
D10*
G36*
X170344703Y-115041722D02*
X170359264Y-115043882D01*
X170373543Y-115047459D01*
X170387403Y-115052418D01*
X170400710Y-115058712D01*
X170413336Y-115066280D01*
X170425159Y-115075048D01*
X170436066Y-115084934D01*
X170445952Y-115095841D01*
X170454720Y-115107664D01*
X170462288Y-115120290D01*
X170468582Y-115133597D01*
X170473541Y-115147457D01*
X170477118Y-115161736D01*
X170479278Y-115176297D01*
X170480000Y-115191000D01*
X170480000Y-116441000D01*
X170479278Y-116455703D01*
X170477118Y-116470264D01*
X170473541Y-116484543D01*
X170468582Y-116498403D01*
X170462288Y-116511710D01*
X170454720Y-116524336D01*
X170445952Y-116536159D01*
X170436066Y-116547066D01*
X170425159Y-116556952D01*
X170413336Y-116565720D01*
X170400710Y-116573288D01*
X170387403Y-116579582D01*
X170373543Y-116584541D01*
X170359264Y-116588118D01*
X170344703Y-116590278D01*
X170330000Y-116591000D01*
X170030000Y-116591000D01*
X170015297Y-116590278D01*
X170000736Y-116588118D01*
X169986457Y-116584541D01*
X169972597Y-116579582D01*
X169959290Y-116573288D01*
X169946664Y-116565720D01*
X169934841Y-116556952D01*
X169923934Y-116547066D01*
X169914048Y-116536159D01*
X169905280Y-116524336D01*
X169897712Y-116511710D01*
X169891418Y-116498403D01*
X169886459Y-116484543D01*
X169882882Y-116470264D01*
X169880722Y-116455703D01*
X169880000Y-116441000D01*
X169880000Y-115191000D01*
X169880722Y-115176297D01*
X169882882Y-115161736D01*
X169886459Y-115147457D01*
X169891418Y-115133597D01*
X169897712Y-115120290D01*
X169905280Y-115107664D01*
X169914048Y-115095841D01*
X169923934Y-115084934D01*
X169934841Y-115075048D01*
X169946664Y-115066280D01*
X169959290Y-115058712D01*
X169972597Y-115052418D01*
X169986457Y-115047459D01*
X170000736Y-115043882D01*
X170015297Y-115041722D01*
X170030000Y-115041000D01*
X170330000Y-115041000D01*
X170344703Y-115041722D01*
X170344703Y-115041722D01*
G37*
D19*
X170180000Y-115816000D03*
D10*
G36*
X169074703Y-115041722D02*
X169089264Y-115043882D01*
X169103543Y-115047459D01*
X169117403Y-115052418D01*
X169130710Y-115058712D01*
X169143336Y-115066280D01*
X169155159Y-115075048D01*
X169166066Y-115084934D01*
X169175952Y-115095841D01*
X169184720Y-115107664D01*
X169192288Y-115120290D01*
X169198582Y-115133597D01*
X169203541Y-115147457D01*
X169207118Y-115161736D01*
X169209278Y-115176297D01*
X169210000Y-115191000D01*
X169210000Y-116441000D01*
X169209278Y-116455703D01*
X169207118Y-116470264D01*
X169203541Y-116484543D01*
X169198582Y-116498403D01*
X169192288Y-116511710D01*
X169184720Y-116524336D01*
X169175952Y-116536159D01*
X169166066Y-116547066D01*
X169155159Y-116556952D01*
X169143336Y-116565720D01*
X169130710Y-116573288D01*
X169117403Y-116579582D01*
X169103543Y-116584541D01*
X169089264Y-116588118D01*
X169074703Y-116590278D01*
X169060000Y-116591000D01*
X168760000Y-116591000D01*
X168745297Y-116590278D01*
X168730736Y-116588118D01*
X168716457Y-116584541D01*
X168702597Y-116579582D01*
X168689290Y-116573288D01*
X168676664Y-116565720D01*
X168664841Y-116556952D01*
X168653934Y-116547066D01*
X168644048Y-116536159D01*
X168635280Y-116524336D01*
X168627712Y-116511710D01*
X168621418Y-116498403D01*
X168616459Y-116484543D01*
X168612882Y-116470264D01*
X168610722Y-116455703D01*
X168610000Y-116441000D01*
X168610000Y-115191000D01*
X168610722Y-115176297D01*
X168612882Y-115161736D01*
X168616459Y-115147457D01*
X168621418Y-115133597D01*
X168627712Y-115120290D01*
X168635280Y-115107664D01*
X168644048Y-115095841D01*
X168653934Y-115084934D01*
X168664841Y-115075048D01*
X168676664Y-115066280D01*
X168689290Y-115058712D01*
X168702597Y-115052418D01*
X168716457Y-115047459D01*
X168730736Y-115043882D01*
X168745297Y-115041722D01*
X168760000Y-115041000D01*
X169060000Y-115041000D01*
X169074703Y-115041722D01*
X169074703Y-115041722D01*
G37*
D19*
X168910000Y-115816000D03*
G04 #@! TD*
D20*
G04 #@! TO.C,SW2*
X161671000Y-113805000D03*
X143891000Y-122415000D03*
X159131000Y-113805000D03*
X146431000Y-122415000D03*
X156591000Y-113805000D03*
X148971000Y-122415000D03*
X154051000Y-113805000D03*
X151511000Y-122415000D03*
X151511000Y-113805000D03*
X154051000Y-122415000D03*
X148971000Y-113805000D03*
X156591000Y-122415000D03*
X146431000Y-113805000D03*
X159131000Y-122415000D03*
X143891000Y-113805000D03*
X161671000Y-122415000D03*
G04 #@! TD*
D10*
G04 #@! TO.C,D1*
G36*
X175486142Y-115289174D02*
X175509803Y-115292684D01*
X175533007Y-115298496D01*
X175555529Y-115306554D01*
X175577153Y-115316782D01*
X175597670Y-115329079D01*
X175616883Y-115343329D01*
X175634607Y-115359393D01*
X175650671Y-115377117D01*
X175664921Y-115396330D01*
X175677218Y-115416847D01*
X175687446Y-115438471D01*
X175695504Y-115460993D01*
X175701316Y-115484197D01*
X175704826Y-115507858D01*
X175706000Y-115531750D01*
X175706000Y-116019250D01*
X175704826Y-116043142D01*
X175701316Y-116066803D01*
X175695504Y-116090007D01*
X175687446Y-116112529D01*
X175677218Y-116134153D01*
X175664921Y-116154670D01*
X175650671Y-116173883D01*
X175634607Y-116191607D01*
X175616883Y-116207671D01*
X175597670Y-116221921D01*
X175577153Y-116234218D01*
X175555529Y-116244446D01*
X175533007Y-116252504D01*
X175509803Y-116258316D01*
X175486142Y-116261826D01*
X175462250Y-116263000D01*
X174549750Y-116263000D01*
X174525858Y-116261826D01*
X174502197Y-116258316D01*
X174478993Y-116252504D01*
X174456471Y-116244446D01*
X174434847Y-116234218D01*
X174414330Y-116221921D01*
X174395117Y-116207671D01*
X174377393Y-116191607D01*
X174361329Y-116173883D01*
X174347079Y-116154670D01*
X174334782Y-116134153D01*
X174324554Y-116112529D01*
X174316496Y-116090007D01*
X174310684Y-116066803D01*
X174307174Y-116043142D01*
X174306000Y-116019250D01*
X174306000Y-115531750D01*
X174307174Y-115507858D01*
X174310684Y-115484197D01*
X174316496Y-115460993D01*
X174324554Y-115438471D01*
X174334782Y-115416847D01*
X174347079Y-115396330D01*
X174361329Y-115377117D01*
X174377393Y-115359393D01*
X174395117Y-115343329D01*
X174414330Y-115329079D01*
X174434847Y-115316782D01*
X174456471Y-115306554D01*
X174478993Y-115298496D01*
X174502197Y-115292684D01*
X174525858Y-115289174D01*
X174549750Y-115288000D01*
X175462250Y-115288000D01*
X175486142Y-115289174D01*
X175486142Y-115289174D01*
G37*
D12*
X175006000Y-115775500D03*
D10*
G36*
X175486142Y-117164174D02*
X175509803Y-117167684D01*
X175533007Y-117173496D01*
X175555529Y-117181554D01*
X175577153Y-117191782D01*
X175597670Y-117204079D01*
X175616883Y-117218329D01*
X175634607Y-117234393D01*
X175650671Y-117252117D01*
X175664921Y-117271330D01*
X175677218Y-117291847D01*
X175687446Y-117313471D01*
X175695504Y-117335993D01*
X175701316Y-117359197D01*
X175704826Y-117382858D01*
X175706000Y-117406750D01*
X175706000Y-117894250D01*
X175704826Y-117918142D01*
X175701316Y-117941803D01*
X175695504Y-117965007D01*
X175687446Y-117987529D01*
X175677218Y-118009153D01*
X175664921Y-118029670D01*
X175650671Y-118048883D01*
X175634607Y-118066607D01*
X175616883Y-118082671D01*
X175597670Y-118096921D01*
X175577153Y-118109218D01*
X175555529Y-118119446D01*
X175533007Y-118127504D01*
X175509803Y-118133316D01*
X175486142Y-118136826D01*
X175462250Y-118138000D01*
X174549750Y-118138000D01*
X174525858Y-118136826D01*
X174502197Y-118133316D01*
X174478993Y-118127504D01*
X174456471Y-118119446D01*
X174434847Y-118109218D01*
X174414330Y-118096921D01*
X174395117Y-118082671D01*
X174377393Y-118066607D01*
X174361329Y-118048883D01*
X174347079Y-118029670D01*
X174334782Y-118009153D01*
X174324554Y-117987529D01*
X174316496Y-117965007D01*
X174310684Y-117941803D01*
X174307174Y-117918142D01*
X174306000Y-117894250D01*
X174306000Y-117406750D01*
X174307174Y-117382858D01*
X174310684Y-117359197D01*
X174316496Y-117335993D01*
X174324554Y-117313471D01*
X174334782Y-117291847D01*
X174347079Y-117271330D01*
X174361329Y-117252117D01*
X174377393Y-117234393D01*
X174395117Y-117218329D01*
X174414330Y-117204079D01*
X174434847Y-117191782D01*
X174456471Y-117181554D01*
X174478993Y-117173496D01*
X174502197Y-117167684D01*
X174525858Y-117164174D01*
X174549750Y-117163000D01*
X175462250Y-117163000D01*
X175486142Y-117164174D01*
X175486142Y-117164174D01*
G37*
D12*
X175006000Y-117650500D03*
G04 #@! TD*
D10*
G04 #@! TO.C,D2*
G36*
X177645142Y-117115674D02*
X177668803Y-117119184D01*
X177692007Y-117124996D01*
X177714529Y-117133054D01*
X177736153Y-117143282D01*
X177756670Y-117155579D01*
X177775883Y-117169829D01*
X177793607Y-117185893D01*
X177809671Y-117203617D01*
X177823921Y-117222830D01*
X177836218Y-117243347D01*
X177846446Y-117264971D01*
X177854504Y-117287493D01*
X177860316Y-117310697D01*
X177863826Y-117334358D01*
X177865000Y-117358250D01*
X177865000Y-117845750D01*
X177863826Y-117869642D01*
X177860316Y-117893303D01*
X177854504Y-117916507D01*
X177846446Y-117939029D01*
X177836218Y-117960653D01*
X177823921Y-117981170D01*
X177809671Y-118000383D01*
X177793607Y-118018107D01*
X177775883Y-118034171D01*
X177756670Y-118048421D01*
X177736153Y-118060718D01*
X177714529Y-118070946D01*
X177692007Y-118079004D01*
X177668803Y-118084816D01*
X177645142Y-118088326D01*
X177621250Y-118089500D01*
X176708750Y-118089500D01*
X176684858Y-118088326D01*
X176661197Y-118084816D01*
X176637993Y-118079004D01*
X176615471Y-118070946D01*
X176593847Y-118060718D01*
X176573330Y-118048421D01*
X176554117Y-118034171D01*
X176536393Y-118018107D01*
X176520329Y-118000383D01*
X176506079Y-117981170D01*
X176493782Y-117960653D01*
X176483554Y-117939029D01*
X176475496Y-117916507D01*
X176469684Y-117893303D01*
X176466174Y-117869642D01*
X176465000Y-117845750D01*
X176465000Y-117358250D01*
X176466174Y-117334358D01*
X176469684Y-117310697D01*
X176475496Y-117287493D01*
X176483554Y-117264971D01*
X176493782Y-117243347D01*
X176506079Y-117222830D01*
X176520329Y-117203617D01*
X176536393Y-117185893D01*
X176554117Y-117169829D01*
X176573330Y-117155579D01*
X176593847Y-117143282D01*
X176615471Y-117133054D01*
X176637993Y-117124996D01*
X176661197Y-117119184D01*
X176684858Y-117115674D01*
X176708750Y-117114500D01*
X177621250Y-117114500D01*
X177645142Y-117115674D01*
X177645142Y-117115674D01*
G37*
D12*
X177165000Y-117602000D03*
D10*
G36*
X177645142Y-115240674D02*
X177668803Y-115244184D01*
X177692007Y-115249996D01*
X177714529Y-115258054D01*
X177736153Y-115268282D01*
X177756670Y-115280579D01*
X177775883Y-115294829D01*
X177793607Y-115310893D01*
X177809671Y-115328617D01*
X177823921Y-115347830D01*
X177836218Y-115368347D01*
X177846446Y-115389971D01*
X177854504Y-115412493D01*
X177860316Y-115435697D01*
X177863826Y-115459358D01*
X177865000Y-115483250D01*
X177865000Y-115970750D01*
X177863826Y-115994642D01*
X177860316Y-116018303D01*
X177854504Y-116041507D01*
X177846446Y-116064029D01*
X177836218Y-116085653D01*
X177823921Y-116106170D01*
X177809671Y-116125383D01*
X177793607Y-116143107D01*
X177775883Y-116159171D01*
X177756670Y-116173421D01*
X177736153Y-116185718D01*
X177714529Y-116195946D01*
X177692007Y-116204004D01*
X177668803Y-116209816D01*
X177645142Y-116213326D01*
X177621250Y-116214500D01*
X176708750Y-116214500D01*
X176684858Y-116213326D01*
X176661197Y-116209816D01*
X176637993Y-116204004D01*
X176615471Y-116195946D01*
X176593847Y-116185718D01*
X176573330Y-116173421D01*
X176554117Y-116159171D01*
X176536393Y-116143107D01*
X176520329Y-116125383D01*
X176506079Y-116106170D01*
X176493782Y-116085653D01*
X176483554Y-116064029D01*
X176475496Y-116041507D01*
X176469684Y-116018303D01*
X176466174Y-115994642D01*
X176465000Y-115970750D01*
X176465000Y-115483250D01*
X176466174Y-115459358D01*
X176469684Y-115435697D01*
X176475496Y-115412493D01*
X176483554Y-115389971D01*
X176493782Y-115368347D01*
X176506079Y-115347830D01*
X176520329Y-115328617D01*
X176536393Y-115310893D01*
X176554117Y-115294829D01*
X176573330Y-115280579D01*
X176593847Y-115268282D01*
X176615471Y-115258054D01*
X176637993Y-115249996D01*
X176661197Y-115244184D01*
X176684858Y-115240674D01*
X176708750Y-115239500D01*
X177621250Y-115239500D01*
X177645142Y-115240674D01*
X177645142Y-115240674D01*
G37*
D12*
X177165000Y-115727000D03*
G04 #@! TD*
M02*
